M48
;GenerationSoftware,Autodesk,EAGLE,9.6.2*%
;CreationDate,2021-09-01T22:21:01Z*%
FMAT,2
ICI,OFF
METRIC,TZ,000.000
T5C0.350
T4C0.800
T3C0.813
T2C1.000
T1C1.016
%
G90
M71
T1
X45000Y45000
X45000Y25000
X65000Y25000
X65000Y5000
X5000Y5000
X25000Y45000
X8000Y5000
X65000Y45000
X5000Y65000
X25000Y65000
X45000Y65000
X65000Y65000
X5000Y45000
X65000Y8000
X62000Y65000
X25000Y5000
X5000Y62000
X5000Y8000
X62000Y5000
X65000Y62000
X8000Y65000
X65000Y28650
X65000Y31190
X65000Y33730
X65000Y36270
X65000Y38810
X65000Y41350
X45000Y5000
X5000Y25000
X25000Y25000
T2
X55000Y41000
T3
X46430Y31190
X43890Y31190
X31190Y31190
X28650Y31190
X41350Y31190
X38810Y31190
X33730Y31190
X36270Y31190
X26110Y31190
X23570Y31190
X23570Y38810
X26110Y38810
X28650Y38810
X31190Y38810
X33730Y38810
X36270Y38810
X38810Y38810
X41350Y38810
X43890Y38810
X46430Y38810
T4
X59800Y44000
X55000Y47000
T5
X2000Y30000
X2000Y25000
X2000Y20000
X2000Y15000
X10000Y25000
X15000Y15000
X20000Y15000
X20000Y10000
X25000Y10000
X45000Y10000
X50000Y10000
X50000Y15000
X45000Y15000
X40000Y10000
X60000Y25000
X15000Y45000
X10000Y45000
X20000Y50000
X25000Y55000
X20000Y60000
X45000Y60000
X50000Y60000
X45000Y50000
X50000Y40000
X60000Y35000
X60000Y30000
X20000Y30000
X30000Y15000
X30000Y50000
X15000Y50000
X15000Y60000
X35000Y25000
X35000Y45000
X35000Y65000
X35000Y5000
X5000Y35000
X9500Y6000
X64000Y9500
X60500Y64000
X6000Y60500
X4250Y18500
X18500Y5750
X51500Y4250
X64250Y18500
X65750Y51500
X51500Y64250
X18500Y65750
X5750Y51500
X21500Y35750
X68000Y30000
X36000Y23000
X34000Y16000
X61000Y19000
X32000Y10000
X34000Y27000
X34000Y14000
X3000Y34000
X35000Y15000
X56500Y13500
X39000Y16000
X36000Y3000
X38000Y10000
X34000Y7000
X39000Y14000
X13500Y13500
X36000Y16000
X36000Y63000
X36000Y56250
X56500Y56500
X32000Y54000
X34000Y67000
X37500Y56250
X13500Y56500
X36000Y54000
X61000Y47000
X39500Y55000
X36000Y43000
X39000Y53750
X34000Y47000
X39000Y50000
X7000Y36000
X40000Y56250
X11000Y30000
X60750Y53750
X12000Y29000
X53750Y9500
X17000Y30000
X55250Y60750
X17000Y27000
X60750Y14750
X29500Y57250
X27500Y57250
X15000Y30000
X9250Y55250
X14000Y40000
X13000Y41000
X11000Y40000
X9000Y41000
X6000Y18500
X18500Y4000
X51500Y6000
X64000Y51500
X18500Y64000
X2000Y10000
X2000Y5000
X5000Y2000
X10000Y2000
X15000Y2000
X20000Y2000
X25000Y2000
X30000Y2000
X35000Y2000
X40000Y2000
X45000Y2000
X50000Y2000
X55000Y2000
X60000Y2000
X65000Y2000
X68000Y5000
X68000Y10000
X68000Y15000
X68000Y20000
X68000Y25000
X68000Y35000
X68000Y40000
X51750Y34000
X68000Y45000
X68000Y50000
X68000Y55000
X68000Y60000
X68000Y65000
X65000Y68000
X60000Y68000
X55000Y68000
X50000Y68000
X45000Y68000
X40000Y68000
X35000Y68000
X30000Y68000
X25000Y68000
X20000Y68000
X15000Y68000
X10000Y68000
X5000Y68000
X2000Y65000
X2000Y60000
X2000Y55000
X2000Y50000
X2000Y45000
X2000Y40000
X2000Y35000
M30