G04 EAGLE Gerber RS-274X export*
G75*
%MOMM*%
%FSLAX34Y34*%
%LPD*%
%INTop Copper*%
%IPPOS*%
%AMOC8*
5,1,8,0,0,1.08239X$1,22.5*%
G01*
%ADD10C,2.184400*%
%ADD11P,1.649562X8X202.500000*%
%ADD12C,1.524000*%
%ADD13C,1.320800*%
%ADD14C,0.756400*%
%ADD15C,0.508000*%
%ADD16C,0.254000*%

G36*
X670080Y10167D02*
X670080Y10167D01*
X670208Y10168D01*
X672383Y10310D01*
X672496Y10327D01*
X672610Y10333D01*
X672787Y10369D01*
X672881Y10383D01*
X672929Y10398D01*
X672997Y10411D01*
X677199Y11537D01*
X677404Y11610D01*
X677611Y11679D01*
X677646Y11696D01*
X677673Y11706D01*
X677753Y11750D01*
X677965Y11855D01*
X681732Y14030D01*
X681911Y14153D01*
X682094Y14273D01*
X682123Y14299D01*
X682147Y14315D01*
X682213Y14378D01*
X682390Y14534D01*
X685466Y17610D01*
X685607Y17776D01*
X685752Y17939D01*
X685773Y17971D01*
X685792Y17994D01*
X685840Y18071D01*
X685970Y18268D01*
X688145Y22035D01*
X688239Y22232D01*
X688337Y22427D01*
X688349Y22464D01*
X688362Y22490D01*
X688387Y22577D01*
X688463Y22801D01*
X689589Y27003D01*
X689609Y27115D01*
X689640Y27226D01*
X689663Y27405D01*
X689680Y27498D01*
X689681Y27548D01*
X689690Y27617D01*
X689832Y29792D01*
X689831Y29873D01*
X689839Y30000D01*
X689839Y670000D01*
X689833Y670080D01*
X689832Y670208D01*
X689690Y672383D01*
X689673Y672496D01*
X689667Y672610D01*
X689631Y672787D01*
X689617Y672881D01*
X689602Y672929D01*
X689589Y672997D01*
X688463Y677199D01*
X688390Y677404D01*
X688321Y677611D01*
X688304Y677646D01*
X688294Y677673D01*
X688250Y677753D01*
X688145Y677965D01*
X685970Y681732D01*
X685847Y681911D01*
X685727Y682094D01*
X685701Y682123D01*
X685685Y682147D01*
X685622Y682213D01*
X685466Y682390D01*
X682390Y685466D01*
X682224Y685607D01*
X682061Y685752D01*
X682029Y685773D01*
X682006Y685792D01*
X681929Y685840D01*
X681732Y685970D01*
X677965Y688145D01*
X677768Y688239D01*
X677573Y688337D01*
X677536Y688349D01*
X677510Y688362D01*
X677423Y688387D01*
X677199Y688463D01*
X672997Y689589D01*
X672885Y689609D01*
X672774Y689640D01*
X672595Y689663D01*
X672502Y689680D01*
X672452Y689681D01*
X672383Y689690D01*
X670208Y689832D01*
X670127Y689831D01*
X670000Y689839D01*
X30000Y689839D01*
X29920Y689833D01*
X29792Y689832D01*
X27617Y689690D01*
X27504Y689673D01*
X27390Y689667D01*
X27213Y689631D01*
X27119Y689617D01*
X27071Y689602D01*
X27003Y689589D01*
X22801Y688463D01*
X22596Y688390D01*
X22389Y688321D01*
X22354Y688304D01*
X22327Y688294D01*
X22247Y688250D01*
X22035Y688145D01*
X18268Y685970D01*
X18089Y685847D01*
X17906Y685727D01*
X17877Y685701D01*
X17853Y685685D01*
X17787Y685622D01*
X17610Y685466D01*
X14534Y682390D01*
X14393Y682224D01*
X14248Y682061D01*
X14227Y682029D01*
X14208Y682006D01*
X14160Y681929D01*
X14030Y681732D01*
X11855Y677965D01*
X11761Y677768D01*
X11663Y677573D01*
X11651Y677536D01*
X11638Y677510D01*
X11613Y677423D01*
X11537Y677199D01*
X10411Y672997D01*
X10391Y672885D01*
X10360Y672774D01*
X10337Y672595D01*
X10320Y672502D01*
X10319Y672452D01*
X10310Y672383D01*
X10168Y670208D01*
X10169Y670127D01*
X10161Y670000D01*
X10161Y30000D01*
X10167Y29920D01*
X10168Y29792D01*
X10310Y27617D01*
X10327Y27504D01*
X10333Y27390D01*
X10369Y27213D01*
X10383Y27119D01*
X10398Y27071D01*
X10411Y27003D01*
X11537Y22801D01*
X11610Y22596D01*
X11679Y22389D01*
X11696Y22354D01*
X11706Y22327D01*
X11750Y22247D01*
X11855Y22035D01*
X14030Y18268D01*
X14153Y18089D01*
X14273Y17906D01*
X14299Y17877D01*
X14315Y17853D01*
X14378Y17787D01*
X14534Y17610D01*
X17610Y14534D01*
X17776Y14393D01*
X17939Y14248D01*
X17971Y14227D01*
X17994Y14208D01*
X18071Y14160D01*
X18268Y14030D01*
X22035Y11855D01*
X22128Y11811D01*
X22216Y11758D01*
X22323Y11715D01*
X22427Y11663D01*
X22464Y11651D01*
X22490Y11638D01*
X22577Y11613D01*
X22596Y11606D01*
X22683Y11571D01*
X22733Y11560D01*
X22801Y11537D01*
X27003Y10411D01*
X27115Y10391D01*
X27226Y10360D01*
X27405Y10337D01*
X27498Y10320D01*
X27548Y10319D01*
X27617Y10310D01*
X29792Y10168D01*
X29873Y10169D01*
X30000Y10161D01*
X670000Y10161D01*
X670080Y10167D01*
G37*
%LPC*%
G36*
X399242Y276189D02*
X399242Y276189D01*
X397841Y276769D01*
X386388Y288223D01*
X384869Y289741D01*
X384289Y291142D01*
X384289Y294859D01*
X384286Y294900D01*
X384288Y294941D01*
X384266Y295150D01*
X384249Y295361D01*
X384240Y295401D01*
X384235Y295442D01*
X384180Y295645D01*
X384131Y295851D01*
X384115Y295888D01*
X384104Y295928D01*
X384017Y296121D01*
X383936Y296315D01*
X383914Y296350D01*
X383897Y296387D01*
X383781Y296564D01*
X383670Y296743D01*
X383643Y296774D01*
X383621Y296808D01*
X383360Y297104D01*
X380347Y300116D01*
X378955Y303477D01*
X378955Y320323D01*
X380347Y323684D01*
X382920Y326257D01*
X386281Y327649D01*
X389919Y327649D01*
X393280Y326257D01*
X395853Y323684D01*
X397245Y320323D01*
X397245Y303477D01*
X395853Y300116D01*
X392840Y297104D01*
X392814Y297073D01*
X392783Y297045D01*
X392650Y296881D01*
X392514Y296721D01*
X392492Y296686D01*
X392467Y296654D01*
X392362Y296471D01*
X392252Y296291D01*
X392236Y296253D01*
X392216Y296217D01*
X392141Y296021D01*
X392061Y295825D01*
X392052Y295785D01*
X392037Y295746D01*
X391995Y295540D01*
X391946Y295334D01*
X391944Y295293D01*
X391935Y295253D01*
X391911Y294859D01*
X391911Y294793D01*
X391914Y294752D01*
X391912Y294712D01*
X391934Y294502D01*
X391951Y294291D01*
X391960Y294251D01*
X391965Y294211D01*
X392020Y294007D01*
X392069Y293802D01*
X392085Y293764D01*
X392096Y293725D01*
X392183Y293532D01*
X392264Y293338D01*
X392286Y293303D01*
X392303Y293266D01*
X392419Y293089D01*
X392530Y292910D01*
X392557Y292879D01*
X392579Y292845D01*
X392840Y292549D01*
X400649Y284740D01*
X400680Y284714D01*
X400707Y284683D01*
X400871Y284551D01*
X401032Y284414D01*
X401067Y284392D01*
X401099Y284367D01*
X401281Y284262D01*
X401462Y284152D01*
X401500Y284136D01*
X401535Y284116D01*
X401732Y284041D01*
X401928Y283961D01*
X401968Y283952D01*
X402006Y283937D01*
X402213Y283895D01*
X402418Y283846D01*
X402459Y283844D01*
X402499Y283835D01*
X402893Y283811D01*
X415637Y283811D01*
X415650Y283812D01*
X415664Y283811D01*
X415902Y283832D01*
X416139Y283851D01*
X416152Y283854D01*
X416166Y283855D01*
X416399Y283914D01*
X416628Y283969D01*
X416640Y283975D01*
X416654Y283978D01*
X416874Y284073D01*
X417092Y284164D01*
X417104Y284171D01*
X417117Y284177D01*
X417318Y284304D01*
X417520Y284430D01*
X417531Y284439D01*
X417542Y284446D01*
X417720Y284603D01*
X417901Y284760D01*
X417909Y284770D01*
X417920Y284779D01*
X418070Y284963D01*
X418224Y285146D01*
X418231Y285158D01*
X418240Y285168D01*
X418360Y285373D01*
X418482Y285578D01*
X418487Y285591D01*
X418494Y285602D01*
X418581Y285825D01*
X418669Y286046D01*
X418672Y286059D01*
X418677Y286072D01*
X418727Y286305D01*
X418779Y286537D01*
X418780Y286551D01*
X418783Y286564D01*
X418796Y286801D01*
X418811Y287039D01*
X418809Y287053D01*
X418810Y287067D01*
X418785Y287301D01*
X418762Y287541D01*
X418759Y287554D01*
X418757Y287567D01*
X418696Y287795D01*
X418635Y288028D01*
X418629Y288040D01*
X418626Y288054D01*
X418528Y288271D01*
X418432Y288489D01*
X418425Y288500D01*
X418419Y288513D01*
X418288Y288712D01*
X418159Y288912D01*
X418150Y288922D01*
X418143Y288933D01*
X417881Y289230D01*
X410896Y296215D01*
X410764Y296328D01*
X410637Y296447D01*
X410572Y296491D01*
X410513Y296542D01*
X410364Y296632D01*
X410221Y296730D01*
X410137Y296770D01*
X410083Y296804D01*
X410001Y296837D01*
X409866Y296903D01*
X408320Y297543D01*
X405747Y300116D01*
X404355Y303477D01*
X404355Y320323D01*
X405747Y323684D01*
X408320Y326257D01*
X411681Y327649D01*
X415319Y327649D01*
X418680Y326257D01*
X421253Y323684D01*
X422645Y320323D01*
X422645Y303477D01*
X421045Y299615D01*
X420996Y299463D01*
X420938Y299314D01*
X420918Y299224D01*
X420890Y299136D01*
X420865Y298978D01*
X420832Y298822D01*
X420827Y298730D01*
X420812Y298639D01*
X420813Y298478D01*
X420805Y298319D01*
X420814Y298227D01*
X420815Y298135D01*
X420841Y297977D01*
X420857Y297818D01*
X420881Y297729D01*
X420896Y297638D01*
X420947Y297487D01*
X420989Y297332D01*
X421027Y297248D01*
X421056Y297161D01*
X421130Y297019D01*
X421195Y296873D01*
X421246Y296796D01*
X421288Y296714D01*
X421384Y296586D01*
X421472Y296452D01*
X421545Y296369D01*
X421589Y296310D01*
X421647Y296253D01*
X421733Y296156D01*
X428069Y289820D01*
X428100Y289794D01*
X428127Y289763D01*
X428291Y289631D01*
X428452Y289494D01*
X428487Y289472D01*
X428519Y289447D01*
X428701Y289342D01*
X428882Y289232D01*
X428920Y289216D01*
X428955Y289196D01*
X429152Y289121D01*
X429348Y289041D01*
X429388Y289032D01*
X429426Y289017D01*
X429633Y288975D01*
X429838Y288926D01*
X429879Y288924D01*
X429919Y288915D01*
X430313Y288891D01*
X594887Y288891D01*
X594928Y288894D01*
X594968Y288892D01*
X595178Y288914D01*
X595389Y288931D01*
X595429Y288940D01*
X595469Y288945D01*
X595673Y289000D01*
X595878Y289049D01*
X595916Y289065D01*
X595955Y289076D01*
X596148Y289163D01*
X596342Y289244D01*
X596377Y289266D01*
X596414Y289283D01*
X596591Y289399D01*
X596770Y289510D01*
X596801Y289537D01*
X596835Y289559D01*
X597131Y289820D01*
X634066Y326755D01*
X634084Y326776D01*
X634104Y326794D01*
X634247Y326967D01*
X634393Y327138D01*
X634407Y327162D01*
X634424Y327183D01*
X634537Y327376D01*
X634655Y327568D01*
X634665Y327594D01*
X634679Y327617D01*
X634760Y327826D01*
X634846Y328035D01*
X634852Y328061D01*
X634862Y328087D01*
X634909Y328305D01*
X634960Y328525D01*
X634962Y328552D01*
X634968Y328579D01*
X634980Y328803D01*
X634996Y329027D01*
X634993Y329054D01*
X634995Y329082D01*
X634971Y329304D01*
X634952Y329529D01*
X634945Y329555D01*
X634942Y329582D01*
X634884Y329798D01*
X634829Y330017D01*
X634818Y330042D01*
X634811Y330068D01*
X634719Y330273D01*
X634630Y330480D01*
X634615Y330503D01*
X634604Y330528D01*
X634481Y330715D01*
X634361Y330905D01*
X634342Y330926D01*
X634327Y330948D01*
X634066Y331244D01*
X633766Y331544D01*
X632219Y335279D01*
X632219Y339321D01*
X633766Y343056D01*
X636624Y345914D01*
X639409Y347067D01*
X639421Y347074D01*
X639434Y347078D01*
X639646Y347188D01*
X639858Y347296D01*
X639869Y347304D01*
X639881Y347311D01*
X640072Y347453D01*
X640264Y347593D01*
X640274Y347603D01*
X640285Y347611D01*
X640450Y347781D01*
X640619Y347951D01*
X640627Y347962D01*
X640636Y347972D01*
X640773Y348165D01*
X640912Y348360D01*
X640919Y348372D01*
X640926Y348383D01*
X641030Y348595D01*
X641137Y348810D01*
X641142Y348824D01*
X641148Y348836D01*
X641217Y349062D01*
X641289Y349291D01*
X641291Y349304D01*
X641295Y349317D01*
X641327Y349553D01*
X641362Y349789D01*
X641362Y349802D01*
X641363Y349816D01*
X641358Y350053D01*
X641355Y350292D01*
X641353Y350306D01*
X641353Y350320D01*
X641310Y350553D01*
X641269Y350789D01*
X641265Y350802D01*
X641262Y350815D01*
X641184Y351037D01*
X641106Y351265D01*
X641099Y351277D01*
X641095Y351290D01*
X640982Y351498D01*
X640869Y351709D01*
X640861Y351720D01*
X640854Y351732D01*
X640709Y351921D01*
X640565Y352111D01*
X640555Y352120D01*
X640547Y352131D01*
X640374Y352294D01*
X640202Y352459D01*
X640190Y352467D01*
X640181Y352476D01*
X639983Y352610D01*
X639788Y352746D01*
X639775Y352751D01*
X639764Y352759D01*
X639409Y352933D01*
X636624Y354086D01*
X633763Y356947D01*
X633699Y357072D01*
X633635Y357219D01*
X633585Y357296D01*
X633543Y357378D01*
X633449Y357507D01*
X633362Y357642D01*
X633301Y357710D01*
X633246Y357785D01*
X633133Y357897D01*
X633026Y358017D01*
X632954Y358074D01*
X632889Y358139D01*
X632759Y358233D01*
X632634Y358333D01*
X632554Y358379D01*
X632480Y358433D01*
X632336Y358504D01*
X632198Y358584D01*
X632112Y358617D01*
X632029Y358658D01*
X631876Y358706D01*
X631727Y358763D01*
X631637Y358781D01*
X631549Y358809D01*
X631391Y358832D01*
X631234Y358865D01*
X631123Y358872D01*
X631051Y358882D01*
X630969Y358881D01*
X630840Y358889D01*
X628298Y358889D01*
X626898Y359469D01*
X579109Y407258D01*
X578997Y407353D01*
X578892Y407455D01*
X578806Y407516D01*
X578726Y407585D01*
X578600Y407661D01*
X578481Y407745D01*
X578386Y407792D01*
X578296Y407847D01*
X578160Y407902D01*
X578029Y407967D01*
X577928Y407998D01*
X577830Y408038D01*
X577687Y408071D01*
X577547Y408114D01*
X577442Y408128D01*
X577339Y408152D01*
X577194Y408163D01*
X577048Y408183D01*
X576942Y408180D01*
X576837Y408188D01*
X576691Y408175D01*
X576545Y408172D01*
X576441Y408153D01*
X576336Y408144D01*
X576193Y408108D01*
X576049Y408082D01*
X575950Y408046D01*
X575847Y408021D01*
X575712Y407963D01*
X575575Y407914D01*
X575482Y407864D01*
X575385Y407822D01*
X575261Y407743D01*
X575132Y407674D01*
X575048Y407609D01*
X574959Y407553D01*
X574849Y407456D01*
X574733Y407366D01*
X574661Y407289D01*
X574582Y407219D01*
X574489Y407106D01*
X574388Y407000D01*
X574329Y406912D01*
X574262Y406831D01*
X574187Y406704D01*
X574105Y406583D01*
X574048Y406467D01*
X574007Y406396D01*
X573980Y406328D01*
X573932Y406228D01*
X572335Y402374D01*
X568548Y398587D01*
X563600Y396537D01*
X536400Y396537D01*
X531452Y398587D01*
X527665Y402374D01*
X525615Y407322D01*
X525615Y412678D01*
X527212Y416532D01*
X527257Y416672D01*
X527311Y416808D01*
X527334Y416911D01*
X527367Y417011D01*
X527390Y417156D01*
X527422Y417299D01*
X527428Y417404D01*
X527444Y417509D01*
X527444Y417655D01*
X527453Y417801D01*
X527443Y417907D01*
X527442Y418012D01*
X527419Y418157D01*
X527404Y418303D01*
X527378Y418405D01*
X527361Y418509D01*
X527314Y418648D01*
X527277Y418790D01*
X527235Y418887D01*
X527201Y418987D01*
X527134Y419117D01*
X527075Y419251D01*
X527017Y419340D01*
X526968Y419433D01*
X526881Y419551D01*
X526802Y419674D01*
X526731Y419753D01*
X526668Y419837D01*
X526563Y419939D01*
X526465Y420049D01*
X526383Y420115D01*
X526307Y420189D01*
X526188Y420273D01*
X526074Y420365D01*
X525982Y420418D01*
X525896Y420479D01*
X525764Y420543D01*
X525637Y420616D01*
X525538Y420654D01*
X525443Y420700D01*
X525303Y420743D01*
X525166Y420795D01*
X525063Y420816D01*
X524962Y420847D01*
X524817Y420867D01*
X524673Y420897D01*
X524544Y420905D01*
X524463Y420916D01*
X524390Y420914D01*
X524279Y420921D01*
X410125Y420921D01*
X410084Y420918D01*
X410044Y420920D01*
X409834Y420898D01*
X409623Y420881D01*
X409583Y420872D01*
X409543Y420867D01*
X409339Y420812D01*
X409134Y420763D01*
X409096Y420747D01*
X409057Y420736D01*
X408864Y420649D01*
X408670Y420568D01*
X408635Y420546D01*
X408598Y420529D01*
X408421Y420414D01*
X408242Y420302D01*
X408211Y420275D01*
X408177Y420253D01*
X407881Y419992D01*
X394057Y406168D01*
X394040Y406148D01*
X394019Y406129D01*
X393877Y405956D01*
X393731Y405785D01*
X393717Y405762D01*
X393699Y405741D01*
X393586Y405548D01*
X393469Y405355D01*
X393458Y405330D01*
X393445Y405306D01*
X393363Y405098D01*
X393278Y404889D01*
X393272Y404863D01*
X393262Y404837D01*
X393215Y404617D01*
X393163Y404399D01*
X393162Y404372D01*
X393156Y404345D01*
X393144Y404121D01*
X393128Y403897D01*
X393130Y403869D01*
X393129Y403842D01*
X393152Y403620D01*
X393172Y403395D01*
X393179Y403368D01*
X393182Y403341D01*
X393240Y403126D01*
X393295Y402907D01*
X393306Y402881D01*
X393313Y402855D01*
X393405Y402650D01*
X393494Y402444D01*
X393508Y402421D01*
X393520Y402396D01*
X393643Y402207D01*
X393763Y402019D01*
X393781Y401998D01*
X393796Y401975D01*
X394057Y401679D01*
X395853Y399884D01*
X397245Y396523D01*
X397245Y379677D01*
X395853Y376316D01*
X393280Y373743D01*
X389919Y372351D01*
X386281Y372351D01*
X382920Y373743D01*
X380347Y376316D01*
X378955Y379677D01*
X378955Y396523D01*
X380347Y399884D01*
X383360Y402896D01*
X383386Y402927D01*
X383417Y402955D01*
X383549Y403119D01*
X383686Y403279D01*
X383708Y403314D01*
X383733Y403346D01*
X383838Y403529D01*
X383948Y403709D01*
X383964Y403747D01*
X383984Y403783D01*
X384059Y403979D01*
X384139Y404175D01*
X384148Y404215D01*
X384163Y404254D01*
X384205Y404460D01*
X384254Y404666D01*
X384256Y404706D01*
X384265Y404747D01*
X384289Y405141D01*
X384289Y406358D01*
X384869Y407759D01*
X397693Y420582D01*
X397696Y420586D01*
X397699Y420588D01*
X397704Y420595D01*
X397713Y420602D01*
X397866Y420785D01*
X398020Y420966D01*
X398027Y420977D01*
X398036Y420988D01*
X398157Y421191D01*
X398282Y421396D01*
X398287Y421408D01*
X398294Y421420D01*
X398382Y421639D01*
X398473Y421862D01*
X398476Y421875D01*
X398481Y421888D01*
X398533Y422120D01*
X398587Y422352D01*
X398588Y422366D01*
X398591Y422379D01*
X398606Y422618D01*
X398623Y422854D01*
X398622Y422868D01*
X398623Y422881D01*
X398600Y423118D01*
X398579Y423356D01*
X398575Y423369D01*
X398574Y423383D01*
X398514Y423613D01*
X398456Y423844D01*
X398450Y423857D01*
X398447Y423870D01*
X398351Y424089D01*
X398257Y424307D01*
X398250Y424318D01*
X398244Y424331D01*
X398114Y424533D01*
X397988Y424732D01*
X397979Y424742D01*
X397971Y424754D01*
X397812Y424932D01*
X397654Y425110D01*
X397644Y425118D01*
X397635Y425129D01*
X397449Y425279D01*
X397266Y425430D01*
X397254Y425437D01*
X397243Y425445D01*
X397037Y425564D01*
X396831Y425684D01*
X396819Y425689D01*
X396807Y425696D01*
X396585Y425780D01*
X396362Y425867D01*
X396349Y425870D01*
X396336Y425875D01*
X396103Y425923D01*
X395870Y425973D01*
X395856Y425974D01*
X395843Y425977D01*
X395449Y426001D01*
X390205Y426001D01*
X390164Y425998D01*
X390124Y426000D01*
X389914Y425978D01*
X389703Y425961D01*
X389663Y425952D01*
X389623Y425947D01*
X389419Y425892D01*
X389214Y425843D01*
X389176Y425827D01*
X389137Y425816D01*
X388944Y425729D01*
X388750Y425648D01*
X388715Y425626D01*
X388678Y425609D01*
X388501Y425493D01*
X388322Y425382D01*
X388291Y425355D01*
X388257Y425333D01*
X387961Y425072D01*
X368857Y405968D01*
X368840Y405948D01*
X368819Y405929D01*
X368677Y405756D01*
X368531Y405585D01*
X368517Y405562D01*
X368499Y405541D01*
X368386Y405348D01*
X368269Y405155D01*
X368258Y405130D01*
X368245Y405106D01*
X368163Y404898D01*
X368078Y404689D01*
X368072Y404663D01*
X368062Y404637D01*
X368015Y404417D01*
X367963Y404199D01*
X367962Y404172D01*
X367956Y404145D01*
X367944Y403921D01*
X367928Y403697D01*
X367930Y403669D01*
X367929Y403642D01*
X367952Y403420D01*
X367972Y403195D01*
X367979Y403168D01*
X367982Y403141D01*
X368040Y402926D01*
X368095Y402707D01*
X368106Y402681D01*
X368113Y402655D01*
X368205Y402450D01*
X368294Y402244D01*
X368308Y402221D01*
X368320Y402196D01*
X368443Y402008D01*
X368563Y401819D01*
X368581Y401798D01*
X368596Y401775D01*
X368857Y401479D01*
X370453Y399884D01*
X371845Y396523D01*
X371845Y379677D01*
X370453Y376316D01*
X367880Y373743D01*
X364519Y372351D01*
X360881Y372351D01*
X357520Y373743D01*
X354947Y376316D01*
X353555Y379677D01*
X353555Y396523D01*
X354947Y399884D01*
X357960Y402896D01*
X357986Y402927D01*
X358017Y402955D01*
X358149Y403119D01*
X358286Y403279D01*
X358308Y403314D01*
X358333Y403346D01*
X358438Y403529D01*
X358548Y403709D01*
X358564Y403747D01*
X358584Y403783D01*
X358659Y403979D01*
X358739Y404175D01*
X358748Y404215D01*
X358763Y404254D01*
X358805Y404460D01*
X358854Y404666D01*
X358856Y404706D01*
X358865Y404747D01*
X358889Y405141D01*
X358889Y405958D01*
X359469Y407359D01*
X385153Y433043D01*
X386554Y433623D01*
X444345Y433623D01*
X444358Y433624D01*
X444372Y433623D01*
X444608Y433644D01*
X444846Y433663D01*
X444860Y433666D01*
X444873Y433667D01*
X445103Y433725D01*
X445336Y433781D01*
X445348Y433787D01*
X445362Y433790D01*
X445580Y433884D01*
X445800Y433976D01*
X445812Y433983D01*
X445824Y433989D01*
X446026Y434116D01*
X446228Y434242D01*
X446238Y434251D01*
X446250Y434258D01*
X446428Y434415D01*
X446608Y434572D01*
X446617Y434582D01*
X446627Y434591D01*
X446778Y434775D01*
X446932Y434958D01*
X446939Y434970D01*
X446947Y434980D01*
X447068Y435185D01*
X447190Y435390D01*
X447195Y435403D01*
X447202Y435414D01*
X447288Y435637D01*
X447377Y435858D01*
X447380Y435871D01*
X447385Y435884D01*
X447435Y436117D01*
X447487Y436349D01*
X447488Y436363D01*
X447491Y436376D01*
X447503Y436611D01*
X447518Y436851D01*
X447517Y436865D01*
X447518Y436879D01*
X447493Y437113D01*
X447470Y437353D01*
X447466Y437366D01*
X447465Y437379D01*
X447403Y437608D01*
X447343Y437840D01*
X447337Y437852D01*
X447334Y437866D01*
X447236Y438082D01*
X447140Y438301D01*
X447133Y438312D01*
X447127Y438325D01*
X446997Y438523D01*
X446867Y438724D01*
X446858Y438734D01*
X446850Y438745D01*
X446589Y439042D01*
X439839Y445791D01*
X439839Y454209D01*
X445791Y460161D01*
X454209Y460161D01*
X460161Y454209D01*
X460161Y445791D01*
X453411Y439042D01*
X453402Y439031D01*
X453392Y439022D01*
X453238Y438839D01*
X453084Y438658D01*
X453077Y438647D01*
X453068Y438636D01*
X452947Y438433D01*
X452822Y438228D01*
X452817Y438216D01*
X452810Y438204D01*
X452722Y437985D01*
X452632Y437762D01*
X452628Y437749D01*
X452623Y437736D01*
X452571Y437504D01*
X452517Y437272D01*
X452516Y437258D01*
X452513Y437245D01*
X452498Y437006D01*
X452481Y436770D01*
X452483Y436756D01*
X452482Y436743D01*
X452505Y436505D01*
X452526Y436268D01*
X452529Y436255D01*
X452530Y436241D01*
X452590Y436011D01*
X452649Y435780D01*
X452654Y435767D01*
X452657Y435754D01*
X452754Y435535D01*
X452847Y435317D01*
X452854Y435306D01*
X452860Y435293D01*
X452990Y435091D01*
X453117Y434892D01*
X453126Y434882D01*
X453133Y434870D01*
X453293Y434692D01*
X453450Y434514D01*
X453460Y434506D01*
X453469Y434495D01*
X453655Y434345D01*
X453838Y434194D01*
X453850Y434187D01*
X453861Y434179D01*
X454067Y434060D01*
X454273Y433940D01*
X454286Y433935D01*
X454297Y433928D01*
X454519Y433844D01*
X454742Y433757D01*
X454756Y433754D01*
X454768Y433749D01*
X455001Y433701D01*
X455234Y433651D01*
X455248Y433650D01*
X455261Y433647D01*
X455655Y433623D01*
X569886Y433623D01*
X571287Y433043D01*
X572806Y431524D01*
X579199Y425131D01*
X579367Y424987D01*
X579533Y424840D01*
X579559Y424824D01*
X579582Y424804D01*
X579772Y424688D01*
X579958Y424570D01*
X579986Y424558D01*
X580012Y424542D01*
X580217Y424458D01*
X580420Y424370D01*
X580450Y424363D01*
X580478Y424351D01*
X580694Y424301D01*
X580908Y424246D01*
X580939Y424244D01*
X580969Y424237D01*
X581189Y424221D01*
X581410Y424201D01*
X581440Y424203D01*
X581471Y424201D01*
X581692Y424220D01*
X581912Y424236D01*
X581942Y424242D01*
X581972Y424245D01*
X582188Y424300D01*
X582403Y424349D01*
X582431Y424361D01*
X582461Y424368D01*
X582664Y424455D01*
X582869Y424539D01*
X582895Y424555D01*
X582923Y424567D01*
X583110Y424685D01*
X583300Y424800D01*
X583323Y424820D01*
X583349Y424836D01*
X583515Y424983D01*
X583683Y425126D01*
X583703Y425149D01*
X583726Y425169D01*
X583867Y425340D01*
X584011Y425508D01*
X584027Y425534D01*
X584046Y425558D01*
X584158Y425749D01*
X584274Y425938D01*
X584286Y425966D01*
X584301Y425993D01*
X584381Y426199D01*
X584466Y426403D01*
X584473Y426433D01*
X584484Y426462D01*
X584530Y426678D01*
X584581Y426893D01*
X584583Y426924D01*
X584590Y426954D01*
X584602Y427174D01*
X584618Y427396D01*
X584615Y427431D01*
X584617Y427457D01*
X584608Y427544D01*
X584591Y427789D01*
X584537Y428196D01*
X584537Y436826D01*
X594826Y436826D01*
X594826Y415333D01*
X594817Y415330D01*
X594791Y415313D01*
X594763Y415301D01*
X594579Y415179D01*
X594392Y415061D01*
X594369Y415040D01*
X594343Y415023D01*
X594181Y414874D01*
X594014Y414727D01*
X593995Y414704D01*
X593972Y414683D01*
X593835Y414510D01*
X593694Y414339D01*
X593679Y414312D01*
X593660Y414288D01*
X593551Y414095D01*
X593440Y413904D01*
X593429Y413876D01*
X593414Y413849D01*
X593337Y413641D01*
X593257Y413435D01*
X593251Y413405D01*
X593240Y413376D01*
X593198Y413159D01*
X593151Y412943D01*
X593149Y412912D01*
X593143Y412882D01*
X593136Y412661D01*
X593124Y412440D01*
X593127Y412410D01*
X593126Y412379D01*
X593154Y412159D01*
X593177Y411939D01*
X593185Y411910D01*
X593189Y411879D01*
X593250Y411667D01*
X593308Y411453D01*
X593321Y411425D01*
X593329Y411396D01*
X593424Y411196D01*
X593515Y410994D01*
X593532Y410968D01*
X593545Y410941D01*
X593669Y410759D01*
X593791Y410573D01*
X593814Y410547D01*
X593829Y410525D01*
X593890Y410461D01*
X594053Y410277D01*
X611489Y392840D01*
X611520Y392814D01*
X611548Y392783D01*
X611712Y392651D01*
X611872Y392514D01*
X611907Y392492D01*
X611939Y392467D01*
X612122Y392362D01*
X612302Y392252D01*
X612340Y392236D01*
X612376Y392216D01*
X612573Y392141D01*
X612768Y392061D01*
X612808Y392052D01*
X612847Y392037D01*
X613053Y391995D01*
X613259Y391946D01*
X613300Y391944D01*
X613340Y391935D01*
X613734Y391911D01*
X630840Y391911D01*
X630999Y391923D01*
X631159Y391927D01*
X631250Y391943D01*
X631342Y391951D01*
X631497Y391988D01*
X631655Y392017D01*
X631741Y392048D01*
X631831Y392069D01*
X631978Y392131D01*
X632130Y392185D01*
X632211Y392229D01*
X632295Y392264D01*
X632431Y392349D01*
X632572Y392425D01*
X632645Y392481D01*
X632723Y392530D01*
X632844Y392635D01*
X632971Y392733D01*
X633034Y392799D01*
X633103Y392860D01*
X633206Y392983D01*
X633316Y393099D01*
X633368Y393175D01*
X633427Y393246D01*
X633509Y393383D01*
X633599Y393516D01*
X633648Y393615D01*
X633685Y393678D01*
X633715Y393753D01*
X633764Y393854D01*
X636624Y396714D01*
X639409Y397867D01*
X639421Y397874D01*
X639434Y397878D01*
X639646Y397988D01*
X639858Y398096D01*
X639869Y398104D01*
X639881Y398111D01*
X640072Y398253D01*
X640264Y398393D01*
X640274Y398403D01*
X640285Y398411D01*
X640450Y398581D01*
X640619Y398751D01*
X640627Y398762D01*
X640636Y398772D01*
X640773Y398965D01*
X640912Y399160D01*
X640919Y399172D01*
X640926Y399183D01*
X641030Y399395D01*
X641137Y399610D01*
X641142Y399624D01*
X641148Y399636D01*
X641217Y399862D01*
X641289Y400091D01*
X641291Y400104D01*
X641295Y400117D01*
X641327Y400354D01*
X641362Y400589D01*
X641362Y400602D01*
X641363Y400616D01*
X641358Y400856D01*
X641355Y401092D01*
X641353Y401106D01*
X641353Y401120D01*
X641310Y401353D01*
X641269Y401589D01*
X641265Y401602D01*
X641262Y401615D01*
X641184Y401837D01*
X641106Y402065D01*
X641099Y402077D01*
X641095Y402090D01*
X640982Y402298D01*
X640869Y402509D01*
X640861Y402520D01*
X640854Y402532D01*
X640709Y402721D01*
X640565Y402911D01*
X640555Y402920D01*
X640547Y402931D01*
X640374Y403094D01*
X640202Y403259D01*
X640190Y403267D01*
X640181Y403276D01*
X639983Y403410D01*
X639788Y403546D01*
X639775Y403551D01*
X639764Y403559D01*
X639409Y403733D01*
X636624Y404886D01*
X633766Y407744D01*
X632219Y411479D01*
X632219Y415521D01*
X633766Y419256D01*
X636624Y422114D01*
X640359Y423661D01*
X659641Y423661D01*
X663376Y422114D01*
X666234Y419256D01*
X667781Y415521D01*
X667781Y411479D01*
X666234Y407744D01*
X663376Y404886D01*
X660591Y403733D01*
X660579Y403726D01*
X660566Y403722D01*
X660355Y403612D01*
X660142Y403504D01*
X660131Y403495D01*
X660119Y403489D01*
X659929Y403348D01*
X659736Y403207D01*
X659726Y403197D01*
X659715Y403189D01*
X659548Y403017D01*
X659381Y402849D01*
X659373Y402838D01*
X659364Y402828D01*
X659226Y402632D01*
X659088Y402440D01*
X659082Y402428D01*
X659074Y402417D01*
X658968Y402200D01*
X658863Y401990D01*
X658858Y401977D01*
X658852Y401964D01*
X658782Y401732D01*
X658711Y401509D01*
X658709Y401496D01*
X658705Y401483D01*
X658672Y401244D01*
X658638Y401011D01*
X658638Y400997D01*
X658637Y400984D01*
X658642Y400744D01*
X658645Y400508D01*
X658647Y400494D01*
X658647Y400480D01*
X658690Y400247D01*
X658731Y400011D01*
X658735Y399998D01*
X658738Y399985D01*
X658817Y399761D01*
X658894Y399535D01*
X658901Y399523D01*
X658905Y399510D01*
X659019Y399300D01*
X659131Y399091D01*
X659139Y399080D01*
X659146Y399068D01*
X659291Y398878D01*
X659435Y398689D01*
X659445Y398680D01*
X659453Y398669D01*
X659627Y398505D01*
X659798Y398341D01*
X659809Y398333D01*
X659819Y398324D01*
X660016Y398190D01*
X660212Y398054D01*
X660225Y398048D01*
X660236Y398041D01*
X660591Y397867D01*
X663376Y396714D01*
X666234Y393856D01*
X667781Y390121D01*
X667781Y386079D01*
X666234Y382344D01*
X663376Y379486D01*
X660591Y378333D01*
X660579Y378326D01*
X660566Y378322D01*
X660354Y378212D01*
X660142Y378104D01*
X660131Y378095D01*
X660119Y378089D01*
X659929Y377948D01*
X659736Y377807D01*
X659726Y377797D01*
X659715Y377789D01*
X659549Y377618D01*
X659381Y377449D01*
X659373Y377438D01*
X659364Y377428D01*
X659226Y377232D01*
X659088Y377040D01*
X659082Y377028D01*
X659074Y377017D01*
X658968Y376801D01*
X658863Y376590D01*
X658858Y376577D01*
X658852Y376564D01*
X658782Y376334D01*
X658711Y376109D01*
X658709Y376096D01*
X658705Y376083D01*
X658672Y375844D01*
X658638Y375611D01*
X658638Y375597D01*
X658637Y375584D01*
X658642Y375344D01*
X658645Y375108D01*
X658647Y375094D01*
X658647Y375080D01*
X658690Y374847D01*
X658731Y374611D01*
X658735Y374598D01*
X658738Y374585D01*
X658817Y374361D01*
X658894Y374135D01*
X658901Y374123D01*
X658905Y374110D01*
X659019Y373900D01*
X659131Y373691D01*
X659139Y373680D01*
X659146Y373668D01*
X659291Y373478D01*
X659435Y373289D01*
X659445Y373280D01*
X659453Y373269D01*
X659627Y373105D01*
X659798Y372941D01*
X659809Y372933D01*
X659819Y372924D01*
X660016Y372790D01*
X660212Y372654D01*
X660225Y372648D01*
X660236Y372641D01*
X660591Y372467D01*
X663376Y371314D01*
X666234Y368456D01*
X667781Y364721D01*
X667781Y360679D01*
X666234Y356944D01*
X663376Y354086D01*
X660591Y352933D01*
X660579Y352926D01*
X660566Y352922D01*
X660355Y352812D01*
X660142Y352704D01*
X660131Y352695D01*
X660119Y352689D01*
X659929Y352548D01*
X659736Y352407D01*
X659726Y352397D01*
X659715Y352389D01*
X659549Y352218D01*
X659381Y352049D01*
X659373Y352038D01*
X659364Y352028D01*
X659226Y351832D01*
X659088Y351640D01*
X659082Y351628D01*
X659074Y351617D01*
X658968Y351401D01*
X658863Y351190D01*
X658858Y351177D01*
X658852Y351164D01*
X658782Y350934D01*
X658711Y350709D01*
X658709Y350696D01*
X658705Y350683D01*
X658672Y350444D01*
X658638Y350211D01*
X658638Y350197D01*
X658637Y350184D01*
X658642Y349942D01*
X658645Y349708D01*
X658647Y349694D01*
X658647Y349680D01*
X658690Y349447D01*
X658731Y349211D01*
X658735Y349198D01*
X658738Y349185D01*
X658817Y348960D01*
X658894Y348735D01*
X658901Y348723D01*
X658905Y348710D01*
X659019Y348500D01*
X659131Y348291D01*
X659139Y348280D01*
X659146Y348268D01*
X659291Y348078D01*
X659435Y347889D01*
X659445Y347880D01*
X659453Y347869D01*
X659627Y347705D01*
X659798Y347541D01*
X659809Y347533D01*
X659819Y347524D01*
X660016Y347390D01*
X660212Y347254D01*
X660225Y347248D01*
X660236Y347241D01*
X660591Y347067D01*
X663376Y345914D01*
X666234Y343056D01*
X667781Y339321D01*
X667781Y335279D01*
X666234Y331544D01*
X663376Y328686D01*
X660591Y327533D01*
X660579Y327526D01*
X660566Y327522D01*
X660355Y327412D01*
X660142Y327304D01*
X660131Y327295D01*
X660119Y327289D01*
X659929Y327148D01*
X659736Y327007D01*
X659726Y326997D01*
X659715Y326989D01*
X659549Y326818D01*
X659381Y326649D01*
X659373Y326638D01*
X659364Y326628D01*
X659226Y326432D01*
X659088Y326240D01*
X659082Y326228D01*
X659074Y326217D01*
X658968Y326001D01*
X658863Y325790D01*
X658858Y325777D01*
X658852Y325764D01*
X658782Y325534D01*
X658711Y325309D01*
X658709Y325296D01*
X658705Y325283D01*
X658672Y325044D01*
X658638Y324811D01*
X658638Y324797D01*
X658637Y324784D01*
X658642Y324544D01*
X658645Y324308D01*
X658647Y324294D01*
X658647Y324280D01*
X658690Y324047D01*
X658731Y323811D01*
X658735Y323798D01*
X658738Y323785D01*
X658817Y323561D01*
X658894Y323335D01*
X658901Y323323D01*
X658905Y323310D01*
X659019Y323100D01*
X659131Y322891D01*
X659139Y322880D01*
X659146Y322868D01*
X659291Y322678D01*
X659435Y322489D01*
X659445Y322480D01*
X659453Y322469D01*
X659627Y322305D01*
X659798Y322141D01*
X659809Y322133D01*
X659819Y322124D01*
X660016Y321990D01*
X660212Y321854D01*
X660225Y321848D01*
X660236Y321841D01*
X660591Y321667D01*
X663376Y320514D01*
X666234Y317656D01*
X667781Y313921D01*
X667781Y309879D01*
X666234Y306144D01*
X663376Y303286D01*
X660538Y302111D01*
X660415Y302048D01*
X660288Y301994D01*
X660191Y301934D01*
X660090Y301882D01*
X659978Y301800D01*
X659861Y301727D01*
X659775Y301652D01*
X659683Y301585D01*
X659586Y301487D01*
X659482Y301396D01*
X659409Y301308D01*
X659329Y301227D01*
X659248Y301115D01*
X659160Y301009D01*
X659102Y300911D01*
X659035Y300818D01*
X658973Y300695D01*
X658903Y300575D01*
X658861Y300470D01*
X658810Y300368D01*
X658769Y300236D01*
X658718Y300107D01*
X658693Y299996D01*
X658659Y299888D01*
X658639Y299751D01*
X658609Y299616D01*
X658602Y299502D01*
X658586Y299389D01*
X658588Y299251D01*
X658580Y299113D01*
X658591Y299000D01*
X658592Y298886D01*
X658616Y298749D01*
X658630Y298612D01*
X658659Y298502D01*
X658678Y298390D01*
X658723Y298259D01*
X658759Y298125D01*
X658805Y298021D01*
X658842Y297913D01*
X658907Y297791D01*
X658963Y297665D01*
X659025Y297569D01*
X659078Y297469D01*
X659162Y297359D01*
X659237Y297243D01*
X659314Y297158D01*
X659382Y297068D01*
X659482Y296972D01*
X659575Y296869D01*
X659664Y296798D01*
X659746Y296719D01*
X659860Y296640D01*
X659968Y296554D01*
X660066Y296498D01*
X660160Y296433D01*
X660285Y296373D01*
X660405Y296305D01*
X660537Y296252D01*
X660614Y296215D01*
X660679Y296196D01*
X660772Y296159D01*
X661520Y295916D01*
X662945Y295190D01*
X664239Y294250D01*
X665370Y293119D01*
X666310Y291825D01*
X667036Y290400D01*
X667272Y289674D01*
X650000Y289674D01*
X649973Y289672D01*
X649946Y289674D01*
X649722Y289652D01*
X649498Y289634D01*
X649472Y289628D01*
X649445Y289625D01*
X649227Y289568D01*
X649009Y289516D01*
X648984Y289505D01*
X648957Y289498D01*
X648751Y289407D01*
X648545Y289321D01*
X648522Y289307D01*
X648497Y289296D01*
X648307Y289174D01*
X648117Y289055D01*
X648096Y289037D01*
X648073Y289023D01*
X647906Y288872D01*
X647737Y288725D01*
X647736Y288725D01*
X647719Y288704D01*
X647699Y288686D01*
X647698Y288686D01*
X647557Y288511D01*
X647413Y288339D01*
X647399Y288315D01*
X647382Y288294D01*
X647270Y288100D01*
X647154Y287907D01*
X647144Y287881D01*
X647131Y287858D01*
X647051Y287648D01*
X646968Y287439D01*
X646962Y287412D01*
X646952Y287387D01*
X646907Y287167D01*
X646857Y286948D01*
X646856Y286920D01*
X646850Y286894D01*
X646826Y286500D01*
X646826Y276339D01*
X641580Y276339D01*
X640001Y276589D01*
X638480Y277084D01*
X637055Y277810D01*
X635761Y278750D01*
X634630Y279881D01*
X633690Y281175D01*
X632964Y282599D01*
X632878Y282862D01*
X632871Y282880D01*
X632866Y282898D01*
X632776Y283109D01*
X632685Y283327D01*
X632675Y283344D01*
X632668Y283361D01*
X632543Y283558D01*
X632421Y283756D01*
X632409Y283770D01*
X632398Y283786D01*
X632244Y283961D01*
X632092Y284137D01*
X632078Y284150D01*
X632065Y284164D01*
X631885Y284312D01*
X631708Y284462D01*
X631691Y284472D01*
X631676Y284484D01*
X631476Y284602D01*
X631276Y284722D01*
X631259Y284729D01*
X631242Y284739D01*
X631026Y284823D01*
X630809Y284910D01*
X630791Y284914D01*
X630773Y284921D01*
X630546Y284970D01*
X630318Y285022D01*
X630299Y285023D01*
X630281Y285027D01*
X630048Y285040D01*
X629816Y285055D01*
X629797Y285053D01*
X629778Y285054D01*
X629547Y285030D01*
X629315Y285008D01*
X629296Y285004D01*
X629277Y285002D01*
X629053Y284941D01*
X628827Y284883D01*
X628809Y284875D01*
X628791Y284870D01*
X628579Y284775D01*
X628365Y284682D01*
X628349Y284672D01*
X628332Y284664D01*
X628137Y284536D01*
X627941Y284410D01*
X627927Y284398D01*
X627911Y284387D01*
X627615Y284126D01*
X620259Y276769D01*
X618858Y276189D01*
X399242Y276189D01*
G37*
%LPD*%
%LPC*%
G36*
X74242Y351189D02*
X74242Y351189D01*
X72841Y351769D01*
X71863Y352748D01*
X71832Y352774D01*
X71805Y352805D01*
X71641Y352937D01*
X71480Y353074D01*
X71445Y353096D01*
X71413Y353121D01*
X71231Y353226D01*
X71050Y353336D01*
X71012Y353352D01*
X70977Y353372D01*
X70780Y353447D01*
X70584Y353527D01*
X70544Y353536D01*
X70506Y353551D01*
X70299Y353593D01*
X70094Y353642D01*
X70053Y353644D01*
X70013Y353653D01*
X69619Y353677D01*
X68742Y353677D01*
X66418Y354640D01*
X64640Y356418D01*
X63677Y358742D01*
X63677Y361258D01*
X64640Y363582D01*
X66418Y365360D01*
X68742Y366323D01*
X71258Y366323D01*
X73582Y365360D01*
X75360Y363582D01*
X76525Y360770D01*
X76597Y360628D01*
X76662Y360481D01*
X76712Y360404D01*
X76754Y360322D01*
X76848Y360193D01*
X76935Y360058D01*
X76996Y359989D01*
X77051Y359915D01*
X77164Y359803D01*
X77271Y359683D01*
X77343Y359626D01*
X77408Y359561D01*
X77538Y359467D01*
X77663Y359367D01*
X77742Y359321D01*
X77817Y359267D01*
X77961Y359195D01*
X78099Y359116D01*
X78185Y359083D01*
X78268Y359042D01*
X78421Y358994D01*
X78570Y358937D01*
X78660Y358919D01*
X78748Y358891D01*
X78906Y358868D01*
X79063Y358835D01*
X79174Y358828D01*
X79246Y358818D01*
X79328Y358819D01*
X79457Y358811D01*
X177107Y358811D01*
X177148Y358814D01*
X177188Y358812D01*
X177398Y358834D01*
X177609Y358851D01*
X177649Y358860D01*
X177689Y358865D01*
X177893Y358920D01*
X178098Y358969D01*
X178136Y358985D01*
X178175Y358996D01*
X178368Y359083D01*
X178562Y359164D01*
X178597Y359186D01*
X178634Y359203D01*
X178811Y359319D01*
X178990Y359430D01*
X179021Y359457D01*
X179055Y359479D01*
X179351Y359740D01*
X254031Y434420D01*
X254040Y434431D01*
X254051Y434440D01*
X254204Y434623D01*
X254358Y434804D01*
X254365Y434815D01*
X254374Y434826D01*
X254495Y435029D01*
X254620Y435234D01*
X254625Y435246D01*
X254632Y435258D01*
X254720Y435477D01*
X254811Y435700D01*
X254814Y435713D01*
X254819Y435726D01*
X254871Y435958D01*
X254925Y436190D01*
X254926Y436204D01*
X254929Y436217D01*
X254944Y436456D01*
X254961Y436692D01*
X254960Y436706D01*
X254961Y436719D01*
X254938Y436957D01*
X254917Y437194D01*
X254913Y437207D01*
X254912Y437221D01*
X254852Y437451D01*
X254794Y437682D01*
X254788Y437695D01*
X254785Y437708D01*
X254689Y437926D01*
X254595Y438145D01*
X254588Y438156D01*
X254582Y438169D01*
X254453Y438370D01*
X254326Y438570D01*
X254317Y438580D01*
X254309Y438592D01*
X254150Y438770D01*
X253992Y438948D01*
X253982Y438956D01*
X253973Y438967D01*
X253787Y439117D01*
X253604Y439268D01*
X253592Y439275D01*
X253581Y439283D01*
X253375Y439402D01*
X253169Y439522D01*
X253157Y439527D01*
X253145Y439534D01*
X252923Y439618D01*
X252700Y439705D01*
X252687Y439708D01*
X252674Y439713D01*
X252441Y439761D01*
X252208Y439811D01*
X252194Y439812D01*
X252181Y439815D01*
X251787Y439839D01*
X245791Y439839D01*
X239839Y445791D01*
X239839Y454209D01*
X245791Y460161D01*
X254209Y460161D01*
X260161Y454209D01*
X260161Y448213D01*
X260162Y448200D01*
X260161Y448186D01*
X260182Y447948D01*
X260201Y447711D01*
X260204Y447698D01*
X260205Y447684D01*
X260264Y447451D01*
X260319Y447222D01*
X260325Y447210D01*
X260328Y447196D01*
X260423Y446976D01*
X260514Y446758D01*
X260521Y446746D01*
X260527Y446733D01*
X260654Y446532D01*
X260780Y446330D01*
X260789Y446319D01*
X260796Y446308D01*
X260953Y446130D01*
X261110Y445949D01*
X261120Y445941D01*
X261129Y445930D01*
X261313Y445780D01*
X261496Y445626D01*
X261508Y445619D01*
X261518Y445610D01*
X261723Y445490D01*
X261928Y445368D01*
X261941Y445363D01*
X261952Y445356D01*
X262175Y445269D01*
X262396Y445181D01*
X262409Y445178D01*
X262422Y445173D01*
X262655Y445123D01*
X262887Y445071D01*
X262901Y445070D01*
X262914Y445067D01*
X263151Y445054D01*
X263389Y445039D01*
X263403Y445041D01*
X263417Y445040D01*
X263651Y445065D01*
X263891Y445088D01*
X263904Y445091D01*
X263917Y445093D01*
X264146Y445155D01*
X264378Y445215D01*
X264390Y445221D01*
X264404Y445224D01*
X264621Y445322D01*
X264839Y445418D01*
X264850Y445425D01*
X264863Y445431D01*
X265062Y445562D01*
X265262Y445691D01*
X265272Y445700D01*
X265283Y445707D01*
X265580Y445969D01*
X340381Y520770D01*
X340390Y520781D01*
X340401Y520790D01*
X340554Y520973D01*
X340708Y521154D01*
X340715Y521165D01*
X340724Y521176D01*
X340845Y521379D01*
X340970Y521584D01*
X340975Y521596D01*
X340982Y521608D01*
X341070Y521827D01*
X341161Y522050D01*
X341164Y522063D01*
X341169Y522076D01*
X341221Y522308D01*
X341275Y522540D01*
X341276Y522554D01*
X341279Y522567D01*
X341294Y522804D01*
X341311Y523042D01*
X341310Y523056D01*
X341311Y523069D01*
X341288Y523307D01*
X341267Y523544D01*
X341263Y523557D01*
X341262Y523571D01*
X341202Y523801D01*
X341144Y524032D01*
X341138Y524045D01*
X341135Y524058D01*
X341039Y524276D01*
X340945Y524495D01*
X340938Y524506D01*
X340932Y524519D01*
X340803Y524720D01*
X340676Y524920D01*
X340667Y524930D01*
X340659Y524942D01*
X340500Y525120D01*
X340342Y525298D01*
X340332Y525306D01*
X340323Y525317D01*
X340137Y525467D01*
X339954Y525618D01*
X339942Y525625D01*
X339931Y525633D01*
X339725Y525752D01*
X339519Y525872D01*
X339507Y525877D01*
X339495Y525884D01*
X339273Y525968D01*
X339050Y526055D01*
X339037Y526058D01*
X339024Y526063D01*
X338791Y526111D01*
X338558Y526161D01*
X338544Y526162D01*
X338531Y526165D01*
X338137Y526189D01*
X169242Y526189D01*
X167841Y526769D01*
X166323Y528288D01*
X136863Y557748D01*
X136832Y557774D01*
X136805Y557805D01*
X136641Y557937D01*
X136480Y558074D01*
X136445Y558096D01*
X136413Y558121D01*
X136231Y558226D01*
X136050Y558336D01*
X136012Y558352D01*
X135977Y558372D01*
X135780Y558447D01*
X135584Y558527D01*
X135544Y558536D01*
X135506Y558551D01*
X135299Y558593D01*
X135094Y558642D01*
X135053Y558644D01*
X135013Y558653D01*
X134619Y558677D01*
X133742Y558677D01*
X131418Y559640D01*
X129640Y561418D01*
X128677Y563742D01*
X128677Y566258D01*
X129640Y568582D01*
X131418Y570360D01*
X133742Y571323D01*
X136258Y571323D01*
X138582Y570360D01*
X140360Y568582D01*
X141323Y566258D01*
X141323Y565381D01*
X141326Y565340D01*
X141324Y565300D01*
X141346Y565090D01*
X141363Y564879D01*
X141372Y564839D01*
X141377Y564799D01*
X141432Y564595D01*
X141481Y564390D01*
X141497Y564352D01*
X141508Y564313D01*
X141595Y564120D01*
X141676Y563926D01*
X141698Y563891D01*
X141715Y563854D01*
X141831Y563677D01*
X141942Y563498D01*
X141969Y563467D01*
X141991Y563433D01*
X142252Y563137D01*
X170649Y534740D01*
X170680Y534714D01*
X170707Y534683D01*
X170871Y534551D01*
X171032Y534414D01*
X171067Y534392D01*
X171099Y534367D01*
X171281Y534262D01*
X171462Y534152D01*
X171500Y534136D01*
X171535Y534116D01*
X171732Y534041D01*
X171928Y533961D01*
X171968Y533952D01*
X172006Y533937D01*
X172213Y533895D01*
X172418Y533846D01*
X172459Y533844D01*
X172499Y533835D01*
X172893Y533811D01*
X310969Y533811D01*
X311115Y533822D01*
X311262Y533824D01*
X311366Y533842D01*
X311471Y533851D01*
X311614Y533885D01*
X311758Y533910D01*
X311858Y533945D01*
X311961Y533969D01*
X312096Y534026D01*
X312234Y534074D01*
X312328Y534123D01*
X312425Y534164D01*
X312550Y534242D01*
X312679Y534310D01*
X312763Y534374D01*
X312853Y534430D01*
X312964Y534526D01*
X313080Y534614D01*
X313153Y534691D01*
X313233Y534760D01*
X313327Y534872D01*
X313429Y534978D01*
X313489Y535065D01*
X313557Y535146D01*
X313632Y535271D01*
X313715Y535392D01*
X313761Y535487D01*
X313815Y535578D01*
X313869Y535714D01*
X313932Y535846D01*
X313962Y535948D01*
X314001Y536046D01*
X314034Y536188D01*
X314075Y536329D01*
X314089Y536434D01*
X314112Y536537D01*
X314121Y536683D01*
X314140Y536828D01*
X314137Y536934D01*
X314143Y537039D01*
X314129Y537185D01*
X314125Y537332D01*
X314105Y537435D01*
X314095Y537541D01*
X314058Y537683D01*
X314030Y537826D01*
X313988Y537949D01*
X313967Y538028D01*
X313938Y538095D01*
X313902Y538200D01*
X313677Y538742D01*
X313677Y541258D01*
X314640Y543582D01*
X316418Y545360D01*
X318742Y546323D01*
X321258Y546323D01*
X323582Y545360D01*
X324201Y544740D01*
X324232Y544714D01*
X324260Y544683D01*
X324424Y544551D01*
X324584Y544414D01*
X324619Y544392D01*
X324651Y544367D01*
X324834Y544262D01*
X325014Y544152D01*
X325053Y544136D01*
X325088Y544116D01*
X325285Y544041D01*
X325480Y543961D01*
X325520Y543952D01*
X325559Y543937D01*
X325765Y543895D01*
X325971Y543846D01*
X326012Y543844D01*
X326052Y543835D01*
X326446Y543811D01*
X346370Y543811D01*
X346411Y543814D01*
X346452Y543812D01*
X346661Y543834D01*
X346872Y543851D01*
X346912Y543860D01*
X346952Y543865D01*
X347156Y543920D01*
X347361Y543969D01*
X347399Y543985D01*
X347439Y543996D01*
X347632Y544083D01*
X347826Y544164D01*
X347860Y544186D01*
X347898Y544203D01*
X348074Y544319D01*
X348253Y544430D01*
X348284Y544457D01*
X348318Y544479D01*
X348615Y544740D01*
X354697Y550823D01*
X356103Y551405D01*
X356115Y551411D01*
X356128Y551416D01*
X356340Y551526D01*
X356552Y551634D01*
X356563Y551642D01*
X356575Y551649D01*
X356764Y551789D01*
X356958Y551931D01*
X356968Y551941D01*
X356979Y551949D01*
X357144Y552119D01*
X357313Y552289D01*
X357321Y552300D01*
X357330Y552310D01*
X357468Y552505D01*
X357606Y552698D01*
X357612Y552710D01*
X357620Y552721D01*
X357725Y552935D01*
X357831Y553148D01*
X357835Y553161D01*
X357842Y553174D01*
X357911Y553403D01*
X357982Y553629D01*
X357984Y553642D01*
X357988Y553655D01*
X358021Y553893D01*
X358056Y554127D01*
X358055Y554140D01*
X358057Y554154D01*
X358052Y554394D01*
X358049Y554630D01*
X358047Y554644D01*
X358047Y554657D01*
X358004Y554892D01*
X357963Y555126D01*
X357959Y555139D01*
X357956Y555153D01*
X357877Y555378D01*
X357800Y555603D01*
X357793Y555615D01*
X357789Y555628D01*
X357675Y555837D01*
X357563Y556047D01*
X357555Y556058D01*
X357548Y556070D01*
X357404Y556258D01*
X357259Y556449D01*
X357249Y556458D01*
X357241Y556469D01*
X357068Y556632D01*
X356896Y556797D01*
X356884Y556805D01*
X356874Y556814D01*
X356678Y556948D01*
X356482Y557083D01*
X356469Y557089D01*
X356469Y557090D01*
X354640Y558918D01*
X353677Y561242D01*
X353677Y563758D01*
X354640Y566082D01*
X355260Y566701D01*
X355286Y566732D01*
X355317Y566760D01*
X355449Y566924D01*
X355586Y567084D01*
X355608Y567119D01*
X355633Y567151D01*
X355738Y567334D01*
X355848Y567514D01*
X355864Y567553D01*
X355884Y567588D01*
X355959Y567785D01*
X356039Y567980D01*
X356048Y568020D01*
X356063Y568059D01*
X356105Y568265D01*
X356154Y568471D01*
X356156Y568512D01*
X356165Y568552D01*
X356189Y568946D01*
X356189Y623554D01*
X356186Y623595D01*
X356188Y623636D01*
X356166Y623845D01*
X356149Y624056D01*
X356140Y624096D01*
X356135Y624137D01*
X356080Y624340D01*
X356031Y624545D01*
X356015Y624583D01*
X356004Y624623D01*
X355917Y624816D01*
X355836Y625010D01*
X355814Y625044D01*
X355797Y625082D01*
X355681Y625259D01*
X355570Y625438D01*
X355543Y625469D01*
X355521Y625503D01*
X355260Y625799D01*
X354640Y626418D01*
X353677Y628742D01*
X353677Y631258D01*
X354640Y633582D01*
X356418Y635360D01*
X358742Y636323D01*
X361258Y636323D01*
X363581Y635360D01*
X365770Y633171D01*
X365781Y633162D01*
X365790Y633152D01*
X365972Y632999D01*
X366154Y632845D01*
X366165Y632837D01*
X366176Y632829D01*
X366380Y632706D01*
X366584Y632583D01*
X366596Y632577D01*
X366608Y632570D01*
X366828Y632482D01*
X367050Y632392D01*
X367063Y632389D01*
X367076Y632384D01*
X367307Y632332D01*
X367540Y632277D01*
X367554Y632276D01*
X367567Y632273D01*
X367805Y632258D01*
X368042Y632242D01*
X368056Y632243D01*
X368069Y632242D01*
X368307Y632265D01*
X368544Y632286D01*
X368557Y632289D01*
X368571Y632290D01*
X368801Y632351D01*
X369032Y632409D01*
X369045Y632414D01*
X369058Y632418D01*
X369276Y632513D01*
X369495Y632607D01*
X369506Y632615D01*
X369519Y632620D01*
X369720Y632750D01*
X369920Y632877D01*
X369930Y632886D01*
X369942Y632893D01*
X370121Y633054D01*
X370298Y633210D01*
X370306Y633221D01*
X370317Y633230D01*
X370466Y633414D01*
X370618Y633599D01*
X370625Y633611D01*
X370633Y633621D01*
X370751Y633826D01*
X370872Y634033D01*
X370877Y634046D01*
X370884Y634058D01*
X370968Y634280D01*
X371055Y634502D01*
X371058Y634516D01*
X371063Y634529D01*
X371111Y634763D01*
X371161Y634995D01*
X371162Y635008D01*
X371165Y635022D01*
X371189Y635416D01*
X371189Y642107D01*
X371186Y642148D01*
X371188Y642188D01*
X371166Y642398D01*
X371149Y642609D01*
X371140Y642649D01*
X371135Y642689D01*
X371080Y642893D01*
X371031Y643098D01*
X371015Y643136D01*
X371004Y643175D01*
X370917Y643368D01*
X370836Y643562D01*
X370814Y643597D01*
X370797Y643634D01*
X370681Y643811D01*
X370570Y643990D01*
X370543Y644021D01*
X370521Y644055D01*
X370260Y644351D01*
X349351Y665260D01*
X349320Y665286D01*
X349293Y665317D01*
X349129Y665449D01*
X348968Y665586D01*
X348933Y665608D01*
X348901Y665633D01*
X348719Y665738D01*
X348538Y665848D01*
X348500Y665864D01*
X348465Y665884D01*
X348268Y665959D01*
X348072Y666039D01*
X348032Y666048D01*
X347994Y666063D01*
X347787Y666105D01*
X347582Y666154D01*
X347541Y666156D01*
X347501Y666165D01*
X347107Y666189D01*
X346446Y666189D01*
X346405Y666186D01*
X346364Y666188D01*
X346155Y666166D01*
X345944Y666149D01*
X345904Y666140D01*
X345863Y666135D01*
X345660Y666080D01*
X345455Y666031D01*
X345417Y666015D01*
X345377Y666004D01*
X345184Y665917D01*
X344990Y665836D01*
X344956Y665814D01*
X344918Y665797D01*
X344741Y665681D01*
X344562Y665570D01*
X344531Y665543D01*
X344497Y665521D01*
X344201Y665260D01*
X343582Y664640D01*
X341258Y663677D01*
X338742Y663677D01*
X336418Y664640D01*
X334640Y666418D01*
X333677Y668742D01*
X333677Y671258D01*
X334640Y673582D01*
X336418Y675360D01*
X338742Y676323D01*
X341258Y676323D01*
X343582Y675360D01*
X344201Y674740D01*
X344232Y674714D01*
X344260Y674683D01*
X344424Y674551D01*
X344584Y674414D01*
X344619Y674392D01*
X344651Y674367D01*
X344834Y674262D01*
X345014Y674152D01*
X345053Y674136D01*
X345088Y674116D01*
X345285Y674041D01*
X345480Y673961D01*
X345520Y673952D01*
X345559Y673937D01*
X345765Y673895D01*
X345971Y673846D01*
X346012Y673844D01*
X346052Y673835D01*
X346446Y673811D01*
X350758Y673811D01*
X352159Y673231D01*
X353677Y671712D01*
X378231Y647159D01*
X378811Y645758D01*
X378811Y576863D01*
X378812Y576850D01*
X378811Y576836D01*
X378832Y576600D01*
X378851Y576361D01*
X378854Y576348D01*
X378855Y576334D01*
X378913Y576104D01*
X378969Y575872D01*
X378975Y575859D01*
X378978Y575846D01*
X379073Y575625D01*
X379164Y575408D01*
X379171Y575396D01*
X379177Y575383D01*
X379304Y575182D01*
X379430Y574980D01*
X379439Y574969D01*
X379446Y574958D01*
X379603Y574780D01*
X379760Y574599D01*
X379770Y574591D01*
X379779Y574580D01*
X379963Y574429D01*
X380146Y574276D01*
X380157Y574269D01*
X380168Y574260D01*
X380374Y574140D01*
X380578Y574018D01*
X380591Y574013D01*
X380602Y574006D01*
X380826Y573919D01*
X381046Y573831D01*
X381059Y573828D01*
X381072Y573823D01*
X381304Y573773D01*
X381537Y573721D01*
X381551Y573720D01*
X381564Y573717D01*
X381800Y573704D01*
X382039Y573689D01*
X382053Y573691D01*
X382067Y573690D01*
X382302Y573715D01*
X382541Y573738D01*
X382554Y573741D01*
X382567Y573743D01*
X382797Y573805D01*
X383028Y573865D01*
X383040Y573871D01*
X383054Y573874D01*
X383270Y573972D01*
X383489Y574068D01*
X383500Y574075D01*
X383513Y574081D01*
X383710Y574211D01*
X383912Y574341D01*
X383922Y574350D01*
X383934Y574357D01*
X384230Y574619D01*
X385341Y575731D01*
X386742Y576311D01*
X558258Y576311D01*
X559659Y575731D01*
X563137Y572252D01*
X563168Y572226D01*
X563195Y572195D01*
X563359Y572063D01*
X563520Y571926D01*
X563555Y571904D01*
X563587Y571879D01*
X563769Y571774D01*
X563950Y571664D01*
X563988Y571648D01*
X564023Y571628D01*
X564220Y571553D01*
X564416Y571473D01*
X564456Y571464D01*
X564494Y571449D01*
X564701Y571407D01*
X564906Y571358D01*
X564947Y571356D01*
X564987Y571347D01*
X565381Y571323D01*
X566258Y571323D01*
X568582Y570360D01*
X570360Y568582D01*
X571323Y566258D01*
X571323Y563742D01*
X570360Y561418D01*
X568582Y559640D01*
X566258Y558677D01*
X563742Y558677D01*
X561418Y559640D01*
X559640Y561418D01*
X558677Y563742D01*
X558677Y564619D01*
X558674Y564660D01*
X558676Y564700D01*
X558654Y564910D01*
X558637Y565121D01*
X558628Y565161D01*
X558623Y565201D01*
X558568Y565405D01*
X558519Y565610D01*
X558503Y565648D01*
X558492Y565687D01*
X558405Y565880D01*
X558324Y566074D01*
X558302Y566109D01*
X558285Y566146D01*
X558169Y566323D01*
X558058Y566502D01*
X558031Y566533D01*
X558009Y566567D01*
X557748Y566863D01*
X556851Y567760D01*
X556820Y567786D01*
X556793Y567817D01*
X556629Y567949D01*
X556468Y568086D01*
X556433Y568108D01*
X556401Y568133D01*
X556219Y568238D01*
X556038Y568348D01*
X556000Y568364D01*
X555965Y568384D01*
X555768Y568459D01*
X555572Y568539D01*
X555532Y568548D01*
X555494Y568563D01*
X555287Y568605D01*
X555082Y568654D01*
X555041Y568656D01*
X555001Y568665D01*
X554607Y568689D01*
X409031Y568689D01*
X408885Y568678D01*
X408738Y568676D01*
X408634Y568658D01*
X408529Y568649D01*
X408387Y568615D01*
X408242Y568590D01*
X408142Y568555D01*
X408039Y568531D01*
X407904Y568474D01*
X407766Y568426D01*
X407672Y568377D01*
X407575Y568336D01*
X407451Y568259D01*
X407321Y568190D01*
X407237Y568126D01*
X407147Y568070D01*
X407036Y567974D01*
X406920Y567886D01*
X406847Y567810D01*
X406767Y567740D01*
X406673Y567628D01*
X406572Y567522D01*
X406511Y567435D01*
X406444Y567354D01*
X406368Y567229D01*
X406285Y567108D01*
X406239Y567013D01*
X406185Y566922D01*
X406131Y566786D01*
X406068Y566654D01*
X406038Y566553D01*
X405999Y566454D01*
X405966Y566311D01*
X405925Y566171D01*
X405911Y566066D01*
X405888Y565963D01*
X405879Y565817D01*
X405860Y565672D01*
X405863Y565566D01*
X405857Y565461D01*
X405871Y565315D01*
X405875Y565168D01*
X405895Y565065D01*
X405905Y564959D01*
X405942Y564817D01*
X405970Y564674D01*
X406012Y564551D01*
X406033Y564472D01*
X406062Y564405D01*
X406098Y564300D01*
X406323Y563758D01*
X406323Y561242D01*
X405304Y558783D01*
X405206Y558619D01*
X405083Y558417D01*
X405077Y558404D01*
X405070Y558392D01*
X404982Y558171D01*
X404892Y557951D01*
X404889Y557937D01*
X404884Y557924D01*
X404831Y557691D01*
X404777Y557460D01*
X404776Y557447D01*
X404773Y557433D01*
X404758Y557194D01*
X404742Y556958D01*
X404743Y556944D01*
X404742Y556931D01*
X404765Y556692D01*
X404786Y556457D01*
X404789Y556443D01*
X404790Y556429D01*
X404851Y556197D01*
X404909Y555968D01*
X404914Y555956D01*
X404918Y555942D01*
X405014Y555723D01*
X405107Y555506D01*
X405115Y555494D01*
X405120Y555481D01*
X405250Y555280D01*
X405377Y555080D01*
X405386Y555070D01*
X405393Y555058D01*
X405554Y554879D01*
X405710Y554703D01*
X405720Y554694D01*
X405730Y554683D01*
X405915Y554533D01*
X406098Y554382D01*
X406110Y554375D01*
X406121Y554367D01*
X406327Y554248D01*
X406533Y554128D01*
X406546Y554123D01*
X406558Y554116D01*
X406780Y554031D01*
X407002Y553945D01*
X407016Y553942D01*
X407029Y553937D01*
X407262Y553889D01*
X407494Y553839D01*
X407508Y553838D01*
X407522Y553835D01*
X407916Y553811D01*
X530758Y553811D01*
X532159Y553231D01*
X608137Y477252D01*
X608168Y477226D01*
X608195Y477195D01*
X608359Y477063D01*
X608520Y476926D01*
X608555Y476904D01*
X608587Y476879D01*
X608769Y476774D01*
X608950Y476664D01*
X608988Y476648D01*
X609023Y476628D01*
X609220Y476553D01*
X609416Y476473D01*
X609456Y476464D01*
X609494Y476449D01*
X609701Y476407D01*
X609906Y476358D01*
X609947Y476356D01*
X609987Y476347D01*
X610381Y476323D01*
X611258Y476323D01*
X613582Y475360D01*
X615360Y473582D01*
X616323Y471258D01*
X616323Y468742D01*
X615360Y466418D01*
X613582Y464640D01*
X611172Y463642D01*
X611117Y463637D01*
X611060Y463624D01*
X611003Y463617D01*
X610816Y463564D01*
X610627Y463519D01*
X610574Y463496D01*
X610518Y463480D01*
X610342Y463399D01*
X610163Y463324D01*
X610114Y463293D01*
X610061Y463269D01*
X609900Y463161D01*
X609735Y463058D01*
X609691Y463020D01*
X609643Y462988D01*
X609502Y462856D01*
X609355Y462728D01*
X609318Y462684D01*
X609275Y462644D01*
X609156Y462491D01*
X609032Y462342D01*
X609002Y462292D01*
X608966Y462247D01*
X608873Y462076D01*
X608773Y461910D01*
X608752Y461856D01*
X608724Y461805D01*
X608658Y461622D01*
X608587Y461442D01*
X608574Y461386D01*
X608554Y461331D01*
X608519Y461141D01*
X608476Y460951D01*
X608473Y460893D01*
X608462Y460836D01*
X608457Y460642D01*
X608445Y460449D01*
X608450Y460391D01*
X608449Y460333D01*
X608475Y460140D01*
X608493Y459947D01*
X608508Y459891D01*
X608516Y459834D01*
X608572Y459648D01*
X608621Y459460D01*
X608644Y459407D01*
X608661Y459351D01*
X608745Y459177D01*
X608823Y458999D01*
X608855Y458950D01*
X608880Y458898D01*
X609084Y458595D01*
X609096Y458576D01*
X609098Y458574D01*
X609100Y458571D01*
X609218Y458418D01*
X610100Y456889D01*
X610776Y455259D01*
X611232Y453554D01*
X611463Y451804D01*
X611463Y443174D01*
X601174Y443174D01*
X601174Y464179D01*
X601267Y464195D01*
X601415Y464211D01*
X601514Y464238D01*
X601615Y464256D01*
X601757Y464304D01*
X601901Y464344D01*
X601994Y464386D01*
X602091Y464419D01*
X602224Y464490D01*
X602360Y464551D01*
X602445Y464608D01*
X602536Y464656D01*
X602655Y464746D01*
X602780Y464829D01*
X602856Y464898D01*
X602937Y464960D01*
X603041Y465068D01*
X603151Y465169D01*
X603215Y465250D01*
X603285Y465323D01*
X603370Y465446D01*
X603464Y465564D01*
X603514Y465654D01*
X603572Y465737D01*
X603637Y465872D01*
X603710Y466003D01*
X603745Y466099D01*
X603789Y466192D01*
X603832Y466335D01*
X603883Y466476D01*
X603903Y466576D01*
X603932Y466675D01*
X603951Y466823D01*
X603980Y466970D01*
X603984Y467073D01*
X603997Y467174D01*
X603992Y467323D01*
X603997Y467473D01*
X603985Y467575D01*
X603982Y467677D01*
X603953Y467824D01*
X603935Y467973D01*
X603906Y468071D01*
X603887Y468172D01*
X603821Y468365D01*
X603794Y468457D01*
X603777Y468493D01*
X603759Y468545D01*
X603677Y468742D01*
X603677Y469619D01*
X603674Y469660D01*
X603676Y469700D01*
X603654Y469910D01*
X603637Y470121D01*
X603628Y470161D01*
X603623Y470201D01*
X603568Y470404D01*
X603519Y470610D01*
X603503Y470648D01*
X603492Y470687D01*
X603405Y470880D01*
X603324Y471074D01*
X603302Y471109D01*
X603285Y471146D01*
X603169Y471323D01*
X603058Y471502D01*
X603031Y471533D01*
X603009Y471567D01*
X602748Y471863D01*
X529351Y545260D01*
X529320Y545286D01*
X529293Y545317D01*
X529129Y545449D01*
X528968Y545586D01*
X528933Y545608D01*
X528901Y545633D01*
X528719Y545738D01*
X528538Y545848D01*
X528500Y545864D01*
X528465Y545884D01*
X528268Y545959D01*
X528072Y546039D01*
X528032Y546048D01*
X527994Y546063D01*
X527787Y546105D01*
X527582Y546154D01*
X527541Y546156D01*
X527501Y546165D01*
X527107Y546189D01*
X401446Y546189D01*
X401405Y546186D01*
X401364Y546188D01*
X401155Y546166D01*
X400944Y546149D01*
X400904Y546140D01*
X400863Y546135D01*
X400660Y546080D01*
X400455Y546031D01*
X400417Y546015D01*
X400377Y546004D01*
X400184Y545917D01*
X399990Y545836D01*
X399956Y545814D01*
X399918Y545797D01*
X399741Y545681D01*
X399562Y545570D01*
X399531Y545543D01*
X399497Y545521D01*
X399201Y545260D01*
X398582Y544640D01*
X397507Y544195D01*
X397482Y544182D01*
X397456Y544173D01*
X397258Y544068D01*
X397058Y543966D01*
X397036Y543949D01*
X397012Y543937D01*
X396833Y543801D01*
X396651Y543669D01*
X396632Y543649D01*
X396610Y543633D01*
X396455Y543470D01*
X396297Y543311D01*
X396281Y543289D01*
X396262Y543269D01*
X396134Y543085D01*
X396003Y542902D01*
X395991Y542877D01*
X395976Y542855D01*
X395878Y542652D01*
X395778Y542451D01*
X395770Y542426D01*
X395758Y542401D01*
X395694Y542185D01*
X395627Y541971D01*
X395623Y541944D01*
X395615Y541918D01*
X395587Y541696D01*
X395554Y541473D01*
X395554Y541446D01*
X395551Y541419D01*
X395558Y541194D01*
X395560Y540970D01*
X395565Y540943D01*
X395566Y540915D01*
X395608Y540695D01*
X395646Y540473D01*
X395655Y540448D01*
X395660Y540421D01*
X395789Y540047D01*
X396323Y538758D01*
X396323Y537881D01*
X396326Y537840D01*
X396324Y537800D01*
X396346Y537590D01*
X396363Y537379D01*
X396372Y537339D01*
X396377Y537299D01*
X396432Y537095D01*
X396481Y536890D01*
X396497Y536852D01*
X396508Y536813D01*
X396595Y536620D01*
X396676Y536426D01*
X396698Y536391D01*
X396715Y536354D01*
X396831Y536177D01*
X396942Y535998D01*
X396969Y535967D01*
X396991Y535933D01*
X397252Y535637D01*
X403231Y529659D01*
X403811Y528258D01*
X403811Y469242D01*
X403231Y467841D01*
X367252Y431863D01*
X367226Y431832D01*
X367195Y431805D01*
X367063Y431641D01*
X366926Y431480D01*
X366904Y431445D01*
X366879Y431413D01*
X366774Y431231D01*
X366664Y431050D01*
X366648Y431012D01*
X366628Y430977D01*
X366553Y430780D01*
X366473Y430584D01*
X366464Y430544D01*
X366449Y430506D01*
X366407Y430299D01*
X366358Y430094D01*
X366356Y430053D01*
X366347Y430013D01*
X366323Y429619D01*
X366323Y428742D01*
X365360Y426418D01*
X363582Y424640D01*
X361258Y423677D01*
X358742Y423677D01*
X356418Y424640D01*
X354640Y426418D01*
X353677Y428742D01*
X353677Y431258D01*
X354640Y433582D01*
X356418Y435360D01*
X358742Y436323D01*
X359619Y436323D01*
X359660Y436326D01*
X359700Y436324D01*
X359910Y436346D01*
X360121Y436363D01*
X360161Y436372D01*
X360201Y436377D01*
X360405Y436432D01*
X360610Y436481D01*
X360648Y436497D01*
X360687Y436508D01*
X360880Y436595D01*
X361074Y436676D01*
X361109Y436698D01*
X361146Y436715D01*
X361323Y436831D01*
X361502Y436942D01*
X361533Y436969D01*
X361567Y436991D01*
X361863Y437252D01*
X395260Y470649D01*
X395286Y470680D01*
X395317Y470707D01*
X395449Y470871D01*
X395586Y471032D01*
X395608Y471067D01*
X395633Y471099D01*
X395738Y471281D01*
X395848Y471462D01*
X395864Y471500D01*
X395884Y471535D01*
X395959Y471732D01*
X396039Y471928D01*
X396048Y471968D01*
X396063Y472006D01*
X396105Y472213D01*
X396154Y472418D01*
X396156Y472459D01*
X396165Y472499D01*
X396189Y472893D01*
X396189Y490969D01*
X396178Y491115D01*
X396176Y491262D01*
X396158Y491366D01*
X396149Y491471D01*
X396115Y491614D01*
X396090Y491758D01*
X396055Y491858D01*
X396031Y491961D01*
X395974Y492096D01*
X395926Y492234D01*
X395877Y492328D01*
X395836Y492425D01*
X395758Y492550D01*
X395690Y492679D01*
X395626Y492763D01*
X395570Y492853D01*
X395474Y492964D01*
X395386Y493080D01*
X395309Y493153D01*
X395240Y493233D01*
X395128Y493327D01*
X395022Y493429D01*
X394935Y493489D01*
X394854Y493557D01*
X394729Y493632D01*
X394608Y493715D01*
X394513Y493761D01*
X394422Y493815D01*
X394286Y493869D01*
X394154Y493932D01*
X394052Y493962D01*
X393954Y494001D01*
X393812Y494034D01*
X393671Y494075D01*
X393566Y494089D01*
X393463Y494112D01*
X393317Y494121D01*
X393172Y494140D01*
X393066Y494137D01*
X392961Y494143D01*
X392815Y494129D01*
X392668Y494125D01*
X392565Y494105D01*
X392459Y494095D01*
X392317Y494058D01*
X392174Y494030D01*
X392051Y493988D01*
X391972Y493967D01*
X391905Y493938D01*
X391800Y493902D01*
X391258Y493677D01*
X388742Y493677D01*
X386418Y494640D01*
X385799Y495260D01*
X385768Y495286D01*
X385740Y495317D01*
X385576Y495449D01*
X385416Y495586D01*
X385381Y495608D01*
X385349Y495633D01*
X385166Y495738D01*
X384986Y495848D01*
X384947Y495864D01*
X384912Y495884D01*
X384715Y495959D01*
X384520Y496039D01*
X384480Y496048D01*
X384441Y496063D01*
X384235Y496105D01*
X384029Y496154D01*
X383988Y496156D01*
X383948Y496165D01*
X383554Y496189D01*
X372893Y496189D01*
X372852Y496186D01*
X372812Y496188D01*
X372602Y496166D01*
X372391Y496149D01*
X372351Y496140D01*
X372311Y496135D01*
X372107Y496080D01*
X371902Y496031D01*
X371864Y496015D01*
X371825Y496004D01*
X371632Y495917D01*
X371438Y495836D01*
X371403Y495814D01*
X371366Y495797D01*
X371189Y495681D01*
X371010Y495570D01*
X370979Y495543D01*
X370945Y495521D01*
X370649Y495260D01*
X347252Y471863D01*
X347226Y471832D01*
X347195Y471805D01*
X347063Y471641D01*
X346926Y471480D01*
X346904Y471445D01*
X346879Y471413D01*
X346774Y471231D01*
X346664Y471050D01*
X346648Y471012D01*
X346628Y470977D01*
X346553Y470780D01*
X346473Y470584D01*
X346464Y470544D01*
X346449Y470506D01*
X346407Y470299D01*
X346358Y470094D01*
X346356Y470053D01*
X346347Y470013D01*
X346323Y469619D01*
X346323Y468742D01*
X345360Y466418D01*
X343582Y464640D01*
X341258Y463677D01*
X338742Y463677D01*
X336418Y464640D01*
X334640Y466418D01*
X333677Y468742D01*
X333677Y471258D01*
X334640Y473582D01*
X336418Y475360D01*
X338742Y476323D01*
X339619Y476323D01*
X339660Y476326D01*
X339700Y476324D01*
X339910Y476346D01*
X340121Y476363D01*
X340161Y476372D01*
X340201Y476377D01*
X340405Y476432D01*
X340610Y476481D01*
X340648Y476497D01*
X340687Y476508D01*
X340880Y476595D01*
X341074Y476676D01*
X341109Y476698D01*
X341146Y476715D01*
X341323Y476831D01*
X341502Y476942D01*
X341533Y476969D01*
X341567Y476991D01*
X341863Y477252D01*
X367841Y503231D01*
X369242Y503811D01*
X383554Y503811D01*
X383595Y503814D01*
X383636Y503812D01*
X383845Y503834D01*
X384056Y503851D01*
X384096Y503860D01*
X384137Y503865D01*
X384340Y503920D01*
X384545Y503969D01*
X384583Y503985D01*
X384623Y503996D01*
X384816Y504083D01*
X385010Y504164D01*
X385044Y504186D01*
X385082Y504203D01*
X385259Y504319D01*
X385438Y504430D01*
X385469Y504457D01*
X385503Y504479D01*
X385799Y504740D01*
X386418Y505360D01*
X388742Y506323D01*
X391258Y506323D01*
X391800Y506098D01*
X391940Y506053D01*
X392076Y505999D01*
X392179Y505975D01*
X392279Y505943D01*
X392424Y505920D01*
X392567Y505888D01*
X392673Y505882D01*
X392777Y505865D01*
X392923Y505866D01*
X393069Y505857D01*
X393175Y505867D01*
X393280Y505867D01*
X393425Y505891D01*
X393571Y505905D01*
X393673Y505932D01*
X393777Y505949D01*
X393916Y505995D01*
X394058Y506033D01*
X394155Y506075D01*
X394255Y506108D01*
X394385Y506176D01*
X394519Y506235D01*
X394608Y506292D01*
X394701Y506341D01*
X394819Y506429D01*
X394942Y506508D01*
X395021Y506579D01*
X395105Y506642D01*
X395207Y506747D01*
X395317Y506845D01*
X395383Y506927D01*
X395457Y507002D01*
X395541Y507122D01*
X395633Y507236D01*
X395686Y507328D01*
X395747Y507414D01*
X395811Y507546D01*
X395884Y507673D01*
X395922Y507771D01*
X395968Y507866D01*
X396011Y508006D01*
X396063Y508143D01*
X396084Y508247D01*
X396115Y508348D01*
X396135Y508493D01*
X396165Y508636D01*
X396173Y508766D01*
X396184Y508847D01*
X396182Y508920D01*
X396189Y509031D01*
X396189Y524607D01*
X396186Y524648D01*
X396188Y524688D01*
X396166Y524898D01*
X396149Y525109D01*
X396140Y525149D01*
X396135Y525189D01*
X396080Y525393D01*
X396031Y525598D01*
X396015Y525636D01*
X396004Y525675D01*
X395917Y525868D01*
X395836Y526062D01*
X395814Y526097D01*
X395797Y526134D01*
X395681Y526311D01*
X395570Y526490D01*
X395543Y526521D01*
X395521Y526555D01*
X395260Y526851D01*
X391863Y530248D01*
X391832Y530274D01*
X391805Y530305D01*
X391641Y530437D01*
X391480Y530574D01*
X391445Y530596D01*
X391413Y530621D01*
X391231Y530726D01*
X391050Y530836D01*
X391012Y530852D01*
X390977Y530872D01*
X390780Y530947D01*
X390584Y531027D01*
X390544Y531036D01*
X390506Y531051D01*
X390299Y531093D01*
X390094Y531142D01*
X390053Y531144D01*
X390013Y531153D01*
X389619Y531177D01*
X388742Y531177D01*
X386418Y532140D01*
X384640Y533918D01*
X383677Y536242D01*
X383677Y538758D01*
X383788Y539026D01*
X383829Y539152D01*
X383880Y539276D01*
X383907Y539392D01*
X383944Y539505D01*
X383964Y539636D01*
X383994Y539766D01*
X384003Y539885D01*
X384021Y540003D01*
X384021Y540136D01*
X384030Y540268D01*
X384020Y540387D01*
X384019Y540506D01*
X383997Y540637D01*
X383986Y540770D01*
X383957Y540885D01*
X383937Y541003D01*
X383895Y541129D01*
X383863Y541258D01*
X383816Y541368D01*
X383778Y541481D01*
X383717Y541598D01*
X383664Y541721D01*
X383600Y541821D01*
X383545Y541927D01*
X383466Y542034D01*
X383395Y542146D01*
X383316Y542236D01*
X383245Y542331D01*
X383150Y542424D01*
X383062Y542524D01*
X382970Y542599D01*
X382884Y542683D01*
X382775Y542759D01*
X382673Y542844D01*
X382570Y542904D01*
X382472Y542973D01*
X382353Y543031D01*
X382238Y543098D01*
X382127Y543141D01*
X382020Y543194D01*
X381893Y543233D01*
X381769Y543281D01*
X381653Y543306D01*
X381539Y543341D01*
X381407Y543359D01*
X381277Y543387D01*
X381158Y543393D01*
X381040Y543410D01*
X380907Y543407D01*
X380774Y543414D01*
X380656Y543402D01*
X380536Y543399D01*
X380405Y543375D01*
X380273Y543361D01*
X380158Y543330D01*
X380041Y543309D01*
X379916Y543265D01*
X379787Y543230D01*
X379678Y543181D01*
X379566Y543141D01*
X379450Y543078D01*
X379328Y543023D01*
X379228Y542958D01*
X379124Y542901D01*
X379018Y542820D01*
X378907Y542747D01*
X378795Y542648D01*
X378725Y542593D01*
X378681Y542547D01*
X378611Y542485D01*
X357815Y521689D01*
X356415Y521109D01*
X352813Y521109D01*
X352772Y521106D01*
X352732Y521108D01*
X352522Y521086D01*
X352311Y521069D01*
X352271Y521060D01*
X352231Y521055D01*
X352027Y521000D01*
X351822Y520951D01*
X351784Y520935D01*
X351745Y520924D01*
X351552Y520837D01*
X351358Y520756D01*
X351323Y520734D01*
X351286Y520717D01*
X351109Y520601D01*
X350930Y520490D01*
X350899Y520463D01*
X350865Y520441D01*
X350569Y520180D01*
X238558Y408169D01*
X238463Y408058D01*
X238361Y407953D01*
X238300Y407866D01*
X238231Y407786D01*
X238155Y407660D01*
X238071Y407541D01*
X238025Y407446D01*
X237969Y407356D01*
X237914Y407220D01*
X237850Y407089D01*
X237819Y406988D01*
X237779Y406890D01*
X237745Y406747D01*
X237703Y406607D01*
X237688Y406502D01*
X237664Y406399D01*
X237654Y406254D01*
X237634Y406108D01*
X237636Y406002D01*
X237629Y405897D01*
X237641Y405751D01*
X237645Y405605D01*
X237663Y405501D01*
X237673Y405396D01*
X237709Y405253D01*
X237735Y405109D01*
X237770Y405010D01*
X237796Y404907D01*
X237854Y404772D01*
X237902Y404635D01*
X237953Y404542D01*
X237994Y404445D01*
X238073Y404321D01*
X238143Y404192D01*
X238207Y404108D01*
X238264Y404019D01*
X238361Y403909D01*
X238450Y403793D01*
X238527Y403721D01*
X238597Y403642D01*
X238710Y403549D01*
X238817Y403448D01*
X238904Y403389D01*
X238986Y403322D01*
X239112Y403248D01*
X239233Y403165D01*
X239350Y403108D01*
X239420Y403067D01*
X239488Y403040D01*
X239588Y402992D01*
X240880Y402457D01*
X243453Y399884D01*
X244845Y396523D01*
X244845Y379677D01*
X243453Y376316D01*
X240880Y373743D01*
X237519Y372351D01*
X233881Y372351D01*
X230520Y373743D01*
X227947Y376316D01*
X226555Y379677D01*
X226555Y388503D01*
X226554Y388516D01*
X226555Y388530D01*
X226534Y388768D01*
X226515Y389005D01*
X226512Y389018D01*
X226511Y389032D01*
X226452Y389265D01*
X226397Y389494D01*
X226391Y389506D01*
X226388Y389520D01*
X226293Y389740D01*
X226202Y389958D01*
X226195Y389970D01*
X226189Y389983D01*
X226062Y390184D01*
X225936Y390386D01*
X225927Y390397D01*
X225920Y390408D01*
X225763Y390586D01*
X225606Y390767D01*
X225596Y390775D01*
X225587Y390786D01*
X225403Y390936D01*
X225220Y391090D01*
X225208Y391097D01*
X225198Y391106D01*
X224993Y391226D01*
X224788Y391348D01*
X224775Y391353D01*
X224764Y391360D01*
X224541Y391447D01*
X224320Y391535D01*
X224307Y391538D01*
X224294Y391543D01*
X224061Y391593D01*
X223829Y391645D01*
X223815Y391646D01*
X223802Y391649D01*
X223565Y391662D01*
X223327Y391677D01*
X223313Y391675D01*
X223299Y391676D01*
X223065Y391651D01*
X222825Y391628D01*
X222812Y391625D01*
X222799Y391623D01*
X222570Y391561D01*
X222338Y391501D01*
X222326Y391495D01*
X222312Y391492D01*
X222095Y391394D01*
X221877Y391298D01*
X221866Y391291D01*
X221853Y391285D01*
X221654Y391154D01*
X221454Y391025D01*
X221444Y391016D01*
X221433Y391009D01*
X221136Y390747D01*
X182159Y351769D01*
X180758Y351189D01*
X74242Y351189D01*
G37*
%LPD*%
%LPC*%
G36*
X318742Y93677D02*
X318742Y93677D01*
X316418Y94640D01*
X314640Y96418D01*
X313677Y98742D01*
X313677Y101258D01*
X314640Y103582D01*
X316418Y105360D01*
X318742Y106323D01*
X321258Y106323D01*
X323696Y105313D01*
X323709Y105302D01*
X323902Y105189D01*
X324095Y105071D01*
X324120Y105061D01*
X324144Y105047D01*
X324352Y104966D01*
X324561Y104881D01*
X324587Y104874D01*
X324613Y104864D01*
X324832Y104817D01*
X325051Y104766D01*
X325078Y104764D01*
X325105Y104758D01*
X325329Y104746D01*
X325553Y104730D01*
X325581Y104733D01*
X325608Y104731D01*
X325831Y104755D01*
X326055Y104775D01*
X326081Y104781D01*
X326109Y104784D01*
X326325Y104843D01*
X326543Y104897D01*
X326568Y104908D01*
X326595Y104915D01*
X326800Y105008D01*
X327006Y105096D01*
X327029Y105111D01*
X327054Y105122D01*
X327243Y105246D01*
X327431Y105365D01*
X327452Y105383D01*
X327475Y105399D01*
X327771Y105660D01*
X335381Y113270D01*
X335390Y113281D01*
X335401Y113290D01*
X335554Y113473D01*
X335708Y113654D01*
X335715Y113665D01*
X335724Y113676D01*
X335845Y113879D01*
X335970Y114084D01*
X335975Y114096D01*
X335982Y114108D01*
X336070Y114327D01*
X336161Y114550D01*
X336164Y114563D01*
X336169Y114576D01*
X336221Y114808D01*
X336275Y115040D01*
X336276Y115054D01*
X336279Y115067D01*
X336294Y115306D01*
X336311Y115542D01*
X336310Y115556D01*
X336311Y115569D01*
X336288Y115807D01*
X336267Y116044D01*
X336263Y116057D01*
X336262Y116071D01*
X336202Y116301D01*
X336144Y116532D01*
X336138Y116545D01*
X336135Y116558D01*
X336039Y116776D01*
X335945Y116995D01*
X335938Y117006D01*
X335932Y117019D01*
X335803Y117220D01*
X335676Y117420D01*
X335667Y117430D01*
X335659Y117442D01*
X335500Y117620D01*
X335342Y117798D01*
X335332Y117806D01*
X335323Y117817D01*
X335137Y117967D01*
X334954Y118118D01*
X334942Y118125D01*
X334931Y118133D01*
X334725Y118252D01*
X334519Y118372D01*
X334507Y118377D01*
X334495Y118384D01*
X334273Y118468D01*
X334050Y118555D01*
X334037Y118558D01*
X334024Y118563D01*
X333791Y118611D01*
X333558Y118661D01*
X333544Y118662D01*
X333531Y118665D01*
X333137Y118689D01*
X146742Y118689D01*
X145341Y119269D01*
X136863Y127748D01*
X136832Y127774D01*
X136805Y127805D01*
X136641Y127937D01*
X136480Y128074D01*
X136445Y128096D01*
X136413Y128121D01*
X136231Y128226D01*
X136050Y128336D01*
X136012Y128352D01*
X135977Y128372D01*
X135780Y128447D01*
X135584Y128527D01*
X135544Y128536D01*
X135506Y128551D01*
X135299Y128593D01*
X135094Y128642D01*
X135053Y128644D01*
X135013Y128653D01*
X134619Y128677D01*
X133742Y128677D01*
X131418Y129640D01*
X129640Y131418D01*
X128677Y133742D01*
X128677Y136258D01*
X129640Y138582D01*
X131418Y140360D01*
X133742Y141323D01*
X136258Y141323D01*
X138582Y140360D01*
X140360Y138582D01*
X141323Y136258D01*
X141323Y135381D01*
X141326Y135340D01*
X141324Y135300D01*
X141346Y135090D01*
X141363Y134879D01*
X141372Y134839D01*
X141377Y134799D01*
X141432Y134595D01*
X141481Y134390D01*
X141497Y134352D01*
X141508Y134313D01*
X141595Y134120D01*
X141676Y133926D01*
X141698Y133891D01*
X141715Y133854D01*
X141831Y133677D01*
X141942Y133498D01*
X141969Y133467D01*
X141991Y133433D01*
X142252Y133137D01*
X148149Y127240D01*
X148180Y127214D01*
X148207Y127183D01*
X148371Y127051D01*
X148532Y126914D01*
X148567Y126892D01*
X148599Y126867D01*
X148781Y126762D01*
X148962Y126652D01*
X149000Y126636D01*
X149035Y126616D01*
X149232Y126541D01*
X149428Y126461D01*
X149468Y126452D01*
X149506Y126437D01*
X149713Y126395D01*
X149918Y126346D01*
X149959Y126344D01*
X149999Y126335D01*
X150393Y126311D01*
X328137Y126311D01*
X328150Y126312D01*
X328164Y126311D01*
X328402Y126332D01*
X328639Y126351D01*
X328652Y126354D01*
X328666Y126355D01*
X328899Y126414D01*
X329128Y126469D01*
X329140Y126475D01*
X329154Y126478D01*
X329374Y126573D01*
X329592Y126664D01*
X329604Y126671D01*
X329617Y126677D01*
X329818Y126804D01*
X330020Y126930D01*
X330031Y126939D01*
X330042Y126946D01*
X330220Y127103D01*
X330401Y127260D01*
X330409Y127270D01*
X330420Y127279D01*
X330570Y127463D01*
X330724Y127646D01*
X330731Y127658D01*
X330740Y127668D01*
X330860Y127873D01*
X330982Y128078D01*
X330987Y128091D01*
X330994Y128102D01*
X331080Y128324D01*
X331169Y128546D01*
X331172Y128559D01*
X331177Y128572D01*
X331227Y128805D01*
X331279Y129037D01*
X331280Y129051D01*
X331283Y129064D01*
X331296Y129301D01*
X331311Y129539D01*
X331309Y129553D01*
X331310Y129567D01*
X331285Y129801D01*
X331262Y130041D01*
X331259Y130054D01*
X331257Y130067D01*
X331195Y130296D01*
X331135Y130528D01*
X331129Y130540D01*
X331126Y130554D01*
X331028Y130771D01*
X330932Y130989D01*
X330925Y131000D01*
X330919Y131013D01*
X330788Y131212D01*
X330659Y131412D01*
X330650Y131422D01*
X330643Y131433D01*
X330381Y131730D01*
X315788Y146323D01*
X314269Y147841D01*
X313689Y149242D01*
X313689Y202107D01*
X313686Y202148D01*
X313688Y202188D01*
X313666Y202398D01*
X313649Y202609D01*
X313640Y202649D01*
X313635Y202689D01*
X313580Y202893D01*
X313531Y203098D01*
X313515Y203136D01*
X313504Y203175D01*
X313417Y203368D01*
X313336Y203562D01*
X313314Y203597D01*
X313297Y203634D01*
X313181Y203811D01*
X313070Y203990D01*
X313043Y204021D01*
X313021Y204055D01*
X312760Y204351D01*
X265580Y251531D01*
X265569Y251540D01*
X265560Y251551D01*
X265377Y251704D01*
X265196Y251858D01*
X265185Y251865D01*
X265174Y251874D01*
X264971Y251995D01*
X264766Y252120D01*
X264754Y252125D01*
X264742Y252132D01*
X264523Y252220D01*
X264300Y252311D01*
X264287Y252314D01*
X264274Y252319D01*
X264042Y252371D01*
X263810Y252425D01*
X263796Y252426D01*
X263783Y252429D01*
X263544Y252444D01*
X263308Y252461D01*
X263294Y252460D01*
X263281Y252461D01*
X263043Y252438D01*
X262806Y252417D01*
X262793Y252413D01*
X262779Y252412D01*
X262549Y252352D01*
X262318Y252294D01*
X262305Y252288D01*
X262292Y252285D01*
X262074Y252189D01*
X261855Y252095D01*
X261844Y252088D01*
X261831Y252082D01*
X261630Y251953D01*
X261430Y251826D01*
X261420Y251817D01*
X261408Y251809D01*
X261230Y251650D01*
X261052Y251492D01*
X261044Y251482D01*
X261033Y251473D01*
X260883Y251287D01*
X260732Y251104D01*
X260725Y251092D01*
X260717Y251081D01*
X260598Y250875D01*
X260478Y250669D01*
X260473Y250657D01*
X260466Y250645D01*
X260382Y250423D01*
X260295Y250200D01*
X260292Y250187D01*
X260287Y250174D01*
X260239Y249941D01*
X260189Y249708D01*
X260188Y249694D01*
X260185Y249681D01*
X260161Y249287D01*
X260161Y245791D01*
X254209Y239839D01*
X245791Y239839D01*
X239839Y245791D01*
X239839Y254209D01*
X245791Y260161D01*
X249287Y260161D01*
X249300Y260162D01*
X249314Y260161D01*
X249552Y260182D01*
X249789Y260201D01*
X249802Y260204D01*
X249816Y260205D01*
X250049Y260264D01*
X250278Y260319D01*
X250290Y260325D01*
X250304Y260328D01*
X250524Y260423D01*
X250742Y260514D01*
X250754Y260521D01*
X250767Y260527D01*
X250968Y260654D01*
X251170Y260780D01*
X251181Y260789D01*
X251192Y260796D01*
X251370Y260953D01*
X251551Y261110D01*
X251559Y261120D01*
X251570Y261129D01*
X251720Y261313D01*
X251874Y261496D01*
X251881Y261508D01*
X251890Y261518D01*
X252010Y261723D01*
X252132Y261928D01*
X252137Y261941D01*
X252144Y261952D01*
X252231Y262175D01*
X252319Y262396D01*
X252322Y262409D01*
X252327Y262422D01*
X252377Y262655D01*
X252429Y262887D01*
X252430Y262901D01*
X252433Y262914D01*
X252446Y263151D01*
X252461Y263389D01*
X252459Y263403D01*
X252460Y263417D01*
X252435Y263651D01*
X252412Y263891D01*
X252409Y263904D01*
X252407Y263917D01*
X252346Y264145D01*
X252285Y264378D01*
X252279Y264390D01*
X252276Y264404D01*
X252178Y264621D01*
X252082Y264839D01*
X252075Y264850D01*
X252069Y264863D01*
X251938Y265062D01*
X251809Y265262D01*
X251800Y265272D01*
X251793Y265283D01*
X251531Y265580D01*
X186851Y330260D01*
X186820Y330286D01*
X186793Y330317D01*
X186629Y330449D01*
X186468Y330586D01*
X186433Y330608D01*
X186401Y330633D01*
X186219Y330738D01*
X186038Y330848D01*
X186000Y330864D01*
X185965Y330884D01*
X185768Y330959D01*
X185572Y331039D01*
X185532Y331048D01*
X185494Y331063D01*
X185287Y331105D01*
X185082Y331154D01*
X185041Y331156D01*
X185001Y331165D01*
X184607Y331189D01*
X34242Y331189D01*
X32841Y331769D01*
X31863Y332748D01*
X31832Y332774D01*
X31805Y332805D01*
X31641Y332937D01*
X31480Y333074D01*
X31445Y333096D01*
X31413Y333121D01*
X31231Y333226D01*
X31050Y333336D01*
X31012Y333352D01*
X30977Y333372D01*
X30780Y333447D01*
X30584Y333527D01*
X30544Y333536D01*
X30506Y333551D01*
X30299Y333593D01*
X30094Y333642D01*
X30053Y333644D01*
X30013Y333653D01*
X29619Y333677D01*
X28742Y333677D01*
X26418Y334640D01*
X24640Y336418D01*
X23677Y338742D01*
X23677Y341258D01*
X24640Y343582D01*
X26418Y345360D01*
X28742Y346323D01*
X31258Y346323D01*
X33582Y345360D01*
X35360Y343582D01*
X36525Y340770D01*
X36597Y340628D01*
X36662Y340481D01*
X36712Y340404D01*
X36754Y340322D01*
X36848Y340193D01*
X36935Y340058D01*
X36996Y339989D01*
X37051Y339915D01*
X37164Y339803D01*
X37271Y339683D01*
X37343Y339626D01*
X37408Y339561D01*
X37538Y339467D01*
X37663Y339367D01*
X37742Y339321D01*
X37817Y339267D01*
X37961Y339195D01*
X38099Y339116D01*
X38185Y339083D01*
X38268Y339042D01*
X38421Y338994D01*
X38570Y338937D01*
X38660Y338919D01*
X38748Y338891D01*
X38906Y338868D01*
X39063Y338835D01*
X39174Y338828D01*
X39246Y338818D01*
X39328Y338819D01*
X39457Y338811D01*
X188258Y338811D01*
X189659Y338231D01*
X191177Y336712D01*
X221136Y306753D01*
X221147Y306744D01*
X221156Y306733D01*
X221339Y306580D01*
X221520Y306426D01*
X221531Y306419D01*
X221542Y306410D01*
X221745Y306289D01*
X221950Y306164D01*
X221962Y306159D01*
X221974Y306152D01*
X222193Y306064D01*
X222416Y305973D01*
X222429Y305970D01*
X222442Y305965D01*
X222674Y305913D01*
X222906Y305859D01*
X222920Y305858D01*
X222933Y305855D01*
X223172Y305840D01*
X223408Y305823D01*
X223422Y305824D01*
X223435Y305823D01*
X223673Y305846D01*
X223910Y305867D01*
X223923Y305871D01*
X223937Y305872D01*
X224167Y305932D01*
X224398Y305990D01*
X224411Y305996D01*
X224424Y305999D01*
X224642Y306095D01*
X224861Y306189D01*
X224872Y306196D01*
X224885Y306202D01*
X225086Y306331D01*
X225286Y306458D01*
X225296Y306467D01*
X225308Y306475D01*
X225486Y306634D01*
X225664Y306792D01*
X225672Y306802D01*
X225683Y306811D01*
X225833Y306997D01*
X225984Y307180D01*
X225991Y307192D01*
X225999Y307203D01*
X226118Y307409D01*
X226238Y307615D01*
X226243Y307627D01*
X226250Y307639D01*
X226334Y307861D01*
X226421Y308084D01*
X226424Y308097D01*
X226429Y308110D01*
X226477Y308343D01*
X226527Y308576D01*
X226528Y308590D01*
X226531Y308603D01*
X226555Y308997D01*
X226555Y320323D01*
X227947Y323684D01*
X230520Y326257D01*
X233881Y327649D01*
X237519Y327649D01*
X240880Y326257D01*
X243453Y323684D01*
X244845Y320323D01*
X244845Y303477D01*
X243453Y300116D01*
X240880Y297543D01*
X237820Y296276D01*
X237690Y296209D01*
X237555Y296152D01*
X237466Y296095D01*
X237372Y296047D01*
X237253Y295961D01*
X237130Y295882D01*
X237050Y295812D01*
X236965Y295750D01*
X236862Y295646D01*
X236752Y295549D01*
X236685Y295468D01*
X236611Y295392D01*
X236525Y295273D01*
X236432Y295160D01*
X236379Y295069D01*
X236317Y294983D01*
X236251Y294852D01*
X236178Y294726D01*
X236139Y294627D01*
X236092Y294533D01*
X236048Y294393D01*
X235995Y294257D01*
X235973Y294153D01*
X235941Y294053D01*
X235920Y293908D01*
X235889Y293764D01*
X235883Y293659D01*
X235868Y293554D01*
X235870Y293408D01*
X235862Y293262D01*
X235873Y293157D01*
X235874Y293051D01*
X235899Y292906D01*
X235915Y292761D01*
X235942Y292659D01*
X235960Y292555D01*
X236008Y292416D01*
X236046Y292275D01*
X236089Y292178D01*
X236124Y292078D01*
X236192Y291949D01*
X236252Y291816D01*
X236310Y291727D01*
X236360Y291634D01*
X236449Y291517D01*
X236529Y291395D01*
X236615Y291298D01*
X236664Y291233D01*
X236717Y291182D01*
X236790Y291099D01*
X315770Y212119D01*
X315781Y212110D01*
X315790Y212099D01*
X315973Y211946D01*
X316154Y211792D01*
X316165Y211785D01*
X316176Y211776D01*
X316379Y211655D01*
X316584Y211530D01*
X316596Y211525D01*
X316608Y211518D01*
X316827Y211430D01*
X317050Y211339D01*
X317063Y211336D01*
X317076Y211331D01*
X317308Y211279D01*
X317540Y211225D01*
X317554Y211224D01*
X317567Y211221D01*
X317806Y211206D01*
X318042Y211189D01*
X318056Y211190D01*
X318069Y211189D01*
X318307Y211212D01*
X318544Y211233D01*
X318557Y211237D01*
X318571Y211238D01*
X318801Y211298D01*
X319032Y211356D01*
X319045Y211362D01*
X319058Y211365D01*
X319276Y211461D01*
X319495Y211555D01*
X319506Y211562D01*
X319519Y211568D01*
X319720Y211697D01*
X319920Y211824D01*
X319930Y211833D01*
X319942Y211841D01*
X320120Y212000D01*
X320298Y212158D01*
X320306Y212168D01*
X320317Y212177D01*
X320467Y212363D01*
X320618Y212546D01*
X320625Y212558D01*
X320633Y212569D01*
X320752Y212775D01*
X320872Y212981D01*
X320877Y212993D01*
X320884Y213005D01*
X320968Y213227D01*
X321055Y213450D01*
X321058Y213463D01*
X321063Y213476D01*
X321111Y213709D01*
X321161Y213942D01*
X321162Y213956D01*
X321165Y213969D01*
X321189Y214363D01*
X321189Y255758D01*
X321769Y257159D01*
X332748Y268137D01*
X332774Y268168D01*
X332805Y268195D01*
X332937Y268359D01*
X333074Y268520D01*
X333096Y268555D01*
X333121Y268587D01*
X333226Y268769D01*
X333336Y268950D01*
X333352Y268988D01*
X333372Y269023D01*
X333447Y269220D01*
X333527Y269416D01*
X333536Y269456D01*
X333551Y269494D01*
X333593Y269701D01*
X333642Y269906D01*
X333644Y269947D01*
X333653Y269987D01*
X333677Y270381D01*
X333677Y271258D01*
X334640Y273582D01*
X336418Y275360D01*
X338742Y276323D01*
X341258Y276323D01*
X343582Y275360D01*
X345360Y273582D01*
X346323Y271258D01*
X346323Y268742D01*
X345360Y266418D01*
X343582Y264640D01*
X341258Y263677D01*
X340381Y263677D01*
X340340Y263674D01*
X340300Y263676D01*
X340090Y263654D01*
X339879Y263637D01*
X339839Y263628D01*
X339799Y263623D01*
X339595Y263568D01*
X339390Y263519D01*
X339352Y263503D01*
X339313Y263492D01*
X339120Y263405D01*
X338926Y263324D01*
X338891Y263302D01*
X338854Y263285D01*
X338677Y263169D01*
X338498Y263058D01*
X338467Y263031D01*
X338433Y263009D01*
X338137Y262748D01*
X329740Y254351D01*
X329714Y254320D01*
X329683Y254293D01*
X329551Y254129D01*
X329414Y253968D01*
X329392Y253933D01*
X329367Y253901D01*
X329262Y253719D01*
X329152Y253538D01*
X329136Y253500D01*
X329116Y253465D01*
X329041Y253268D01*
X328961Y253072D01*
X328952Y253032D01*
X328937Y252994D01*
X328895Y252787D01*
X328846Y252582D01*
X328844Y252541D01*
X328835Y252501D01*
X328811Y252107D01*
X328811Y165416D01*
X328812Y165402D01*
X328811Y165388D01*
X328832Y165152D01*
X328851Y164914D01*
X328854Y164900D01*
X328855Y164887D01*
X328913Y164656D01*
X328969Y164424D01*
X328975Y164412D01*
X328978Y164399D01*
X329072Y164180D01*
X329164Y163960D01*
X329171Y163949D01*
X329177Y163936D01*
X329304Y163735D01*
X329430Y163532D01*
X329439Y163522D01*
X329446Y163511D01*
X329603Y163332D01*
X329760Y163152D01*
X329770Y163143D01*
X329779Y163133D01*
X329963Y162982D01*
X330146Y162829D01*
X330158Y162822D01*
X330168Y162813D01*
X330373Y162693D01*
X330578Y162570D01*
X330591Y162565D01*
X330602Y162558D01*
X330825Y162472D01*
X331046Y162384D01*
X331059Y162381D01*
X331072Y162376D01*
X331304Y162326D01*
X331537Y162273D01*
X331551Y162272D01*
X331564Y162270D01*
X331800Y162257D01*
X332039Y162242D01*
X332053Y162243D01*
X332067Y162243D01*
X332302Y162267D01*
X332541Y162290D01*
X332554Y162294D01*
X332567Y162295D01*
X332797Y162357D01*
X333028Y162418D01*
X333040Y162423D01*
X333054Y162427D01*
X333270Y162524D01*
X333489Y162620D01*
X333500Y162628D01*
X333513Y162633D01*
X333709Y162763D01*
X333912Y162893D01*
X333922Y162903D01*
X333933Y162910D01*
X334230Y163171D01*
X336419Y165360D01*
X338742Y166323D01*
X339619Y166323D01*
X339660Y166326D01*
X339700Y166324D01*
X339910Y166346D01*
X340121Y166363D01*
X340161Y166372D01*
X340201Y166377D01*
X340405Y166432D01*
X340610Y166481D01*
X340648Y166497D01*
X340687Y166508D01*
X340880Y166595D01*
X341074Y166676D01*
X341109Y166698D01*
X341146Y166715D01*
X341323Y166831D01*
X341502Y166942D01*
X341533Y166969D01*
X341567Y166991D01*
X341863Y167252D01*
X355260Y180649D01*
X355286Y180680D01*
X355317Y180707D01*
X355449Y180871D01*
X355586Y181032D01*
X355608Y181067D01*
X355633Y181099D01*
X355738Y181281D01*
X355848Y181462D01*
X355864Y181500D01*
X355884Y181535D01*
X355959Y181732D01*
X356039Y181928D01*
X356048Y181968D01*
X356063Y182006D01*
X356105Y182213D01*
X356154Y182418D01*
X356156Y182459D01*
X356165Y182499D01*
X356189Y182893D01*
X356189Y223554D01*
X356186Y223595D01*
X356188Y223636D01*
X356166Y223845D01*
X356149Y224056D01*
X356140Y224096D01*
X356135Y224137D01*
X356080Y224340D01*
X356031Y224545D01*
X356015Y224583D01*
X356004Y224623D01*
X355917Y224816D01*
X355836Y225010D01*
X355814Y225044D01*
X355797Y225082D01*
X355681Y225259D01*
X355570Y225438D01*
X355543Y225469D01*
X355521Y225503D01*
X355260Y225799D01*
X354640Y226418D01*
X353677Y228742D01*
X353677Y231258D01*
X354640Y233582D01*
X356418Y235360D01*
X358742Y236323D01*
X361258Y236323D01*
X363582Y235360D01*
X365360Y233582D01*
X366323Y231258D01*
X366323Y228742D01*
X365360Y226418D01*
X364740Y225799D01*
X364714Y225768D01*
X364683Y225740D01*
X364551Y225576D01*
X364414Y225416D01*
X364392Y225381D01*
X364367Y225349D01*
X364262Y225166D01*
X364152Y224986D01*
X364136Y224947D01*
X364116Y224912D01*
X364041Y224715D01*
X363961Y224520D01*
X363952Y224480D01*
X363937Y224441D01*
X363895Y224235D01*
X363846Y224029D01*
X363844Y223988D01*
X363835Y223948D01*
X363811Y223554D01*
X363811Y179242D01*
X363231Y177841D01*
X357131Y171742D01*
X357122Y171731D01*
X357111Y171722D01*
X356958Y171539D01*
X356804Y171358D01*
X356797Y171347D01*
X356788Y171336D01*
X356666Y171132D01*
X356542Y170928D01*
X356537Y170916D01*
X356530Y170904D01*
X356442Y170683D01*
X356351Y170462D01*
X356348Y170449D01*
X356343Y170436D01*
X356291Y170204D01*
X356237Y169972D01*
X356236Y169958D01*
X356233Y169945D01*
X356218Y169706D01*
X356201Y169470D01*
X356202Y169456D01*
X356201Y169443D01*
X356224Y169205D01*
X356245Y168968D01*
X356249Y168955D01*
X356250Y168941D01*
X356310Y168711D01*
X356368Y168480D01*
X356374Y168467D01*
X356377Y168454D01*
X356473Y168235D01*
X356567Y168017D01*
X356574Y168006D01*
X356580Y167993D01*
X356710Y167791D01*
X356836Y167592D01*
X356845Y167582D01*
X356853Y167570D01*
X357012Y167392D01*
X357170Y167214D01*
X357180Y167206D01*
X357189Y167195D01*
X357375Y167045D01*
X357558Y166894D01*
X357570Y166887D01*
X357581Y166879D01*
X357787Y166760D01*
X357993Y166640D01*
X358005Y166635D01*
X358017Y166628D01*
X358239Y166544D01*
X358462Y166457D01*
X358475Y166454D01*
X358488Y166449D01*
X358721Y166401D01*
X358954Y166351D01*
X358968Y166350D01*
X358981Y166347D01*
X359375Y166323D01*
X361258Y166323D01*
X363582Y165360D01*
X365360Y163582D01*
X366564Y160674D01*
X366592Y160620D01*
X366676Y160420D01*
X366683Y160408D01*
X366689Y160395D01*
X366782Y160248D01*
X366793Y160226D01*
X366814Y160198D01*
X366816Y160194D01*
X366942Y159992D01*
X366951Y159981D01*
X366958Y159970D01*
X367087Y159824D01*
X367090Y159819D01*
X367096Y159813D01*
X367115Y159792D01*
X367272Y159611D01*
X367282Y159603D01*
X367291Y159592D01*
X367475Y159442D01*
X367658Y159288D01*
X367670Y159281D01*
X367680Y159272D01*
X367885Y159152D01*
X368090Y159030D01*
X368103Y159025D01*
X368114Y159018D01*
X368337Y158931D01*
X368558Y158843D01*
X368571Y158840D01*
X368584Y158835D01*
X368817Y158785D01*
X369049Y158733D01*
X369063Y158732D01*
X369076Y158729D01*
X369313Y158716D01*
X369551Y158701D01*
X369565Y158703D01*
X369579Y158702D01*
X369813Y158727D01*
X370053Y158750D01*
X370066Y158753D01*
X370079Y158755D01*
X370308Y158817D01*
X370540Y158877D01*
X370552Y158883D01*
X370566Y158886D01*
X370783Y158984D01*
X371001Y159080D01*
X371012Y159087D01*
X371025Y159093D01*
X371224Y159224D01*
X371424Y159353D01*
X371434Y159362D01*
X371445Y159369D01*
X371742Y159631D01*
X403823Y191712D01*
X405341Y193231D01*
X406742Y193811D01*
X603554Y193811D01*
X603595Y193814D01*
X603636Y193812D01*
X603845Y193834D01*
X604056Y193851D01*
X604096Y193860D01*
X604137Y193865D01*
X604340Y193920D01*
X604545Y193969D01*
X604583Y193985D01*
X604623Y193996D01*
X604816Y194083D01*
X605010Y194164D01*
X605044Y194186D01*
X605082Y194203D01*
X605259Y194319D01*
X605438Y194430D01*
X605469Y194457D01*
X605503Y194479D01*
X605799Y194740D01*
X606418Y195360D01*
X608742Y196323D01*
X611258Y196323D01*
X613582Y195360D01*
X615360Y193582D01*
X616323Y191258D01*
X616323Y188742D01*
X615360Y186418D01*
X613582Y184640D01*
X611258Y183677D01*
X608742Y183677D01*
X606418Y184640D01*
X605799Y185260D01*
X605768Y185286D01*
X605740Y185317D01*
X605576Y185449D01*
X605416Y185586D01*
X605381Y185608D01*
X605349Y185633D01*
X605166Y185738D01*
X604986Y185848D01*
X604947Y185864D01*
X604912Y185884D01*
X604715Y185959D01*
X604520Y186039D01*
X604480Y186048D01*
X604441Y186063D01*
X604235Y186105D01*
X604029Y186154D01*
X603988Y186156D01*
X603948Y186165D01*
X603554Y186189D01*
X410393Y186189D01*
X410352Y186186D01*
X410312Y186188D01*
X410102Y186166D01*
X409891Y186149D01*
X409851Y186140D01*
X409811Y186135D01*
X409607Y186080D01*
X409402Y186031D01*
X409364Y186015D01*
X409325Y186004D01*
X409132Y185917D01*
X408938Y185836D01*
X408903Y185814D01*
X408866Y185797D01*
X408689Y185682D01*
X408510Y185570D01*
X408479Y185543D01*
X408445Y185521D01*
X408149Y185260D01*
X393160Y170271D01*
X393142Y170250D01*
X393122Y170232D01*
X392979Y170058D01*
X392833Y169888D01*
X392819Y169864D01*
X392802Y169843D01*
X392688Y169650D01*
X392571Y169458D01*
X392561Y169432D01*
X392547Y169409D01*
X392466Y169200D01*
X392381Y168992D01*
X392374Y168965D01*
X392364Y168940D01*
X392317Y168720D01*
X392266Y168501D01*
X392264Y168474D01*
X392258Y168447D01*
X392246Y168223D01*
X392230Y167999D01*
X392233Y167972D01*
X392231Y167945D01*
X392255Y167722D01*
X392275Y167497D01*
X392281Y167471D01*
X392284Y167444D01*
X392342Y167228D01*
X392398Y167009D01*
X392408Y166984D01*
X392416Y166958D01*
X392508Y166753D01*
X392596Y166546D01*
X392611Y166523D01*
X392622Y166498D01*
X392745Y166311D01*
X392866Y166121D01*
X392884Y166101D01*
X392899Y166078D01*
X393160Y165782D01*
X394201Y164740D01*
X394232Y164714D01*
X394260Y164683D01*
X394424Y164551D01*
X394584Y164414D01*
X394619Y164392D01*
X394651Y164367D01*
X394834Y164262D01*
X395014Y164152D01*
X395052Y164136D01*
X395088Y164116D01*
X395285Y164041D01*
X395480Y163961D01*
X395520Y163952D01*
X395559Y163937D01*
X395766Y163894D01*
X395971Y163846D01*
X396012Y163844D01*
X396052Y163835D01*
X396446Y163811D01*
X540758Y163811D01*
X542159Y163231D01*
X563137Y142252D01*
X563168Y142226D01*
X563195Y142195D01*
X563359Y142063D01*
X563520Y141926D01*
X563555Y141904D01*
X563587Y141879D01*
X563769Y141774D01*
X563950Y141664D01*
X563988Y141648D01*
X564023Y141628D01*
X564220Y141553D01*
X564416Y141473D01*
X564456Y141464D01*
X564494Y141449D01*
X564701Y141407D01*
X564906Y141358D01*
X564947Y141356D01*
X564987Y141347D01*
X565381Y141323D01*
X566258Y141323D01*
X568582Y140360D01*
X570360Y138582D01*
X571323Y136258D01*
X571323Y133742D01*
X570360Y131418D01*
X568582Y129640D01*
X566258Y128677D01*
X563742Y128677D01*
X561418Y129640D01*
X559640Y131418D01*
X558677Y133742D01*
X558677Y134619D01*
X558674Y134660D01*
X558676Y134700D01*
X558654Y134910D01*
X558637Y135121D01*
X558628Y135161D01*
X558623Y135201D01*
X558568Y135405D01*
X558519Y135610D01*
X558503Y135648D01*
X558492Y135687D01*
X558405Y135880D01*
X558324Y136074D01*
X558302Y136109D01*
X558285Y136146D01*
X558169Y136323D01*
X558058Y136502D01*
X558031Y136533D01*
X558009Y136567D01*
X557748Y136863D01*
X539351Y155260D01*
X539326Y155281D01*
X539306Y155304D01*
X539301Y155307D01*
X539293Y155317D01*
X539129Y155449D01*
X538968Y155586D01*
X538933Y155608D01*
X538901Y155633D01*
X538719Y155738D01*
X538538Y155848D01*
X538500Y155864D01*
X538465Y155884D01*
X538268Y155959D01*
X538072Y156039D01*
X538032Y156048D01*
X537994Y156063D01*
X537787Y156105D01*
X537582Y156154D01*
X537541Y156156D01*
X537501Y156165D01*
X537107Y156189D01*
X396446Y156189D01*
X396405Y156186D01*
X396364Y156188D01*
X396155Y156166D01*
X395944Y156149D01*
X395904Y156140D01*
X395863Y156135D01*
X395660Y156080D01*
X395455Y156031D01*
X395417Y156015D01*
X395377Y156004D01*
X395184Y155917D01*
X394990Y155836D01*
X394956Y155814D01*
X394918Y155797D01*
X394741Y155681D01*
X394562Y155570D01*
X394531Y155543D01*
X394497Y155521D01*
X394201Y155260D01*
X393582Y154640D01*
X391258Y153677D01*
X388742Y153677D01*
X386419Y154640D01*
X384230Y156829D01*
X384219Y156838D01*
X384210Y156848D01*
X384028Y157001D01*
X383846Y157155D01*
X383835Y157163D01*
X383824Y157171D01*
X383620Y157294D01*
X383416Y157417D01*
X383404Y157423D01*
X383392Y157430D01*
X383172Y157518D01*
X382950Y157608D01*
X382937Y157611D01*
X382924Y157616D01*
X382693Y157668D01*
X382460Y157723D01*
X382446Y157724D01*
X382433Y157727D01*
X382195Y157742D01*
X381958Y157758D01*
X381944Y157757D01*
X381931Y157758D01*
X381693Y157735D01*
X381456Y157714D01*
X381443Y157711D01*
X381429Y157710D01*
X381199Y157649D01*
X380968Y157591D01*
X380955Y157586D01*
X380942Y157582D01*
X380724Y157487D01*
X380505Y157393D01*
X380494Y157385D01*
X380481Y157380D01*
X380280Y157250D01*
X380080Y157123D01*
X380070Y157114D01*
X380058Y157107D01*
X379879Y156946D01*
X379702Y156790D01*
X379694Y156779D01*
X379683Y156770D01*
X379534Y156586D01*
X379382Y156401D01*
X379375Y156389D01*
X379367Y156379D01*
X379249Y156174D01*
X379128Y155967D01*
X379123Y155954D01*
X379116Y155942D01*
X379032Y155720D01*
X378945Y155498D01*
X378942Y155484D01*
X378937Y155471D01*
X378889Y155237D01*
X378839Y155005D01*
X378838Y154992D01*
X378835Y154978D01*
X378811Y154584D01*
X378811Y146742D01*
X378231Y145341D01*
X329579Y96689D01*
X328178Y96109D01*
X326366Y96109D01*
X326325Y96106D01*
X326284Y96108D01*
X326075Y96086D01*
X325864Y96069D01*
X325824Y96060D01*
X325783Y96055D01*
X325580Y96000D01*
X325375Y95951D01*
X325337Y95935D01*
X325297Y95924D01*
X325104Y95837D01*
X324910Y95756D01*
X324876Y95734D01*
X324838Y95717D01*
X324661Y95601D01*
X324482Y95490D01*
X324451Y95463D01*
X324417Y95441D01*
X324121Y95180D01*
X323582Y94640D01*
X321258Y93677D01*
X318742Y93677D01*
G37*
%LPD*%
%LPC*%
G36*
X516242Y333677D02*
X516242Y333677D01*
X513918Y334640D01*
X512140Y336418D01*
X511139Y338834D01*
X511061Y338988D01*
X510989Y339147D01*
X510946Y339212D01*
X510911Y339282D01*
X510808Y339422D01*
X510713Y339567D01*
X510651Y339637D01*
X510614Y339689D01*
X510551Y339751D01*
X510451Y339863D01*
X498825Y351490D01*
X498794Y351516D01*
X498767Y351547D01*
X498603Y351679D01*
X498442Y351816D01*
X498407Y351838D01*
X498375Y351863D01*
X498193Y351968D01*
X498012Y352078D01*
X497974Y352094D01*
X497939Y352114D01*
X497742Y352189D01*
X497546Y352269D01*
X497506Y352278D01*
X497468Y352293D01*
X497261Y352335D01*
X497056Y352384D01*
X497015Y352386D01*
X496975Y352395D01*
X496581Y352419D01*
X219888Y352419D01*
X219714Y352405D01*
X219541Y352400D01*
X219464Y352386D01*
X219386Y352379D01*
X219217Y352338D01*
X219046Y352306D01*
X218958Y352276D01*
X218896Y352261D01*
X218815Y352226D01*
X218673Y352178D01*
X216258Y351177D01*
X213742Y351177D01*
X211418Y352140D01*
X209640Y353918D01*
X208677Y356242D01*
X208677Y358758D01*
X209640Y361082D01*
X211418Y362860D01*
X213742Y363823D01*
X216258Y363823D01*
X218673Y362822D01*
X218838Y362769D01*
X219000Y362707D01*
X219077Y362691D01*
X219152Y362667D01*
X219324Y362640D01*
X219493Y362605D01*
X219586Y362600D01*
X219649Y362590D01*
X219738Y362590D01*
X219888Y362581D01*
X501011Y362581D01*
X502878Y361807D01*
X517637Y347049D01*
X517769Y346936D01*
X517895Y346817D01*
X517960Y346773D01*
X518020Y346722D01*
X518168Y346631D01*
X518312Y346534D01*
X518395Y346493D01*
X518450Y346460D01*
X518532Y346426D01*
X518666Y346361D01*
X521082Y345360D01*
X522860Y343582D01*
X523823Y341258D01*
X523823Y338742D01*
X522860Y336418D01*
X521082Y334640D01*
X518758Y333677D01*
X516242Y333677D01*
G37*
%LPD*%
%LPC*%
G36*
X338742Y63677D02*
X338742Y63677D01*
X336418Y64640D01*
X334640Y66418D01*
X333677Y68742D01*
X333677Y71258D01*
X334640Y73582D01*
X335260Y74201D01*
X335286Y74232D01*
X335317Y74260D01*
X335449Y74424D01*
X335586Y74584D01*
X335608Y74619D01*
X335633Y74651D01*
X335738Y74834D01*
X335848Y75014D01*
X335864Y75053D01*
X335884Y75088D01*
X335959Y75285D01*
X336039Y75480D01*
X336048Y75520D01*
X336063Y75559D01*
X336105Y75765D01*
X336154Y75971D01*
X336156Y76012D01*
X336165Y76052D01*
X336189Y76446D01*
X336189Y90758D01*
X336769Y92159D01*
X382748Y138137D01*
X382774Y138168D01*
X382805Y138195D01*
X382937Y138359D01*
X383074Y138520D01*
X383096Y138555D01*
X383121Y138587D01*
X383226Y138769D01*
X383336Y138950D01*
X383352Y138988D01*
X383372Y139023D01*
X383447Y139220D01*
X383527Y139416D01*
X383536Y139456D01*
X383551Y139494D01*
X383593Y139701D01*
X383642Y139906D01*
X383644Y139947D01*
X383653Y139987D01*
X383677Y140381D01*
X383677Y141258D01*
X384640Y143582D01*
X386418Y145360D01*
X388742Y146323D01*
X391258Y146323D01*
X393582Y145360D01*
X395360Y143582D01*
X396323Y141258D01*
X396323Y138742D01*
X395360Y136418D01*
X393582Y134640D01*
X391258Y133677D01*
X390381Y133677D01*
X390340Y133674D01*
X390300Y133676D01*
X390090Y133654D01*
X389879Y133637D01*
X389839Y133628D01*
X389799Y133623D01*
X389595Y133568D01*
X389390Y133519D01*
X389352Y133503D01*
X389313Y133492D01*
X389120Y133405D01*
X388926Y133324D01*
X388891Y133302D01*
X388854Y133285D01*
X388677Y133169D01*
X388498Y133058D01*
X388467Y133031D01*
X388433Y133009D01*
X388137Y132748D01*
X344740Y89351D01*
X344714Y89320D01*
X344683Y89293D01*
X344551Y89129D01*
X344414Y88968D01*
X344392Y88933D01*
X344367Y88901D01*
X344262Y88719D01*
X344152Y88538D01*
X344136Y88500D01*
X344116Y88465D01*
X344041Y88268D01*
X343961Y88072D01*
X343952Y88032D01*
X343937Y87994D01*
X343895Y87787D01*
X343846Y87582D01*
X343844Y87541D01*
X343835Y87501D01*
X343811Y87107D01*
X343811Y76446D01*
X343814Y76405D01*
X343812Y76364D01*
X343834Y76155D01*
X343851Y75944D01*
X343860Y75904D01*
X343865Y75863D01*
X343920Y75660D01*
X343969Y75455D01*
X343985Y75417D01*
X343996Y75377D01*
X344083Y75184D01*
X344164Y74990D01*
X344186Y74956D01*
X344203Y74918D01*
X344319Y74741D01*
X344430Y74562D01*
X344457Y74531D01*
X344479Y74497D01*
X344740Y74201D01*
X345360Y73582D01*
X346323Y71258D01*
X346323Y68742D01*
X345360Y66418D01*
X343582Y64640D01*
X341258Y63677D01*
X338742Y63677D01*
G37*
%LPD*%
%LPC*%
G36*
X358742Y23677D02*
X358742Y23677D01*
X356418Y24640D01*
X354640Y26418D01*
X353677Y28742D01*
X353677Y31258D01*
X354640Y33582D01*
X356418Y35360D01*
X358742Y36323D01*
X359619Y36323D01*
X359660Y36326D01*
X359700Y36324D01*
X359910Y36346D01*
X360121Y36363D01*
X360161Y36372D01*
X360201Y36377D01*
X360405Y36432D01*
X360610Y36481D01*
X360648Y36497D01*
X360687Y36508D01*
X360880Y36595D01*
X361074Y36676D01*
X361109Y36698D01*
X361146Y36715D01*
X361323Y36831D01*
X361502Y36942D01*
X361533Y36969D01*
X361567Y36991D01*
X361863Y37252D01*
X375260Y50649D01*
X375286Y50680D01*
X375317Y50707D01*
X375449Y50871D01*
X375586Y51032D01*
X375608Y51067D01*
X375633Y51099D01*
X375738Y51281D01*
X375848Y51462D01*
X375864Y51500D01*
X375884Y51535D01*
X375959Y51732D01*
X376039Y51928D01*
X376048Y51968D01*
X376063Y52006D01*
X376105Y52213D01*
X376154Y52418D01*
X376156Y52459D01*
X376165Y52499D01*
X376189Y52893D01*
X376189Y93554D01*
X376186Y93595D01*
X376188Y93636D01*
X376166Y93845D01*
X376149Y94056D01*
X376140Y94096D01*
X376135Y94137D01*
X376080Y94340D01*
X376031Y94545D01*
X376015Y94583D01*
X376004Y94623D01*
X375917Y94816D01*
X375836Y95010D01*
X375814Y95044D01*
X375797Y95082D01*
X375681Y95259D01*
X375570Y95438D01*
X375543Y95469D01*
X375521Y95503D01*
X375260Y95799D01*
X374640Y96418D01*
X373677Y98742D01*
X373677Y101258D01*
X374640Y103582D01*
X376418Y105360D01*
X378742Y106323D01*
X381258Y106323D01*
X383582Y105360D01*
X385360Y103582D01*
X386323Y101258D01*
X386323Y98742D01*
X385360Y96418D01*
X384740Y95799D01*
X384714Y95768D01*
X384683Y95740D01*
X384551Y95576D01*
X384414Y95416D01*
X384392Y95381D01*
X384367Y95349D01*
X384262Y95166D01*
X384152Y94986D01*
X384136Y94947D01*
X384116Y94912D01*
X384041Y94715D01*
X383961Y94520D01*
X383952Y94480D01*
X383937Y94441D01*
X383895Y94235D01*
X383846Y94029D01*
X383844Y93988D01*
X383835Y93948D01*
X383811Y93554D01*
X383811Y49242D01*
X383231Y47841D01*
X367252Y31863D01*
X367226Y31832D01*
X367195Y31805D01*
X367063Y31641D01*
X366926Y31480D01*
X366904Y31445D01*
X366879Y31413D01*
X366774Y31231D01*
X366664Y31050D01*
X366648Y31012D01*
X366628Y30977D01*
X366553Y30780D01*
X366473Y30584D01*
X366464Y30544D01*
X366449Y30506D01*
X366407Y30299D01*
X366358Y30094D01*
X366356Y30053D01*
X366347Y30013D01*
X366323Y29619D01*
X366323Y28742D01*
X365360Y26418D01*
X363582Y24640D01*
X361258Y23677D01*
X358742Y23677D01*
G37*
%LPD*%
%LPC*%
G36*
X310081Y296151D02*
X310081Y296151D01*
X306720Y297543D01*
X304147Y300116D01*
X302755Y303477D01*
X302755Y320323D01*
X304147Y323684D01*
X306720Y326257D01*
X310081Y327649D01*
X313719Y327649D01*
X317080Y326257D01*
X319653Y323684D01*
X321045Y320323D01*
X321045Y303477D01*
X319653Y300116D01*
X317080Y297543D01*
X313719Y296151D01*
X310081Y296151D01*
G37*
%LPD*%
%LPC*%
G36*
X335481Y296151D02*
X335481Y296151D01*
X332120Y297543D01*
X329547Y300116D01*
X328155Y303477D01*
X328155Y320323D01*
X329547Y323684D01*
X332120Y326257D01*
X335481Y327649D01*
X339119Y327649D01*
X342480Y326257D01*
X345053Y323684D01*
X346445Y320323D01*
X346445Y303477D01*
X345053Y300116D01*
X342480Y297543D01*
X339119Y296151D01*
X335481Y296151D01*
G37*
%LPD*%
%LPC*%
G36*
X462481Y296151D02*
X462481Y296151D01*
X459120Y297543D01*
X456547Y300116D01*
X455155Y303477D01*
X455155Y320323D01*
X456547Y323684D01*
X459120Y326257D01*
X462481Y327649D01*
X466119Y327649D01*
X469480Y326257D01*
X472053Y323684D01*
X473445Y320323D01*
X473445Y303477D01*
X472053Y300116D01*
X469480Y297543D01*
X466119Y296151D01*
X462481Y296151D01*
G37*
%LPD*%
%LPC*%
G36*
X259281Y296151D02*
X259281Y296151D01*
X255920Y297543D01*
X253347Y300116D01*
X251955Y303477D01*
X251955Y320323D01*
X253347Y323684D01*
X255920Y326257D01*
X259281Y327649D01*
X262919Y327649D01*
X266280Y326257D01*
X268853Y323684D01*
X270245Y320323D01*
X270245Y303477D01*
X268853Y300116D01*
X266280Y297543D01*
X262919Y296151D01*
X259281Y296151D01*
G37*
%LPD*%
%LPC*%
G36*
X284681Y296151D02*
X284681Y296151D01*
X281320Y297543D01*
X278747Y300116D01*
X277355Y303477D01*
X277355Y320323D01*
X278747Y323684D01*
X281320Y326257D01*
X284681Y327649D01*
X288319Y327649D01*
X291680Y326257D01*
X294253Y323684D01*
X295645Y320323D01*
X295645Y303477D01*
X294253Y300116D01*
X291680Y297543D01*
X288319Y296151D01*
X284681Y296151D01*
G37*
%LPD*%
%LPC*%
G36*
X437081Y296151D02*
X437081Y296151D01*
X433720Y297543D01*
X431147Y300116D01*
X429755Y303477D01*
X429755Y320323D01*
X431147Y323684D01*
X433720Y326257D01*
X437081Y327649D01*
X440719Y327649D01*
X444080Y326257D01*
X446653Y323684D01*
X448045Y320323D01*
X448045Y303477D01*
X446653Y300116D01*
X444080Y297543D01*
X440719Y296151D01*
X437081Y296151D01*
G37*
%LPD*%
%LPC*%
G36*
X360881Y296151D02*
X360881Y296151D01*
X357520Y297543D01*
X354947Y300116D01*
X353555Y303477D01*
X353555Y320323D01*
X354947Y323684D01*
X357520Y326257D01*
X360881Y327649D01*
X364519Y327649D01*
X367880Y326257D01*
X370453Y323684D01*
X371845Y320323D01*
X371845Y303477D01*
X370453Y300116D01*
X367880Y297543D01*
X364519Y296151D01*
X360881Y296151D01*
G37*
%LPD*%
%LPC*%
G36*
X310081Y372351D02*
X310081Y372351D01*
X306720Y373743D01*
X304147Y376316D01*
X302755Y379677D01*
X302755Y396523D01*
X304147Y399884D01*
X306720Y402457D01*
X310081Y403849D01*
X313719Y403849D01*
X317080Y402457D01*
X319653Y399884D01*
X321045Y396523D01*
X321045Y379677D01*
X319653Y376316D01*
X317080Y373743D01*
X313719Y372351D01*
X310081Y372351D01*
G37*
%LPD*%
%LPC*%
G36*
X335481Y372351D02*
X335481Y372351D01*
X332120Y373743D01*
X329547Y376316D01*
X328155Y379677D01*
X328155Y396523D01*
X329547Y399884D01*
X332120Y402457D01*
X335481Y403849D01*
X339119Y403849D01*
X342480Y402457D01*
X345053Y399884D01*
X346445Y396523D01*
X346445Y379677D01*
X345053Y376316D01*
X342480Y373743D01*
X339119Y372351D01*
X335481Y372351D01*
G37*
%LPD*%
%LPC*%
G36*
X411681Y372351D02*
X411681Y372351D01*
X408320Y373743D01*
X405747Y376316D01*
X404355Y379677D01*
X404355Y396523D01*
X405747Y399884D01*
X408320Y402457D01*
X411681Y403849D01*
X415319Y403849D01*
X418680Y402457D01*
X421253Y399884D01*
X422645Y396523D01*
X422645Y379677D01*
X421253Y376316D01*
X418680Y373743D01*
X415319Y372351D01*
X411681Y372351D01*
G37*
%LPD*%
%LPC*%
G36*
X437081Y372351D02*
X437081Y372351D01*
X433720Y373743D01*
X431147Y376316D01*
X429755Y379677D01*
X429755Y396523D01*
X431147Y399884D01*
X433720Y402457D01*
X437081Y403849D01*
X440719Y403849D01*
X444080Y402457D01*
X446653Y399884D01*
X448045Y396523D01*
X448045Y379677D01*
X446653Y376316D01*
X444080Y373743D01*
X440719Y372351D01*
X437081Y372351D01*
G37*
%LPD*%
%LPC*%
G36*
X284681Y372351D02*
X284681Y372351D01*
X281320Y373743D01*
X278747Y376316D01*
X277355Y379677D01*
X277355Y396523D01*
X278747Y399884D01*
X281320Y402457D01*
X284681Y403849D01*
X288319Y403849D01*
X291680Y402457D01*
X294253Y399884D01*
X295645Y396523D01*
X295645Y379677D01*
X294253Y376316D01*
X291680Y373743D01*
X288319Y372351D01*
X284681Y372351D01*
G37*
%LPD*%
%LPC*%
G36*
X259281Y372351D02*
X259281Y372351D01*
X255920Y373743D01*
X253347Y376316D01*
X251955Y379677D01*
X251955Y396523D01*
X253347Y399884D01*
X255920Y402457D01*
X259281Y403849D01*
X262919Y403849D01*
X266280Y402457D01*
X268853Y399884D01*
X270245Y396523D01*
X270245Y379677D01*
X268853Y376316D01*
X266280Y373743D01*
X262919Y372351D01*
X259281Y372351D01*
G37*
%LPD*%
%LPC*%
G36*
X445791Y239839D02*
X445791Y239839D01*
X439839Y245791D01*
X439839Y254209D01*
X445791Y260161D01*
X454209Y260161D01*
X460161Y254209D01*
X460161Y245791D01*
X454209Y239839D01*
X445791Y239839D01*
G37*
%LPD*%
%LPC*%
G36*
X45791Y239839D02*
X45791Y239839D01*
X39839Y245791D01*
X39839Y254209D01*
X45791Y260161D01*
X54209Y260161D01*
X60161Y254209D01*
X60161Y245791D01*
X54209Y239839D01*
X45791Y239839D01*
G37*
%LPD*%
%LPC*%
G36*
X245791Y639839D02*
X245791Y639839D01*
X239839Y645791D01*
X239839Y654209D01*
X245791Y660161D01*
X254209Y660161D01*
X260161Y654209D01*
X260161Y645791D01*
X254209Y639839D01*
X245791Y639839D01*
G37*
%LPD*%
%LPC*%
G36*
X645791Y439839D02*
X645791Y439839D01*
X639839Y445791D01*
X639839Y454209D01*
X645791Y460161D01*
X654209Y460161D01*
X660161Y454209D01*
X660161Y445791D01*
X654209Y439839D01*
X645791Y439839D01*
G37*
%LPD*%
%LPC*%
G36*
X45791Y439839D02*
X45791Y439839D01*
X39839Y445791D01*
X39839Y454209D01*
X45791Y460161D01*
X54209Y460161D01*
X60161Y454209D01*
X60161Y445791D01*
X54209Y439839D01*
X45791Y439839D01*
G37*
%LPD*%
%LPC*%
G36*
X645791Y639839D02*
X645791Y639839D01*
X639839Y645791D01*
X639839Y654209D01*
X645791Y660161D01*
X654209Y660161D01*
X660161Y654209D01*
X660161Y645791D01*
X654209Y639839D01*
X645791Y639839D01*
G37*
%LPD*%
%LPC*%
G36*
X445791Y639839D02*
X445791Y639839D01*
X439839Y645791D01*
X439839Y654209D01*
X445791Y660161D01*
X454209Y660161D01*
X460161Y654209D01*
X460161Y645791D01*
X454209Y639839D01*
X445791Y639839D01*
G37*
%LPD*%
%LPC*%
G36*
X75791Y639839D02*
X75791Y639839D01*
X69839Y645791D01*
X69839Y654209D01*
X75791Y660161D01*
X84209Y660161D01*
X90161Y654209D01*
X90161Y645791D01*
X84209Y639839D01*
X75791Y639839D01*
G37*
%LPD*%
%LPC*%
G36*
X615791Y639839D02*
X615791Y639839D01*
X609839Y645791D01*
X609839Y654209D01*
X615791Y660161D01*
X624209Y660161D01*
X630161Y654209D01*
X630161Y645791D01*
X624209Y639839D01*
X615791Y639839D01*
G37*
%LPD*%
%LPC*%
G36*
X45791Y639839D02*
X45791Y639839D01*
X39839Y645791D01*
X39839Y654209D01*
X45791Y660161D01*
X54209Y660161D01*
X60161Y654209D01*
X60161Y645791D01*
X54209Y639839D01*
X45791Y639839D01*
G37*
%LPD*%
%LPC*%
G36*
X645791Y69839D02*
X645791Y69839D01*
X639839Y75791D01*
X639839Y84209D01*
X645791Y90161D01*
X654209Y90161D01*
X660161Y84209D01*
X660161Y75791D01*
X654209Y69839D01*
X645791Y69839D01*
G37*
%LPD*%
%LPC*%
G36*
X45791Y609839D02*
X45791Y609839D01*
X39839Y615791D01*
X39839Y624209D01*
X45791Y630161D01*
X54209Y630161D01*
X60161Y624209D01*
X60161Y615791D01*
X54209Y609839D01*
X45791Y609839D01*
G37*
%LPD*%
%LPC*%
G36*
X645791Y609839D02*
X645791Y609839D01*
X639839Y615791D01*
X639839Y624209D01*
X645791Y630161D01*
X654209Y630161D01*
X660161Y624209D01*
X660161Y615791D01*
X654209Y609839D01*
X645791Y609839D01*
G37*
%LPD*%
%LPC*%
G36*
X645791Y239839D02*
X645791Y239839D01*
X639839Y245791D01*
X639839Y254209D01*
X645791Y260161D01*
X654209Y260161D01*
X660161Y254209D01*
X660161Y245791D01*
X654209Y239839D01*
X645791Y239839D01*
G37*
%LPD*%
%LPC*%
G36*
X45791Y69839D02*
X45791Y69839D01*
X39839Y75791D01*
X39839Y84209D01*
X45791Y90161D01*
X54209Y90161D01*
X60161Y84209D01*
X60161Y75791D01*
X54209Y69839D01*
X45791Y69839D01*
G37*
%LPD*%
%LPC*%
G36*
X645791Y39839D02*
X645791Y39839D01*
X639839Y45791D01*
X639839Y54209D01*
X645791Y60161D01*
X654209Y60161D01*
X660161Y54209D01*
X660161Y45791D01*
X654209Y39839D01*
X645791Y39839D01*
G37*
%LPD*%
%LPC*%
G36*
X615791Y39839D02*
X615791Y39839D01*
X609839Y45791D01*
X609839Y54209D01*
X615791Y60161D01*
X624209Y60161D01*
X630161Y54209D01*
X630161Y45791D01*
X624209Y39839D01*
X615791Y39839D01*
G37*
%LPD*%
%LPC*%
G36*
X445791Y39839D02*
X445791Y39839D01*
X439839Y45791D01*
X439839Y54209D01*
X445791Y60161D01*
X454209Y60161D01*
X460161Y54209D01*
X460161Y45791D01*
X454209Y39839D01*
X445791Y39839D01*
G37*
%LPD*%
%LPC*%
G36*
X245791Y39839D02*
X245791Y39839D01*
X239839Y45791D01*
X239839Y54209D01*
X245791Y60161D01*
X254209Y60161D01*
X260161Y54209D01*
X260161Y45791D01*
X254209Y39839D01*
X245791Y39839D01*
G37*
%LPD*%
%LPC*%
G36*
X75791Y39839D02*
X75791Y39839D01*
X69839Y45791D01*
X69839Y54209D01*
X75791Y60161D01*
X84209Y60161D01*
X90161Y54209D01*
X90161Y45791D01*
X84209Y39839D01*
X75791Y39839D01*
G37*
%LPD*%
%LPC*%
G36*
X45791Y39839D02*
X45791Y39839D01*
X39839Y45791D01*
X39839Y54209D01*
X45791Y60161D01*
X54209Y60161D01*
X60161Y54209D01*
X60161Y45791D01*
X54209Y39839D01*
X45791Y39839D01*
G37*
%LPD*%
%LPC*%
G36*
X273742Y566177D02*
X273742Y566177D01*
X271418Y567140D01*
X269640Y568918D01*
X268677Y571242D01*
X268677Y573758D01*
X269640Y576082D01*
X271418Y577860D01*
X273742Y578823D01*
X276258Y578823D01*
X278582Y577860D01*
X279201Y577240D01*
X279232Y577214D01*
X279260Y577183D01*
X279424Y577051D01*
X279584Y576914D01*
X279619Y576892D01*
X279651Y576867D01*
X279834Y576762D01*
X280014Y576652D01*
X280053Y576636D01*
X280088Y576616D01*
X280285Y576541D01*
X280480Y576461D01*
X280520Y576452D01*
X280559Y576437D01*
X280765Y576395D01*
X280971Y576346D01*
X281012Y576344D01*
X281052Y576335D01*
X281446Y576311D01*
X288554Y576311D01*
X288595Y576314D01*
X288636Y576312D01*
X288845Y576334D01*
X289056Y576351D01*
X289096Y576360D01*
X289137Y576365D01*
X289340Y576420D01*
X289545Y576469D01*
X289583Y576485D01*
X289623Y576496D01*
X289816Y576583D01*
X290010Y576664D01*
X290044Y576686D01*
X290082Y576703D01*
X290259Y576819D01*
X290438Y576930D01*
X290469Y576957D01*
X290503Y576979D01*
X290799Y577240D01*
X291418Y577860D01*
X293742Y578823D01*
X296258Y578823D01*
X298582Y577860D01*
X300360Y576082D01*
X301323Y573758D01*
X301323Y571242D01*
X300360Y568918D01*
X298582Y567140D01*
X296258Y566177D01*
X293742Y566177D01*
X291418Y567140D01*
X290799Y567760D01*
X290768Y567786D01*
X290740Y567817D01*
X290576Y567949D01*
X290416Y568086D01*
X290381Y568108D01*
X290349Y568133D01*
X290166Y568238D01*
X289986Y568348D01*
X289947Y568364D01*
X289912Y568384D01*
X289715Y568459D01*
X289520Y568539D01*
X289480Y568548D01*
X289441Y568563D01*
X289235Y568605D01*
X289029Y568654D01*
X288988Y568656D01*
X288948Y568665D01*
X288554Y568689D01*
X281446Y568689D01*
X281405Y568686D01*
X281364Y568688D01*
X281155Y568666D01*
X280944Y568649D01*
X280904Y568640D01*
X280863Y568635D01*
X280660Y568580D01*
X280455Y568531D01*
X280417Y568515D01*
X280377Y568504D01*
X280184Y568417D01*
X279990Y568336D01*
X279956Y568314D01*
X279918Y568297D01*
X279741Y568181D01*
X279562Y568070D01*
X279531Y568043D01*
X279497Y568021D01*
X279201Y567760D01*
X278582Y567140D01*
X276258Y566177D01*
X273742Y566177D01*
G37*
%LPD*%
%LPC*%
G36*
X138742Y393677D02*
X138742Y393677D01*
X136418Y394640D01*
X134640Y396418D01*
X133677Y398742D01*
X133677Y400503D01*
X133675Y400530D01*
X133677Y400557D01*
X133655Y400781D01*
X133637Y401005D01*
X133631Y401031D01*
X133628Y401059D01*
X133571Y401277D01*
X133519Y401494D01*
X133508Y401519D01*
X133501Y401546D01*
X133410Y401752D01*
X133324Y401959D01*
X133309Y401982D01*
X133298Y402007D01*
X133176Y402196D01*
X133058Y402386D01*
X133040Y402407D01*
X133025Y402430D01*
X132876Y402597D01*
X132728Y402767D01*
X132707Y402784D01*
X132689Y402805D01*
X132514Y402946D01*
X132342Y403090D01*
X132319Y403104D01*
X132298Y403121D01*
X132103Y403233D01*
X131910Y403348D01*
X131885Y403359D01*
X131861Y403372D01*
X131651Y403452D01*
X131442Y403535D01*
X131416Y403541D01*
X131390Y403551D01*
X131170Y403596D01*
X130951Y403645D01*
X130924Y403647D01*
X130897Y403653D01*
X130503Y403677D01*
X128742Y403677D01*
X126418Y404640D01*
X124640Y406418D01*
X123677Y408742D01*
X123677Y411258D01*
X124640Y413582D01*
X126418Y415360D01*
X128742Y416323D01*
X131258Y416323D01*
X133582Y415360D01*
X135360Y413582D01*
X136323Y411258D01*
X136323Y409497D01*
X136325Y409470D01*
X136323Y409443D01*
X136345Y409219D01*
X136363Y408995D01*
X136369Y408969D01*
X136372Y408941D01*
X136429Y408722D01*
X136481Y408506D01*
X136492Y408481D01*
X136499Y408454D01*
X136590Y408248D01*
X136676Y408041D01*
X136691Y408018D01*
X136702Y407993D01*
X136824Y407804D01*
X136942Y407614D01*
X136960Y407593D01*
X136975Y407570D01*
X137125Y407403D01*
X137272Y407233D01*
X137293Y407216D01*
X137311Y407195D01*
X137486Y407054D01*
X137658Y406910D01*
X137681Y406896D01*
X137702Y406879D01*
X137897Y406767D01*
X138090Y406652D01*
X138115Y406641D01*
X138139Y406628D01*
X138349Y406548D01*
X138558Y406465D01*
X138584Y406459D01*
X138610Y406449D01*
X138830Y406404D01*
X139049Y406355D01*
X139076Y406353D01*
X139103Y406347D01*
X139497Y406323D01*
X141258Y406323D01*
X143582Y405360D01*
X145360Y403582D01*
X146323Y401258D01*
X146323Y398742D01*
X145360Y396418D01*
X143582Y394640D01*
X141258Y393677D01*
X138742Y393677D01*
G37*
%LPD*%
%LPC*%
G36*
X118742Y283677D02*
X118742Y283677D01*
X116418Y284640D01*
X114640Y286418D01*
X113677Y288742D01*
X113677Y290503D01*
X113675Y290530D01*
X113677Y290557D01*
X113655Y290781D01*
X113637Y291005D01*
X113631Y291031D01*
X113628Y291059D01*
X113571Y291277D01*
X113519Y291494D01*
X113508Y291519D01*
X113501Y291546D01*
X113410Y291752D01*
X113324Y291959D01*
X113309Y291982D01*
X113298Y292007D01*
X113176Y292196D01*
X113058Y292386D01*
X113040Y292407D01*
X113025Y292430D01*
X112875Y292597D01*
X112728Y292767D01*
X112707Y292784D01*
X112689Y292805D01*
X112514Y292946D01*
X112342Y293090D01*
X112319Y293104D01*
X112298Y293121D01*
X112103Y293233D01*
X111910Y293348D01*
X111885Y293359D01*
X111861Y293372D01*
X111651Y293452D01*
X111442Y293535D01*
X111416Y293541D01*
X111390Y293551D01*
X111170Y293596D01*
X110951Y293645D01*
X110924Y293647D01*
X110897Y293653D01*
X110503Y293677D01*
X108742Y293677D01*
X106418Y294640D01*
X104640Y296418D01*
X103677Y298742D01*
X103677Y301258D01*
X104640Y303582D01*
X106418Y305360D01*
X108742Y306323D01*
X111258Y306323D01*
X113582Y305360D01*
X115360Y303582D01*
X116323Y301258D01*
X116323Y299497D01*
X116325Y299470D01*
X116323Y299443D01*
X116345Y299219D01*
X116363Y298995D01*
X116369Y298969D01*
X116372Y298941D01*
X116429Y298722D01*
X116481Y298506D01*
X116492Y298481D01*
X116499Y298454D01*
X116590Y298248D01*
X116676Y298041D01*
X116691Y298018D01*
X116702Y297993D01*
X116824Y297804D01*
X116942Y297614D01*
X116960Y297593D01*
X116975Y297570D01*
X117125Y297403D01*
X117272Y297233D01*
X117293Y297216D01*
X117311Y297195D01*
X117486Y297054D01*
X117658Y296910D01*
X117681Y296896D01*
X117702Y296879D01*
X117897Y296767D01*
X118090Y296652D01*
X118115Y296641D01*
X118139Y296628D01*
X118349Y296548D01*
X118558Y296465D01*
X118584Y296459D01*
X118610Y296449D01*
X118830Y296404D01*
X119049Y296355D01*
X119076Y296353D01*
X119103Y296347D01*
X119497Y296323D01*
X121258Y296323D01*
X123582Y295360D01*
X125360Y293582D01*
X126323Y291258D01*
X126323Y288742D01*
X125360Y286418D01*
X123582Y284640D01*
X121258Y283677D01*
X118742Y283677D01*
G37*
%LPD*%
%LPC*%
G36*
X553174Y473174D02*
X553174Y473174D01*
X553174Y483463D01*
X561804Y483463D01*
X563554Y483232D01*
X565259Y482776D01*
X566889Y482100D01*
X568418Y481218D01*
X569818Y480144D01*
X571066Y478896D01*
X572140Y477496D01*
X573022Y475967D01*
X573698Y474337D01*
X574009Y473174D01*
X553174Y473174D01*
G37*
%LPD*%
%LPC*%
G36*
X525991Y473174D02*
X525991Y473174D01*
X526302Y474337D01*
X526978Y475967D01*
X527860Y477496D01*
X528934Y478896D01*
X530182Y480144D01*
X531582Y481218D01*
X533111Y482100D01*
X534741Y482776D01*
X536446Y483232D01*
X538196Y483463D01*
X546826Y483463D01*
X546826Y473174D01*
X525991Y473174D01*
G37*
%LPD*%
%LPC*%
G36*
X601174Y436826D02*
X601174Y436826D01*
X611463Y436826D01*
X611463Y428196D01*
X611232Y426446D01*
X610776Y424741D01*
X610100Y423111D01*
X609218Y421582D01*
X608144Y420182D01*
X606896Y418934D01*
X605496Y417860D01*
X603967Y416978D01*
X602337Y416302D01*
X601174Y415991D01*
X601174Y436826D01*
G37*
%LPD*%
%LPC*%
G36*
X584537Y443174D02*
X584537Y443174D01*
X584537Y451804D01*
X584768Y453554D01*
X585224Y455259D01*
X585900Y456889D01*
X586782Y458418D01*
X587856Y459818D01*
X589104Y461066D01*
X590504Y462140D01*
X592033Y463022D01*
X593663Y463698D01*
X594826Y464009D01*
X594826Y443174D01*
X584537Y443174D01*
G37*
%LPD*%
%LPC*%
G36*
X553174Y456537D02*
X553174Y456537D01*
X553174Y466826D01*
X574009Y466826D01*
X573698Y465663D01*
X573022Y464033D01*
X572140Y462504D01*
X571066Y461104D01*
X569818Y459856D01*
X568418Y458782D01*
X566889Y457900D01*
X565259Y457224D01*
X563554Y456768D01*
X561804Y456537D01*
X553174Y456537D01*
G37*
%LPD*%
%LPC*%
G36*
X538196Y456537D02*
X538196Y456537D01*
X536446Y456768D01*
X534741Y457224D01*
X533111Y457900D01*
X531582Y458782D01*
X530182Y459856D01*
X528934Y461104D01*
X527860Y462504D01*
X526978Y464033D01*
X526302Y465663D01*
X525991Y466826D01*
X546826Y466826D01*
X546826Y456537D01*
X538196Y456537D01*
G37*
%LPD*%
%LPC*%
G36*
X513742Y636177D02*
X513742Y636177D01*
X511418Y637140D01*
X509640Y638918D01*
X508677Y641242D01*
X508677Y643758D01*
X509640Y646082D01*
X511418Y647860D01*
X513742Y648823D01*
X516258Y648823D01*
X518582Y647860D01*
X520360Y646082D01*
X521323Y643758D01*
X521323Y641242D01*
X520360Y638918D01*
X518582Y637140D01*
X516258Y636177D01*
X513742Y636177D01*
G37*
%LPD*%
%LPC*%
G36*
X56242Y508677D02*
X56242Y508677D01*
X53918Y509640D01*
X52140Y511418D01*
X51177Y513742D01*
X51177Y516258D01*
X52140Y518582D01*
X53918Y520360D01*
X56242Y521323D01*
X58758Y521323D01*
X61082Y520360D01*
X62860Y518582D01*
X63823Y516258D01*
X63823Y513742D01*
X62860Y511418D01*
X61082Y509640D01*
X58758Y508677D01*
X56242Y508677D01*
G37*
%LPD*%
%LPC*%
G36*
X168742Y293677D02*
X168742Y293677D01*
X166418Y294640D01*
X164640Y296418D01*
X163677Y298742D01*
X163677Y301258D01*
X164640Y303582D01*
X166418Y305360D01*
X168742Y306323D01*
X171258Y306323D01*
X173582Y305360D01*
X175360Y303582D01*
X176323Y301258D01*
X176323Y298742D01*
X175360Y296418D01*
X173582Y294640D01*
X171258Y293677D01*
X168742Y293677D01*
G37*
%LPD*%
%LPC*%
G36*
X148742Y293677D02*
X148742Y293677D01*
X146418Y294640D01*
X144640Y296418D01*
X143677Y298742D01*
X143677Y301258D01*
X144640Y303582D01*
X146418Y305360D01*
X148742Y306323D01*
X151258Y306323D01*
X153582Y305360D01*
X155360Y303582D01*
X156323Y301258D01*
X156323Y298742D01*
X155360Y296418D01*
X153582Y294640D01*
X151258Y293677D01*
X148742Y293677D01*
G37*
%LPD*%
%LPC*%
G36*
X656242Y508677D02*
X656242Y508677D01*
X653918Y509640D01*
X652140Y511418D01*
X651177Y513742D01*
X651177Y516258D01*
X652140Y518582D01*
X653918Y520360D01*
X656242Y521323D01*
X658758Y521323D01*
X661082Y520360D01*
X662860Y518582D01*
X663823Y516258D01*
X663823Y513742D01*
X662860Y511418D01*
X661082Y509640D01*
X658758Y508677D01*
X656242Y508677D01*
G37*
%LPD*%
%LPC*%
G36*
X168742Y263677D02*
X168742Y263677D01*
X166418Y264640D01*
X164640Y266418D01*
X163677Y268742D01*
X163677Y271258D01*
X164640Y273582D01*
X166418Y275360D01*
X168742Y276323D01*
X171258Y276323D01*
X173582Y275360D01*
X175360Y273582D01*
X176323Y271258D01*
X176323Y268742D01*
X175360Y266418D01*
X173582Y264640D01*
X171258Y263677D01*
X168742Y263677D01*
G37*
%LPD*%
%LPC*%
G36*
X606242Y531177D02*
X606242Y531177D01*
X603918Y532140D01*
X602140Y533918D01*
X601177Y536242D01*
X601177Y538758D01*
X602140Y541082D01*
X603918Y542860D01*
X606242Y543823D01*
X608758Y543823D01*
X611082Y542860D01*
X612860Y541082D01*
X613823Y538758D01*
X613823Y536242D01*
X612860Y533918D01*
X611082Y532140D01*
X608758Y531177D01*
X606242Y531177D01*
G37*
%LPD*%
%LPC*%
G36*
X91242Y546177D02*
X91242Y546177D01*
X88918Y547140D01*
X87140Y548918D01*
X86177Y551242D01*
X86177Y553758D01*
X87140Y556082D01*
X88918Y557860D01*
X91242Y558823D01*
X93758Y558823D01*
X96082Y557860D01*
X97860Y556082D01*
X98823Y553758D01*
X98823Y551242D01*
X97860Y548918D01*
X96082Y547140D01*
X93758Y546177D01*
X91242Y546177D01*
G37*
%LPD*%
%LPC*%
G36*
X551242Y601177D02*
X551242Y601177D01*
X548918Y602140D01*
X547140Y603918D01*
X546177Y606242D01*
X546177Y608758D01*
X547140Y611082D01*
X548918Y612860D01*
X551242Y613823D01*
X553758Y613823D01*
X556082Y612860D01*
X557860Y611082D01*
X558823Y608758D01*
X558823Y606242D01*
X557860Y603918D01*
X556082Y602140D01*
X553758Y601177D01*
X551242Y601177D01*
G37*
%LPD*%
%LPC*%
G36*
X641242Y178677D02*
X641242Y178677D01*
X638918Y179640D01*
X637140Y181418D01*
X636177Y183742D01*
X636177Y186258D01*
X637140Y188582D01*
X638918Y190360D01*
X641242Y191323D01*
X643758Y191323D01*
X646082Y190360D01*
X647860Y188582D01*
X648823Y186258D01*
X648823Y183742D01*
X647860Y181418D01*
X646082Y179640D01*
X643758Y178677D01*
X641242Y178677D01*
G37*
%LPD*%
%LPC*%
G36*
X41242Y178677D02*
X41242Y178677D01*
X38918Y179640D01*
X37140Y181418D01*
X36177Y183742D01*
X36177Y186258D01*
X37140Y188582D01*
X38918Y190360D01*
X41242Y191323D01*
X43758Y191323D01*
X46082Y190360D01*
X47860Y188582D01*
X48823Y186258D01*
X48823Y183742D01*
X47860Y181418D01*
X46082Y179640D01*
X43758Y178677D01*
X41242Y178677D01*
G37*
%LPD*%
%LPC*%
G36*
X606242Y141177D02*
X606242Y141177D01*
X603918Y142140D01*
X602140Y143918D01*
X601177Y146242D01*
X601177Y148758D01*
X602140Y151082D01*
X603918Y152860D01*
X606242Y153823D01*
X608758Y153823D01*
X611082Y152860D01*
X612860Y151082D01*
X613823Y148758D01*
X613823Y146242D01*
X612860Y143918D01*
X611082Y142140D01*
X608758Y141177D01*
X606242Y141177D01*
G37*
%LPD*%
%LPC*%
G36*
X183742Y651177D02*
X183742Y651177D01*
X181418Y652140D01*
X179640Y653918D01*
X178677Y656242D01*
X178677Y658758D01*
X179640Y661082D01*
X181418Y662860D01*
X183742Y663823D01*
X186258Y663823D01*
X188582Y662860D01*
X190360Y661082D01*
X191323Y658758D01*
X191323Y656242D01*
X190360Y653918D01*
X188582Y652140D01*
X186258Y651177D01*
X183742Y651177D01*
G37*
%LPD*%
%LPC*%
G36*
X536242Y88677D02*
X536242Y88677D01*
X533918Y89640D01*
X532140Y91418D01*
X531177Y93742D01*
X531177Y96258D01*
X532140Y98582D01*
X533918Y100360D01*
X536242Y101323D01*
X538758Y101323D01*
X541082Y100360D01*
X542860Y98582D01*
X543823Y96258D01*
X543823Y93742D01*
X542860Y91418D01*
X541082Y89640D01*
X538758Y88677D01*
X536242Y88677D01*
G37*
%LPD*%
%LPC*%
G36*
X88742Y403677D02*
X88742Y403677D01*
X86418Y404640D01*
X84640Y406418D01*
X83677Y408742D01*
X83677Y411258D01*
X84640Y413582D01*
X86418Y415360D01*
X88742Y416323D01*
X91258Y416323D01*
X93582Y415360D01*
X95360Y413582D01*
X96323Y411258D01*
X96323Y408742D01*
X95360Y406418D01*
X93582Y404640D01*
X91258Y403677D01*
X88742Y403677D01*
G37*
%LPD*%
%LPC*%
G36*
X183742Y51177D02*
X183742Y51177D01*
X181418Y52140D01*
X179640Y53918D01*
X178677Y56242D01*
X178677Y58758D01*
X179640Y61082D01*
X181418Y62860D01*
X183742Y63823D01*
X186258Y63823D01*
X188582Y62860D01*
X190360Y61082D01*
X191323Y58758D01*
X191323Y56242D01*
X190360Y53918D01*
X188582Y52140D01*
X186258Y51177D01*
X183742Y51177D01*
G37*
%LPD*%
%LPC*%
G36*
X108742Y393677D02*
X108742Y393677D01*
X106418Y394640D01*
X104640Y396418D01*
X103677Y398742D01*
X103677Y401258D01*
X104640Y403582D01*
X106418Y405360D01*
X108742Y406323D01*
X111258Y406323D01*
X113582Y405360D01*
X115360Y403582D01*
X116323Y401258D01*
X116323Y398742D01*
X115360Y396418D01*
X113582Y394640D01*
X111258Y393677D01*
X108742Y393677D01*
G37*
%LPD*%
%LPC*%
G36*
X513742Y36177D02*
X513742Y36177D01*
X511418Y37140D01*
X509640Y38918D01*
X508677Y41242D01*
X508677Y43758D01*
X509640Y46082D01*
X511418Y47860D01*
X513742Y48823D01*
X516258Y48823D01*
X518582Y47860D01*
X520360Y46082D01*
X521323Y43758D01*
X521323Y41242D01*
X520360Y38918D01*
X518582Y37140D01*
X516258Y36177D01*
X513742Y36177D01*
G37*
%LPD*%
%LPC*%
G36*
X653174Y276339D02*
X653174Y276339D01*
X653174Y283326D01*
X667272Y283326D01*
X667036Y282600D01*
X666310Y281175D01*
X665370Y279881D01*
X664239Y278750D01*
X662945Y277810D01*
X661520Y277084D01*
X659999Y276589D01*
X658420Y276339D01*
X653174Y276339D01*
G37*
%LPD*%
%LPC*%
G36*
X467474Y391274D02*
X467474Y391274D01*
X467474Y403288D01*
X467810Y403179D01*
X469093Y402525D01*
X470257Y401679D01*
X471275Y400661D01*
X472121Y399497D01*
X472775Y398214D01*
X473220Y396845D01*
X473445Y395424D01*
X473445Y391274D01*
X467474Y391274D01*
G37*
%LPD*%
%LPC*%
G36*
X467474Y384926D02*
X467474Y384926D01*
X473445Y384926D01*
X473445Y380776D01*
X473220Y379355D01*
X472775Y377986D01*
X472121Y376703D01*
X471275Y375539D01*
X470257Y374521D01*
X469093Y373675D01*
X467810Y373021D01*
X467474Y372912D01*
X467474Y384926D01*
G37*
%LPD*%
%LPC*%
G36*
X455155Y391274D02*
X455155Y391274D01*
X455155Y395424D01*
X455380Y396845D01*
X455825Y398214D01*
X456479Y399497D01*
X457325Y400661D01*
X458343Y401679D01*
X459507Y402525D01*
X460790Y403179D01*
X461126Y403288D01*
X461126Y391274D01*
X455155Y391274D01*
G37*
%LPD*%
%LPC*%
G36*
X460790Y373021D02*
X460790Y373021D01*
X459507Y373675D01*
X458343Y374521D01*
X457325Y375539D01*
X456479Y376703D01*
X455825Y377986D01*
X455380Y379355D01*
X455155Y380776D01*
X455155Y384926D01*
X461126Y384926D01*
X461126Y372912D01*
X460790Y373021D01*
G37*
%LPD*%
D10*
X598000Y450922D02*
X598000Y429078D01*
X560922Y470000D02*
X539078Y470000D01*
X539078Y410000D02*
X560922Y410000D01*
D11*
X50000Y50000D03*
X250000Y450000D03*
X450000Y450000D03*
X650000Y450000D03*
X50000Y650000D03*
X250000Y650000D03*
X450000Y650000D03*
X650000Y650000D03*
X80000Y50000D03*
X650000Y80000D03*
X620000Y650000D03*
X250000Y50000D03*
X50000Y620000D03*
X50000Y80000D03*
X620000Y50000D03*
X650000Y620000D03*
X80000Y650000D03*
D12*
X642380Y286500D02*
X657620Y286500D01*
X657620Y311900D02*
X642380Y311900D01*
X642380Y337300D02*
X657620Y337300D01*
X657620Y362700D02*
X642380Y362700D01*
X642380Y388100D02*
X657620Y388100D01*
X657620Y413500D02*
X642380Y413500D01*
D11*
X450000Y50000D03*
X650000Y50000D03*
X50000Y250000D03*
X250000Y250000D03*
X450000Y250000D03*
X650000Y250000D03*
X50000Y450000D03*
D13*
X464300Y318504D02*
X464300Y305296D01*
X438900Y305296D02*
X438900Y318504D01*
X311900Y318504D02*
X311900Y305296D01*
X286500Y305296D02*
X286500Y318504D01*
X413500Y318504D02*
X413500Y305296D01*
X388100Y305296D02*
X388100Y318504D01*
X337300Y318504D02*
X337300Y305296D01*
X362700Y305296D02*
X362700Y318504D01*
X261100Y318504D02*
X261100Y305296D01*
X235700Y305296D02*
X235700Y318504D01*
X235700Y381496D02*
X235700Y394704D01*
X261100Y394704D02*
X261100Y381496D01*
X286500Y381496D02*
X286500Y394704D01*
X311900Y394704D02*
X311900Y381496D01*
X337300Y381496D02*
X337300Y394704D01*
X362700Y394704D02*
X362700Y381496D01*
X388100Y381496D02*
X388100Y394704D01*
X413500Y394704D02*
X413500Y381496D01*
X438900Y381496D02*
X438900Y394704D01*
X464300Y394704D02*
X464300Y381496D01*
D14*
X60000Y185000D03*
X185000Y40000D03*
X515000Y60000D03*
X640000Y515000D03*
X185000Y640000D03*
X20000Y100000D03*
X20000Y50000D03*
X50000Y20000D03*
X100000Y20000D03*
X150000Y20000D03*
X200000Y20000D03*
X250000Y20000D03*
X300000Y20000D03*
X350000Y20000D03*
X400000Y20000D03*
X450000Y20000D03*
X500000Y20000D03*
X550000Y20000D03*
X600000Y20000D03*
X650000Y20000D03*
X680000Y50000D03*
X680000Y100000D03*
X680000Y150000D03*
X680000Y200000D03*
X680000Y250000D03*
X680000Y300000D03*
X680000Y350000D03*
X680000Y400000D03*
X680000Y450000D03*
X680000Y500000D03*
X680000Y550000D03*
X680000Y600000D03*
X680000Y650000D03*
X650000Y680000D03*
X600000Y680000D03*
X550000Y680000D03*
X500000Y680000D03*
X450000Y680000D03*
X400000Y680000D03*
X350000Y680000D03*
X300000Y680000D03*
X250000Y680000D03*
X200000Y680000D03*
X150000Y680000D03*
X100000Y680000D03*
X50000Y680000D03*
X20000Y650000D03*
X20000Y600000D03*
X20000Y550000D03*
X20000Y500000D03*
X20000Y450000D03*
X20000Y400000D03*
X20000Y350000D03*
X20000Y300000D03*
X20000Y250000D03*
X20000Y200000D03*
X20000Y150000D03*
X100000Y250000D03*
X150000Y150000D03*
X200000Y150000D03*
X200000Y100000D03*
X250000Y100000D03*
X450000Y100000D03*
X500000Y100000D03*
X500000Y150000D03*
X450000Y150000D03*
X400000Y100000D03*
X600000Y250000D03*
X150000Y450000D03*
X100000Y450000D03*
X200000Y500000D03*
X250000Y550000D03*
X200000Y600000D03*
X450000Y600000D03*
X500000Y600000D03*
X450000Y500000D03*
X500000Y400000D03*
X600000Y350000D03*
X600000Y300000D03*
X200000Y300000D03*
X300000Y150000D03*
X300000Y500000D03*
X150000Y500000D03*
X150000Y600000D03*
X350000Y250000D03*
X350000Y450000D03*
X350000Y650000D03*
X350000Y50000D03*
X50000Y350000D03*
X95000Y60000D03*
X640000Y95000D03*
X605000Y640000D03*
X60000Y605000D03*
X42500Y185000D03*
X185000Y57500D03*
X515000Y42500D03*
X642500Y185000D03*
X657500Y515000D03*
X515000Y642500D03*
X185000Y657500D03*
X57500Y515000D03*
X215000Y357500D03*
D15*
X500000Y357500D01*
X517500Y340000D01*
D14*
X517500Y340000D03*
X360000Y230000D03*
D16*
X360000Y180000D01*
X340000Y160000D01*
D14*
X340000Y160000D03*
X610000Y190000D03*
X320000Y100000D03*
D16*
X320080Y99920D01*
X327420Y99920D01*
X375000Y147500D01*
X375000Y157500D01*
X407500Y190000D01*
X610000Y190000D01*
D14*
X340000Y270000D03*
D16*
X325000Y255000D01*
X325000Y155000D01*
X340000Y140000D01*
D14*
X340000Y140000D03*
X30000Y340000D03*
D16*
X187500Y335000D02*
X317500Y205000D01*
X35000Y335000D02*
X30000Y340000D01*
X35000Y335000D02*
X187500Y335000D01*
X317500Y205000D02*
X317500Y150000D01*
X350000Y150000D02*
X350000Y137500D01*
X342500Y130000D01*
X337500Y130000D01*
X317500Y150000D01*
D14*
X350000Y150000D03*
X565000Y135000D03*
X390000Y160000D03*
D16*
X540000Y160000D02*
X565000Y135000D01*
X540000Y160000D02*
X390000Y160000D01*
D14*
X360000Y30000D03*
D16*
X380000Y50000D01*
X380000Y100000D01*
D14*
X380000Y100000D03*
X340000Y70000D03*
D16*
X340000Y90000D01*
X390000Y140000D01*
D14*
X390000Y140000D03*
X135000Y135000D03*
D16*
X360000Y140000D02*
X360000Y160000D01*
X360000Y140000D02*
X342500Y122500D01*
X147500Y122500D01*
X135000Y135000D01*
D14*
X360000Y160000D03*
X360000Y630000D03*
X360000Y562500D03*
D16*
X360000Y630000D01*
D14*
X565000Y565000D03*
D16*
X557500Y572500D01*
D14*
X320000Y540000D03*
D16*
X387500Y572500D02*
X557500Y572500D01*
X387500Y572500D02*
X382592Y567592D01*
X349263Y540000D02*
X320000Y540000D01*
X382592Y559355D02*
X382592Y567592D01*
X356855Y547592D02*
X349263Y540000D01*
X370829Y547592D02*
X382592Y559355D01*
X370829Y547592D02*
X356855Y547592D01*
D14*
X340000Y670000D03*
X375000Y562500D03*
D16*
X375000Y645000D01*
X350000Y670000D01*
X340000Y670000D01*
D14*
X135000Y565000D03*
D16*
X170000Y530000D01*
X350000Y530000D02*
X360000Y540000D01*
D14*
X360000Y540000D03*
D16*
X350000Y530000D02*
X170000Y530000D01*
D14*
X610000Y470000D03*
D16*
X530000Y550000D01*
X395000Y550000D01*
D14*
X395000Y550000D03*
X360000Y430000D03*
D16*
X400000Y470000D01*
X400000Y527500D02*
X390000Y537500D01*
D14*
X390000Y537500D03*
D16*
X400000Y527500D02*
X400000Y470000D01*
D14*
X340000Y470000D03*
D16*
X370000Y500000D01*
X390000Y500000D01*
D14*
X390000Y500000D03*
X70000Y360000D03*
X400000Y562500D03*
D16*
X75000Y355000D02*
X70000Y360000D01*
X75000Y355000D02*
X180000Y355000D01*
X393237Y562500D02*
X400000Y562500D01*
X393237Y562500D02*
X355657Y524920D01*
X349920Y524920D02*
X180000Y355000D01*
X349920Y524920D02*
X355657Y524920D01*
D14*
X110000Y300000D03*
X607500Y537500D03*
X120000Y290000D03*
X537500Y95000D03*
X170000Y300000D03*
X552500Y607500D03*
X170000Y270000D03*
X607500Y147500D03*
D16*
X618100Y280000D02*
X400000Y280000D01*
X388100Y291900D01*
X388100Y311900D01*
X618100Y280000D02*
X650000Y311900D01*
X413500Y311900D02*
X413500Y299000D01*
X427420Y285080D02*
X597780Y285080D01*
X427420Y285080D02*
X413500Y299000D01*
X597780Y285080D02*
X650000Y337300D01*
X610841Y388100D02*
X569129Y429812D01*
X362700Y405200D02*
X362700Y388100D01*
X387312Y429812D02*
X569129Y429812D01*
X387312Y429812D02*
X362700Y405200D01*
X610841Y388100D02*
X650000Y388100D01*
X629056Y362700D02*
X567024Y424732D01*
X388100Y405600D02*
X388100Y388100D01*
X407232Y424732D02*
X567024Y424732D01*
X407232Y424732D02*
X388100Y405600D01*
X629056Y362700D02*
X650000Y362700D01*
D14*
X295000Y572500D03*
D16*
X275000Y572500D01*
D14*
X275000Y572500D03*
X150000Y300000D03*
X92500Y552500D03*
X140000Y400000D03*
X130000Y410000D03*
X110000Y400000D03*
X90000Y410000D03*
M02*
