G04 EAGLE Gerber RS-274X export*
G75*
%MOMM*%
%FSLAX34Y34*%
%LPD*%
%INCopper Layer 15*%
%IPPOS*%
%AMOC8*
5,1,8,0,0,1.08239X$1,22.5*%
G01*
%ADD10C,1.308000*%
%ADD11C,1.508000*%
%ADD12C,1.524000*%
%ADD13C,1.320800*%
%ADD14C,0.756400*%
%ADD15C,0.254000*%

G36*
X670080Y10167D02*
X670080Y10167D01*
X670208Y10168D01*
X672383Y10310D01*
X672496Y10327D01*
X672610Y10333D01*
X672787Y10369D01*
X672881Y10383D01*
X672929Y10398D01*
X672997Y10411D01*
X677199Y11537D01*
X677404Y11610D01*
X677611Y11679D01*
X677646Y11696D01*
X677673Y11706D01*
X677753Y11750D01*
X677965Y11855D01*
X681732Y14030D01*
X681911Y14153D01*
X682094Y14273D01*
X682123Y14299D01*
X682147Y14315D01*
X682213Y14378D01*
X682390Y14534D01*
X685466Y17610D01*
X685607Y17776D01*
X685752Y17939D01*
X685773Y17971D01*
X685792Y17994D01*
X685840Y18071D01*
X685970Y18268D01*
X688145Y22035D01*
X688239Y22232D01*
X688337Y22427D01*
X688349Y22464D01*
X688362Y22490D01*
X688387Y22577D01*
X688463Y22801D01*
X689589Y27003D01*
X689609Y27115D01*
X689640Y27226D01*
X689663Y27405D01*
X689680Y27498D01*
X689681Y27548D01*
X689690Y27617D01*
X689832Y29792D01*
X689831Y29873D01*
X689839Y30000D01*
X689839Y670000D01*
X689833Y670080D01*
X689832Y670208D01*
X689690Y672383D01*
X689673Y672496D01*
X689667Y672610D01*
X689631Y672787D01*
X689617Y672881D01*
X689602Y672929D01*
X689589Y672997D01*
X688463Y677199D01*
X688390Y677404D01*
X688321Y677611D01*
X688304Y677646D01*
X688294Y677673D01*
X688250Y677753D01*
X688145Y677965D01*
X685970Y681732D01*
X685847Y681911D01*
X685727Y682094D01*
X685701Y682123D01*
X685685Y682147D01*
X685622Y682213D01*
X685466Y682390D01*
X682390Y685466D01*
X682224Y685607D01*
X682061Y685752D01*
X682029Y685773D01*
X682006Y685792D01*
X681929Y685840D01*
X681732Y685970D01*
X677965Y688145D01*
X677768Y688239D01*
X677573Y688337D01*
X677536Y688349D01*
X677510Y688362D01*
X677423Y688387D01*
X677199Y688463D01*
X672997Y689589D01*
X672885Y689609D01*
X672774Y689640D01*
X672595Y689663D01*
X672502Y689680D01*
X672452Y689681D01*
X672383Y689690D01*
X670208Y689832D01*
X670127Y689831D01*
X670000Y689839D01*
X30000Y689839D01*
X29920Y689833D01*
X29792Y689832D01*
X27617Y689690D01*
X27504Y689673D01*
X27390Y689667D01*
X27213Y689631D01*
X27119Y689617D01*
X27071Y689602D01*
X27003Y689589D01*
X22801Y688463D01*
X22596Y688390D01*
X22389Y688321D01*
X22354Y688304D01*
X22327Y688294D01*
X22247Y688250D01*
X22035Y688145D01*
X18268Y685970D01*
X18089Y685847D01*
X17906Y685727D01*
X17877Y685701D01*
X17853Y685685D01*
X17787Y685622D01*
X17610Y685466D01*
X14534Y682390D01*
X14393Y682224D01*
X14248Y682061D01*
X14227Y682029D01*
X14208Y682006D01*
X14160Y681929D01*
X14030Y681732D01*
X11855Y677965D01*
X11761Y677768D01*
X11663Y677573D01*
X11651Y677536D01*
X11638Y677510D01*
X11613Y677423D01*
X11537Y677199D01*
X10411Y672997D01*
X10391Y672885D01*
X10360Y672774D01*
X10337Y672595D01*
X10320Y672502D01*
X10319Y672452D01*
X10310Y672383D01*
X10168Y670208D01*
X10169Y670127D01*
X10161Y670000D01*
X10161Y30000D01*
X10167Y29920D01*
X10168Y29792D01*
X10310Y27617D01*
X10327Y27504D01*
X10333Y27390D01*
X10369Y27213D01*
X10383Y27119D01*
X10398Y27071D01*
X10411Y27003D01*
X11537Y22801D01*
X11610Y22596D01*
X11679Y22389D01*
X11696Y22354D01*
X11706Y22327D01*
X11750Y22247D01*
X11855Y22035D01*
X14030Y18268D01*
X14153Y18089D01*
X14273Y17906D01*
X14299Y17877D01*
X14315Y17853D01*
X14378Y17787D01*
X14534Y17610D01*
X17610Y14534D01*
X17776Y14393D01*
X17939Y14248D01*
X17971Y14227D01*
X17994Y14208D01*
X18071Y14160D01*
X18268Y14030D01*
X22035Y11855D01*
X22128Y11811D01*
X22216Y11758D01*
X22323Y11715D01*
X22427Y11663D01*
X22464Y11651D01*
X22490Y11638D01*
X22577Y11613D01*
X22596Y11606D01*
X22683Y11571D01*
X22733Y11560D01*
X22801Y11537D01*
X27003Y10411D01*
X27115Y10391D01*
X27226Y10360D01*
X27405Y10337D01*
X27498Y10320D01*
X27548Y10319D01*
X27617Y10310D01*
X29792Y10168D01*
X29873Y10169D01*
X30000Y10161D01*
X670000Y10161D01*
X670080Y10167D01*
G37*
%LPC*%
G36*
X338742Y63677D02*
X338742Y63677D01*
X336418Y64640D01*
X334640Y66418D01*
X333677Y68742D01*
X333677Y71258D01*
X334696Y73717D01*
X334794Y73881D01*
X334917Y74083D01*
X334923Y74096D01*
X334930Y74108D01*
X335018Y74329D01*
X335108Y74549D01*
X335111Y74563D01*
X335116Y74576D01*
X335169Y74809D01*
X335223Y75040D01*
X335224Y75053D01*
X335227Y75067D01*
X335242Y75306D01*
X335258Y75542D01*
X335257Y75556D01*
X335258Y75569D01*
X335235Y75808D01*
X335214Y76043D01*
X335211Y76057D01*
X335210Y76071D01*
X335149Y76303D01*
X335091Y76532D01*
X335086Y76544D01*
X335082Y76558D01*
X334986Y76777D01*
X334893Y76994D01*
X334885Y77006D01*
X334880Y77019D01*
X334750Y77220D01*
X334623Y77420D01*
X334614Y77430D01*
X334607Y77442D01*
X334446Y77621D01*
X334290Y77797D01*
X334280Y77806D01*
X334270Y77817D01*
X334085Y77967D01*
X333902Y78118D01*
X333890Y78125D01*
X333879Y78133D01*
X333673Y78252D01*
X333467Y78372D01*
X333454Y78377D01*
X333442Y78384D01*
X333220Y78469D01*
X332998Y78555D01*
X332984Y78558D01*
X332971Y78563D01*
X332738Y78611D01*
X332506Y78661D01*
X332492Y78662D01*
X332478Y78665D01*
X332084Y78689D01*
X316742Y78689D01*
X315341Y79269D01*
X116769Y277841D01*
X116189Y279242D01*
X116189Y283554D01*
X116186Y283595D01*
X116188Y283636D01*
X116166Y283845D01*
X116149Y284056D01*
X116140Y284096D01*
X116135Y284137D01*
X116080Y284340D01*
X116031Y284545D01*
X116015Y284583D01*
X116004Y284623D01*
X115917Y284816D01*
X115836Y285010D01*
X115814Y285044D01*
X115797Y285082D01*
X115681Y285259D01*
X115570Y285438D01*
X115543Y285469D01*
X115521Y285503D01*
X115260Y285799D01*
X114640Y286418D01*
X113677Y288742D01*
X113677Y290503D01*
X113675Y290530D01*
X113677Y290557D01*
X113655Y290781D01*
X113637Y291005D01*
X113631Y291031D01*
X113628Y291059D01*
X113571Y291277D01*
X113519Y291494D01*
X113508Y291519D01*
X113501Y291546D01*
X113410Y291752D01*
X113324Y291959D01*
X113309Y291982D01*
X113298Y292007D01*
X113176Y292196D01*
X113058Y292386D01*
X113040Y292407D01*
X113025Y292430D01*
X112875Y292597D01*
X112728Y292767D01*
X112707Y292784D01*
X112689Y292805D01*
X112514Y292946D01*
X112342Y293090D01*
X112319Y293104D01*
X112298Y293121D01*
X112103Y293233D01*
X111910Y293348D01*
X111885Y293359D01*
X111861Y293372D01*
X111651Y293452D01*
X111442Y293535D01*
X111416Y293541D01*
X111390Y293551D01*
X111170Y293596D01*
X110951Y293645D01*
X110924Y293647D01*
X110897Y293653D01*
X110503Y293677D01*
X108742Y293677D01*
X106418Y294640D01*
X104640Y296418D01*
X103677Y298742D01*
X103677Y301258D01*
X104640Y303582D01*
X106418Y305360D01*
X108742Y306323D01*
X111258Y306323D01*
X113582Y305360D01*
X114109Y304832D01*
X114140Y304806D01*
X114168Y304775D01*
X114332Y304643D01*
X114492Y304506D01*
X114527Y304484D01*
X114559Y304459D01*
X114742Y304354D01*
X114922Y304244D01*
X114961Y304228D01*
X114996Y304208D01*
X115193Y304133D01*
X115388Y304053D01*
X115428Y304044D01*
X115467Y304029D01*
X115673Y303987D01*
X115879Y303938D01*
X115920Y303936D01*
X115960Y303927D01*
X116354Y303903D01*
X131403Y303903D01*
X132545Y303430D01*
X132671Y303389D01*
X132794Y303338D01*
X132910Y303311D01*
X133024Y303275D01*
X133155Y303254D01*
X133284Y303224D01*
X133403Y303215D01*
X133521Y303197D01*
X133654Y303198D01*
X133787Y303188D01*
X133905Y303199D01*
X134025Y303199D01*
X134156Y303221D01*
X134288Y303232D01*
X134404Y303262D01*
X134522Y303281D01*
X134648Y303323D01*
X134777Y303355D01*
X134886Y303403D01*
X134999Y303440D01*
X135117Y303502D01*
X135239Y303554D01*
X135340Y303618D01*
X135446Y303673D01*
X135552Y303752D01*
X135665Y303823D01*
X135754Y303902D01*
X135850Y303974D01*
X135943Y304069D01*
X136042Y304157D01*
X136118Y304249D01*
X136201Y304334D01*
X136278Y304443D01*
X136362Y304545D01*
X136422Y304648D01*
X136491Y304746D01*
X136550Y304865D01*
X136617Y304980D01*
X136660Y305091D01*
X136712Y305198D01*
X136751Y305325D01*
X136799Y305449D01*
X136825Y305566D01*
X136859Y305680D01*
X136878Y305811D01*
X136906Y305941D01*
X136912Y306060D01*
X136928Y306178D01*
X136926Y306311D01*
X136933Y306444D01*
X136920Y306563D01*
X136918Y306682D01*
X136894Y306813D01*
X136880Y306945D01*
X136849Y307060D01*
X136827Y307177D01*
X136783Y307303D01*
X136748Y307431D01*
X136700Y307540D01*
X136660Y307652D01*
X136596Y307769D01*
X136542Y307890D01*
X136476Y307990D01*
X136419Y308095D01*
X136338Y308200D01*
X136265Y308311D01*
X136166Y308423D01*
X136112Y308493D01*
X136066Y308537D01*
X136004Y308607D01*
X81742Y362869D01*
X81731Y362878D01*
X81722Y362889D01*
X81539Y363042D01*
X81358Y363196D01*
X81347Y363203D01*
X81336Y363212D01*
X81133Y363333D01*
X80928Y363458D01*
X80916Y363463D01*
X80904Y363470D01*
X80685Y363558D01*
X80462Y363649D01*
X80449Y363652D01*
X80436Y363657D01*
X80204Y363709D01*
X79972Y363763D01*
X79958Y363764D01*
X79945Y363767D01*
X79706Y363782D01*
X79470Y363799D01*
X79456Y363798D01*
X79443Y363799D01*
X79205Y363776D01*
X78968Y363755D01*
X78955Y363751D01*
X78941Y363750D01*
X78711Y363690D01*
X78480Y363632D01*
X78467Y363626D01*
X78454Y363623D01*
X78236Y363527D01*
X78017Y363433D01*
X78006Y363426D01*
X77993Y363420D01*
X77791Y363290D01*
X77592Y363164D01*
X77582Y363155D01*
X77570Y363147D01*
X77392Y362988D01*
X77214Y362830D01*
X77206Y362820D01*
X77195Y362811D01*
X77045Y362625D01*
X76894Y362442D01*
X76887Y362430D01*
X76879Y362419D01*
X76760Y362213D01*
X76640Y362007D01*
X76635Y361995D01*
X76628Y361983D01*
X76544Y361761D01*
X76457Y361538D01*
X76454Y361525D01*
X76449Y361512D01*
X76401Y361278D01*
X76351Y361046D01*
X76350Y361032D01*
X76347Y361019D01*
X76323Y360625D01*
X76323Y358742D01*
X75360Y356418D01*
X73582Y354640D01*
X71258Y353677D01*
X68742Y353677D01*
X66418Y354640D01*
X64640Y356418D01*
X63677Y358742D01*
X63677Y361258D01*
X64640Y363582D01*
X66418Y365360D01*
X68742Y366323D01*
X71258Y366323D01*
X71800Y366098D01*
X71940Y366053D01*
X72076Y365999D01*
X72179Y365975D01*
X72279Y365943D01*
X72424Y365920D01*
X72567Y365888D01*
X72673Y365882D01*
X72777Y365865D01*
X72923Y365866D01*
X73069Y365857D01*
X73175Y365867D01*
X73280Y365867D01*
X73425Y365891D01*
X73571Y365905D01*
X73673Y365932D01*
X73777Y365949D01*
X73916Y365995D01*
X74058Y366033D01*
X74155Y366075D01*
X74255Y366108D01*
X74385Y366176D01*
X74519Y366235D01*
X74608Y366292D01*
X74701Y366341D01*
X74819Y366429D01*
X74942Y366508D01*
X75021Y366579D01*
X75105Y366642D01*
X75207Y366747D01*
X75317Y366845D01*
X75383Y366927D01*
X75457Y367002D01*
X75541Y367122D01*
X75633Y367236D01*
X75686Y367328D01*
X75747Y367414D01*
X75811Y367546D01*
X75884Y367673D01*
X75922Y367771D01*
X75968Y367866D01*
X76011Y368006D01*
X76063Y368143D01*
X76084Y368247D01*
X76115Y368348D01*
X76135Y368493D01*
X76165Y368636D01*
X76173Y368766D01*
X76184Y368847D01*
X76182Y368920D01*
X76189Y369031D01*
X76189Y540758D01*
X76769Y542159D01*
X85248Y550637D01*
X85274Y550668D01*
X85305Y550695D01*
X85437Y550859D01*
X85574Y551020D01*
X85596Y551055D01*
X85621Y551087D01*
X85726Y551269D01*
X85836Y551450D01*
X85852Y551488D01*
X85872Y551523D01*
X85947Y551720D01*
X86027Y551916D01*
X86036Y551956D01*
X86051Y551994D01*
X86093Y552201D01*
X86142Y552406D01*
X86144Y552447D01*
X86153Y552487D01*
X86177Y552881D01*
X86177Y553758D01*
X87140Y556082D01*
X88918Y557860D01*
X91242Y558823D01*
X93758Y558823D01*
X96082Y557860D01*
X97860Y556082D01*
X98823Y553758D01*
X98823Y551242D01*
X97860Y548918D01*
X96082Y547140D01*
X93758Y546177D01*
X92881Y546177D01*
X92840Y546174D01*
X92800Y546176D01*
X92590Y546154D01*
X92379Y546137D01*
X92339Y546128D01*
X92299Y546123D01*
X92095Y546068D01*
X91890Y546019D01*
X91852Y546003D01*
X91813Y545992D01*
X91620Y545905D01*
X91426Y545824D01*
X91391Y545802D01*
X91354Y545785D01*
X91177Y545669D01*
X90998Y545558D01*
X90967Y545531D01*
X90933Y545509D01*
X90637Y545248D01*
X84740Y539351D01*
X84714Y539320D01*
X84683Y539293D01*
X84551Y539129D01*
X84414Y538968D01*
X84392Y538933D01*
X84367Y538901D01*
X84262Y538719D01*
X84152Y538538D01*
X84136Y538500D01*
X84116Y538465D01*
X84041Y538268D01*
X83961Y538072D01*
X83952Y538032D01*
X83937Y537994D01*
X83895Y537787D01*
X83846Y537582D01*
X83844Y537541D01*
X83835Y537501D01*
X83811Y537107D01*
X83811Y419031D01*
X83822Y418885D01*
X83824Y418738D01*
X83842Y418634D01*
X83851Y418529D01*
X83885Y418386D01*
X83910Y418242D01*
X83945Y418142D01*
X83969Y418039D01*
X84026Y417904D01*
X84074Y417766D01*
X84123Y417672D01*
X84164Y417575D01*
X84242Y417450D01*
X84310Y417321D01*
X84374Y417237D01*
X84430Y417147D01*
X84526Y417036D01*
X84614Y416920D01*
X84691Y416847D01*
X84760Y416767D01*
X84872Y416673D01*
X84978Y416571D01*
X85065Y416511D01*
X85146Y416443D01*
X85271Y416368D01*
X85392Y416285D01*
X85487Y416239D01*
X85578Y416185D01*
X85714Y416131D01*
X85846Y416068D01*
X85948Y416038D01*
X86046Y415999D01*
X86188Y415966D01*
X86329Y415925D01*
X86434Y415911D01*
X86537Y415888D01*
X86683Y415879D01*
X86828Y415860D01*
X86934Y415863D01*
X87039Y415857D01*
X87185Y415871D01*
X87332Y415875D01*
X87435Y415895D01*
X87541Y415905D01*
X87683Y415942D01*
X87826Y415970D01*
X87949Y416012D01*
X88028Y416033D01*
X88095Y416062D01*
X88200Y416098D01*
X88742Y416323D01*
X91258Y416323D01*
X93582Y415360D01*
X94109Y414832D01*
X94140Y414806D01*
X94168Y414775D01*
X94332Y414643D01*
X94492Y414506D01*
X94527Y414484D01*
X94559Y414459D01*
X94742Y414354D01*
X94922Y414244D01*
X94961Y414228D01*
X94996Y414208D01*
X95193Y414133D01*
X95388Y414053D01*
X95428Y414044D01*
X95467Y414029D01*
X95673Y413987D01*
X95879Y413938D01*
X95920Y413936D01*
X95960Y413927D01*
X96354Y413903D01*
X116403Y413903D01*
X117803Y413323D01*
X119202Y411923D01*
X119314Y411828D01*
X119419Y411726D01*
X119505Y411665D01*
X119586Y411597D01*
X119711Y411521D01*
X119830Y411436D01*
X119925Y411390D01*
X120016Y411335D01*
X120151Y411279D01*
X120283Y411215D01*
X120384Y411184D01*
X120482Y411144D01*
X120624Y411111D01*
X120764Y411068D01*
X120869Y411054D01*
X120972Y411030D01*
X121118Y411019D01*
X121263Y410999D01*
X121369Y411001D01*
X121474Y410994D01*
X121620Y411007D01*
X121767Y411010D01*
X121870Y411029D01*
X121976Y411038D01*
X122118Y411074D01*
X122262Y411100D01*
X122361Y411135D01*
X122464Y411161D01*
X122599Y411219D01*
X122737Y411268D01*
X122830Y411318D01*
X122927Y411360D01*
X123050Y411438D01*
X123179Y411508D01*
X123263Y411573D01*
X123352Y411629D01*
X123462Y411726D01*
X123578Y411815D01*
X123650Y411892D01*
X123730Y411962D01*
X123823Y412075D01*
X123923Y412182D01*
X123983Y412269D01*
X124050Y412351D01*
X124124Y412477D01*
X124206Y412599D01*
X124263Y412715D01*
X124304Y412785D01*
X124331Y412854D01*
X124380Y412953D01*
X124640Y413582D01*
X126418Y415360D01*
X128742Y416323D01*
X131258Y416323D01*
X133582Y415360D01*
X134201Y414740D01*
X134232Y414714D01*
X134260Y414683D01*
X134424Y414551D01*
X134584Y414414D01*
X134619Y414392D01*
X134651Y414367D01*
X134834Y414262D01*
X135014Y414152D01*
X135053Y414136D01*
X135088Y414116D01*
X135285Y414041D01*
X135480Y413961D01*
X135520Y413952D01*
X135559Y413937D01*
X135765Y413895D01*
X135971Y413846D01*
X136012Y413844D01*
X136052Y413835D01*
X136446Y413811D01*
X275358Y413811D01*
X276759Y413231D01*
X289731Y400259D01*
X290311Y398858D01*
X290311Y398537D01*
X290314Y398496D01*
X290312Y398455D01*
X290334Y398245D01*
X290351Y398035D01*
X290360Y397995D01*
X290365Y397954D01*
X290420Y397751D01*
X290469Y397545D01*
X290485Y397508D01*
X290496Y397468D01*
X290583Y397275D01*
X290664Y397081D01*
X290686Y397046D01*
X290703Y397009D01*
X290819Y396832D01*
X290930Y396653D01*
X290957Y396622D01*
X290979Y396588D01*
X291240Y396292D01*
X294253Y393280D01*
X295645Y389919D01*
X295645Y386281D01*
X294253Y382920D01*
X291680Y380347D01*
X288319Y378955D01*
X284681Y378955D01*
X281320Y380347D01*
X280744Y380924D01*
X280733Y380933D01*
X280724Y380943D01*
X280541Y381097D01*
X280360Y381251D01*
X280349Y381258D01*
X280338Y381266D01*
X280134Y381389D01*
X279930Y381513D01*
X279918Y381518D01*
X279906Y381525D01*
X279685Y381613D01*
X279464Y381703D01*
X279451Y381706D01*
X279438Y381711D01*
X279206Y381764D01*
X278974Y381818D01*
X278960Y381819D01*
X278947Y381822D01*
X278709Y381837D01*
X278472Y381853D01*
X278458Y381852D01*
X278445Y381853D01*
X278207Y381830D01*
X277970Y381809D01*
X277957Y381806D01*
X277943Y381805D01*
X277712Y381744D01*
X277482Y381686D01*
X277469Y381681D01*
X277456Y381677D01*
X277237Y381581D01*
X277019Y381488D01*
X277008Y381480D01*
X276995Y381475D01*
X276794Y381345D01*
X276594Y381218D01*
X276584Y381209D01*
X276572Y381202D01*
X276394Y381042D01*
X276216Y380885D01*
X276208Y380875D01*
X276197Y380865D01*
X276047Y380679D01*
X275896Y380496D01*
X275889Y380485D01*
X275881Y380474D01*
X275763Y380269D01*
X275642Y380062D01*
X275637Y380049D01*
X275630Y380037D01*
X275546Y379816D01*
X275459Y379593D01*
X275456Y379579D01*
X275451Y379567D01*
X275403Y379333D01*
X275353Y379101D01*
X275352Y379087D01*
X275349Y379073D01*
X275325Y378679D01*
X275325Y373572D01*
X274745Y372171D01*
X265840Y363267D01*
X265814Y363236D01*
X265783Y363209D01*
X265651Y363044D01*
X265514Y362884D01*
X265492Y362849D01*
X265467Y362817D01*
X265362Y362635D01*
X265252Y362454D01*
X265236Y362416D01*
X265216Y362380D01*
X265141Y362184D01*
X265061Y361988D01*
X265052Y361948D01*
X265037Y361910D01*
X264995Y361703D01*
X264946Y361498D01*
X264944Y361457D01*
X264935Y361417D01*
X264911Y361022D01*
X264911Y322337D01*
X264914Y322296D01*
X264912Y322255D01*
X264934Y322045D01*
X264951Y321835D01*
X264960Y321795D01*
X264965Y321754D01*
X265020Y321551D01*
X265069Y321345D01*
X265085Y321308D01*
X265096Y321268D01*
X265183Y321075D01*
X265264Y320881D01*
X265286Y320846D01*
X265303Y320809D01*
X265419Y320632D01*
X265530Y320453D01*
X265557Y320422D01*
X265579Y320388D01*
X265840Y320092D01*
X268853Y317080D01*
X270245Y313719D01*
X270245Y310081D01*
X268853Y306720D01*
X266280Y304147D01*
X262919Y302755D01*
X259281Y302755D01*
X255920Y304147D01*
X253347Y306720D01*
X251955Y310081D01*
X251955Y313719D01*
X253347Y317080D01*
X256360Y320092D01*
X256386Y320123D01*
X256417Y320151D01*
X256549Y320315D01*
X256686Y320475D01*
X256708Y320510D01*
X256733Y320542D01*
X256838Y320725D01*
X256948Y320905D01*
X256964Y320943D01*
X256984Y320979D01*
X257059Y321175D01*
X257139Y321371D01*
X257148Y321411D01*
X257163Y321450D01*
X257205Y321656D01*
X257254Y321862D01*
X257256Y321903D01*
X257265Y321943D01*
X257289Y322337D01*
X257289Y364778D01*
X257290Y364779D01*
X257312Y364924D01*
X257344Y365067D01*
X257351Y365172D01*
X257367Y365277D01*
X257367Y365423D01*
X257376Y365569D01*
X257366Y365675D01*
X257365Y365780D01*
X257341Y365925D01*
X257327Y366071D01*
X257301Y366173D01*
X257283Y366277D01*
X257237Y366416D01*
X257200Y366558D01*
X257158Y366655D01*
X257124Y366755D01*
X257056Y366885D01*
X256997Y367019D01*
X256940Y367107D01*
X256891Y367201D01*
X256804Y367319D01*
X256724Y367442D01*
X256654Y367521D01*
X256591Y367605D01*
X256486Y367707D01*
X256388Y367817D01*
X256306Y367883D01*
X256230Y367957D01*
X256110Y368041D01*
X255997Y368133D01*
X255905Y368186D01*
X255819Y368247D01*
X255687Y368311D01*
X255560Y368384D01*
X255461Y368421D01*
X255366Y368468D01*
X255226Y368511D01*
X255089Y368563D01*
X254986Y368584D01*
X254885Y368615D01*
X254740Y368635D01*
X254596Y368665D01*
X254467Y368673D01*
X254386Y368684D01*
X254313Y368682D01*
X254202Y368689D01*
X220416Y368689D01*
X220402Y368688D01*
X220388Y368689D01*
X220152Y368668D01*
X219914Y368649D01*
X219900Y368646D01*
X219887Y368645D01*
X219657Y368587D01*
X219424Y368531D01*
X219412Y368525D01*
X219399Y368522D01*
X219180Y368428D01*
X218960Y368336D01*
X218949Y368329D01*
X218936Y368323D01*
X218735Y368196D01*
X218532Y368070D01*
X218522Y368061D01*
X218511Y368054D01*
X218332Y367897D01*
X218152Y367740D01*
X218143Y367730D01*
X218133Y367721D01*
X217982Y367537D01*
X217829Y367354D01*
X217822Y367342D01*
X217813Y367332D01*
X217693Y367127D01*
X217570Y366922D01*
X217565Y366909D01*
X217558Y366898D01*
X217472Y366675D01*
X217384Y366454D01*
X217381Y366441D01*
X217376Y366428D01*
X217325Y366194D01*
X217273Y365963D01*
X217272Y365949D01*
X217270Y365936D01*
X217257Y365699D01*
X217242Y365461D01*
X217243Y365447D01*
X217243Y365433D01*
X217267Y365198D01*
X217290Y364959D01*
X217294Y364946D01*
X217295Y364933D01*
X217357Y364703D01*
X217418Y364472D01*
X217423Y364460D01*
X217427Y364446D01*
X217524Y364230D01*
X217620Y364011D01*
X217628Y364000D01*
X217633Y363987D01*
X217763Y363791D01*
X217893Y363588D01*
X217903Y363578D01*
X217910Y363567D01*
X218171Y363270D01*
X220360Y361081D01*
X221323Y358758D01*
X221323Y356242D01*
X220360Y353918D01*
X218582Y352140D01*
X216258Y351177D01*
X213742Y351177D01*
X211418Y352140D01*
X209640Y353918D01*
X208677Y356242D01*
X208677Y358758D01*
X209640Y361081D01*
X211829Y363270D01*
X211838Y363281D01*
X211848Y363290D01*
X211999Y363470D01*
X212155Y363654D01*
X212163Y363665D01*
X212171Y363676D01*
X212294Y363880D01*
X212417Y364084D01*
X212423Y364096D01*
X212430Y364108D01*
X212518Y364328D01*
X212608Y364550D01*
X212611Y364563D01*
X212616Y364576D01*
X212668Y364807D01*
X212723Y365040D01*
X212724Y365054D01*
X212727Y365067D01*
X212741Y365304D01*
X212758Y365542D01*
X212757Y365556D01*
X212758Y365569D01*
X212735Y365807D01*
X212714Y366044D01*
X212711Y366057D01*
X212710Y366071D01*
X212649Y366301D01*
X212591Y366532D01*
X212586Y366545D01*
X212582Y366558D01*
X212487Y366776D01*
X212393Y366995D01*
X212385Y367006D01*
X212380Y367019D01*
X212250Y367220D01*
X212123Y367420D01*
X212114Y367430D01*
X212107Y367442D01*
X211946Y367621D01*
X211790Y367798D01*
X211779Y367806D01*
X211770Y367817D01*
X211586Y367966D01*
X211401Y368118D01*
X211389Y368125D01*
X211379Y368133D01*
X211174Y368251D01*
X210967Y368372D01*
X210954Y368377D01*
X210942Y368384D01*
X210720Y368468D01*
X210498Y368555D01*
X210484Y368558D01*
X210471Y368563D01*
X210237Y368611D01*
X210005Y368661D01*
X209992Y368662D01*
X209978Y368665D01*
X209584Y368689D01*
X136742Y368689D01*
X135341Y369269D01*
X111863Y392748D01*
X111832Y392774D01*
X111805Y392805D01*
X111641Y392937D01*
X111480Y393074D01*
X111445Y393096D01*
X111413Y393121D01*
X111231Y393226D01*
X111050Y393336D01*
X111012Y393352D01*
X110977Y393372D01*
X110780Y393447D01*
X110584Y393527D01*
X110544Y393536D01*
X110506Y393551D01*
X110299Y393593D01*
X110094Y393642D01*
X110053Y393644D01*
X110013Y393653D01*
X109619Y393677D01*
X108742Y393677D01*
X106418Y394640D01*
X104640Y396418D01*
X103677Y398742D01*
X103677Y401258D01*
X103940Y401892D01*
X103985Y402032D01*
X104040Y402168D01*
X104063Y402271D01*
X104095Y402371D01*
X104118Y402516D01*
X104150Y402659D01*
X104157Y402764D01*
X104173Y402869D01*
X104172Y403015D01*
X104181Y403161D01*
X104171Y403267D01*
X104171Y403372D01*
X104147Y403517D01*
X104133Y403663D01*
X104106Y403765D01*
X104089Y403869D01*
X104043Y404008D01*
X104006Y404150D01*
X103963Y404247D01*
X103930Y404347D01*
X103862Y404476D01*
X103803Y404611D01*
X103746Y404700D01*
X103697Y404793D01*
X103610Y404911D01*
X103530Y405034D01*
X103459Y405113D01*
X103396Y405197D01*
X103291Y405300D01*
X103194Y405409D01*
X103111Y405475D01*
X103036Y405549D01*
X102916Y405633D01*
X102802Y405725D01*
X102711Y405778D01*
X102624Y405839D01*
X102492Y405903D01*
X102365Y405976D01*
X102267Y406014D01*
X102172Y406060D01*
X102032Y406103D01*
X101895Y406155D01*
X101791Y406176D01*
X101690Y406207D01*
X101545Y406227D01*
X101402Y406257D01*
X101272Y406265D01*
X101191Y406276D01*
X101118Y406274D01*
X101008Y406281D01*
X96538Y406281D01*
X96497Y406278D01*
X96456Y406280D01*
X96247Y406258D01*
X96036Y406241D01*
X95996Y406232D01*
X95955Y406227D01*
X95752Y406172D01*
X95547Y406123D01*
X95509Y406107D01*
X95469Y406096D01*
X95276Y406009D01*
X95082Y405928D01*
X95048Y405906D01*
X95010Y405889D01*
X94833Y405773D01*
X94654Y405662D01*
X94623Y405635D01*
X94589Y405613D01*
X94293Y405352D01*
X93582Y404640D01*
X91258Y403677D01*
X88742Y403677D01*
X88200Y403902D01*
X88060Y403947D01*
X87924Y404001D01*
X87821Y404025D01*
X87721Y404057D01*
X87576Y404080D01*
X87433Y404112D01*
X87327Y404118D01*
X87223Y404135D01*
X87077Y404134D01*
X86931Y404143D01*
X86825Y404133D01*
X86720Y404133D01*
X86575Y404109D01*
X86429Y404095D01*
X86327Y404068D01*
X86223Y404051D01*
X86084Y404005D01*
X85942Y403967D01*
X85845Y403925D01*
X85745Y403892D01*
X85615Y403824D01*
X85481Y403765D01*
X85392Y403708D01*
X85299Y403659D01*
X85181Y403571D01*
X85058Y403492D01*
X84979Y403421D01*
X84895Y403358D01*
X84793Y403253D01*
X84683Y403155D01*
X84617Y403073D01*
X84543Y402998D01*
X84459Y402878D01*
X84367Y402764D01*
X84314Y402672D01*
X84253Y402586D01*
X84189Y402454D01*
X84116Y402327D01*
X84078Y402229D01*
X84032Y402134D01*
X83989Y401994D01*
X83937Y401857D01*
X83916Y401753D01*
X83885Y401652D01*
X83865Y401507D01*
X83835Y401364D01*
X83827Y401234D01*
X83816Y401153D01*
X83818Y401080D01*
X83811Y400969D01*
X83811Y372893D01*
X83814Y372852D01*
X83812Y372812D01*
X83834Y372602D01*
X83851Y372391D01*
X83860Y372351D01*
X83865Y372311D01*
X83920Y372107D01*
X83969Y371902D01*
X83985Y371864D01*
X83996Y371825D01*
X84083Y371632D01*
X84164Y371438D01*
X84186Y371403D01*
X84203Y371366D01*
X84319Y371189D01*
X84430Y371010D01*
X84457Y370979D01*
X84479Y370945D01*
X84740Y370649D01*
X148137Y307252D01*
X148168Y307226D01*
X148195Y307195D01*
X148359Y307063D01*
X148520Y306926D01*
X148555Y306904D01*
X148587Y306879D01*
X148769Y306774D01*
X148950Y306664D01*
X148988Y306648D01*
X149023Y306628D01*
X149220Y306553D01*
X149416Y306473D01*
X149456Y306464D01*
X149494Y306449D01*
X149701Y306407D01*
X149906Y306358D01*
X149947Y306356D01*
X149987Y306347D01*
X150381Y306323D01*
X151258Y306323D01*
X153582Y305360D01*
X155360Y303582D01*
X156323Y301258D01*
X156323Y298742D01*
X155360Y296418D01*
X153437Y294495D01*
X153361Y294448D01*
X153271Y294370D01*
X153175Y294300D01*
X153082Y294205D01*
X152981Y294118D01*
X152905Y294027D01*
X152821Y293942D01*
X152743Y293834D01*
X152658Y293732D01*
X152596Y293630D01*
X152527Y293533D01*
X152468Y293414D01*
X152399Y293300D01*
X152355Y293189D01*
X152302Y293083D01*
X152262Y292956D01*
X152213Y292832D01*
X152187Y292716D01*
X152151Y292603D01*
X152131Y292471D01*
X152102Y292341D01*
X152095Y292222D01*
X152078Y292104D01*
X152079Y291972D01*
X152071Y291839D01*
X152082Y291720D01*
X152084Y291601D01*
X152107Y291470D01*
X152119Y291337D01*
X152150Y291222D01*
X152170Y291105D01*
X152213Y290979D01*
X152247Y290850D01*
X152295Y290741D01*
X152333Y290629D01*
X152396Y290511D01*
X152449Y290389D01*
X152514Y290289D01*
X152570Y290184D01*
X152650Y290078D01*
X152722Y289966D01*
X152802Y289877D01*
X152874Y289783D01*
X152970Y289690D01*
X153059Y289591D01*
X153151Y289517D01*
X153237Y289434D01*
X153347Y289358D01*
X153450Y289275D01*
X153553Y289215D01*
X153651Y289148D01*
X153771Y289090D01*
X153887Y289024D01*
X153998Y288982D01*
X154105Y288930D01*
X154233Y288892D01*
X154358Y288845D01*
X154474Y288821D01*
X154588Y288787D01*
X154720Y288770D01*
X154851Y288743D01*
X155000Y288734D01*
X155088Y288723D01*
X155152Y288725D01*
X155245Y288719D01*
X164755Y288719D01*
X164888Y288729D01*
X165021Y288730D01*
X165139Y288749D01*
X165257Y288759D01*
X165386Y288790D01*
X165518Y288812D01*
X165631Y288849D01*
X165747Y288877D01*
X165869Y288929D01*
X165996Y288971D01*
X166101Y289026D01*
X166211Y289072D01*
X166324Y289142D01*
X166442Y289204D01*
X166538Y289275D01*
X166639Y289338D01*
X166739Y289425D01*
X166846Y289505D01*
X166929Y289590D01*
X167019Y289668D01*
X167105Y289770D01*
X167197Y289865D01*
X167266Y289962D01*
X167342Y290054D01*
X167411Y290168D01*
X167487Y290277D01*
X167540Y290384D01*
X167601Y290486D01*
X167650Y290609D01*
X167708Y290729D01*
X167743Y290843D01*
X167787Y290954D01*
X167816Y291083D01*
X167855Y291211D01*
X167872Y291329D01*
X167898Y291445D01*
X167906Y291578D01*
X167924Y291710D01*
X167922Y291828D01*
X167929Y291947D01*
X167916Y292080D01*
X167913Y292213D01*
X167892Y292330D01*
X167881Y292449D01*
X167847Y292578D01*
X167823Y292708D01*
X167783Y292820D01*
X167753Y292936D01*
X167700Y293058D01*
X167655Y293183D01*
X167599Y293288D01*
X167551Y293397D01*
X167478Y293509D01*
X167415Y293626D01*
X167342Y293720D01*
X167278Y293820D01*
X167189Y293919D01*
X167108Y294024D01*
X167021Y294106D01*
X166941Y294195D01*
X166838Y294278D01*
X166741Y294370D01*
X166642Y294436D01*
X166550Y294511D01*
X166543Y294515D01*
X164640Y296418D01*
X163677Y298742D01*
X163677Y301258D01*
X164640Y303582D01*
X166418Y305360D01*
X168742Y306323D01*
X171258Y306323D01*
X173582Y305360D01*
X175360Y303582D01*
X176323Y301258D01*
X176323Y300381D01*
X176326Y300340D01*
X176324Y300300D01*
X176346Y300090D01*
X176363Y299879D01*
X176372Y299839D01*
X176377Y299799D01*
X176432Y299595D01*
X176481Y299390D01*
X176497Y299352D01*
X176508Y299313D01*
X176595Y299120D01*
X176676Y298926D01*
X176698Y298891D01*
X176715Y298854D01*
X176831Y298677D01*
X176942Y298498D01*
X176969Y298467D01*
X176991Y298433D01*
X177252Y298137D01*
X180661Y294728D01*
X180692Y294702D01*
X180719Y294671D01*
X180883Y294539D01*
X181044Y294402D01*
X181079Y294380D01*
X181111Y294355D01*
X181293Y294250D01*
X181474Y294140D01*
X181512Y294124D01*
X181547Y294104D01*
X181744Y294029D01*
X181940Y293949D01*
X181980Y293940D01*
X182018Y293925D01*
X182225Y293883D01*
X182430Y293834D01*
X182471Y293832D01*
X182511Y293823D01*
X182905Y293799D01*
X314595Y293799D01*
X314636Y293802D01*
X314676Y293800D01*
X314886Y293822D01*
X315097Y293839D01*
X315137Y293848D01*
X315177Y293853D01*
X315381Y293908D01*
X315586Y293957D01*
X315624Y293973D01*
X315663Y293984D01*
X315856Y294071D01*
X316050Y294152D01*
X316085Y294174D01*
X316122Y294191D01*
X316299Y294307D01*
X316478Y294418D01*
X316509Y294445D01*
X316543Y294467D01*
X316839Y294728D01*
X320260Y298149D01*
X320286Y298180D01*
X320317Y298207D01*
X320449Y298371D01*
X320586Y298532D01*
X320608Y298567D01*
X320633Y298599D01*
X320738Y298781D01*
X320848Y298962D01*
X320864Y299000D01*
X320884Y299035D01*
X320959Y299232D01*
X321039Y299428D01*
X321048Y299468D01*
X321063Y299506D01*
X321105Y299713D01*
X321154Y299918D01*
X321156Y299959D01*
X321165Y299999D01*
X321189Y300393D01*
X321189Y301099D01*
X321178Y301245D01*
X321176Y301391D01*
X321158Y301496D01*
X321149Y301601D01*
X321115Y301743D01*
X321090Y301888D01*
X321055Y301987D01*
X321031Y302090D01*
X320974Y302225D01*
X320926Y302364D01*
X320877Y302457D01*
X320836Y302555D01*
X320758Y302679D01*
X320690Y302808D01*
X320626Y302892D01*
X320570Y302982D01*
X320474Y303093D01*
X320386Y303210D01*
X320310Y303283D01*
X320240Y303363D01*
X320128Y303457D01*
X320022Y303558D01*
X319935Y303618D01*
X319854Y303686D01*
X319728Y303761D01*
X319608Y303845D01*
X319513Y303890D01*
X319422Y303944D01*
X319286Y303999D01*
X319154Y304062D01*
X319053Y304092D01*
X318954Y304131D01*
X318811Y304163D01*
X318671Y304205D01*
X318566Y304218D01*
X318463Y304241D01*
X318317Y304251D01*
X318172Y304269D01*
X318066Y304266D01*
X317961Y304273D01*
X317815Y304259D01*
X317668Y304254D01*
X317565Y304234D01*
X317459Y304224D01*
X317317Y304187D01*
X317174Y304160D01*
X317051Y304118D01*
X316972Y304097D01*
X316905Y304068D01*
X316800Y304032D01*
X313719Y302755D01*
X310081Y302755D01*
X306720Y304147D01*
X304147Y306720D01*
X302755Y310081D01*
X302755Y313719D01*
X304147Y317080D01*
X306720Y319653D01*
X310081Y321045D01*
X313719Y321045D01*
X316800Y319768D01*
X316940Y319723D01*
X317076Y319669D01*
X317179Y319646D01*
X317279Y319613D01*
X317424Y319591D01*
X317567Y319559D01*
X317672Y319552D01*
X317777Y319536D01*
X317923Y319536D01*
X318069Y319527D01*
X318175Y319537D01*
X318280Y319538D01*
X318425Y319562D01*
X318571Y319576D01*
X318673Y319603D01*
X318777Y319620D01*
X318916Y319666D01*
X319058Y319703D01*
X319155Y319746D01*
X319255Y319779D01*
X319385Y319847D01*
X319519Y319906D01*
X319608Y319963D01*
X319701Y320012D01*
X319819Y320099D01*
X319942Y320179D01*
X320021Y320249D01*
X320105Y320312D01*
X320207Y320417D01*
X320317Y320515D01*
X320383Y320597D01*
X320457Y320673D01*
X320541Y320793D01*
X320633Y320906D01*
X320686Y320998D01*
X320747Y321084D01*
X320811Y321216D01*
X320884Y321343D01*
X320922Y321442D01*
X320968Y321537D01*
X321011Y321677D01*
X321063Y321814D01*
X321084Y321917D01*
X321115Y322018D01*
X321135Y322163D01*
X321165Y322307D01*
X321173Y322437D01*
X321184Y322517D01*
X321182Y322590D01*
X321189Y322701D01*
X321189Y377299D01*
X321178Y377445D01*
X321176Y377591D01*
X321158Y377696D01*
X321149Y377801D01*
X321115Y377943D01*
X321090Y378088D01*
X321055Y378187D01*
X321031Y378290D01*
X320974Y378425D01*
X320926Y378564D01*
X320877Y378657D01*
X320836Y378755D01*
X320758Y378879D01*
X320690Y379008D01*
X320626Y379092D01*
X320570Y379182D01*
X320474Y379293D01*
X320386Y379410D01*
X320310Y379483D01*
X320240Y379563D01*
X320128Y379657D01*
X320022Y379758D01*
X319935Y379818D01*
X319854Y379886D01*
X319728Y379961D01*
X319608Y380045D01*
X319513Y380090D01*
X319422Y380144D01*
X319286Y380199D01*
X319154Y380262D01*
X319053Y380292D01*
X318954Y380331D01*
X318811Y380363D01*
X318671Y380405D01*
X318566Y380418D01*
X318463Y380441D01*
X318317Y380451D01*
X318172Y380469D01*
X318066Y380466D01*
X317961Y380473D01*
X317815Y380459D01*
X317668Y380454D01*
X317565Y380434D01*
X317459Y380424D01*
X317317Y380387D01*
X317174Y380360D01*
X317051Y380318D01*
X316972Y380297D01*
X316905Y380268D01*
X316800Y380232D01*
X313719Y378955D01*
X310081Y378955D01*
X306720Y380347D01*
X304147Y382920D01*
X302755Y386281D01*
X302755Y389919D01*
X304147Y393280D01*
X306720Y395853D01*
X310081Y397245D01*
X313719Y397245D01*
X316800Y395968D01*
X316940Y395923D01*
X317076Y395869D01*
X317179Y395846D01*
X317279Y395813D01*
X317424Y395791D01*
X317567Y395759D01*
X317672Y395752D01*
X317777Y395736D01*
X317923Y395736D01*
X318069Y395727D01*
X318175Y395737D01*
X318280Y395738D01*
X318425Y395762D01*
X318571Y395776D01*
X318673Y395803D01*
X318777Y395820D01*
X318916Y395866D01*
X319058Y395903D01*
X319155Y395946D01*
X319255Y395979D01*
X319385Y396047D01*
X319519Y396106D01*
X319608Y396163D01*
X319701Y396212D01*
X319819Y396299D01*
X319942Y396379D01*
X320021Y396449D01*
X320105Y396512D01*
X320207Y396617D01*
X320317Y396715D01*
X320383Y396797D01*
X320457Y396873D01*
X320541Y396993D01*
X320633Y397106D01*
X320686Y397198D01*
X320747Y397284D01*
X320811Y397416D01*
X320884Y397543D01*
X320922Y397642D01*
X320968Y397737D01*
X321011Y397877D01*
X321063Y398014D01*
X321084Y398117D01*
X321115Y398218D01*
X321135Y398363D01*
X321165Y398507D01*
X321173Y398637D01*
X321184Y398717D01*
X321182Y398790D01*
X321189Y398901D01*
X321189Y403258D01*
X321769Y404659D01*
X335421Y418311D01*
X336822Y418891D01*
X354504Y418891D01*
X354518Y418892D01*
X354532Y418891D01*
X354768Y418912D01*
X355006Y418931D01*
X355020Y418934D01*
X355033Y418935D01*
X355263Y418993D01*
X355496Y419049D01*
X355508Y419055D01*
X355521Y419058D01*
X355740Y419152D01*
X355960Y419244D01*
X355971Y419251D01*
X355984Y419257D01*
X356185Y419384D01*
X356388Y419510D01*
X356398Y419519D01*
X356409Y419526D01*
X356588Y419683D01*
X356768Y419840D01*
X356777Y419850D01*
X356787Y419859D01*
X356938Y420043D01*
X357091Y420226D01*
X357098Y420238D01*
X357107Y420248D01*
X357227Y420453D01*
X357350Y420658D01*
X357355Y420671D01*
X357362Y420682D01*
X357448Y420904D01*
X357536Y421126D01*
X357539Y421139D01*
X357544Y421152D01*
X357594Y421384D01*
X357647Y421617D01*
X357648Y421631D01*
X357650Y421644D01*
X357663Y421880D01*
X357678Y422119D01*
X357677Y422133D01*
X357677Y422147D01*
X357653Y422382D01*
X357630Y422621D01*
X357626Y422634D01*
X357625Y422647D01*
X357563Y422877D01*
X357502Y423108D01*
X357497Y423120D01*
X357493Y423134D01*
X357396Y423350D01*
X357300Y423569D01*
X357292Y423580D01*
X357287Y423593D01*
X357159Y423787D01*
X357027Y423992D01*
X357017Y424002D01*
X357010Y424013D01*
X356749Y424310D01*
X354640Y426419D01*
X353677Y428742D01*
X353677Y431258D01*
X354640Y433582D01*
X356418Y435360D01*
X358742Y436323D01*
X361258Y436323D01*
X363582Y435360D01*
X365360Y433582D01*
X366323Y431258D01*
X366323Y428742D01*
X365360Y426419D01*
X363251Y424310D01*
X363242Y424299D01*
X363232Y424290D01*
X363079Y424108D01*
X362925Y423926D01*
X362917Y423915D01*
X362909Y423904D01*
X362786Y423700D01*
X362663Y423496D01*
X362657Y423484D01*
X362650Y423472D01*
X362562Y423252D01*
X362472Y423030D01*
X362469Y423017D01*
X362464Y423004D01*
X362412Y422773D01*
X362357Y422540D01*
X362356Y422526D01*
X362353Y422513D01*
X362338Y422275D01*
X362322Y422038D01*
X362323Y422024D01*
X362322Y422011D01*
X362345Y421773D01*
X362366Y421536D01*
X362369Y421523D01*
X362370Y421509D01*
X362431Y421279D01*
X362489Y421048D01*
X362494Y421035D01*
X362498Y421022D01*
X362593Y420804D01*
X362687Y420585D01*
X362695Y420574D01*
X362700Y420561D01*
X362830Y420360D01*
X362957Y420160D01*
X362966Y420150D01*
X362973Y420138D01*
X363133Y419960D01*
X363290Y419782D01*
X363301Y419774D01*
X363310Y419763D01*
X363494Y419614D01*
X363679Y419462D01*
X363691Y419455D01*
X363701Y419447D01*
X363906Y419329D01*
X364113Y419208D01*
X364126Y419203D01*
X364138Y419196D01*
X364360Y419112D01*
X364582Y419025D01*
X364596Y419022D01*
X364609Y419017D01*
X364843Y418969D01*
X365075Y418919D01*
X365088Y418918D01*
X365102Y418915D01*
X365496Y418891D01*
X443975Y418891D01*
X444016Y418894D01*
X444057Y418892D01*
X444266Y418914D01*
X444477Y418931D01*
X444517Y418940D01*
X444557Y418945D01*
X444761Y419000D01*
X444966Y419049D01*
X445004Y419065D01*
X445043Y419076D01*
X445236Y419163D01*
X445430Y419244D01*
X445465Y419266D01*
X445503Y419283D01*
X445679Y419399D01*
X445858Y419510D01*
X445889Y419537D01*
X445923Y419559D01*
X446219Y419820D01*
X547760Y521361D01*
X547786Y521392D01*
X547817Y521419D01*
X547949Y521583D01*
X548086Y521744D01*
X548108Y521779D01*
X548133Y521811D01*
X548238Y521993D01*
X548348Y522174D01*
X548364Y522212D01*
X548384Y522247D01*
X548459Y522444D01*
X548539Y522640D01*
X548548Y522680D01*
X548563Y522718D01*
X548605Y522925D01*
X548654Y523130D01*
X548656Y523171D01*
X548665Y523211D01*
X548689Y523605D01*
X548689Y601054D01*
X548686Y601095D01*
X548688Y601136D01*
X548666Y601345D01*
X548649Y601556D01*
X548640Y601596D01*
X548635Y601637D01*
X548580Y601840D01*
X548531Y602045D01*
X548515Y602083D01*
X548504Y602123D01*
X548417Y602316D01*
X548336Y602510D01*
X548314Y602544D01*
X548297Y602582D01*
X548181Y602759D01*
X548070Y602938D01*
X548043Y602969D01*
X548021Y603003D01*
X547760Y603299D01*
X547140Y603918D01*
X546177Y606242D01*
X546177Y608758D01*
X547140Y611082D01*
X548918Y612860D01*
X551242Y613823D01*
X553758Y613823D01*
X556082Y612860D01*
X557860Y611082D01*
X558823Y608758D01*
X558823Y606242D01*
X557860Y603918D01*
X557240Y603299D01*
X557214Y603268D01*
X557183Y603240D01*
X557051Y603076D01*
X556914Y602916D01*
X556892Y602881D01*
X556867Y602849D01*
X556762Y602666D01*
X556652Y602486D01*
X556636Y602447D01*
X556616Y602412D01*
X556541Y602215D01*
X556461Y602020D01*
X556452Y601980D01*
X556437Y601941D01*
X556395Y601735D01*
X556346Y601529D01*
X556344Y601488D01*
X556335Y601448D01*
X556311Y601054D01*
X556311Y572916D01*
X556312Y572902D01*
X556311Y572888D01*
X556332Y572651D01*
X556351Y572414D01*
X556354Y572400D01*
X556355Y572387D01*
X556414Y572154D01*
X556469Y571924D01*
X556475Y571912D01*
X556478Y571898D01*
X556573Y571677D01*
X556664Y571460D01*
X556671Y571448D01*
X556677Y571436D01*
X556804Y571235D01*
X556930Y571032D01*
X556939Y571022D01*
X556946Y571010D01*
X557104Y570832D01*
X557260Y570652D01*
X557270Y570643D01*
X557280Y570633D01*
X557464Y570481D01*
X557646Y570329D01*
X557658Y570322D01*
X557668Y570313D01*
X557875Y570192D01*
X558078Y570070D01*
X558091Y570065D01*
X558103Y570058D01*
X558325Y569972D01*
X558546Y569884D01*
X558559Y569881D01*
X558572Y569876D01*
X558805Y569825D01*
X559037Y569773D01*
X559051Y569772D01*
X559064Y569769D01*
X559302Y569757D01*
X559539Y569742D01*
X559553Y569743D01*
X559567Y569743D01*
X559803Y569767D01*
X560041Y569790D01*
X560054Y569794D01*
X560068Y569795D01*
X560296Y569857D01*
X560528Y569918D01*
X560541Y569923D01*
X560554Y569927D01*
X560770Y570024D01*
X560989Y570120D01*
X561000Y570128D01*
X561013Y570133D01*
X561211Y570264D01*
X561257Y570293D01*
X563742Y571323D01*
X566258Y571323D01*
X568582Y570360D01*
X570360Y568582D01*
X571323Y566258D01*
X571323Y563742D01*
X570360Y561418D01*
X568582Y559640D01*
X566258Y558677D01*
X563742Y558677D01*
X561283Y559696D01*
X561119Y559794D01*
X560917Y559917D01*
X560904Y559923D01*
X560892Y559930D01*
X560671Y560018D01*
X560451Y560108D01*
X560437Y560111D01*
X560424Y560116D01*
X560191Y560169D01*
X559960Y560223D01*
X559947Y560224D01*
X559933Y560227D01*
X559694Y560242D01*
X559458Y560258D01*
X559444Y560257D01*
X559431Y560258D01*
X559192Y560235D01*
X558957Y560214D01*
X558943Y560211D01*
X558929Y560210D01*
X558697Y560149D01*
X558468Y560091D01*
X558456Y560086D01*
X558442Y560082D01*
X558222Y559986D01*
X558006Y559893D01*
X557994Y559885D01*
X557981Y559880D01*
X557780Y559750D01*
X557580Y559623D01*
X557570Y559614D01*
X557558Y559607D01*
X557379Y559446D01*
X557203Y559290D01*
X557194Y559280D01*
X557183Y559270D01*
X557033Y559085D01*
X556882Y558902D01*
X556875Y558890D01*
X556867Y558879D01*
X556748Y558673D01*
X556628Y558467D01*
X556623Y558454D01*
X556616Y558442D01*
X556531Y558220D01*
X556445Y557998D01*
X556442Y557984D01*
X556437Y557971D01*
X556389Y557738D01*
X556339Y557506D01*
X556338Y557492D01*
X556335Y557478D01*
X556311Y557084D01*
X556311Y530391D01*
X556312Y530377D01*
X556311Y530364D01*
X556332Y530128D01*
X556351Y529889D01*
X556354Y529876D01*
X556355Y529862D01*
X556413Y529632D01*
X556469Y529400D01*
X556475Y529387D01*
X556478Y529374D01*
X556572Y529155D01*
X556664Y528935D01*
X556671Y528924D01*
X556677Y528911D01*
X556804Y528710D01*
X556930Y528507D01*
X556939Y528497D01*
X556946Y528486D01*
X557103Y528307D01*
X557260Y528127D01*
X557270Y528118D01*
X557279Y528108D01*
X557463Y527957D01*
X557646Y527804D01*
X557658Y527797D01*
X557668Y527788D01*
X557873Y527668D01*
X558078Y527545D01*
X558091Y527540D01*
X558102Y527533D01*
X558325Y527447D01*
X558546Y527359D01*
X558559Y527356D01*
X558572Y527351D01*
X558805Y527301D01*
X559037Y527248D01*
X559051Y527248D01*
X559064Y527245D01*
X559301Y527232D01*
X559539Y527217D01*
X559553Y527218D01*
X559567Y527218D01*
X559801Y527242D01*
X560041Y527266D01*
X560054Y527269D01*
X560067Y527270D01*
X560296Y527332D01*
X560528Y527393D01*
X560540Y527398D01*
X560554Y527402D01*
X560771Y527500D01*
X560989Y527595D01*
X561000Y527603D01*
X561013Y527608D01*
X561212Y527739D01*
X561412Y527868D01*
X561422Y527878D01*
X561433Y527885D01*
X561730Y528146D01*
X574664Y541081D01*
X576064Y541661D01*
X601404Y541661D01*
X601445Y541664D01*
X601486Y541662D01*
X601696Y541684D01*
X601906Y541701D01*
X601946Y541710D01*
X601987Y541715D01*
X602190Y541770D01*
X602395Y541819D01*
X602433Y541835D01*
X602473Y541846D01*
X602665Y541933D01*
X602860Y542014D01*
X602895Y542036D01*
X602932Y542053D01*
X603108Y542168D01*
X603288Y542280D01*
X603319Y542307D01*
X603353Y542329D01*
X603649Y542590D01*
X603919Y542860D01*
X606242Y543823D01*
X608758Y543823D01*
X611082Y542860D01*
X612860Y541082D01*
X613823Y538758D01*
X613823Y536242D01*
X612860Y533918D01*
X611082Y532140D01*
X608758Y531177D01*
X606242Y531177D01*
X603918Y532140D01*
X602949Y533110D01*
X602918Y533136D01*
X602890Y533167D01*
X602726Y533299D01*
X602566Y533436D01*
X602531Y533458D01*
X602499Y533483D01*
X602316Y533588D01*
X602136Y533698D01*
X602098Y533714D01*
X602062Y533734D01*
X601865Y533809D01*
X601670Y533889D01*
X601630Y533898D01*
X601591Y533913D01*
X601385Y533956D01*
X601179Y534004D01*
X601138Y534006D01*
X601098Y534015D01*
X600704Y534039D01*
X579716Y534039D01*
X579675Y534036D01*
X579634Y534038D01*
X579425Y534016D01*
X579214Y533999D01*
X579174Y533990D01*
X579133Y533985D01*
X578930Y533930D01*
X578724Y533881D01*
X578687Y533865D01*
X578647Y533854D01*
X578454Y533767D01*
X578260Y533686D01*
X578225Y533664D01*
X578188Y533647D01*
X578011Y533531D01*
X577832Y533420D01*
X577801Y533393D01*
X577767Y533371D01*
X577471Y533110D01*
X451131Y406769D01*
X449730Y406189D01*
X360393Y406189D01*
X360352Y406186D01*
X360312Y406188D01*
X360102Y406166D01*
X359891Y406149D01*
X359851Y406140D01*
X359811Y406135D01*
X359607Y406080D01*
X359402Y406031D01*
X359364Y406015D01*
X359325Y406004D01*
X359132Y405917D01*
X358938Y405836D01*
X358903Y405814D01*
X358866Y405797D01*
X358689Y405681D01*
X358510Y405570D01*
X358479Y405543D01*
X358445Y405521D01*
X358149Y405260D01*
X354740Y401851D01*
X354714Y401820D01*
X354683Y401793D01*
X354551Y401629D01*
X354414Y401468D01*
X354392Y401433D01*
X354367Y401401D01*
X354262Y401219D01*
X354152Y401038D01*
X354136Y401000D01*
X354116Y400965D01*
X354041Y400768D01*
X353961Y400572D01*
X353952Y400532D01*
X353937Y400494D01*
X353895Y400287D01*
X353846Y400082D01*
X353844Y400041D01*
X353835Y400001D01*
X353811Y399607D01*
X353811Y399067D01*
X353822Y398921D01*
X353824Y398774D01*
X353842Y398670D01*
X353851Y398565D01*
X353885Y398422D01*
X353910Y398278D01*
X353945Y398178D01*
X353969Y398075D01*
X354026Y397940D01*
X354074Y397802D01*
X354123Y397709D01*
X354164Y397611D01*
X354242Y397486D01*
X354310Y397357D01*
X354374Y397273D01*
X354430Y397183D01*
X354526Y397073D01*
X354614Y396956D01*
X354690Y396883D01*
X354760Y396803D01*
X354872Y396709D01*
X354978Y396608D01*
X355065Y396548D01*
X355146Y396480D01*
X355272Y396404D01*
X355392Y396321D01*
X355487Y396276D01*
X355578Y396221D01*
X355714Y396167D01*
X355846Y396104D01*
X355947Y396074D01*
X356046Y396035D01*
X356189Y396003D01*
X356329Y395961D01*
X356434Y395947D01*
X356537Y395924D01*
X356683Y395915D01*
X356828Y395896D01*
X356934Y395900D01*
X357039Y395893D01*
X357185Y395907D01*
X357332Y395911D01*
X357435Y395931D01*
X357541Y395941D01*
X357683Y395979D01*
X357826Y396006D01*
X357949Y396048D01*
X358028Y396069D01*
X358095Y396098D01*
X358200Y396134D01*
X360881Y397245D01*
X364519Y397245D01*
X367880Y395853D01*
X370453Y393280D01*
X371845Y389919D01*
X371845Y386281D01*
X370453Y382920D01*
X367880Y380347D01*
X364519Y378955D01*
X360881Y378955D01*
X358200Y380066D01*
X358060Y380111D01*
X357924Y380165D01*
X357821Y380188D01*
X357721Y380221D01*
X357576Y380244D01*
X357433Y380276D01*
X357328Y380282D01*
X357223Y380299D01*
X357077Y380298D01*
X356931Y380307D01*
X356825Y380297D01*
X356720Y380296D01*
X356575Y380273D01*
X356429Y380259D01*
X356327Y380232D01*
X356223Y380215D01*
X356084Y380168D01*
X355942Y380131D01*
X355845Y380089D01*
X355745Y380055D01*
X355615Y379988D01*
X355481Y379929D01*
X355392Y379871D01*
X355299Y379823D01*
X355181Y379735D01*
X355058Y379656D01*
X354979Y379585D01*
X354895Y379522D01*
X354793Y379417D01*
X354683Y379319D01*
X354617Y379237D01*
X354543Y379161D01*
X354459Y379042D01*
X354367Y378928D01*
X354314Y378836D01*
X354253Y378750D01*
X354189Y378618D01*
X354116Y378491D01*
X354078Y378393D01*
X354032Y378298D01*
X353989Y378157D01*
X353937Y378020D01*
X353916Y377917D01*
X353885Y377816D01*
X353865Y377671D01*
X353835Y377527D01*
X353827Y377398D01*
X353816Y377317D01*
X353818Y377244D01*
X353811Y377133D01*
X353811Y322867D01*
X353822Y322721D01*
X353824Y322574D01*
X353842Y322470D01*
X353851Y322365D01*
X353885Y322222D01*
X353910Y322078D01*
X353945Y321978D01*
X353969Y321875D01*
X354026Y321740D01*
X354074Y321602D01*
X354123Y321509D01*
X354164Y321411D01*
X354242Y321286D01*
X354310Y321157D01*
X354374Y321073D01*
X354430Y320983D01*
X354526Y320873D01*
X354614Y320756D01*
X354690Y320683D01*
X354760Y320603D01*
X354872Y320509D01*
X354978Y320408D01*
X355065Y320348D01*
X355146Y320280D01*
X355272Y320204D01*
X355392Y320121D01*
X355487Y320076D01*
X355578Y320021D01*
X355714Y319967D01*
X355846Y319904D01*
X355947Y319874D01*
X356046Y319835D01*
X356189Y319803D01*
X356329Y319761D01*
X356434Y319747D01*
X356537Y319724D01*
X356683Y319715D01*
X356828Y319696D01*
X356934Y319700D01*
X357039Y319693D01*
X357185Y319707D01*
X357332Y319711D01*
X357435Y319731D01*
X357541Y319741D01*
X357683Y319779D01*
X357826Y319806D01*
X357949Y319848D01*
X358028Y319869D01*
X358095Y319898D01*
X358200Y319934D01*
X360881Y321045D01*
X364519Y321045D01*
X367880Y319653D01*
X370453Y317080D01*
X371845Y313719D01*
X371845Y310081D01*
X370453Y306720D01*
X367880Y304147D01*
X364519Y302755D01*
X360881Y302755D01*
X358200Y303866D01*
X358060Y303911D01*
X357924Y303965D01*
X357821Y303988D01*
X357721Y304021D01*
X357576Y304044D01*
X357433Y304076D01*
X357328Y304082D01*
X357223Y304099D01*
X357077Y304098D01*
X356931Y304107D01*
X356825Y304097D01*
X356720Y304096D01*
X356575Y304073D01*
X356429Y304059D01*
X356327Y304032D01*
X356223Y304015D01*
X356084Y303968D01*
X355942Y303931D01*
X355845Y303889D01*
X355745Y303855D01*
X355615Y303788D01*
X355481Y303729D01*
X355392Y303671D01*
X355299Y303623D01*
X355181Y303535D01*
X355058Y303456D01*
X354979Y303385D01*
X354895Y303322D01*
X354793Y303217D01*
X354683Y303119D01*
X354617Y303037D01*
X354543Y302961D01*
X354459Y302842D01*
X354367Y302728D01*
X354314Y302636D01*
X354253Y302550D01*
X354189Y302418D01*
X354116Y302291D01*
X354078Y302193D01*
X354032Y302098D01*
X353989Y301957D01*
X353937Y301820D01*
X353916Y301717D01*
X353885Y301616D01*
X353865Y301471D01*
X353835Y301327D01*
X353827Y301198D01*
X353816Y301117D01*
X353818Y301044D01*
X353811Y300933D01*
X353811Y291742D01*
X353231Y290341D01*
X344567Y281677D01*
X343528Y281247D01*
X343516Y281241D01*
X343503Y281237D01*
X343291Y281126D01*
X343080Y281018D01*
X343069Y281010D01*
X343057Y281004D01*
X342865Y280861D01*
X342673Y280721D01*
X342664Y280712D01*
X342653Y280703D01*
X342485Y280532D01*
X342319Y280364D01*
X342311Y280353D01*
X342301Y280343D01*
X342163Y280147D01*
X342025Y279955D01*
X342019Y279942D01*
X342011Y279931D01*
X341906Y279716D01*
X341800Y279504D01*
X341796Y279491D01*
X341790Y279479D01*
X341720Y279249D01*
X341649Y279024D01*
X341647Y279010D01*
X341643Y278997D01*
X341610Y278760D01*
X341576Y278526D01*
X341576Y278512D01*
X341574Y278498D01*
X341579Y278258D01*
X341582Y278022D01*
X341585Y278009D01*
X341585Y277995D01*
X341628Y277760D01*
X341668Y277526D01*
X341673Y277513D01*
X341675Y277500D01*
X341755Y277275D01*
X341832Y277050D01*
X341838Y277038D01*
X341843Y277025D01*
X341957Y276815D01*
X342068Y276605D01*
X342077Y276595D01*
X342083Y276582D01*
X342229Y276393D01*
X342372Y276204D01*
X342382Y276195D01*
X342391Y276184D01*
X342566Y276019D01*
X342736Y275856D01*
X342747Y275848D01*
X342757Y275838D01*
X342955Y275704D01*
X343150Y275569D01*
X343162Y275563D01*
X343174Y275556D01*
X343529Y275382D01*
X343582Y275360D01*
X345360Y273582D01*
X346323Y271258D01*
X346323Y268742D01*
X345360Y266418D01*
X343582Y264640D01*
X341258Y263677D01*
X338742Y263677D01*
X336418Y264640D01*
X334640Y266418D01*
X333677Y268742D01*
X333677Y271258D01*
X334640Y273581D01*
X336737Y275678D01*
X336746Y275689D01*
X336756Y275698D01*
X336909Y275880D01*
X337063Y276062D01*
X337071Y276073D01*
X337079Y276084D01*
X337202Y276288D01*
X337325Y276492D01*
X337331Y276504D01*
X337338Y276516D01*
X337426Y276736D01*
X337516Y276958D01*
X337519Y276971D01*
X337524Y276984D01*
X337576Y277215D01*
X337631Y277448D01*
X337632Y277462D01*
X337635Y277475D01*
X337650Y277713D01*
X337666Y277950D01*
X337665Y277964D01*
X337666Y277977D01*
X337643Y278213D01*
X337622Y278452D01*
X337619Y278465D01*
X337618Y278479D01*
X337557Y278709D01*
X337499Y278940D01*
X337494Y278953D01*
X337490Y278966D01*
X337395Y279182D01*
X337301Y279403D01*
X337293Y279414D01*
X337288Y279427D01*
X337158Y279628D01*
X337031Y279828D01*
X337022Y279838D01*
X337015Y279850D01*
X336855Y280028D01*
X336698Y280206D01*
X336687Y280214D01*
X336678Y280225D01*
X336494Y280373D01*
X336309Y280526D01*
X336297Y280533D01*
X336287Y280541D01*
X336082Y280659D01*
X335875Y280780D01*
X335862Y280785D01*
X335850Y280792D01*
X335628Y280876D01*
X335406Y280963D01*
X335392Y280966D01*
X335379Y280971D01*
X335145Y281019D01*
X334913Y281069D01*
X334900Y281070D01*
X334886Y281073D01*
X334492Y281097D01*
X175508Y281097D01*
X175494Y281096D01*
X175480Y281097D01*
X175244Y281076D01*
X175006Y281057D01*
X174992Y281054D01*
X174979Y281053D01*
X174749Y280995D01*
X174516Y280939D01*
X174504Y280933D01*
X174491Y280930D01*
X174272Y280836D01*
X174052Y280744D01*
X174041Y280737D01*
X174028Y280731D01*
X173828Y280605D01*
X173624Y280478D01*
X173614Y280469D01*
X173603Y280462D01*
X173425Y280305D01*
X173244Y280148D01*
X173235Y280138D01*
X173225Y280129D01*
X173074Y279945D01*
X172921Y279762D01*
X172914Y279750D01*
X172905Y279740D01*
X172783Y279533D01*
X172662Y279330D01*
X172657Y279317D01*
X172650Y279306D01*
X172564Y279083D01*
X172476Y278862D01*
X172473Y278849D01*
X172468Y278836D01*
X172418Y278604D01*
X172365Y278371D01*
X172364Y278357D01*
X172362Y278344D01*
X172349Y278108D01*
X172334Y277869D01*
X172335Y277855D01*
X172335Y277841D01*
X172359Y277606D01*
X172382Y277367D01*
X172386Y277354D01*
X172387Y277341D01*
X172449Y277111D01*
X172510Y276880D01*
X172515Y276868D01*
X172519Y276854D01*
X172616Y276638D01*
X172712Y276419D01*
X172720Y276408D01*
X172725Y276395D01*
X172855Y276199D01*
X172985Y275996D01*
X172995Y275986D01*
X173002Y275975D01*
X173263Y275678D01*
X175360Y273581D01*
X176323Y271258D01*
X176323Y270381D01*
X176326Y270340D01*
X176324Y270300D01*
X176346Y270090D01*
X176363Y269879D01*
X176372Y269839D01*
X176377Y269799D01*
X176432Y269595D01*
X176481Y269390D01*
X176497Y269352D01*
X176508Y269313D01*
X176595Y269120D01*
X176676Y268926D01*
X176698Y268891D01*
X176715Y268853D01*
X176831Y268677D01*
X176942Y268498D01*
X176969Y268467D01*
X176991Y268433D01*
X177252Y268137D01*
X238057Y207332D01*
X238088Y207306D01*
X238115Y207275D01*
X238279Y207143D01*
X238440Y207006D01*
X238475Y206984D01*
X238507Y206959D01*
X238689Y206854D01*
X238870Y206744D01*
X238908Y206728D01*
X238943Y206708D01*
X239140Y206633D01*
X239336Y206553D01*
X239376Y206544D01*
X239414Y206529D01*
X239621Y206487D01*
X239826Y206438D01*
X239867Y206436D01*
X239907Y206427D01*
X240301Y206403D01*
X553166Y206403D01*
X554567Y205823D01*
X556085Y204304D01*
X605637Y154752D01*
X605668Y154726D01*
X605695Y154695D01*
X605859Y154563D01*
X606020Y154426D01*
X606055Y154404D01*
X606087Y154379D01*
X606269Y154274D01*
X606450Y154164D01*
X606488Y154148D01*
X606523Y154128D01*
X606720Y154053D01*
X606916Y153973D01*
X606956Y153964D01*
X606994Y153949D01*
X607201Y153907D01*
X607406Y153858D01*
X607447Y153856D01*
X607487Y153847D01*
X607881Y153823D01*
X608758Y153823D01*
X611082Y152860D01*
X612860Y151082D01*
X613823Y148758D01*
X613823Y146242D01*
X612860Y143918D01*
X611082Y142140D01*
X608758Y141177D01*
X606242Y141177D01*
X603918Y142140D01*
X602140Y143918D01*
X601177Y146242D01*
X601177Y147119D01*
X601174Y147160D01*
X601176Y147200D01*
X601154Y147410D01*
X601137Y147621D01*
X601128Y147660D01*
X601123Y147701D01*
X601068Y147905D01*
X601019Y148110D01*
X601003Y148148D01*
X600992Y148187D01*
X600905Y148380D01*
X600824Y148574D01*
X600802Y148609D01*
X600785Y148646D01*
X600669Y148823D01*
X600558Y149002D01*
X600531Y149033D01*
X600509Y149067D01*
X600248Y149363D01*
X551759Y197852D01*
X551728Y197878D01*
X551701Y197909D01*
X551537Y198041D01*
X551376Y198178D01*
X551341Y198200D01*
X551309Y198225D01*
X551127Y198330D01*
X550946Y198440D01*
X550908Y198456D01*
X550873Y198476D01*
X550676Y198551D01*
X550480Y198631D01*
X550440Y198640D01*
X550402Y198655D01*
X550195Y198697D01*
X549990Y198746D01*
X549949Y198748D01*
X549909Y198757D01*
X549515Y198781D01*
X236650Y198781D01*
X235249Y199361D01*
X171863Y262748D01*
X171832Y262774D01*
X171805Y262805D01*
X171641Y262937D01*
X171480Y263074D01*
X171445Y263096D01*
X171413Y263121D01*
X171231Y263226D01*
X171050Y263336D01*
X171012Y263352D01*
X170977Y263372D01*
X170780Y263447D01*
X170584Y263527D01*
X170544Y263536D01*
X170506Y263551D01*
X170299Y263593D01*
X170094Y263642D01*
X170053Y263644D01*
X170013Y263653D01*
X169619Y263677D01*
X168742Y263677D01*
X166418Y264640D01*
X164640Y266418D01*
X163677Y268742D01*
X163677Y271258D01*
X164640Y273581D01*
X166737Y275678D01*
X166746Y275689D01*
X166756Y275698D01*
X166909Y275880D01*
X167063Y276062D01*
X167071Y276073D01*
X167079Y276084D01*
X167202Y276288D01*
X167325Y276492D01*
X167331Y276504D01*
X167338Y276516D01*
X167426Y276736D01*
X167516Y276958D01*
X167519Y276971D01*
X167524Y276984D01*
X167576Y277215D01*
X167631Y277448D01*
X167632Y277462D01*
X167635Y277475D01*
X167650Y277713D01*
X167666Y277950D01*
X167665Y277964D01*
X167666Y277977D01*
X167643Y278213D01*
X167622Y278452D01*
X167619Y278465D01*
X167618Y278479D01*
X167557Y278709D01*
X167499Y278940D01*
X167494Y278953D01*
X167490Y278966D01*
X167395Y279182D01*
X167301Y279403D01*
X167293Y279414D01*
X167288Y279427D01*
X167158Y279628D01*
X167031Y279828D01*
X167022Y279838D01*
X167015Y279850D01*
X166855Y280028D01*
X166698Y280206D01*
X166687Y280214D01*
X166678Y280225D01*
X166494Y280373D01*
X166309Y280526D01*
X166297Y280533D01*
X166287Y280541D01*
X166082Y280659D01*
X165875Y280780D01*
X165862Y280785D01*
X165850Y280792D01*
X165628Y280876D01*
X165406Y280963D01*
X165392Y280966D01*
X165379Y280971D01*
X165145Y281019D01*
X164913Y281069D01*
X164900Y281070D01*
X164886Y281073D01*
X164492Y281097D01*
X145071Y281097D01*
X143670Y281677D01*
X142152Y283196D01*
X131742Y293606D01*
X131731Y293615D01*
X131722Y293625D01*
X131539Y293779D01*
X131358Y293933D01*
X131347Y293940D01*
X131336Y293949D01*
X131133Y294070D01*
X130928Y294195D01*
X130916Y294200D01*
X130904Y294207D01*
X130685Y294295D01*
X130462Y294385D01*
X130449Y294389D01*
X130436Y294394D01*
X130204Y294446D01*
X129972Y294500D01*
X129958Y294501D01*
X129945Y294504D01*
X129706Y294519D01*
X129470Y294536D01*
X129456Y294534D01*
X129443Y294535D01*
X129205Y294512D01*
X128968Y294491D01*
X128955Y294488D01*
X128941Y294487D01*
X128711Y294427D01*
X128480Y294368D01*
X128467Y294363D01*
X128454Y294360D01*
X128236Y294264D01*
X128017Y294170D01*
X128006Y294163D01*
X127993Y294157D01*
X127792Y294027D01*
X127592Y293900D01*
X127582Y293891D01*
X127570Y293884D01*
X127392Y293724D01*
X127214Y293567D01*
X127206Y293557D01*
X127195Y293548D01*
X127045Y293362D01*
X126894Y293179D01*
X126887Y293167D01*
X126879Y293156D01*
X126760Y292950D01*
X126640Y292744D01*
X126635Y292731D01*
X126628Y292720D01*
X126544Y292498D01*
X126457Y292275D01*
X126454Y292261D01*
X126449Y292249D01*
X126401Y292014D01*
X126351Y291783D01*
X126350Y291769D01*
X126347Y291756D01*
X126323Y291362D01*
X126323Y288742D01*
X125360Y286418D01*
X124740Y285799D01*
X124714Y285768D01*
X124683Y285740D01*
X124551Y285576D01*
X124414Y285416D01*
X124392Y285381D01*
X124367Y285349D01*
X124262Y285166D01*
X124152Y284986D01*
X124136Y284947D01*
X124116Y284912D01*
X124041Y284715D01*
X123961Y284520D01*
X123952Y284480D01*
X123937Y284441D01*
X123895Y284235D01*
X123846Y284029D01*
X123844Y283988D01*
X123835Y283948D01*
X123811Y283554D01*
X123811Y282893D01*
X123814Y282852D01*
X123812Y282812D01*
X123834Y282602D01*
X123851Y282391D01*
X123860Y282351D01*
X123865Y282311D01*
X123920Y282107D01*
X123969Y281902D01*
X123985Y281864D01*
X123996Y281825D01*
X124083Y281632D01*
X124164Y281438D01*
X124186Y281403D01*
X124203Y281366D01*
X124319Y281189D01*
X124430Y281010D01*
X124457Y280979D01*
X124479Y280945D01*
X124740Y280649D01*
X308258Y97131D01*
X308269Y97122D01*
X308278Y97111D01*
X308461Y96958D01*
X308642Y96804D01*
X308653Y96797D01*
X308664Y96788D01*
X308867Y96667D01*
X309072Y96542D01*
X309084Y96537D01*
X309096Y96530D01*
X309315Y96442D01*
X309538Y96351D01*
X309551Y96348D01*
X309564Y96343D01*
X309796Y96291D01*
X310028Y96237D01*
X310042Y96236D01*
X310055Y96233D01*
X310294Y96218D01*
X310530Y96201D01*
X310544Y96202D01*
X310557Y96201D01*
X310795Y96224D01*
X311032Y96245D01*
X311045Y96249D01*
X311059Y96250D01*
X311289Y96310D01*
X311520Y96368D01*
X311533Y96374D01*
X311546Y96377D01*
X311764Y96473D01*
X311983Y96567D01*
X311994Y96574D01*
X312007Y96580D01*
X312208Y96709D01*
X312408Y96836D01*
X312418Y96845D01*
X312430Y96853D01*
X312608Y97012D01*
X312786Y97170D01*
X312794Y97180D01*
X312805Y97189D01*
X312955Y97375D01*
X313106Y97558D01*
X313113Y97570D01*
X313121Y97581D01*
X313240Y97787D01*
X313360Y97993D01*
X313365Y98005D01*
X313372Y98017D01*
X313456Y98239D01*
X313543Y98462D01*
X313546Y98475D01*
X313551Y98488D01*
X313599Y98721D01*
X313649Y98954D01*
X313650Y98968D01*
X313653Y98981D01*
X313677Y99375D01*
X313677Y101258D01*
X314640Y103582D01*
X316418Y105360D01*
X318742Y106323D01*
X321258Y106323D01*
X323582Y105360D01*
X325360Y103582D01*
X326323Y101258D01*
X326323Y98742D01*
X325360Y96418D01*
X323582Y94640D01*
X321258Y93677D01*
X319375Y93677D01*
X319362Y93676D01*
X319348Y93677D01*
X319111Y93656D01*
X318873Y93637D01*
X318860Y93634D01*
X318846Y93633D01*
X318615Y93575D01*
X318384Y93519D01*
X318371Y93513D01*
X318358Y93510D01*
X318138Y93415D01*
X317920Y93324D01*
X317908Y93317D01*
X317895Y93311D01*
X317694Y93184D01*
X317492Y93058D01*
X317481Y93049D01*
X317470Y93042D01*
X317292Y92885D01*
X317111Y92728D01*
X317103Y92718D01*
X317092Y92709D01*
X316941Y92525D01*
X316788Y92342D01*
X316781Y92331D01*
X316772Y92320D01*
X316652Y92114D01*
X316530Y91910D01*
X316525Y91897D01*
X316518Y91886D01*
X316431Y91662D01*
X316343Y91442D01*
X316340Y91429D01*
X316335Y91416D01*
X316285Y91184D01*
X316233Y90951D01*
X316232Y90937D01*
X316229Y90924D01*
X316216Y90688D01*
X316201Y90449D01*
X316203Y90435D01*
X316202Y90421D01*
X316227Y90185D01*
X316250Y89947D01*
X316253Y89934D01*
X316255Y89921D01*
X316317Y89692D01*
X316377Y89460D01*
X316383Y89448D01*
X316386Y89434D01*
X316484Y89218D01*
X316580Y88999D01*
X316587Y88988D01*
X316593Y88975D01*
X316723Y88777D01*
X316853Y88576D01*
X316862Y88566D01*
X316869Y88554D01*
X317131Y88258D01*
X318149Y87240D01*
X318166Y87226D01*
X318175Y87215D01*
X318187Y87206D01*
X318207Y87183D01*
X318371Y87051D01*
X318532Y86914D01*
X318567Y86892D01*
X318599Y86867D01*
X318782Y86762D01*
X318962Y86652D01*
X319000Y86636D01*
X319035Y86616D01*
X319233Y86541D01*
X319428Y86461D01*
X319468Y86452D01*
X319506Y86437D01*
X319713Y86394D01*
X319918Y86346D01*
X319959Y86344D01*
X319999Y86335D01*
X320393Y86311D01*
X522107Y86311D01*
X522148Y86314D01*
X522188Y86312D01*
X522398Y86334D01*
X522609Y86351D01*
X522649Y86360D01*
X522689Y86365D01*
X522893Y86420D01*
X523098Y86469D01*
X523136Y86485D01*
X523175Y86496D01*
X523368Y86583D01*
X523562Y86664D01*
X523597Y86686D01*
X523634Y86703D01*
X523811Y86819D01*
X523990Y86930D01*
X524021Y86957D01*
X524055Y86979D01*
X524351Y87240D01*
X530248Y93137D01*
X530274Y93168D01*
X530305Y93195D01*
X530437Y93359D01*
X530574Y93520D01*
X530596Y93555D01*
X530621Y93587D01*
X530726Y93769D01*
X530836Y93950D01*
X530852Y93988D01*
X530872Y94023D01*
X530947Y94220D01*
X531027Y94416D01*
X531036Y94456D01*
X531051Y94494D01*
X531093Y94701D01*
X531142Y94906D01*
X531144Y94947D01*
X531153Y94987D01*
X531177Y95381D01*
X531177Y96258D01*
X532140Y98582D01*
X533918Y100360D01*
X536242Y101323D01*
X538758Y101323D01*
X541082Y100360D01*
X542860Y98582D01*
X543823Y96258D01*
X543823Y93742D01*
X542860Y91418D01*
X541082Y89640D01*
X538758Y88677D01*
X537881Y88677D01*
X537840Y88674D01*
X537800Y88676D01*
X537590Y88654D01*
X537379Y88637D01*
X537339Y88628D01*
X537299Y88623D01*
X537095Y88568D01*
X536890Y88519D01*
X536852Y88503D01*
X536813Y88492D01*
X536620Y88405D01*
X536426Y88324D01*
X536391Y88302D01*
X536354Y88285D01*
X536177Y88169D01*
X535998Y88058D01*
X535967Y88031D01*
X535933Y88009D01*
X535637Y87748D01*
X527159Y79269D01*
X525758Y78689D01*
X347916Y78689D01*
X347902Y78688D01*
X347888Y78689D01*
X347651Y78668D01*
X347414Y78649D01*
X347400Y78646D01*
X347387Y78645D01*
X347154Y78586D01*
X346924Y78531D01*
X346912Y78525D01*
X346898Y78522D01*
X346678Y78427D01*
X346460Y78336D01*
X346448Y78329D01*
X346436Y78323D01*
X346235Y78196D01*
X346032Y78070D01*
X346022Y78061D01*
X346010Y78054D01*
X345832Y77896D01*
X345652Y77740D01*
X345643Y77730D01*
X345633Y77720D01*
X345481Y77536D01*
X345329Y77354D01*
X345322Y77342D01*
X345313Y77332D01*
X345192Y77125D01*
X345070Y76922D01*
X345065Y76909D01*
X345058Y76897D01*
X344972Y76675D01*
X344884Y76454D01*
X344881Y76441D01*
X344876Y76428D01*
X344825Y76195D01*
X344773Y75963D01*
X344772Y75949D01*
X344769Y75936D01*
X344757Y75698D01*
X344742Y75461D01*
X344743Y75447D01*
X344743Y75433D01*
X344768Y75196D01*
X344790Y74959D01*
X344794Y74946D01*
X344795Y74932D01*
X344857Y74704D01*
X344918Y74472D01*
X344923Y74459D01*
X344927Y74446D01*
X345024Y74230D01*
X345120Y74011D01*
X345128Y74000D01*
X345133Y73987D01*
X345264Y73789D01*
X345293Y73743D01*
X346323Y71258D01*
X346323Y68742D01*
X345360Y66418D01*
X343582Y64640D01*
X341258Y63677D01*
X338742Y63677D01*
G37*
%LPD*%
%LPC*%
G36*
X650000Y289674D02*
X650000Y289674D01*
X640348Y289674D01*
X640584Y290400D01*
X641310Y291825D01*
X642250Y293119D01*
X643381Y294250D01*
X644675Y295190D01*
X646100Y295916D01*
X646848Y296159D01*
X646976Y296212D01*
X647107Y296256D01*
X647208Y296309D01*
X647313Y296352D01*
X647430Y296425D01*
X647553Y296489D01*
X647645Y296557D01*
X647741Y296617D01*
X647846Y296707D01*
X647957Y296790D01*
X648037Y296871D01*
X648123Y296945D01*
X648212Y297051D01*
X648309Y297150D01*
X648374Y297243D01*
X648448Y297330D01*
X648519Y297449D01*
X648599Y297562D01*
X648649Y297664D01*
X648707Y297761D01*
X648759Y297890D01*
X648820Y298014D01*
X648853Y298123D01*
X648896Y298228D01*
X648927Y298363D01*
X648967Y298496D01*
X648982Y298608D01*
X649008Y298719D01*
X649017Y298857D01*
X649036Y298994D01*
X649033Y299109D01*
X649041Y299222D01*
X649028Y299359D01*
X649025Y299498D01*
X649005Y299610D01*
X648994Y299723D01*
X648960Y299857D01*
X648935Y299993D01*
X648897Y300101D01*
X648869Y300211D01*
X648813Y300338D01*
X648767Y300468D01*
X648713Y300568D01*
X648668Y300672D01*
X648593Y300789D01*
X648527Y300911D01*
X648457Y301001D01*
X648396Y301097D01*
X648304Y301200D01*
X648219Y301309D01*
X648137Y301387D01*
X648061Y301472D01*
X647954Y301560D01*
X647853Y301655D01*
X647759Y301719D01*
X647671Y301790D01*
X647551Y301860D01*
X647436Y301937D01*
X647309Y302000D01*
X647235Y302043D01*
X647171Y302067D01*
X647082Y302111D01*
X644244Y303286D01*
X641386Y306144D01*
X639839Y309879D01*
X639839Y313921D01*
X641386Y317656D01*
X644244Y320514D01*
X647029Y321667D01*
X647041Y321674D01*
X647054Y321678D01*
X647266Y321788D01*
X647478Y321896D01*
X647489Y321904D01*
X647501Y321911D01*
X647692Y322053D01*
X647884Y322193D01*
X647894Y322203D01*
X647905Y322211D01*
X648070Y322381D01*
X648239Y322551D01*
X648247Y322562D01*
X648256Y322572D01*
X648392Y322765D01*
X648532Y322960D01*
X648539Y322972D01*
X648546Y322983D01*
X648650Y323195D01*
X648757Y323410D01*
X648762Y323424D01*
X648768Y323436D01*
X648837Y323662D01*
X648909Y323891D01*
X648911Y323904D01*
X648915Y323917D01*
X648947Y324154D01*
X648982Y324389D01*
X648982Y324402D01*
X648983Y324416D01*
X648978Y324656D01*
X648975Y324892D01*
X648973Y324906D01*
X648973Y324920D01*
X648930Y325153D01*
X648889Y325389D01*
X648885Y325402D01*
X648882Y325415D01*
X648804Y325637D01*
X648726Y325865D01*
X648719Y325877D01*
X648715Y325890D01*
X648602Y326098D01*
X648489Y326309D01*
X648481Y326320D01*
X648474Y326332D01*
X648329Y326521D01*
X648185Y326711D01*
X648175Y326720D01*
X648167Y326731D01*
X647994Y326894D01*
X647822Y327059D01*
X647810Y327067D01*
X647801Y327076D01*
X647603Y327210D01*
X647408Y327346D01*
X647395Y327351D01*
X647384Y327359D01*
X647029Y327533D01*
X644244Y328686D01*
X641386Y331544D01*
X639839Y335279D01*
X639839Y339321D01*
X641386Y343056D01*
X644244Y345914D01*
X647029Y347067D01*
X647041Y347074D01*
X647054Y347078D01*
X647266Y347188D01*
X647478Y347296D01*
X647489Y347304D01*
X647501Y347311D01*
X647692Y347453D01*
X647884Y347593D01*
X647894Y347603D01*
X647905Y347611D01*
X648070Y347781D01*
X648239Y347951D01*
X648247Y347962D01*
X648256Y347972D01*
X648393Y348165D01*
X648532Y348360D01*
X648539Y348372D01*
X648546Y348383D01*
X648650Y348595D01*
X648757Y348810D01*
X648762Y348824D01*
X648768Y348836D01*
X648837Y349062D01*
X648909Y349291D01*
X648911Y349304D01*
X648915Y349317D01*
X648947Y349554D01*
X648982Y349789D01*
X648982Y349802D01*
X648983Y349816D01*
X648978Y350053D01*
X648975Y350292D01*
X648973Y350306D01*
X648973Y350320D01*
X648930Y350551D01*
X648889Y350789D01*
X648885Y350802D01*
X648882Y350815D01*
X648804Y351037D01*
X648726Y351265D01*
X648719Y351277D01*
X648715Y351290D01*
X648602Y351498D01*
X648489Y351709D01*
X648481Y351720D01*
X648474Y351732D01*
X648329Y351921D01*
X648185Y352111D01*
X648175Y352120D01*
X648167Y352131D01*
X647994Y352294D01*
X647822Y352459D01*
X647810Y352467D01*
X647801Y352476D01*
X647603Y352610D01*
X647408Y352746D01*
X647395Y352751D01*
X647384Y352759D01*
X647029Y352933D01*
X644244Y354086D01*
X641386Y356944D01*
X639839Y360679D01*
X639839Y364721D01*
X641386Y368456D01*
X644244Y371314D01*
X647029Y372467D01*
X647041Y372474D01*
X647054Y372478D01*
X647266Y372588D01*
X647478Y372696D01*
X647489Y372704D01*
X647501Y372711D01*
X647692Y372853D01*
X647884Y372993D01*
X647894Y373003D01*
X647905Y373011D01*
X648070Y373181D01*
X648239Y373351D01*
X648247Y373362D01*
X648256Y373372D01*
X648393Y373565D01*
X648532Y373760D01*
X648539Y373772D01*
X648546Y373783D01*
X648650Y373995D01*
X648757Y374210D01*
X648762Y374224D01*
X648768Y374236D01*
X648837Y374462D01*
X648909Y374691D01*
X648911Y374704D01*
X648915Y374717D01*
X648947Y374954D01*
X648982Y375189D01*
X648982Y375202D01*
X648983Y375216D01*
X648978Y375456D01*
X648975Y375692D01*
X648973Y375706D01*
X648973Y375720D01*
X648930Y375953D01*
X648889Y376189D01*
X648885Y376202D01*
X648882Y376215D01*
X648804Y376437D01*
X648726Y376665D01*
X648719Y376677D01*
X648715Y376690D01*
X648602Y376898D01*
X648489Y377109D01*
X648481Y377120D01*
X648474Y377132D01*
X648329Y377321D01*
X648185Y377511D01*
X648175Y377520D01*
X648167Y377531D01*
X647995Y377693D01*
X647822Y377859D01*
X647810Y377867D01*
X647801Y377876D01*
X647603Y378010D01*
X647408Y378146D01*
X647395Y378151D01*
X647384Y378159D01*
X647029Y378333D01*
X644244Y379486D01*
X641386Y382344D01*
X639839Y386079D01*
X639839Y390121D01*
X641386Y393856D01*
X644244Y396714D01*
X647029Y397867D01*
X647041Y397874D01*
X647054Y397878D01*
X647266Y397988D01*
X647478Y398096D01*
X647489Y398104D01*
X647501Y398111D01*
X647692Y398253D01*
X647884Y398393D01*
X647894Y398403D01*
X647905Y398411D01*
X648070Y398581D01*
X648239Y398751D01*
X648247Y398762D01*
X648256Y398772D01*
X648392Y398965D01*
X648532Y399160D01*
X648539Y399172D01*
X648546Y399183D01*
X648650Y399395D01*
X648757Y399610D01*
X648762Y399624D01*
X648768Y399636D01*
X648837Y399862D01*
X648909Y400091D01*
X648911Y400104D01*
X648915Y400117D01*
X648947Y400354D01*
X648982Y400589D01*
X648982Y400602D01*
X648983Y400616D01*
X648978Y400856D01*
X648975Y401092D01*
X648973Y401106D01*
X648973Y401120D01*
X648930Y401353D01*
X648889Y401589D01*
X648885Y401602D01*
X648882Y401615D01*
X648805Y401836D01*
X648726Y402065D01*
X648719Y402077D01*
X648715Y402090D01*
X648602Y402298D01*
X648489Y402509D01*
X648481Y402520D01*
X648474Y402532D01*
X648329Y402721D01*
X648185Y402911D01*
X648175Y402920D01*
X648167Y402931D01*
X647994Y403094D01*
X647822Y403259D01*
X647810Y403267D01*
X647801Y403276D01*
X647603Y403410D01*
X647408Y403546D01*
X647395Y403551D01*
X647384Y403559D01*
X647029Y403733D01*
X644244Y404886D01*
X641386Y407744D01*
X639839Y411479D01*
X639839Y415521D01*
X641386Y419256D01*
X644244Y422114D01*
X647979Y423661D01*
X652021Y423661D01*
X655756Y422114D01*
X658614Y419256D01*
X660161Y415521D01*
X660161Y411479D01*
X658614Y407744D01*
X655756Y404886D01*
X652971Y403733D01*
X652959Y403726D01*
X652946Y403722D01*
X652735Y403612D01*
X652522Y403504D01*
X652511Y403495D01*
X652499Y403489D01*
X652309Y403348D01*
X652116Y403207D01*
X652106Y403197D01*
X652095Y403189D01*
X651929Y403018D01*
X651761Y402849D01*
X651753Y402838D01*
X651744Y402828D01*
X651605Y402632D01*
X651468Y402440D01*
X651462Y402428D01*
X651454Y402417D01*
X651348Y402201D01*
X651243Y401990D01*
X651238Y401977D01*
X651232Y401964D01*
X651162Y401734D01*
X651091Y401509D01*
X651089Y401496D01*
X651085Y401483D01*
X651052Y401244D01*
X651018Y401011D01*
X651018Y400997D01*
X651017Y400984D01*
X651022Y400744D01*
X651025Y400508D01*
X651027Y400494D01*
X651027Y400480D01*
X651070Y400247D01*
X651111Y400011D01*
X651115Y399998D01*
X651118Y399985D01*
X651197Y399760D01*
X651274Y399535D01*
X651281Y399523D01*
X651285Y399510D01*
X651400Y399299D01*
X651511Y399091D01*
X651519Y399080D01*
X651526Y399068D01*
X651671Y398878D01*
X651815Y398689D01*
X651825Y398680D01*
X651833Y398669D01*
X652007Y398505D01*
X652178Y398341D01*
X652189Y398333D01*
X652199Y398324D01*
X652396Y398190D01*
X652592Y398054D01*
X652605Y398048D01*
X652616Y398041D01*
X652971Y397867D01*
X655756Y396714D01*
X658614Y393856D01*
X660161Y390121D01*
X660161Y386079D01*
X658614Y382344D01*
X655756Y379486D01*
X652971Y378333D01*
X652959Y378326D01*
X652946Y378322D01*
X652735Y378212D01*
X652522Y378104D01*
X652511Y378095D01*
X652499Y378089D01*
X652309Y377948D01*
X652116Y377807D01*
X652106Y377797D01*
X652095Y377789D01*
X651929Y377618D01*
X651761Y377449D01*
X651753Y377438D01*
X651744Y377428D01*
X651606Y377232D01*
X651468Y377040D01*
X651462Y377028D01*
X651454Y377017D01*
X651348Y376801D01*
X651243Y376590D01*
X651238Y376577D01*
X651232Y376564D01*
X651162Y376334D01*
X651091Y376109D01*
X651089Y376096D01*
X651085Y376083D01*
X651052Y375843D01*
X651018Y375611D01*
X651018Y375597D01*
X651017Y375584D01*
X651022Y375344D01*
X651025Y375108D01*
X651027Y375094D01*
X651027Y375080D01*
X651070Y374847D01*
X651111Y374611D01*
X651115Y374598D01*
X651118Y374585D01*
X651197Y374361D01*
X651274Y374135D01*
X651281Y374123D01*
X651285Y374110D01*
X651399Y373900D01*
X651511Y373691D01*
X651519Y373680D01*
X651526Y373668D01*
X651671Y373478D01*
X651815Y373289D01*
X651825Y373280D01*
X651833Y373269D01*
X652007Y373105D01*
X652178Y372941D01*
X652189Y372933D01*
X652199Y372924D01*
X652396Y372790D01*
X652592Y372654D01*
X652605Y372648D01*
X652616Y372641D01*
X652971Y372467D01*
X655756Y371314D01*
X658614Y368456D01*
X660161Y364721D01*
X660161Y360679D01*
X658614Y356944D01*
X655756Y354086D01*
X652971Y352933D01*
X652959Y352926D01*
X652946Y352922D01*
X652735Y352812D01*
X652522Y352704D01*
X652511Y352695D01*
X652499Y352689D01*
X652309Y352548D01*
X652116Y352407D01*
X652106Y352397D01*
X652095Y352389D01*
X651929Y352218D01*
X651761Y352049D01*
X651753Y352038D01*
X651744Y352028D01*
X651606Y351832D01*
X651468Y351640D01*
X651462Y351628D01*
X651454Y351617D01*
X651348Y351401D01*
X651243Y351190D01*
X651238Y351177D01*
X651232Y351164D01*
X651161Y350932D01*
X651091Y350709D01*
X651089Y350696D01*
X651085Y350683D01*
X651052Y350444D01*
X651018Y350211D01*
X651018Y350197D01*
X651017Y350184D01*
X651022Y349944D01*
X651025Y349708D01*
X651027Y349694D01*
X651027Y349680D01*
X651070Y349447D01*
X651111Y349211D01*
X651115Y349198D01*
X651118Y349185D01*
X651197Y348960D01*
X651274Y348735D01*
X651281Y348723D01*
X651285Y348710D01*
X651399Y348500D01*
X651511Y348291D01*
X651519Y348280D01*
X651526Y348268D01*
X651671Y348078D01*
X651815Y347889D01*
X651825Y347880D01*
X651833Y347869D01*
X652007Y347705D01*
X652178Y347541D01*
X652189Y347533D01*
X652199Y347524D01*
X652396Y347390D01*
X652592Y347254D01*
X652605Y347248D01*
X652616Y347241D01*
X652971Y347067D01*
X655756Y345914D01*
X658614Y343056D01*
X660161Y339321D01*
X660161Y335279D01*
X658614Y331544D01*
X655756Y328686D01*
X652971Y327533D01*
X652959Y327526D01*
X652946Y327522D01*
X652735Y327412D01*
X652522Y327304D01*
X652511Y327295D01*
X652499Y327289D01*
X652309Y327148D01*
X652116Y327007D01*
X652106Y326997D01*
X652095Y326989D01*
X651929Y326818D01*
X651761Y326649D01*
X651753Y326638D01*
X651744Y326628D01*
X651606Y326432D01*
X651468Y326240D01*
X651462Y326228D01*
X651454Y326217D01*
X651348Y326001D01*
X651243Y325790D01*
X651238Y325777D01*
X651232Y325764D01*
X651162Y325534D01*
X651091Y325309D01*
X651089Y325296D01*
X651085Y325283D01*
X651052Y325044D01*
X651018Y324811D01*
X651018Y324797D01*
X651017Y324784D01*
X651022Y324544D01*
X651025Y324308D01*
X651027Y324294D01*
X651027Y324280D01*
X651070Y324047D01*
X651111Y323811D01*
X651115Y323798D01*
X651118Y323785D01*
X651197Y323561D01*
X651274Y323335D01*
X651281Y323323D01*
X651285Y323310D01*
X651399Y323100D01*
X651511Y322891D01*
X651519Y322880D01*
X651526Y322868D01*
X651671Y322678D01*
X651815Y322489D01*
X651825Y322480D01*
X651833Y322469D01*
X652007Y322305D01*
X652178Y322141D01*
X652189Y322133D01*
X652199Y322124D01*
X652396Y321990D01*
X652592Y321854D01*
X652605Y321848D01*
X652616Y321841D01*
X652971Y321667D01*
X655756Y320514D01*
X658614Y317656D01*
X660161Y313921D01*
X660161Y309879D01*
X658614Y306144D01*
X655756Y303286D01*
X652918Y302111D01*
X652795Y302048D01*
X652668Y301994D01*
X652571Y301934D01*
X652470Y301882D01*
X652358Y301800D01*
X652241Y301727D01*
X652155Y301652D01*
X652063Y301585D01*
X651966Y301487D01*
X651862Y301396D01*
X651789Y301308D01*
X651709Y301227D01*
X651628Y301115D01*
X651540Y301009D01*
X651481Y300911D01*
X651415Y300818D01*
X651353Y300695D01*
X651283Y300575D01*
X651241Y300470D01*
X651190Y300368D01*
X651149Y300236D01*
X651098Y300107D01*
X651073Y299996D01*
X651039Y299888D01*
X651019Y299751D01*
X650989Y299616D01*
X650982Y299502D01*
X650966Y299389D01*
X650968Y299251D01*
X650960Y299113D01*
X650971Y299000D01*
X650972Y298886D01*
X650996Y298749D01*
X651010Y298612D01*
X651039Y298502D01*
X651058Y298390D01*
X651103Y298259D01*
X651139Y298125D01*
X651185Y298021D01*
X651222Y297913D01*
X651287Y297791D01*
X651343Y297665D01*
X651405Y297569D01*
X651458Y297469D01*
X651542Y297359D01*
X651617Y297243D01*
X651694Y297158D01*
X651762Y297068D01*
X651862Y296972D01*
X651955Y296869D01*
X652044Y296798D01*
X652126Y296719D01*
X652240Y296640D01*
X652348Y296554D01*
X652446Y296498D01*
X652540Y296433D01*
X652665Y296373D01*
X652785Y296305D01*
X652917Y296252D01*
X652994Y296215D01*
X653059Y296196D01*
X653152Y296159D01*
X653900Y295916D01*
X655325Y295190D01*
X656619Y294250D01*
X657750Y293119D01*
X658690Y291825D01*
X659416Y290400D01*
X659652Y289674D01*
X650000Y289674D01*
X650000Y289674D01*
G37*
%LPD*%
%LPC*%
G36*
X338742Y133677D02*
X338742Y133677D01*
X336418Y134640D01*
X334640Y136418D01*
X333677Y138742D01*
X333677Y141258D01*
X334640Y143582D01*
X336418Y145360D01*
X338742Y146323D01*
X340503Y146323D01*
X340530Y146325D01*
X340557Y146323D01*
X340781Y146345D01*
X341005Y146363D01*
X341031Y146369D01*
X341059Y146372D01*
X341277Y146429D01*
X341494Y146481D01*
X341519Y146492D01*
X341546Y146499D01*
X341752Y146590D01*
X341959Y146676D01*
X341982Y146691D01*
X342007Y146702D01*
X342196Y146824D01*
X342386Y146942D01*
X342407Y146960D01*
X342430Y146975D01*
X342597Y147125D01*
X342767Y147272D01*
X342784Y147293D01*
X342805Y147311D01*
X342946Y147486D01*
X343090Y147658D01*
X343104Y147681D01*
X343121Y147702D01*
X343233Y147897D01*
X343348Y148090D01*
X343359Y148115D01*
X343372Y148139D01*
X343452Y148349D01*
X343535Y148558D01*
X343541Y148584D01*
X343551Y148610D01*
X343596Y148830D01*
X343645Y149049D01*
X343647Y149076D01*
X343653Y149103D01*
X343677Y149497D01*
X343677Y150503D01*
X343675Y150530D01*
X343677Y150557D01*
X343655Y150781D01*
X343637Y151005D01*
X343631Y151031D01*
X343628Y151059D01*
X343571Y151277D01*
X343519Y151494D01*
X343508Y151519D01*
X343501Y151546D01*
X343410Y151752D01*
X343324Y151959D01*
X343309Y151982D01*
X343298Y152007D01*
X343176Y152196D01*
X343058Y152386D01*
X343040Y152407D01*
X343025Y152430D01*
X342875Y152597D01*
X342728Y152767D01*
X342707Y152784D01*
X342689Y152805D01*
X342514Y152946D01*
X342342Y153090D01*
X342319Y153104D01*
X342298Y153121D01*
X342103Y153233D01*
X341910Y153348D01*
X341885Y153359D01*
X341861Y153372D01*
X341651Y153452D01*
X341442Y153535D01*
X341416Y153541D01*
X341390Y153551D01*
X341170Y153596D01*
X340951Y153645D01*
X340924Y153647D01*
X340897Y153653D01*
X340503Y153677D01*
X338742Y153677D01*
X336418Y154640D01*
X334640Y156418D01*
X333677Y158742D01*
X333677Y161258D01*
X334640Y163582D01*
X336418Y165360D01*
X338742Y166323D01*
X341258Y166323D01*
X343582Y165360D01*
X345360Y163582D01*
X346323Y161258D01*
X346323Y159497D01*
X346325Y159470D01*
X346323Y159443D01*
X346345Y159219D01*
X346363Y158995D01*
X346369Y158969D01*
X346372Y158941D01*
X346429Y158722D01*
X346481Y158506D01*
X346492Y158481D01*
X346499Y158454D01*
X346590Y158248D01*
X346676Y158041D01*
X346691Y158018D01*
X346702Y157993D01*
X346824Y157804D01*
X346942Y157614D01*
X346960Y157593D01*
X346975Y157570D01*
X347125Y157403D01*
X347272Y157233D01*
X347293Y157216D01*
X347311Y157195D01*
X347486Y157054D01*
X347658Y156910D01*
X347681Y156896D01*
X347702Y156879D01*
X347897Y156767D01*
X348090Y156652D01*
X348115Y156641D01*
X348139Y156628D01*
X348349Y156548D01*
X348558Y156465D01*
X348584Y156459D01*
X348610Y156449D01*
X348830Y156404D01*
X349049Y156355D01*
X349076Y156353D01*
X349103Y156347D01*
X349497Y156323D01*
X350503Y156323D01*
X350530Y156325D01*
X350557Y156323D01*
X350781Y156345D01*
X351005Y156363D01*
X351031Y156369D01*
X351059Y156372D01*
X351277Y156429D01*
X351494Y156481D01*
X351519Y156492D01*
X351546Y156499D01*
X351752Y156590D01*
X351959Y156676D01*
X351982Y156691D01*
X352007Y156702D01*
X352196Y156824D01*
X352386Y156942D01*
X352407Y156960D01*
X352430Y156975D01*
X352597Y157125D01*
X352767Y157272D01*
X352784Y157293D01*
X352805Y157311D01*
X352946Y157486D01*
X353090Y157658D01*
X353104Y157681D01*
X353121Y157702D01*
X353233Y157897D01*
X353348Y158090D01*
X353359Y158115D01*
X353372Y158139D01*
X353452Y158349D01*
X353535Y158558D01*
X353541Y158584D01*
X353551Y158610D01*
X353596Y158830D01*
X353645Y159049D01*
X353647Y159076D01*
X353653Y159103D01*
X353677Y159497D01*
X353677Y161258D01*
X354640Y163582D01*
X356418Y165360D01*
X358742Y166323D01*
X361258Y166323D01*
X363582Y165360D01*
X365360Y163582D01*
X366323Y161258D01*
X366323Y158742D01*
X365360Y156418D01*
X363582Y154640D01*
X361258Y153677D01*
X359497Y153677D01*
X359470Y153675D01*
X359443Y153677D01*
X359219Y153655D01*
X358995Y153637D01*
X358969Y153631D01*
X358941Y153628D01*
X358723Y153571D01*
X358506Y153519D01*
X358481Y153508D01*
X358454Y153501D01*
X358248Y153410D01*
X358041Y153324D01*
X358018Y153309D01*
X357993Y153298D01*
X357804Y153176D01*
X357614Y153058D01*
X357593Y153040D01*
X357570Y153025D01*
X357403Y152875D01*
X357233Y152728D01*
X357216Y152707D01*
X357195Y152689D01*
X357054Y152514D01*
X356910Y152342D01*
X356896Y152319D01*
X356879Y152298D01*
X356767Y152103D01*
X356652Y151910D01*
X356641Y151885D01*
X356628Y151861D01*
X356548Y151651D01*
X356465Y151442D01*
X356459Y151416D01*
X356449Y151390D01*
X356404Y151170D01*
X356355Y150951D01*
X356353Y150924D01*
X356347Y150897D01*
X356323Y150503D01*
X356323Y148742D01*
X355360Y146418D01*
X353582Y144640D01*
X351258Y143677D01*
X349497Y143677D01*
X349470Y143675D01*
X349443Y143677D01*
X349219Y143655D01*
X348995Y143637D01*
X348969Y143631D01*
X348941Y143628D01*
X348723Y143571D01*
X348506Y143519D01*
X348481Y143508D01*
X348454Y143501D01*
X348248Y143410D01*
X348041Y143324D01*
X348018Y143309D01*
X347993Y143298D01*
X347804Y143176D01*
X347614Y143058D01*
X347593Y143040D01*
X347570Y143025D01*
X347403Y142875D01*
X347233Y142728D01*
X347216Y142707D01*
X347195Y142689D01*
X347054Y142514D01*
X346910Y142342D01*
X346896Y142319D01*
X346879Y142298D01*
X346767Y142103D01*
X346652Y141910D01*
X346641Y141885D01*
X346628Y141861D01*
X346548Y141651D01*
X346465Y141442D01*
X346459Y141416D01*
X346449Y141390D01*
X346404Y141170D01*
X346355Y140951D01*
X346353Y140924D01*
X346347Y140897D01*
X346323Y140503D01*
X346323Y138742D01*
X345360Y136418D01*
X343582Y134640D01*
X341258Y133677D01*
X338742Y133677D01*
G37*
%LPD*%
%LPC*%
G36*
X388742Y531177D02*
X388742Y531177D01*
X386418Y532140D01*
X384640Y533918D01*
X383677Y536242D01*
X383677Y538758D01*
X384640Y541082D01*
X386418Y542860D01*
X387493Y543305D01*
X387518Y543318D01*
X387544Y543327D01*
X387742Y543432D01*
X387942Y543534D01*
X387964Y543551D01*
X387988Y543563D01*
X388167Y543699D01*
X388349Y543831D01*
X388368Y543851D01*
X388390Y543867D01*
X388545Y544030D01*
X388703Y544189D01*
X388719Y544211D01*
X388738Y544231D01*
X388866Y544416D01*
X388997Y544598D01*
X389009Y544623D01*
X389024Y544645D01*
X389121Y544848D01*
X389222Y545049D01*
X389230Y545075D01*
X389242Y545099D01*
X389305Y545314D01*
X389373Y545529D01*
X389377Y545556D01*
X389384Y545582D01*
X389413Y545805D01*
X389446Y546027D01*
X389446Y546054D01*
X389449Y546081D01*
X389442Y546306D01*
X389440Y546531D01*
X389435Y546558D01*
X389434Y546585D01*
X389392Y546805D01*
X389354Y547027D01*
X389345Y547053D01*
X389340Y547079D01*
X389211Y547453D01*
X388677Y548742D01*
X388677Y551258D01*
X389640Y553582D01*
X391418Y555360D01*
X392493Y555805D01*
X392518Y555818D01*
X392544Y555827D01*
X392742Y555932D01*
X392942Y556034D01*
X392964Y556051D01*
X392988Y556063D01*
X393167Y556199D01*
X393349Y556331D01*
X393368Y556351D01*
X393390Y556367D01*
X393545Y556530D01*
X393703Y556689D01*
X393719Y556711D01*
X393738Y556731D01*
X393866Y556915D01*
X393997Y557098D01*
X394009Y557123D01*
X394024Y557145D01*
X394122Y557348D01*
X394222Y557549D01*
X394230Y557574D01*
X394242Y557599D01*
X394305Y557815D01*
X394373Y558029D01*
X394377Y558056D01*
X394385Y558082D01*
X394413Y558304D01*
X394446Y558527D01*
X394446Y558554D01*
X394449Y558581D01*
X394442Y558806D01*
X394440Y559030D01*
X394435Y559057D01*
X394434Y559085D01*
X394392Y559305D01*
X394354Y559527D01*
X394345Y559552D01*
X394340Y559579D01*
X394211Y559953D01*
X393677Y561242D01*
X393677Y563758D01*
X394640Y566082D01*
X396418Y567860D01*
X398742Y568823D01*
X401258Y568823D01*
X403582Y567860D01*
X405360Y566082D01*
X406323Y563758D01*
X406323Y561242D01*
X405360Y558918D01*
X403582Y557140D01*
X402507Y556695D01*
X402482Y556682D01*
X402456Y556673D01*
X402258Y556568D01*
X402058Y556466D01*
X402036Y556449D01*
X402012Y556437D01*
X401833Y556301D01*
X401651Y556169D01*
X401632Y556149D01*
X401610Y556133D01*
X401455Y555970D01*
X401297Y555811D01*
X401281Y555789D01*
X401262Y555769D01*
X401134Y555584D01*
X401003Y555402D01*
X400991Y555377D01*
X400976Y555355D01*
X400879Y555152D01*
X400778Y554951D01*
X400770Y554925D01*
X400758Y554901D01*
X400695Y554686D01*
X400627Y554471D01*
X400623Y554444D01*
X400616Y554418D01*
X400587Y554195D01*
X400554Y553973D01*
X400554Y553946D01*
X400551Y553919D01*
X400558Y553694D01*
X400560Y553469D01*
X400565Y553442D01*
X400566Y553415D01*
X400608Y553195D01*
X400646Y552973D01*
X400655Y552947D01*
X400660Y552921D01*
X400789Y552547D01*
X401323Y551258D01*
X401323Y548742D01*
X400360Y546418D01*
X398582Y544640D01*
X397507Y544195D01*
X397482Y544182D01*
X397456Y544173D01*
X397258Y544068D01*
X397058Y543966D01*
X397036Y543949D01*
X397012Y543937D01*
X396833Y543801D01*
X396651Y543669D01*
X396632Y543649D01*
X396610Y543633D01*
X396455Y543470D01*
X396297Y543311D01*
X396281Y543289D01*
X396262Y543269D01*
X396134Y543085D01*
X396003Y542902D01*
X395991Y542877D01*
X395976Y542855D01*
X395878Y542652D01*
X395778Y542451D01*
X395770Y542426D01*
X395758Y542401D01*
X395694Y542185D01*
X395627Y541971D01*
X395623Y541944D01*
X395615Y541918D01*
X395587Y541696D01*
X395554Y541473D01*
X395554Y541446D01*
X395551Y541419D01*
X395558Y541194D01*
X395560Y540970D01*
X395565Y540943D01*
X395566Y540915D01*
X395608Y540695D01*
X395646Y540473D01*
X395655Y540448D01*
X395660Y540421D01*
X395789Y540047D01*
X396323Y538758D01*
X396323Y536242D01*
X395360Y533918D01*
X393582Y532140D01*
X391258Y531177D01*
X388742Y531177D01*
G37*
%LPD*%
%LPC*%
G36*
X447979Y39839D02*
X447979Y39839D01*
X444244Y41386D01*
X441386Y44244D01*
X439839Y47979D01*
X439839Y52021D01*
X441386Y55756D01*
X444244Y58614D01*
X447979Y60161D01*
X452021Y60161D01*
X455756Y58614D01*
X458614Y55756D01*
X460161Y52021D01*
X460161Y47979D01*
X458614Y44244D01*
X455756Y41386D01*
X452021Y39839D01*
X447979Y39839D01*
G37*
%LPD*%
%LPC*%
G36*
X247979Y39839D02*
X247979Y39839D01*
X244244Y41386D01*
X241386Y44244D01*
X239839Y47979D01*
X239839Y52021D01*
X241386Y55756D01*
X244244Y58614D01*
X247979Y60161D01*
X252021Y60161D01*
X255756Y58614D01*
X258614Y55756D01*
X260161Y52021D01*
X260161Y47979D01*
X258614Y44244D01*
X255756Y41386D01*
X252021Y39839D01*
X247979Y39839D01*
G37*
%LPD*%
%LPC*%
G36*
X647979Y639839D02*
X647979Y639839D01*
X644244Y641386D01*
X641386Y644244D01*
X639839Y647979D01*
X639839Y652021D01*
X641386Y655756D01*
X644244Y658614D01*
X647979Y660161D01*
X652021Y660161D01*
X655756Y658614D01*
X658614Y655756D01*
X660161Y652021D01*
X660161Y647979D01*
X658614Y644244D01*
X655756Y641386D01*
X652021Y639839D01*
X647979Y639839D01*
G37*
%LPD*%
%LPC*%
G36*
X617979Y639839D02*
X617979Y639839D01*
X614244Y641386D01*
X611386Y644244D01*
X609839Y647979D01*
X609839Y652021D01*
X611386Y655756D01*
X614244Y658614D01*
X617979Y660161D01*
X622021Y660161D01*
X625756Y658614D01*
X628614Y655756D01*
X630161Y652021D01*
X630161Y647979D01*
X628614Y644244D01*
X625756Y641386D01*
X622021Y639839D01*
X617979Y639839D01*
G37*
%LPD*%
%LPC*%
G36*
X447979Y639839D02*
X447979Y639839D01*
X444244Y641386D01*
X441386Y644244D01*
X439839Y647979D01*
X439839Y652021D01*
X441386Y655756D01*
X444244Y658614D01*
X447979Y660161D01*
X452021Y660161D01*
X455756Y658614D01*
X458614Y655756D01*
X460161Y652021D01*
X460161Y647979D01*
X458614Y644244D01*
X455756Y641386D01*
X452021Y639839D01*
X447979Y639839D01*
G37*
%LPD*%
%LPC*%
G36*
X247979Y639839D02*
X247979Y639839D01*
X244244Y641386D01*
X241386Y644244D01*
X239839Y647979D01*
X239839Y652021D01*
X241386Y655756D01*
X244244Y658614D01*
X247979Y660161D01*
X252021Y660161D01*
X255756Y658614D01*
X258614Y655756D01*
X260161Y652021D01*
X260161Y647979D01*
X258614Y644244D01*
X255756Y641386D01*
X252021Y639839D01*
X247979Y639839D01*
G37*
%LPD*%
%LPC*%
G36*
X77979Y639839D02*
X77979Y639839D01*
X74244Y641386D01*
X71386Y644244D01*
X69839Y647979D01*
X69839Y652021D01*
X71386Y655756D01*
X74244Y658614D01*
X77979Y660161D01*
X82021Y660161D01*
X85756Y658614D01*
X88614Y655756D01*
X90161Y652021D01*
X90161Y647979D01*
X88614Y644244D01*
X85756Y641386D01*
X82021Y639839D01*
X77979Y639839D01*
G37*
%LPD*%
%LPC*%
G36*
X47979Y639839D02*
X47979Y639839D01*
X44244Y641386D01*
X41386Y644244D01*
X39839Y647979D01*
X39839Y652021D01*
X41386Y655756D01*
X44244Y658614D01*
X47979Y660161D01*
X52021Y660161D01*
X55756Y658614D01*
X58614Y655756D01*
X60161Y652021D01*
X60161Y647979D01*
X58614Y644244D01*
X55756Y641386D01*
X52021Y639839D01*
X47979Y639839D01*
G37*
%LPD*%
%LPC*%
G36*
X647979Y439839D02*
X647979Y439839D01*
X644244Y441386D01*
X641386Y444244D01*
X639839Y447979D01*
X639839Y452021D01*
X641386Y455756D01*
X644244Y458614D01*
X647979Y460161D01*
X652021Y460161D01*
X655756Y458614D01*
X658614Y455756D01*
X660161Y452021D01*
X660161Y447979D01*
X658614Y444244D01*
X655756Y441386D01*
X652021Y439839D01*
X647979Y439839D01*
G37*
%LPD*%
%LPC*%
G36*
X77979Y39839D02*
X77979Y39839D01*
X74244Y41386D01*
X71386Y44244D01*
X69839Y47979D01*
X69839Y52021D01*
X71386Y55756D01*
X74244Y58614D01*
X77979Y60161D01*
X82021Y60161D01*
X85756Y58614D01*
X88614Y55756D01*
X90161Y52021D01*
X90161Y47979D01*
X88614Y44244D01*
X85756Y41386D01*
X82021Y39839D01*
X77979Y39839D01*
G37*
%LPD*%
%LPC*%
G36*
X647979Y609839D02*
X647979Y609839D01*
X644244Y611386D01*
X641386Y614244D01*
X639839Y617979D01*
X639839Y622021D01*
X641386Y625756D01*
X644244Y628614D01*
X647979Y630161D01*
X652021Y630161D01*
X655756Y628614D01*
X658614Y625756D01*
X660161Y622021D01*
X660161Y617979D01*
X658614Y614244D01*
X655756Y611386D01*
X652021Y609839D01*
X647979Y609839D01*
G37*
%LPD*%
%LPC*%
G36*
X47979Y609839D02*
X47979Y609839D01*
X44244Y611386D01*
X41386Y614244D01*
X39839Y617979D01*
X39839Y622021D01*
X41386Y625756D01*
X44244Y628614D01*
X47979Y630161D01*
X52021Y630161D01*
X55756Y628614D01*
X58614Y625756D01*
X60161Y622021D01*
X60161Y617979D01*
X58614Y614244D01*
X55756Y611386D01*
X52021Y609839D01*
X47979Y609839D01*
G37*
%LPD*%
%LPC*%
G36*
X447979Y439839D02*
X447979Y439839D01*
X444244Y441386D01*
X441386Y444244D01*
X439839Y447979D01*
X439839Y452021D01*
X441386Y455756D01*
X444244Y458614D01*
X447979Y460161D01*
X452021Y460161D01*
X455756Y458614D01*
X458614Y455756D01*
X460161Y452021D01*
X460161Y447979D01*
X458614Y444244D01*
X455756Y441386D01*
X452021Y439839D01*
X447979Y439839D01*
G37*
%LPD*%
%LPC*%
G36*
X247979Y439839D02*
X247979Y439839D01*
X244244Y441386D01*
X241386Y444244D01*
X239839Y447979D01*
X239839Y452021D01*
X241386Y455756D01*
X244244Y458614D01*
X247979Y460161D01*
X252021Y460161D01*
X255756Y458614D01*
X258614Y455756D01*
X260161Y452021D01*
X260161Y447979D01*
X258614Y444244D01*
X255756Y441386D01*
X252021Y439839D01*
X247979Y439839D01*
G37*
%LPD*%
%LPC*%
G36*
X47979Y439839D02*
X47979Y439839D01*
X44244Y441386D01*
X41386Y444244D01*
X39839Y447979D01*
X39839Y452021D01*
X41386Y455756D01*
X44244Y458614D01*
X47979Y460161D01*
X52021Y460161D01*
X55756Y458614D01*
X58614Y455756D01*
X60161Y452021D01*
X60161Y447979D01*
X58614Y444244D01*
X55756Y441386D01*
X52021Y439839D01*
X47979Y439839D01*
G37*
%LPD*%
%LPC*%
G36*
X47979Y39839D02*
X47979Y39839D01*
X44244Y41386D01*
X41386Y44244D01*
X39839Y47979D01*
X39839Y52021D01*
X41386Y55756D01*
X44244Y58614D01*
X47979Y60161D01*
X52021Y60161D01*
X55756Y58614D01*
X58614Y55756D01*
X60161Y52021D01*
X60161Y47979D01*
X58614Y44244D01*
X55756Y41386D01*
X52021Y39839D01*
X47979Y39839D01*
G37*
%LPD*%
%LPC*%
G36*
X647979Y239839D02*
X647979Y239839D01*
X644244Y241386D01*
X641386Y244244D01*
X639839Y247979D01*
X639839Y252021D01*
X641386Y255756D01*
X644244Y258614D01*
X647979Y260161D01*
X652021Y260161D01*
X655756Y258614D01*
X658614Y255756D01*
X660161Y252021D01*
X660161Y247979D01*
X658614Y244244D01*
X655756Y241386D01*
X652021Y239839D01*
X647979Y239839D01*
G37*
%LPD*%
%LPC*%
G36*
X447979Y239839D02*
X447979Y239839D01*
X444244Y241386D01*
X441386Y244244D01*
X439839Y247979D01*
X439839Y252021D01*
X441386Y255756D01*
X444244Y258614D01*
X447979Y260161D01*
X452021Y260161D01*
X455756Y258614D01*
X458614Y255756D01*
X460161Y252021D01*
X460161Y247979D01*
X458614Y244244D01*
X455756Y241386D01*
X452021Y239839D01*
X447979Y239839D01*
G37*
%LPD*%
%LPC*%
G36*
X247979Y239839D02*
X247979Y239839D01*
X244244Y241386D01*
X241386Y244244D01*
X239839Y247979D01*
X239839Y252021D01*
X241386Y255756D01*
X244244Y258614D01*
X247979Y260161D01*
X252021Y260161D01*
X255756Y258614D01*
X258614Y255756D01*
X260161Y252021D01*
X260161Y247979D01*
X258614Y244244D01*
X255756Y241386D01*
X252021Y239839D01*
X247979Y239839D01*
G37*
%LPD*%
%LPC*%
G36*
X47979Y239839D02*
X47979Y239839D01*
X44244Y241386D01*
X41386Y244244D01*
X39839Y247979D01*
X39839Y252021D01*
X41386Y255756D01*
X44244Y258614D01*
X47979Y260161D01*
X52021Y260161D01*
X55756Y258614D01*
X58614Y255756D01*
X60161Y252021D01*
X60161Y247979D01*
X58614Y244244D01*
X55756Y241386D01*
X52021Y239839D01*
X47979Y239839D01*
G37*
%LPD*%
%LPC*%
G36*
X647979Y69839D02*
X647979Y69839D01*
X644244Y71386D01*
X641386Y74244D01*
X639839Y77979D01*
X639839Y82021D01*
X641386Y85756D01*
X644244Y88614D01*
X647979Y90161D01*
X652021Y90161D01*
X655756Y88614D01*
X658614Y85756D01*
X660161Y82021D01*
X660161Y77979D01*
X658614Y74244D01*
X655756Y71386D01*
X652021Y69839D01*
X647979Y69839D01*
G37*
%LPD*%
%LPC*%
G36*
X47979Y69839D02*
X47979Y69839D01*
X44244Y71386D01*
X41386Y74244D01*
X39839Y77979D01*
X39839Y82021D01*
X41386Y85756D01*
X44244Y88614D01*
X47979Y90161D01*
X52021Y90161D01*
X55756Y88614D01*
X58614Y85756D01*
X60161Y82021D01*
X60161Y77979D01*
X58614Y74244D01*
X55756Y71386D01*
X52021Y69839D01*
X47979Y69839D01*
G37*
%LPD*%
%LPC*%
G36*
X647979Y39839D02*
X647979Y39839D01*
X644244Y41386D01*
X641386Y44244D01*
X639839Y47979D01*
X639839Y52021D01*
X641386Y55756D01*
X644244Y58614D01*
X647979Y60161D01*
X652021Y60161D01*
X655756Y58614D01*
X658614Y55756D01*
X660161Y52021D01*
X660161Y47979D01*
X658614Y44244D01*
X655756Y41386D01*
X652021Y39839D01*
X647979Y39839D01*
G37*
%LPD*%
%LPC*%
G36*
X617979Y39839D02*
X617979Y39839D01*
X614244Y41386D01*
X611386Y44244D01*
X609839Y47979D01*
X609839Y52021D01*
X611386Y55756D01*
X614244Y58614D01*
X617979Y60161D01*
X622021Y60161D01*
X625756Y58614D01*
X628614Y55756D01*
X630161Y52021D01*
X630161Y47979D01*
X628614Y44244D01*
X625756Y41386D01*
X622021Y39839D01*
X617979Y39839D01*
G37*
%LPD*%
%LPC*%
G36*
X547995Y399919D02*
X547995Y399919D01*
X544290Y401454D01*
X541454Y404290D01*
X539919Y407995D01*
X539919Y412005D01*
X541454Y415710D01*
X544290Y418546D01*
X547995Y420081D01*
X552005Y420081D01*
X555710Y418546D01*
X558546Y415710D01*
X560081Y412005D01*
X560081Y407995D01*
X558546Y404290D01*
X555710Y401454D01*
X552005Y399919D01*
X547995Y399919D01*
G37*
%LPD*%
%LPC*%
G36*
X358742Y556177D02*
X358742Y556177D01*
X356418Y557140D01*
X354640Y558918D01*
X353677Y561242D01*
X353677Y563758D01*
X354640Y566082D01*
X356418Y567860D01*
X358742Y568823D01*
X361258Y568823D01*
X363581Y567860D01*
X365255Y566186D01*
X365276Y566168D01*
X365294Y566148D01*
X365467Y566006D01*
X365639Y565860D01*
X365662Y565845D01*
X365683Y565828D01*
X365877Y565714D01*
X366069Y565598D01*
X366094Y565587D01*
X366117Y565573D01*
X366327Y565492D01*
X366535Y565407D01*
X366561Y565401D01*
X366587Y565391D01*
X366806Y565343D01*
X367025Y565292D01*
X367052Y565290D01*
X367079Y565285D01*
X367303Y565273D01*
X367527Y565257D01*
X367554Y565259D01*
X367582Y565258D01*
X367804Y565281D01*
X368029Y565301D01*
X368055Y565308D01*
X368082Y565310D01*
X368298Y565369D01*
X368517Y565424D01*
X368542Y565435D01*
X368569Y565442D01*
X368773Y565534D01*
X368980Y565623D01*
X369003Y565637D01*
X369028Y565648D01*
X369216Y565772D01*
X369405Y565892D01*
X369426Y565910D01*
X369448Y565925D01*
X369745Y566186D01*
X371418Y567860D01*
X373742Y568823D01*
X376258Y568823D01*
X378582Y567860D01*
X380360Y566082D01*
X381323Y563758D01*
X381323Y561242D01*
X380360Y558918D01*
X378582Y557140D01*
X376258Y556177D01*
X373742Y556177D01*
X371418Y557140D01*
X369745Y558814D01*
X369724Y558831D01*
X369706Y558852D01*
X369532Y558995D01*
X369361Y559140D01*
X369338Y559155D01*
X369317Y559172D01*
X369123Y559285D01*
X368931Y559402D01*
X368906Y559413D01*
X368883Y559427D01*
X368673Y559508D01*
X368465Y559593D01*
X368439Y559599D01*
X368413Y559609D01*
X368194Y559657D01*
X367975Y559708D01*
X367948Y559710D01*
X367921Y559715D01*
X367697Y559727D01*
X367473Y559743D01*
X367446Y559741D01*
X367418Y559742D01*
X367196Y559719D01*
X366971Y559699D01*
X366945Y559692D01*
X366918Y559690D01*
X366701Y559631D01*
X366483Y559576D01*
X366458Y559565D01*
X366431Y559558D01*
X366227Y559466D01*
X366020Y559377D01*
X365997Y559363D01*
X365972Y559352D01*
X365785Y559229D01*
X365595Y559108D01*
X365574Y559090D01*
X365551Y559075D01*
X365255Y558814D01*
X363581Y557140D01*
X361258Y556177D01*
X358742Y556177D01*
G37*
%LPD*%
%LPC*%
G36*
X284681Y302755D02*
X284681Y302755D01*
X281320Y304147D01*
X278747Y306720D01*
X277355Y310081D01*
X277355Y313719D01*
X278747Y317080D01*
X281320Y319653D01*
X284681Y321045D01*
X288319Y321045D01*
X291680Y319653D01*
X294253Y317080D01*
X295645Y313719D01*
X295645Y310081D01*
X294253Y306720D01*
X291680Y304147D01*
X288319Y302755D01*
X284681Y302755D01*
G37*
%LPD*%
%LPC*%
G36*
X386281Y302755D02*
X386281Y302755D01*
X382920Y304147D01*
X380347Y306720D01*
X378955Y310081D01*
X378955Y313719D01*
X380347Y317080D01*
X382920Y319653D01*
X386281Y321045D01*
X389919Y321045D01*
X393280Y319653D01*
X395853Y317080D01*
X397245Y313719D01*
X397245Y310081D01*
X395853Y306720D01*
X393280Y304147D01*
X389919Y302755D01*
X386281Y302755D01*
G37*
%LPD*%
%LPC*%
G36*
X411681Y378955D02*
X411681Y378955D01*
X408320Y380347D01*
X405747Y382920D01*
X404355Y386281D01*
X404355Y389919D01*
X405747Y393280D01*
X408320Y395853D01*
X411681Y397245D01*
X415319Y397245D01*
X418680Y395853D01*
X421253Y393280D01*
X422645Y389919D01*
X422645Y386281D01*
X421253Y382920D01*
X418680Y380347D01*
X415319Y378955D01*
X411681Y378955D01*
G37*
%LPD*%
%LPC*%
G36*
X437081Y378955D02*
X437081Y378955D01*
X433720Y380347D01*
X431147Y382920D01*
X429755Y386281D01*
X429755Y389919D01*
X431147Y393280D01*
X433720Y395853D01*
X437081Y397245D01*
X440719Y397245D01*
X444080Y395853D01*
X446653Y393280D01*
X448045Y389919D01*
X448045Y386281D01*
X446653Y382920D01*
X444080Y380347D01*
X440719Y378955D01*
X437081Y378955D01*
G37*
%LPD*%
%LPC*%
G36*
X386281Y378955D02*
X386281Y378955D01*
X382920Y380347D01*
X380347Y382920D01*
X378955Y386281D01*
X378955Y389919D01*
X380347Y393280D01*
X382920Y395853D01*
X386281Y397245D01*
X389919Y397245D01*
X393280Y395853D01*
X395853Y393280D01*
X397245Y389919D01*
X397245Y386281D01*
X395853Y382920D01*
X393280Y380347D01*
X389919Y378955D01*
X386281Y378955D01*
G37*
%LPD*%
%LPC*%
G36*
X411681Y302755D02*
X411681Y302755D01*
X408320Y304147D01*
X405747Y306720D01*
X404355Y310081D01*
X404355Y313719D01*
X405747Y317080D01*
X408320Y319653D01*
X411681Y321045D01*
X415319Y321045D01*
X418680Y319653D01*
X421253Y317080D01*
X422645Y313719D01*
X422645Y310081D01*
X421253Y306720D01*
X418680Y304147D01*
X415319Y302755D01*
X411681Y302755D01*
G37*
%LPD*%
%LPC*%
G36*
X462481Y302755D02*
X462481Y302755D01*
X459120Y304147D01*
X456547Y306720D01*
X455155Y310081D01*
X455155Y313719D01*
X456547Y317080D01*
X459120Y319653D01*
X462481Y321045D01*
X466119Y321045D01*
X469480Y319653D01*
X472053Y317080D01*
X473445Y313719D01*
X473445Y310081D01*
X472053Y306720D01*
X469480Y304147D01*
X466119Y302755D01*
X462481Y302755D01*
G37*
%LPD*%
%LPC*%
G36*
X233881Y302755D02*
X233881Y302755D01*
X230520Y304147D01*
X227947Y306720D01*
X226555Y310081D01*
X226555Y313719D01*
X227947Y317080D01*
X230520Y319653D01*
X233881Y321045D01*
X237519Y321045D01*
X240880Y319653D01*
X243453Y317080D01*
X244845Y313719D01*
X244845Y310081D01*
X243453Y306720D01*
X240880Y304147D01*
X237519Y302755D01*
X233881Y302755D01*
G37*
%LPD*%
%LPC*%
G36*
X437081Y302755D02*
X437081Y302755D01*
X433720Y304147D01*
X431147Y306720D01*
X429755Y310081D01*
X429755Y313719D01*
X431147Y317080D01*
X433720Y319653D01*
X437081Y321045D01*
X440719Y321045D01*
X444080Y319653D01*
X446653Y317080D01*
X448045Y313719D01*
X448045Y310081D01*
X446653Y306720D01*
X444080Y304147D01*
X440719Y302755D01*
X437081Y302755D01*
G37*
%LPD*%
%LPC*%
G36*
X338742Y463677D02*
X338742Y463677D01*
X336418Y464640D01*
X334640Y466418D01*
X333677Y468742D01*
X333677Y471258D01*
X334640Y473582D01*
X336418Y475360D01*
X338742Y476323D01*
X341258Y476323D01*
X343582Y475360D01*
X345360Y473582D01*
X346323Y471258D01*
X346323Y468742D01*
X345360Y466418D01*
X343582Y464640D01*
X341258Y463677D01*
X338742Y463677D01*
G37*
%LPD*%
%LPC*%
G36*
X358742Y623677D02*
X358742Y623677D01*
X356418Y624640D01*
X354640Y626418D01*
X353677Y628742D01*
X353677Y631258D01*
X354640Y633582D01*
X356418Y635360D01*
X358742Y636323D01*
X361258Y636323D01*
X363582Y635360D01*
X365360Y633582D01*
X366323Y631258D01*
X366323Y628742D01*
X365360Y626418D01*
X363582Y624640D01*
X361258Y623677D01*
X358742Y623677D01*
G37*
%LPD*%
%LPC*%
G36*
X516242Y333677D02*
X516242Y333677D01*
X513918Y334640D01*
X512140Y336418D01*
X511177Y338742D01*
X511177Y341258D01*
X512140Y343582D01*
X513918Y345360D01*
X516242Y346323D01*
X518758Y346323D01*
X521082Y345360D01*
X522860Y343582D01*
X523823Y341258D01*
X523823Y338742D01*
X522860Y336418D01*
X521082Y334640D01*
X518758Y333677D01*
X516242Y333677D01*
G37*
%LPD*%
%LPC*%
G36*
X28742Y333677D02*
X28742Y333677D01*
X26418Y334640D01*
X24640Y336418D01*
X23677Y338742D01*
X23677Y341258D01*
X24640Y343582D01*
X26418Y345360D01*
X28742Y346323D01*
X31258Y346323D01*
X33582Y345360D01*
X35360Y343582D01*
X36323Y341258D01*
X36323Y338742D01*
X35360Y336418D01*
X33582Y334640D01*
X31258Y333677D01*
X28742Y333677D01*
G37*
%LPD*%
%LPC*%
G36*
X338742Y663677D02*
X338742Y663677D01*
X336418Y664640D01*
X334640Y666418D01*
X333677Y668742D01*
X333677Y671258D01*
X334640Y673582D01*
X336418Y675360D01*
X338742Y676323D01*
X341258Y676323D01*
X343582Y675360D01*
X345360Y673582D01*
X346323Y671258D01*
X346323Y668742D01*
X345360Y666418D01*
X343582Y664640D01*
X341258Y663677D01*
X338742Y663677D01*
G37*
%LPD*%
%LPC*%
G36*
X183742Y651177D02*
X183742Y651177D01*
X181418Y652140D01*
X179640Y653918D01*
X178677Y656242D01*
X178677Y658758D01*
X179640Y661082D01*
X181418Y662860D01*
X183742Y663823D01*
X186258Y663823D01*
X188582Y662860D01*
X190360Y661082D01*
X191323Y658758D01*
X191323Y656242D01*
X190360Y653918D01*
X188582Y652140D01*
X186258Y651177D01*
X183742Y651177D01*
G37*
%LPD*%
%LPC*%
G36*
X513742Y636177D02*
X513742Y636177D01*
X511418Y637140D01*
X509640Y638918D01*
X508677Y641242D01*
X508677Y643758D01*
X509640Y646082D01*
X511418Y647860D01*
X513742Y648823D01*
X516258Y648823D01*
X518582Y647860D01*
X520360Y646082D01*
X521323Y643758D01*
X521323Y641242D01*
X520360Y638918D01*
X518582Y637140D01*
X516258Y636177D01*
X513742Y636177D01*
G37*
%LPD*%
%LPC*%
G36*
X293742Y566177D02*
X293742Y566177D01*
X291418Y567140D01*
X289640Y568918D01*
X288677Y571242D01*
X288677Y573758D01*
X289640Y576082D01*
X291418Y577860D01*
X293742Y578823D01*
X296258Y578823D01*
X298582Y577860D01*
X300360Y576082D01*
X301323Y573758D01*
X301323Y571242D01*
X300360Y568918D01*
X298582Y567140D01*
X296258Y566177D01*
X293742Y566177D01*
G37*
%LPD*%
%LPC*%
G36*
X608742Y183677D02*
X608742Y183677D01*
X606418Y184640D01*
X604640Y186418D01*
X603677Y188742D01*
X603677Y191258D01*
X604640Y193582D01*
X606418Y195360D01*
X608742Y196323D01*
X611258Y196323D01*
X613582Y195360D01*
X615360Y193582D01*
X616323Y191258D01*
X616323Y188742D01*
X615360Y186418D01*
X613582Y184640D01*
X611258Y183677D01*
X608742Y183677D01*
G37*
%LPD*%
%LPC*%
G36*
X641242Y178677D02*
X641242Y178677D01*
X638918Y179640D01*
X637140Y181418D01*
X636177Y183742D01*
X636177Y186258D01*
X637140Y188582D01*
X638918Y190360D01*
X641242Y191323D01*
X643758Y191323D01*
X646082Y190360D01*
X647860Y188582D01*
X648823Y186258D01*
X648823Y183742D01*
X647860Y181418D01*
X646082Y179640D01*
X643758Y178677D01*
X641242Y178677D01*
G37*
%LPD*%
%LPC*%
G36*
X41242Y178677D02*
X41242Y178677D01*
X38918Y179640D01*
X37140Y181418D01*
X36177Y183742D01*
X36177Y186258D01*
X37140Y188582D01*
X38918Y190360D01*
X41242Y191323D01*
X43758Y191323D01*
X46082Y190360D01*
X47860Y188582D01*
X48823Y186258D01*
X48823Y183742D01*
X47860Y181418D01*
X46082Y179640D01*
X43758Y178677D01*
X41242Y178677D01*
G37*
%LPD*%
%LPC*%
G36*
X273742Y566177D02*
X273742Y566177D01*
X271418Y567140D01*
X269640Y568918D01*
X268677Y571242D01*
X268677Y573758D01*
X269640Y576082D01*
X271418Y577860D01*
X273742Y578823D01*
X276258Y578823D01*
X278582Y577860D01*
X280360Y576082D01*
X281323Y573758D01*
X281323Y571242D01*
X280360Y568918D01*
X278582Y567140D01*
X276258Y566177D01*
X273742Y566177D01*
G37*
%LPD*%
%LPC*%
G36*
X388742Y153677D02*
X388742Y153677D01*
X386418Y154640D01*
X384640Y156418D01*
X383677Y158742D01*
X383677Y161258D01*
X384640Y163582D01*
X386418Y165360D01*
X388742Y166323D01*
X391258Y166323D01*
X393582Y165360D01*
X395360Y163582D01*
X396323Y161258D01*
X396323Y158742D01*
X395360Y156418D01*
X393582Y154640D01*
X391258Y153677D01*
X388742Y153677D01*
G37*
%LPD*%
%LPC*%
G36*
X388742Y133677D02*
X388742Y133677D01*
X386418Y134640D01*
X384640Y136418D01*
X383677Y138742D01*
X383677Y141258D01*
X384640Y143582D01*
X386418Y145360D01*
X388742Y146323D01*
X391258Y146323D01*
X393582Y145360D01*
X395360Y143582D01*
X396323Y141258D01*
X396323Y138742D01*
X395360Y136418D01*
X393582Y134640D01*
X391258Y133677D01*
X388742Y133677D01*
G37*
%LPD*%
%LPC*%
G36*
X563742Y128677D02*
X563742Y128677D01*
X561418Y129640D01*
X559640Y131418D01*
X558677Y133742D01*
X558677Y136258D01*
X559640Y138582D01*
X561418Y140360D01*
X563742Y141323D01*
X566258Y141323D01*
X568582Y140360D01*
X570360Y138582D01*
X571323Y136258D01*
X571323Y133742D01*
X570360Y131418D01*
X568582Y129640D01*
X566258Y128677D01*
X563742Y128677D01*
G37*
%LPD*%
%LPC*%
G36*
X133742Y128677D02*
X133742Y128677D01*
X131418Y129640D01*
X129640Y131418D01*
X128677Y133742D01*
X128677Y136258D01*
X129640Y138582D01*
X131418Y140360D01*
X133742Y141323D01*
X136258Y141323D01*
X138582Y140360D01*
X140360Y138582D01*
X141323Y136258D01*
X141323Y133742D01*
X140360Y131418D01*
X138582Y129640D01*
X136258Y128677D01*
X133742Y128677D01*
G37*
%LPD*%
%LPC*%
G36*
X378742Y93677D02*
X378742Y93677D01*
X376418Y94640D01*
X374640Y96418D01*
X373677Y98742D01*
X373677Y101258D01*
X374640Y103582D01*
X376418Y105360D01*
X378742Y106323D01*
X381258Y106323D01*
X383582Y105360D01*
X385360Y103582D01*
X386323Y101258D01*
X386323Y98742D01*
X385360Y96418D01*
X383582Y94640D01*
X381258Y93677D01*
X378742Y93677D01*
G37*
%LPD*%
%LPC*%
G36*
X358742Y223677D02*
X358742Y223677D01*
X356418Y224640D01*
X354640Y226418D01*
X353677Y228742D01*
X353677Y231258D01*
X354640Y233582D01*
X356418Y235360D01*
X358742Y236323D01*
X361258Y236323D01*
X363582Y235360D01*
X365360Y233582D01*
X366323Y231258D01*
X366323Y228742D01*
X365360Y226418D01*
X363582Y224640D01*
X361258Y223677D01*
X358742Y223677D01*
G37*
%LPD*%
%LPC*%
G36*
X133742Y558677D02*
X133742Y558677D01*
X131418Y559640D01*
X129640Y561418D01*
X128677Y563742D01*
X128677Y566258D01*
X129640Y568582D01*
X131418Y570360D01*
X133742Y571323D01*
X136258Y571323D01*
X138582Y570360D01*
X140360Y568582D01*
X141323Y566258D01*
X141323Y563742D01*
X140360Y561418D01*
X138582Y559640D01*
X136258Y558677D01*
X133742Y558677D01*
G37*
%LPD*%
%LPC*%
G36*
X183742Y51177D02*
X183742Y51177D01*
X181418Y52140D01*
X179640Y53918D01*
X178677Y56242D01*
X178677Y58758D01*
X179640Y61082D01*
X181418Y62860D01*
X183742Y63823D01*
X186258Y63823D01*
X188582Y62860D01*
X190360Y61082D01*
X191323Y58758D01*
X191323Y56242D01*
X190360Y53918D01*
X188582Y52140D01*
X186258Y51177D01*
X183742Y51177D01*
G37*
%LPD*%
%LPC*%
G36*
X358742Y533677D02*
X358742Y533677D01*
X356418Y534640D01*
X354640Y536418D01*
X353677Y538742D01*
X353677Y541258D01*
X354640Y543582D01*
X356418Y545360D01*
X358742Y546323D01*
X361258Y546323D01*
X363582Y545360D01*
X365360Y543582D01*
X366323Y541258D01*
X366323Y538742D01*
X365360Y536418D01*
X363582Y534640D01*
X361258Y533677D01*
X358742Y533677D01*
G37*
%LPD*%
%LPC*%
G36*
X318742Y533677D02*
X318742Y533677D01*
X316418Y534640D01*
X314640Y536418D01*
X313677Y538742D01*
X313677Y541258D01*
X314640Y543582D01*
X316418Y545360D01*
X318742Y546323D01*
X321258Y546323D01*
X323582Y545360D01*
X325360Y543582D01*
X326323Y541258D01*
X326323Y538742D01*
X325360Y536418D01*
X323582Y534640D01*
X321258Y533677D01*
X318742Y533677D01*
G37*
%LPD*%
%LPC*%
G36*
X656242Y508677D02*
X656242Y508677D01*
X653918Y509640D01*
X652140Y511418D01*
X651177Y513742D01*
X651177Y516258D01*
X652140Y518582D01*
X653918Y520360D01*
X656242Y521323D01*
X658758Y521323D01*
X661082Y520360D01*
X662860Y518582D01*
X663823Y516258D01*
X663823Y513742D01*
X662860Y511418D01*
X661082Y509640D01*
X658758Y508677D01*
X656242Y508677D01*
G37*
%LPD*%
%LPC*%
G36*
X56242Y508677D02*
X56242Y508677D01*
X53918Y509640D01*
X52140Y511418D01*
X51177Y513742D01*
X51177Y516258D01*
X52140Y518582D01*
X53918Y520360D01*
X56242Y521323D01*
X58758Y521323D01*
X61082Y520360D01*
X62860Y518582D01*
X63823Y516258D01*
X63823Y513742D01*
X62860Y511418D01*
X61082Y509640D01*
X58758Y508677D01*
X56242Y508677D01*
G37*
%LPD*%
%LPC*%
G36*
X388742Y493677D02*
X388742Y493677D01*
X386418Y494640D01*
X384640Y496418D01*
X383677Y498742D01*
X383677Y501258D01*
X384640Y503582D01*
X386418Y505360D01*
X388742Y506323D01*
X391258Y506323D01*
X393582Y505360D01*
X395360Y503582D01*
X396323Y501258D01*
X396323Y498742D01*
X395360Y496418D01*
X393582Y494640D01*
X391258Y493677D01*
X388742Y493677D01*
G37*
%LPD*%
%LPC*%
G36*
X608742Y463677D02*
X608742Y463677D01*
X606418Y464640D01*
X604640Y466418D01*
X603677Y468742D01*
X603677Y471258D01*
X604640Y473582D01*
X606418Y475360D01*
X608742Y476323D01*
X611258Y476323D01*
X613582Y475360D01*
X615360Y473582D01*
X616323Y471258D01*
X616323Y468742D01*
X615360Y466418D01*
X613582Y464640D01*
X611258Y463677D01*
X608742Y463677D01*
G37*
%LPD*%
%LPC*%
G36*
X513742Y36177D02*
X513742Y36177D01*
X511418Y37140D01*
X509640Y38918D01*
X508677Y41242D01*
X508677Y43758D01*
X509640Y46082D01*
X511418Y47860D01*
X513742Y48823D01*
X516258Y48823D01*
X518582Y47860D01*
X520360Y46082D01*
X521323Y43758D01*
X521323Y41242D01*
X520360Y38918D01*
X518582Y37140D01*
X516258Y36177D01*
X513742Y36177D01*
G37*
%LPD*%
%LPC*%
G36*
X358742Y23677D02*
X358742Y23677D01*
X356418Y24640D01*
X354640Y26418D01*
X353677Y28742D01*
X353677Y31258D01*
X354640Y33582D01*
X356418Y35360D01*
X358742Y36323D01*
X361258Y36323D01*
X363582Y35360D01*
X365360Y33582D01*
X366323Y31258D01*
X366323Y28742D01*
X365360Y26418D01*
X363582Y24640D01*
X361258Y23677D01*
X358742Y23677D01*
G37*
%LPD*%
%LPC*%
G36*
X653174Y283326D02*
X653174Y283326D01*
X659652Y283326D01*
X659416Y282600D01*
X658690Y281175D01*
X657750Y279881D01*
X656619Y278750D01*
X655325Y277810D01*
X653900Y277084D01*
X653174Y276848D01*
X653174Y283326D01*
G37*
%LPD*%
%LPC*%
G36*
X646100Y277084D02*
X646100Y277084D01*
X644675Y277810D01*
X643381Y278750D01*
X642250Y279881D01*
X641310Y281175D01*
X640584Y282600D01*
X640348Y283326D01*
X646826Y283326D01*
X646826Y276848D01*
X646100Y277084D01*
G37*
%LPD*%
%LPC*%
G36*
X467474Y391274D02*
X467474Y391274D01*
X467474Y396684D01*
X467810Y396575D01*
X469093Y395921D01*
X470257Y395075D01*
X471275Y394057D01*
X472121Y392893D01*
X472775Y391610D01*
X472884Y391274D01*
X467474Y391274D01*
G37*
%LPD*%
%LPC*%
G36*
X455716Y391274D02*
X455716Y391274D01*
X455825Y391610D01*
X456479Y392893D01*
X457325Y394057D01*
X458343Y395075D01*
X459507Y395921D01*
X460790Y396575D01*
X461126Y396684D01*
X461126Y391274D01*
X455716Y391274D01*
G37*
%LPD*%
%LPC*%
G36*
X467474Y384926D02*
X467474Y384926D01*
X472884Y384926D01*
X472775Y384590D01*
X472121Y383307D01*
X471275Y382143D01*
X470257Y381125D01*
X469093Y380279D01*
X467810Y379625D01*
X467474Y379516D01*
X467474Y384926D01*
G37*
%LPD*%
%LPC*%
G36*
X460790Y379625D02*
X460790Y379625D01*
X459507Y380279D01*
X458343Y381125D01*
X457325Y382143D01*
X456479Y383307D01*
X455825Y384590D01*
X455716Y384926D01*
X461126Y384926D01*
X461126Y379516D01*
X460790Y379625D01*
G37*
%LPD*%
%LPC*%
G36*
X553174Y473174D02*
X553174Y473174D01*
X553174Y478517D01*
X553486Y478415D01*
X554759Y477767D01*
X555916Y476926D01*
X556926Y475916D01*
X557767Y474759D01*
X558415Y473486D01*
X558517Y473174D01*
X553174Y473174D01*
G37*
%LPD*%
%LPC*%
G36*
X601174Y443174D02*
X601174Y443174D01*
X601174Y448517D01*
X601486Y448415D01*
X602759Y447767D01*
X603916Y446926D01*
X604926Y445916D01*
X605767Y444759D01*
X606415Y443486D01*
X606517Y443174D01*
X601174Y443174D01*
G37*
%LPD*%
%LPC*%
G36*
X541483Y473174D02*
X541483Y473174D01*
X541585Y473486D01*
X542233Y474759D01*
X543074Y475916D01*
X544084Y476926D01*
X545241Y477767D01*
X546514Y478415D01*
X546826Y478517D01*
X546826Y473174D01*
X541483Y473174D01*
G37*
%LPD*%
%LPC*%
G36*
X601174Y436826D02*
X601174Y436826D01*
X606517Y436826D01*
X606415Y436514D01*
X605767Y435241D01*
X604926Y434084D01*
X603916Y433074D01*
X602759Y432233D01*
X601486Y431585D01*
X601174Y431483D01*
X601174Y436826D01*
G37*
%LPD*%
%LPC*%
G36*
X589483Y443174D02*
X589483Y443174D01*
X589585Y443486D01*
X590233Y444759D01*
X591074Y445916D01*
X592084Y446926D01*
X593241Y447767D01*
X594514Y448415D01*
X594826Y448517D01*
X594826Y443174D01*
X589483Y443174D01*
G37*
%LPD*%
%LPC*%
G36*
X553174Y466826D02*
X553174Y466826D01*
X558517Y466826D01*
X558415Y466514D01*
X557767Y465241D01*
X556926Y464084D01*
X555916Y463074D01*
X554759Y462233D01*
X553486Y461585D01*
X553174Y461483D01*
X553174Y466826D01*
G37*
%LPD*%
%LPC*%
G36*
X594514Y431585D02*
X594514Y431585D01*
X593241Y432233D01*
X592084Y433074D01*
X591074Y434084D01*
X590233Y435241D01*
X589585Y436514D01*
X589483Y436826D01*
X594826Y436826D01*
X594826Y431483D01*
X594514Y431585D01*
G37*
%LPD*%
%LPC*%
G36*
X546514Y461585D02*
X546514Y461585D01*
X545241Y462233D01*
X544084Y463074D01*
X543074Y464084D01*
X542233Y465241D01*
X541585Y466514D01*
X541483Y466826D01*
X546826Y466826D01*
X546826Y461483D01*
X546514Y461585D01*
G37*
%LPD*%
D10*
X598000Y440000D03*
X550000Y470000D03*
D11*
X550000Y410000D03*
D12*
X50000Y50000D03*
X250000Y450000D03*
X450000Y450000D03*
X650000Y450000D03*
X50000Y650000D03*
X250000Y650000D03*
X450000Y650000D03*
X650000Y650000D03*
X80000Y50000D03*
X650000Y80000D03*
X620000Y650000D03*
X250000Y50000D03*
X50000Y620000D03*
X50000Y80000D03*
X620000Y50000D03*
X650000Y620000D03*
X80000Y650000D03*
X650000Y286500D03*
X650000Y311900D03*
X650000Y337300D03*
X650000Y362700D03*
X650000Y388100D03*
X650000Y413500D03*
X450000Y50000D03*
X650000Y50000D03*
X50000Y250000D03*
X250000Y250000D03*
X450000Y250000D03*
X650000Y250000D03*
X50000Y450000D03*
D13*
X464300Y311900D03*
X438900Y311900D03*
X311900Y311900D03*
X286500Y311900D03*
X413500Y311900D03*
X388100Y311900D03*
X337300Y311900D03*
X362700Y311900D03*
X261100Y311900D03*
X235700Y311900D03*
X235700Y388100D03*
X261100Y388100D03*
X286500Y388100D03*
X311900Y388100D03*
X337300Y388100D03*
X362700Y388100D03*
X388100Y388100D03*
X413500Y388100D03*
X438900Y388100D03*
X464300Y388100D03*
D14*
X60000Y185000D03*
X185000Y40000D03*
X515000Y60000D03*
X640000Y515000D03*
X185000Y640000D03*
X20000Y100000D03*
X20000Y50000D03*
X50000Y20000D03*
X100000Y20000D03*
X150000Y20000D03*
X200000Y20000D03*
X250000Y20000D03*
X300000Y20000D03*
X350000Y20000D03*
X400000Y20000D03*
X450000Y20000D03*
X500000Y20000D03*
X550000Y20000D03*
X600000Y20000D03*
X650000Y20000D03*
X680000Y50000D03*
X680000Y100000D03*
X680000Y150000D03*
X680000Y200000D03*
X680000Y250000D03*
X680000Y300000D03*
X680000Y350000D03*
X680000Y400000D03*
X680000Y450000D03*
X680000Y500000D03*
X680000Y550000D03*
X680000Y600000D03*
X680000Y650000D03*
X650000Y680000D03*
X600000Y680000D03*
X550000Y680000D03*
X500000Y680000D03*
X450000Y680000D03*
X400000Y680000D03*
X350000Y680000D03*
X300000Y680000D03*
X250000Y680000D03*
X200000Y680000D03*
X150000Y680000D03*
X100000Y680000D03*
X50000Y680000D03*
X20000Y650000D03*
X20000Y600000D03*
X20000Y550000D03*
X20000Y500000D03*
X20000Y450000D03*
X20000Y400000D03*
X20000Y350000D03*
X20000Y300000D03*
X20000Y250000D03*
X20000Y200000D03*
X20000Y150000D03*
X100000Y250000D03*
X150000Y150000D03*
X200000Y150000D03*
X200000Y100000D03*
X250000Y100000D03*
X450000Y100000D03*
X500000Y100000D03*
X500000Y150000D03*
X450000Y150000D03*
X400000Y100000D03*
X600000Y250000D03*
X150000Y450000D03*
X100000Y450000D03*
X200000Y500000D03*
X250000Y550000D03*
X200000Y600000D03*
X450000Y600000D03*
X500000Y600000D03*
X450000Y500000D03*
X500000Y400000D03*
X600000Y350000D03*
X600000Y300000D03*
X200000Y300000D03*
X300000Y150000D03*
X300000Y500000D03*
X150000Y500000D03*
X150000Y600000D03*
X350000Y250000D03*
X350000Y450000D03*
X350000Y650000D03*
X350000Y50000D03*
X50000Y350000D03*
X95000Y60000D03*
X640000Y95000D03*
X605000Y640000D03*
X60000Y605000D03*
X42500Y185000D03*
X185000Y57500D03*
X515000Y42500D03*
X642500Y185000D03*
X657500Y515000D03*
X515000Y642500D03*
X185000Y657500D03*
X57500Y515000D03*
X215000Y357500D03*
X517500Y340000D03*
X360000Y230000D03*
X340000Y160000D03*
X610000Y190000D03*
X320000Y100000D03*
X340000Y270000D03*
X340000Y140000D03*
X30000Y340000D03*
X350000Y150000D03*
X565000Y135000D03*
X390000Y160000D03*
X360000Y30000D03*
X380000Y100000D03*
X340000Y70000D03*
X390000Y140000D03*
X135000Y135000D03*
X360000Y160000D03*
X360000Y630000D03*
X360000Y562500D03*
X565000Y565000D03*
X320000Y540000D03*
X340000Y670000D03*
X375000Y562500D03*
X135000Y565000D03*
X360000Y540000D03*
X610000Y470000D03*
X395000Y550000D03*
X360000Y430000D03*
X390000Y537500D03*
X340000Y470000D03*
X390000Y500000D03*
X70000Y360000D03*
X400000Y562500D03*
X110000Y300000D03*
X607500Y537500D03*
D15*
X130645Y300092D02*
X110092Y300092D01*
X110000Y300000D01*
X130645Y300092D02*
X145829Y284908D01*
X607150Y537850D02*
X607500Y537500D01*
X607150Y537850D02*
X576822Y537850D01*
X350000Y292500D02*
X342408Y284908D01*
X350000Y292500D02*
X350000Y402500D01*
X357500Y410000D01*
X448972Y410000D02*
X576822Y537850D01*
X342408Y284908D02*
X145829Y284908D01*
X357500Y410000D02*
X448972Y410000D01*
D14*
X120000Y290000D03*
X537500Y95000D03*
D15*
X525000Y82500D01*
X317500Y82500D02*
X120000Y280000D01*
X120000Y290000D01*
X317500Y82500D02*
X525000Y82500D01*
D14*
X170000Y300000D03*
D15*
X180012Y289988D01*
X317488Y289988D02*
X325000Y297500D01*
X325000Y402500D01*
X552500Y520712D02*
X552500Y607500D01*
D14*
X552500Y607500D03*
D15*
X317488Y289988D02*
X180012Y289988D01*
X325000Y402500D02*
X337580Y415080D01*
X446868Y415080D01*
X552500Y520712D01*
D14*
X170000Y270000D03*
X607500Y147500D03*
D15*
X552408Y202592D01*
X237408Y202592D01*
X170000Y270000D01*
D14*
X295000Y572500D03*
X275000Y572500D03*
X150000Y300000D03*
D15*
X80000Y370000D01*
X80000Y540000D02*
X92500Y552500D01*
D14*
X92500Y552500D03*
D15*
X80000Y540000D02*
X80000Y370000D01*
D14*
X140000Y400000D03*
D15*
X261100Y363916D02*
X261100Y311900D01*
X142500Y402500D02*
X140000Y400000D01*
X142500Y402500D02*
X263928Y402500D01*
X271514Y394914D01*
X271514Y374330D01*
X261100Y363916D01*
D14*
X130000Y410000D03*
D15*
X274600Y410000D01*
X286500Y398100D02*
X286500Y388100D01*
X286500Y398100D02*
X274600Y410000D01*
D14*
X110000Y400000D03*
D15*
X137500Y372500D01*
X255000Y372500D01*
X261100Y378600D01*
X261100Y388100D01*
D14*
X90000Y410000D03*
D15*
X115645Y410092D02*
X137637Y388100D01*
X235700Y388100D01*
X115645Y410092D02*
X90092Y410092D01*
X90000Y410000D01*
M02*
