G04 EAGLE Gerber RS-274X export*
G75*
%MOMM*%
%FSLAX34Y34*%
%LPD*%
%INCopper Layer 2*%
%IPPOS*%
%AMOC8*
5,1,8,0,0,1.08239X$1,22.5*%
G01*
%ADD10C,1.308000*%
%ADD11C,1.508000*%
%ADD12C,1.524000*%
%ADD13C,1.320800*%
%ADD14C,0.756400*%
%ADD15C,1.270000*%

G36*
X670080Y10167D02*
X670080Y10167D01*
X670208Y10168D01*
X672383Y10310D01*
X672496Y10327D01*
X672610Y10333D01*
X672787Y10369D01*
X672881Y10383D01*
X672929Y10398D01*
X672997Y10411D01*
X677199Y11537D01*
X677404Y11610D01*
X677611Y11679D01*
X677646Y11696D01*
X677673Y11706D01*
X677753Y11750D01*
X677965Y11855D01*
X681732Y14030D01*
X681911Y14153D01*
X682094Y14273D01*
X682123Y14299D01*
X682147Y14315D01*
X682213Y14378D01*
X682390Y14534D01*
X685466Y17610D01*
X685607Y17776D01*
X685752Y17939D01*
X685773Y17971D01*
X685792Y17994D01*
X685840Y18071D01*
X685970Y18268D01*
X688145Y22035D01*
X688239Y22232D01*
X688337Y22427D01*
X688349Y22464D01*
X688362Y22490D01*
X688387Y22577D01*
X688463Y22801D01*
X689589Y27003D01*
X689609Y27115D01*
X689640Y27226D01*
X689663Y27405D01*
X689680Y27498D01*
X689681Y27548D01*
X689690Y27617D01*
X689832Y29792D01*
X689831Y29873D01*
X689839Y30000D01*
X689839Y670000D01*
X689833Y670080D01*
X689832Y670208D01*
X689690Y672383D01*
X689673Y672496D01*
X689667Y672610D01*
X689631Y672787D01*
X689617Y672881D01*
X689602Y672929D01*
X689589Y672997D01*
X688463Y677199D01*
X688390Y677404D01*
X688321Y677611D01*
X688304Y677646D01*
X688294Y677673D01*
X688250Y677753D01*
X688145Y677965D01*
X685970Y681732D01*
X685847Y681911D01*
X685727Y682094D01*
X685701Y682123D01*
X685685Y682147D01*
X685622Y682213D01*
X685466Y682390D01*
X682390Y685466D01*
X682224Y685607D01*
X682061Y685752D01*
X682029Y685773D01*
X682006Y685792D01*
X681929Y685840D01*
X681732Y685970D01*
X677965Y688145D01*
X677768Y688239D01*
X677573Y688337D01*
X677536Y688349D01*
X677510Y688362D01*
X677423Y688387D01*
X677199Y688463D01*
X672997Y689589D01*
X672885Y689609D01*
X672774Y689640D01*
X672595Y689663D01*
X672502Y689680D01*
X672452Y689681D01*
X672383Y689690D01*
X670208Y689832D01*
X670127Y689831D01*
X670000Y689839D01*
X30000Y689839D01*
X29920Y689833D01*
X29792Y689832D01*
X27617Y689690D01*
X27504Y689673D01*
X27390Y689667D01*
X27213Y689631D01*
X27119Y689617D01*
X27071Y689602D01*
X27003Y689589D01*
X22801Y688463D01*
X22596Y688390D01*
X22389Y688321D01*
X22354Y688304D01*
X22327Y688294D01*
X22247Y688250D01*
X22035Y688145D01*
X18268Y685970D01*
X18089Y685847D01*
X17906Y685727D01*
X17877Y685701D01*
X17853Y685685D01*
X17787Y685622D01*
X17610Y685466D01*
X14534Y682390D01*
X14393Y682224D01*
X14248Y682061D01*
X14227Y682029D01*
X14208Y682006D01*
X14160Y681929D01*
X14030Y681732D01*
X11855Y677965D01*
X11761Y677768D01*
X11663Y677573D01*
X11651Y677536D01*
X11638Y677510D01*
X11613Y677423D01*
X11537Y677199D01*
X10411Y672997D01*
X10391Y672885D01*
X10360Y672774D01*
X10337Y672595D01*
X10320Y672502D01*
X10319Y672452D01*
X10310Y672383D01*
X10168Y670208D01*
X10169Y670127D01*
X10161Y670000D01*
X10161Y30000D01*
X10167Y29920D01*
X10168Y29792D01*
X10310Y27617D01*
X10327Y27504D01*
X10333Y27390D01*
X10369Y27213D01*
X10383Y27119D01*
X10398Y27071D01*
X10411Y27003D01*
X11537Y22801D01*
X11610Y22596D01*
X11679Y22389D01*
X11696Y22354D01*
X11706Y22327D01*
X11750Y22247D01*
X11855Y22035D01*
X14030Y18268D01*
X14153Y18089D01*
X14273Y17906D01*
X14299Y17877D01*
X14315Y17853D01*
X14378Y17787D01*
X14534Y17610D01*
X17610Y14534D01*
X17776Y14393D01*
X17939Y14248D01*
X17971Y14227D01*
X17994Y14208D01*
X18071Y14160D01*
X18268Y14030D01*
X22035Y11855D01*
X22128Y11811D01*
X22216Y11758D01*
X22323Y11715D01*
X22427Y11663D01*
X22464Y11651D01*
X22490Y11638D01*
X22577Y11613D01*
X22596Y11606D01*
X22683Y11571D01*
X22733Y11560D01*
X22801Y11537D01*
X27003Y10411D01*
X27115Y10391D01*
X27226Y10360D01*
X27405Y10337D01*
X27498Y10320D01*
X27548Y10319D01*
X27617Y10310D01*
X29792Y10168D01*
X29873Y10169D01*
X30000Y10161D01*
X670000Y10161D01*
X670080Y10167D01*
G37*
%LPC*%
G36*
X513232Y33609D02*
X513232Y33609D01*
X509964Y34963D01*
X507463Y37464D01*
X506109Y40732D01*
X506109Y44268D01*
X507463Y47536D01*
X544282Y84356D01*
X544368Y84457D01*
X544462Y84551D01*
X544531Y84648D01*
X544609Y84739D01*
X544678Y84852D01*
X544755Y84960D01*
X544809Y85067D01*
X544871Y85169D01*
X544921Y85292D01*
X544981Y85411D01*
X545016Y85524D01*
X545062Y85635D01*
X545092Y85764D01*
X545132Y85891D01*
X545149Y86009D01*
X545176Y86125D01*
X545186Y86258D01*
X545205Y86389D01*
X545203Y86508D01*
X545212Y86627D01*
X545200Y86760D01*
X545198Y86893D01*
X545178Y87010D01*
X545168Y87129D01*
X545135Y87258D01*
X545112Y87389D01*
X545074Y87501D01*
X545045Y87617D01*
X544992Y87739D01*
X544949Y87865D01*
X544893Y87970D01*
X544846Y88080D01*
X544775Y88192D01*
X544712Y88309D01*
X544640Y88404D01*
X544577Y88505D01*
X544489Y88605D01*
X544408Y88711D01*
X544322Y88793D01*
X544243Y88883D01*
X544141Y88967D01*
X544045Y89059D01*
X543947Y89127D01*
X543855Y89203D01*
X543740Y89270D01*
X543631Y89346D01*
X543523Y89397D01*
X543420Y89457D01*
X543296Y89506D01*
X543177Y89563D01*
X543062Y89597D01*
X542951Y89640D01*
X542821Y89668D01*
X542694Y89706D01*
X542575Y89721D01*
X542459Y89746D01*
X542326Y89753D01*
X542194Y89770D01*
X542075Y89767D01*
X541956Y89773D01*
X541824Y89759D01*
X541691Y89755D01*
X541574Y89733D01*
X541455Y89720D01*
X541327Y89686D01*
X541196Y89661D01*
X541055Y89612D01*
X540969Y89589D01*
X540911Y89563D01*
X540823Y89533D01*
X538758Y88677D01*
X536242Y88677D01*
X533918Y89640D01*
X532140Y91418D01*
X531177Y93742D01*
X531177Y96258D01*
X532140Y98582D01*
X533918Y100360D01*
X536242Y101323D01*
X538758Y101323D01*
X541387Y100234D01*
X541503Y100163D01*
X541516Y100158D01*
X541528Y100150D01*
X541748Y100062D01*
X541969Y99972D01*
X541983Y99969D01*
X541996Y99964D01*
X542228Y99912D01*
X542459Y99857D01*
X542473Y99856D01*
X542487Y99853D01*
X542723Y99839D01*
X542961Y99822D01*
X542976Y99823D01*
X542989Y99822D01*
X543226Y99845D01*
X543463Y99866D01*
X543477Y99869D01*
X543491Y99870D01*
X543721Y99931D01*
X543951Y99989D01*
X543964Y99994D01*
X543978Y99998D01*
X544195Y100093D01*
X544414Y100187D01*
X544426Y100195D01*
X544439Y100200D01*
X544639Y100330D01*
X544840Y100456D01*
X544850Y100466D01*
X544862Y100473D01*
X545039Y100633D01*
X545217Y100789D01*
X545226Y100800D01*
X545237Y100810D01*
X545386Y100994D01*
X545537Y101178D01*
X545544Y101190D01*
X545553Y101201D01*
X545671Y101406D01*
X545792Y101612D01*
X545797Y101626D01*
X545804Y101638D01*
X545888Y101860D01*
X545975Y102082D01*
X545978Y102095D01*
X545983Y102109D01*
X546031Y102340D01*
X546081Y102574D01*
X546082Y102588D01*
X546085Y102602D01*
X546109Y102996D01*
X546109Y243373D01*
X546108Y243386D01*
X546109Y243400D01*
X546088Y243638D01*
X546069Y243875D01*
X546066Y243888D01*
X546065Y243901D01*
X546006Y244135D01*
X545951Y244364D01*
X545945Y244376D01*
X545942Y244390D01*
X545847Y244610D01*
X545756Y244828D01*
X545749Y244840D01*
X545743Y244852D01*
X545616Y245054D01*
X545490Y245256D01*
X545481Y245266D01*
X545474Y245278D01*
X545317Y245456D01*
X545160Y245636D01*
X545150Y245645D01*
X545141Y245655D01*
X544957Y245806D01*
X544774Y245960D01*
X544762Y245967D01*
X544752Y245975D01*
X544547Y246096D01*
X544342Y246218D01*
X544329Y246223D01*
X544318Y246230D01*
X544095Y246317D01*
X543874Y246405D01*
X543861Y246408D01*
X543848Y246413D01*
X543615Y246463D01*
X543383Y246515D01*
X543369Y246516D01*
X543356Y246519D01*
X543119Y246531D01*
X542881Y246546D01*
X542867Y246545D01*
X542853Y246546D01*
X542619Y246521D01*
X542379Y246498D01*
X542366Y246494D01*
X542353Y246493D01*
X542124Y246431D01*
X541892Y246371D01*
X541880Y246365D01*
X541866Y246362D01*
X541649Y246264D01*
X541431Y246168D01*
X541420Y246161D01*
X541407Y246155D01*
X541208Y246024D01*
X541008Y245895D01*
X540998Y245886D01*
X540987Y245878D01*
X540690Y245617D01*
X497033Y201960D01*
X493765Y200606D01*
X341994Y200606D01*
X341954Y200603D01*
X341913Y200605D01*
X341703Y200583D01*
X341493Y200566D01*
X341453Y200557D01*
X341412Y200552D01*
X341208Y200497D01*
X341003Y200448D01*
X340966Y200432D01*
X340926Y200421D01*
X340733Y200334D01*
X340539Y200253D01*
X340504Y200231D01*
X340467Y200214D01*
X340290Y200098D01*
X340111Y199987D01*
X340080Y199960D01*
X340046Y199938D01*
X339750Y199677D01*
X190036Y49963D01*
X186768Y48609D01*
X183232Y48609D01*
X179964Y49963D01*
X177463Y52464D01*
X176109Y55732D01*
X176109Y59268D01*
X177463Y62536D01*
X310114Y195187D01*
X310123Y195198D01*
X310133Y195207D01*
X310287Y195390D01*
X310441Y195571D01*
X310448Y195582D01*
X310457Y195593D01*
X310578Y195796D01*
X310703Y196001D01*
X310708Y196013D01*
X310715Y196025D01*
X310803Y196244D01*
X310893Y196467D01*
X310897Y196480D01*
X310902Y196493D01*
X310954Y196725D01*
X311008Y196957D01*
X311009Y196971D01*
X311012Y196984D01*
X311027Y197223D01*
X311044Y197459D01*
X311043Y197473D01*
X311043Y197486D01*
X311020Y197724D01*
X310999Y197961D01*
X310996Y197974D01*
X310995Y197988D01*
X310935Y198218D01*
X310876Y198449D01*
X310871Y198462D01*
X310868Y198475D01*
X310772Y198693D01*
X310678Y198912D01*
X310671Y198923D01*
X310665Y198936D01*
X310535Y199137D01*
X310408Y199337D01*
X310399Y199347D01*
X310392Y199359D01*
X310232Y199537D01*
X310075Y199715D01*
X310065Y199723D01*
X310056Y199734D01*
X309870Y199884D01*
X309687Y200035D01*
X309675Y200042D01*
X309664Y200050D01*
X309458Y200169D01*
X309252Y200289D01*
X309239Y200294D01*
X309228Y200301D01*
X309006Y200385D01*
X308783Y200472D01*
X308769Y200475D01*
X308757Y200480D01*
X308524Y200528D01*
X308291Y200578D01*
X308277Y200579D01*
X308264Y200582D01*
X307870Y200606D01*
X64494Y200606D01*
X64454Y200603D01*
X64413Y200605D01*
X64203Y200583D01*
X63993Y200566D01*
X63953Y200557D01*
X63912Y200552D01*
X63708Y200497D01*
X63503Y200448D01*
X63466Y200432D01*
X63426Y200421D01*
X63233Y200334D01*
X63039Y200253D01*
X63004Y200231D01*
X62967Y200214D01*
X62790Y200098D01*
X62611Y199987D01*
X62580Y199960D01*
X62546Y199938D01*
X62250Y199677D01*
X52320Y189747D01*
X52294Y189716D01*
X52263Y189689D01*
X52131Y189524D01*
X51994Y189364D01*
X51972Y189329D01*
X51947Y189297D01*
X51842Y189115D01*
X51732Y188934D01*
X51716Y188896D01*
X51696Y188860D01*
X51621Y188664D01*
X51541Y188468D01*
X51532Y188428D01*
X51517Y188390D01*
X51475Y188183D01*
X51426Y187978D01*
X51424Y187937D01*
X51415Y187897D01*
X51391Y187503D01*
X51391Y183232D01*
X50037Y179964D01*
X47536Y177463D01*
X44268Y176109D01*
X40732Y176109D01*
X37464Y177463D01*
X34963Y179964D01*
X33609Y183232D01*
X33609Y194268D01*
X34963Y197536D01*
X54461Y217034D01*
X57729Y218388D01*
X355554Y218388D01*
X355687Y218398D01*
X355820Y218399D01*
X355937Y218418D01*
X356056Y218428D01*
X356185Y218459D01*
X356317Y218481D01*
X356430Y218518D01*
X356546Y218546D01*
X356668Y218598D01*
X356794Y218640D01*
X356900Y218695D01*
X357010Y218741D01*
X357123Y218811D01*
X357241Y218873D01*
X357336Y218944D01*
X357438Y219007D01*
X357538Y219094D01*
X357645Y219173D01*
X357728Y219259D01*
X357818Y219337D01*
X357904Y219439D01*
X357996Y219534D01*
X358065Y219631D01*
X358141Y219723D01*
X358210Y219837D01*
X358286Y219945D01*
X358339Y220053D01*
X358400Y220155D01*
X358449Y220278D01*
X358507Y220398D01*
X358542Y220512D01*
X358586Y220623D01*
X358616Y220752D01*
X358654Y220879D01*
X358671Y220998D01*
X358697Y221114D01*
X358705Y221246D01*
X358723Y221378D01*
X358721Y221498D01*
X358728Y221616D01*
X358715Y221749D01*
X358712Y221882D01*
X358691Y221999D01*
X358680Y222118D01*
X358646Y222246D01*
X358622Y222377D01*
X358583Y222489D01*
X358552Y222605D01*
X358499Y222727D01*
X358455Y222852D01*
X358398Y222957D01*
X358350Y223066D01*
X358278Y223178D01*
X358214Y223294D01*
X358142Y223388D01*
X358077Y223489D01*
X357988Y223588D01*
X357907Y223693D01*
X357820Y223775D01*
X357740Y223864D01*
X357637Y223947D01*
X357540Y224038D01*
X357442Y224105D01*
X357349Y224180D01*
X357234Y224246D01*
X357124Y224321D01*
X356989Y224387D01*
X356912Y224431D01*
X356853Y224454D01*
X356769Y224495D01*
X356418Y224640D01*
X354640Y226418D01*
X353677Y228742D01*
X353677Y231258D01*
X354640Y233582D01*
X356418Y235360D01*
X358742Y236323D01*
X361258Y236323D01*
X363582Y235360D01*
X365360Y233582D01*
X366323Y231258D01*
X366323Y228742D01*
X365360Y226418D01*
X363582Y224640D01*
X363231Y224495D01*
X363112Y224434D01*
X362990Y224383D01*
X362889Y224320D01*
X362783Y224266D01*
X362675Y224187D01*
X362562Y224117D01*
X362472Y224039D01*
X362376Y223969D01*
X362282Y223874D01*
X362182Y223787D01*
X362105Y223696D01*
X362021Y223611D01*
X361944Y223503D01*
X361859Y223401D01*
X361797Y223299D01*
X361728Y223202D01*
X361668Y223083D01*
X361600Y222969D01*
X361556Y222858D01*
X361503Y222752D01*
X361463Y222625D01*
X361414Y222501D01*
X361387Y222385D01*
X361352Y222271D01*
X361332Y222140D01*
X361303Y222010D01*
X361296Y221891D01*
X361278Y221773D01*
X361280Y221640D01*
X361272Y221508D01*
X361283Y221389D01*
X361285Y221270D01*
X361308Y221139D01*
X361320Y221006D01*
X361351Y220891D01*
X361371Y220773D01*
X361414Y220648D01*
X361448Y220519D01*
X361496Y220410D01*
X361534Y220297D01*
X361597Y220180D01*
X361650Y220058D01*
X361715Y219958D01*
X361771Y219853D01*
X361851Y219747D01*
X361923Y219635D01*
X362003Y219546D01*
X362075Y219451D01*
X362171Y219360D01*
X362260Y219260D01*
X362353Y219185D01*
X362438Y219103D01*
X362548Y219027D01*
X362651Y218944D01*
X362754Y218884D01*
X362853Y218816D01*
X362973Y218759D01*
X363088Y218693D01*
X363199Y218651D01*
X363307Y218599D01*
X363434Y218561D01*
X363558Y218514D01*
X363675Y218490D01*
X363790Y218456D01*
X363921Y218439D01*
X364052Y218412D01*
X364201Y218403D01*
X364289Y218392D01*
X364353Y218394D01*
X364446Y218388D01*
X487000Y218388D01*
X487040Y218391D01*
X487081Y218389D01*
X487291Y218411D01*
X487501Y218428D01*
X487541Y218437D01*
X487582Y218442D01*
X487786Y218497D01*
X487991Y218546D01*
X488028Y218562D01*
X488068Y218573D01*
X488261Y218660D01*
X488455Y218741D01*
X488490Y218763D01*
X488527Y218780D01*
X488704Y218896D01*
X488883Y219007D01*
X488914Y219034D01*
X488948Y219056D01*
X489244Y219317D01*
X545180Y275253D01*
X545206Y275284D01*
X545237Y275311D01*
X545369Y275476D01*
X545506Y275636D01*
X545528Y275671D01*
X545553Y275703D01*
X545658Y275885D01*
X545768Y276066D01*
X545784Y276104D01*
X545804Y276140D01*
X545879Y276336D01*
X545959Y276532D01*
X545968Y276572D01*
X545983Y276610D01*
X546025Y276817D01*
X546074Y277022D01*
X546076Y277063D01*
X546085Y277103D01*
X546109Y277497D01*
X546109Y398579D01*
X546097Y398739D01*
X546093Y398899D01*
X546077Y398989D01*
X546069Y399081D01*
X546032Y399237D01*
X546003Y399394D01*
X545972Y399481D01*
X545951Y399571D01*
X545889Y399718D01*
X545835Y399869D01*
X545791Y399950D01*
X545756Y400035D01*
X545671Y400171D01*
X545595Y400312D01*
X545539Y400384D01*
X545490Y400463D01*
X545385Y400584D01*
X545287Y400710D01*
X545221Y400773D01*
X545160Y400843D01*
X545037Y400946D01*
X544921Y401056D01*
X544845Y401107D01*
X544774Y401166D01*
X544637Y401249D01*
X544504Y401339D01*
X544405Y401387D01*
X544342Y401425D01*
X544304Y401440D01*
X541454Y404290D01*
X540506Y406579D01*
X540427Y406734D01*
X540355Y406892D01*
X540312Y406958D01*
X540277Y407028D01*
X540174Y407168D01*
X540079Y407313D01*
X540017Y407383D01*
X539980Y407434D01*
X539917Y407497D01*
X539817Y407609D01*
X507463Y439964D01*
X506109Y443232D01*
X506109Y480003D01*
X506106Y480043D01*
X506108Y480084D01*
X506086Y480294D01*
X506069Y480504D01*
X506060Y480544D01*
X506055Y480585D01*
X506000Y480789D01*
X505951Y480994D01*
X505935Y481031D01*
X505924Y481071D01*
X505837Y481264D01*
X505756Y481458D01*
X505734Y481493D01*
X505717Y481530D01*
X505601Y481707D01*
X505490Y481886D01*
X505463Y481917D01*
X505441Y481951D01*
X505180Y482247D01*
X399747Y587680D01*
X399716Y587706D01*
X399689Y587737D01*
X399524Y587869D01*
X399364Y588006D01*
X399329Y588028D01*
X399297Y588053D01*
X399115Y588158D01*
X398934Y588268D01*
X398896Y588284D01*
X398860Y588304D01*
X398664Y588379D01*
X398468Y588459D01*
X398428Y588468D01*
X398390Y588483D01*
X398183Y588525D01*
X397978Y588574D01*
X397937Y588576D01*
X397897Y588585D01*
X397503Y588609D01*
X249997Y588609D01*
X249957Y588606D01*
X249916Y588608D01*
X249706Y588586D01*
X249496Y588569D01*
X249456Y588560D01*
X249415Y588555D01*
X249211Y588500D01*
X249006Y588451D01*
X248969Y588435D01*
X248929Y588424D01*
X248736Y588337D01*
X248542Y588256D01*
X248507Y588234D01*
X248470Y588217D01*
X248293Y588101D01*
X248114Y587990D01*
X248083Y587963D01*
X248049Y587941D01*
X247753Y587680D01*
X167536Y507463D01*
X164268Y506109D01*
X55732Y506109D01*
X52464Y507463D01*
X49963Y509964D01*
X48609Y513232D01*
X48609Y516768D01*
X49963Y520036D01*
X52464Y522537D01*
X55732Y523891D01*
X157503Y523891D01*
X157543Y523894D01*
X157584Y523892D01*
X157794Y523914D01*
X158004Y523931D01*
X158044Y523940D01*
X158085Y523945D01*
X158289Y524000D01*
X158494Y524049D01*
X158531Y524065D01*
X158571Y524076D01*
X158764Y524163D01*
X158958Y524244D01*
X158993Y524266D01*
X159030Y524283D01*
X159207Y524399D01*
X159386Y524510D01*
X159417Y524537D01*
X159451Y524559D01*
X159747Y524820D01*
X230182Y595255D01*
X230200Y595276D01*
X230220Y595294D01*
X230363Y595468D01*
X230509Y595639D01*
X230523Y595662D01*
X230540Y595683D01*
X230653Y595876D01*
X230771Y596069D01*
X230781Y596094D01*
X230795Y596117D01*
X230876Y596326D01*
X230961Y596535D01*
X230968Y596561D01*
X230978Y596587D01*
X231025Y596806D01*
X231076Y597025D01*
X231078Y597052D01*
X231084Y597079D01*
X231096Y597303D01*
X231112Y597527D01*
X231109Y597554D01*
X231111Y597582D01*
X231087Y597804D01*
X231067Y598029D01*
X231061Y598055D01*
X231058Y598082D01*
X231000Y598298D01*
X230944Y598517D01*
X230934Y598542D01*
X230927Y598569D01*
X230834Y598774D01*
X230746Y598980D01*
X230731Y599003D01*
X230720Y599028D01*
X230596Y599216D01*
X230476Y599405D01*
X230458Y599426D01*
X230443Y599449D01*
X230182Y599745D01*
X177463Y652464D01*
X176109Y655732D01*
X176109Y659268D01*
X177463Y662536D01*
X179964Y665037D01*
X183232Y666391D01*
X186768Y666391D01*
X190036Y665037D01*
X247753Y607320D01*
X247784Y607294D01*
X247811Y607263D01*
X247976Y607131D01*
X248136Y606994D01*
X248171Y606972D01*
X248203Y606947D01*
X248385Y606842D01*
X248566Y606732D01*
X248604Y606716D01*
X248640Y606696D01*
X248836Y606621D01*
X249032Y606541D01*
X249072Y606532D01*
X249110Y606517D01*
X249317Y606475D01*
X249522Y606426D01*
X249563Y606424D01*
X249603Y606415D01*
X249997Y606391D01*
X404268Y606391D01*
X407536Y605037D01*
X500690Y511883D01*
X500701Y511874D01*
X500710Y511864D01*
X500893Y511710D01*
X501074Y511556D01*
X501085Y511549D01*
X501096Y511540D01*
X501299Y511419D01*
X501504Y511294D01*
X501516Y511289D01*
X501528Y511282D01*
X501747Y511194D01*
X501970Y511104D01*
X501983Y511100D01*
X501996Y511095D01*
X502228Y511043D01*
X502460Y510989D01*
X502474Y510988D01*
X502487Y510985D01*
X502726Y510970D01*
X502962Y510953D01*
X502976Y510954D01*
X502989Y510954D01*
X503227Y510977D01*
X503464Y510998D01*
X503477Y511001D01*
X503491Y511002D01*
X503721Y511062D01*
X503952Y511121D01*
X503965Y511126D01*
X503978Y511129D01*
X504196Y511225D01*
X504415Y511319D01*
X504426Y511326D01*
X504439Y511332D01*
X504640Y511462D01*
X504840Y511589D01*
X504850Y511598D01*
X504862Y511605D01*
X505040Y511765D01*
X505218Y511922D01*
X505226Y511932D01*
X505237Y511941D01*
X505387Y512127D01*
X505538Y512310D01*
X505545Y512322D01*
X505553Y512333D01*
X505672Y512539D01*
X505792Y512745D01*
X505797Y512758D01*
X505804Y512769D01*
X505888Y512991D01*
X505975Y513214D01*
X505978Y513228D01*
X505983Y513240D01*
X506031Y513473D01*
X506081Y513706D01*
X506082Y513720D01*
X506085Y513733D01*
X506109Y514127D01*
X506109Y644268D01*
X507463Y647536D01*
X509964Y650037D01*
X513232Y651391D01*
X516768Y651391D01*
X520036Y650037D01*
X522537Y647536D01*
X523891Y644268D01*
X523891Y449997D01*
X523894Y449957D01*
X523892Y449916D01*
X523914Y449706D01*
X523931Y449496D01*
X523940Y449456D01*
X523945Y449415D01*
X524000Y449211D01*
X524049Y449006D01*
X524065Y448969D01*
X524076Y448929D01*
X524163Y448736D01*
X524244Y448542D01*
X524266Y448507D01*
X524283Y448470D01*
X524399Y448293D01*
X524510Y448114D01*
X524537Y448083D01*
X524559Y448049D01*
X524820Y447753D01*
X536929Y435645D01*
X537040Y435550D01*
X537145Y435447D01*
X537231Y435387D01*
X537312Y435318D01*
X537437Y435242D01*
X537557Y435157D01*
X537651Y435111D01*
X537742Y435056D01*
X537878Y435000D01*
X538009Y434936D01*
X538110Y434905D01*
X538208Y434865D01*
X538351Y434832D01*
X538491Y434789D01*
X538595Y434775D01*
X538698Y434751D01*
X538844Y434740D01*
X538989Y434720D01*
X539095Y434723D01*
X539200Y434715D01*
X539346Y434728D01*
X539493Y434731D01*
X539597Y434750D01*
X539702Y434759D01*
X539844Y434795D01*
X539988Y434821D01*
X540088Y434856D01*
X540190Y434882D01*
X540325Y434940D01*
X540463Y434989D01*
X540556Y435039D01*
X540653Y435081D01*
X540777Y435159D01*
X540905Y435229D01*
X540989Y435294D01*
X541078Y435350D01*
X541188Y435447D01*
X541304Y435537D01*
X541377Y435614D01*
X541456Y435684D01*
X541549Y435797D01*
X541649Y435903D01*
X541709Y435991D01*
X541776Y436072D01*
X541850Y436198D01*
X541932Y436320D01*
X541989Y436436D01*
X542031Y436507D01*
X542057Y436575D01*
X542106Y436674D01*
X542463Y437536D01*
X607464Y502537D01*
X610732Y503891D01*
X640003Y503891D01*
X640043Y503894D01*
X640084Y503892D01*
X640294Y503914D01*
X640504Y503931D01*
X640544Y503940D01*
X640585Y503945D01*
X640789Y504000D01*
X640994Y504049D01*
X641031Y504065D01*
X641071Y504076D01*
X641264Y504163D01*
X641458Y504244D01*
X641493Y504266D01*
X641530Y504283D01*
X641707Y504399D01*
X641886Y504510D01*
X641917Y504537D01*
X641951Y504559D01*
X642247Y504820D01*
X647680Y510253D01*
X647706Y510284D01*
X647737Y510311D01*
X647869Y510476D01*
X648006Y510636D01*
X648028Y510671D01*
X648053Y510703D01*
X648158Y510885D01*
X648268Y511066D01*
X648284Y511104D01*
X648304Y511140D01*
X648379Y511336D01*
X648459Y511532D01*
X648468Y511572D01*
X648483Y511610D01*
X648525Y511817D01*
X648574Y512022D01*
X648576Y512063D01*
X648585Y512103D01*
X648609Y512497D01*
X648609Y516768D01*
X649963Y520036D01*
X652464Y522537D01*
X655732Y523891D01*
X659268Y523891D01*
X662536Y522537D01*
X665037Y520036D01*
X666391Y516768D01*
X666391Y505732D01*
X665037Y502464D01*
X650036Y487463D01*
X646768Y486109D01*
X617497Y486109D01*
X617457Y486106D01*
X617416Y486108D01*
X617206Y486086D01*
X616996Y486069D01*
X616956Y486060D01*
X616915Y486055D01*
X616711Y486000D01*
X616506Y485951D01*
X616469Y485935D01*
X616429Y485924D01*
X616236Y485837D01*
X616042Y485756D01*
X616007Y485734D01*
X615970Y485717D01*
X615793Y485602D01*
X615614Y485490D01*
X615583Y485463D01*
X615549Y485441D01*
X615253Y485180D01*
X611179Y481106D01*
X611084Y480994D01*
X610982Y480889D01*
X610921Y480803D01*
X610853Y480723D01*
X610776Y480598D01*
X610692Y480478D01*
X610645Y480383D01*
X610591Y480293D01*
X610535Y480157D01*
X610471Y480025D01*
X610440Y479924D01*
X610400Y479827D01*
X610367Y479684D01*
X610324Y479544D01*
X610309Y479439D01*
X610285Y479336D01*
X610275Y479190D01*
X610255Y479045D01*
X610257Y478939D01*
X610250Y478834D01*
X610262Y478688D01*
X610266Y478542D01*
X610285Y478438D01*
X610294Y478332D01*
X610330Y478190D01*
X610356Y478046D01*
X610391Y477947D01*
X610417Y477844D01*
X610475Y477710D01*
X610523Y477571D01*
X610574Y477478D01*
X610616Y477382D01*
X610694Y477258D01*
X610764Y477129D01*
X610828Y477045D01*
X610885Y476956D01*
X610982Y476846D01*
X611071Y476730D01*
X611148Y476658D01*
X611218Y476579D01*
X611331Y476485D01*
X611438Y476385D01*
X611525Y476326D01*
X611607Y476259D01*
X611733Y476184D01*
X611854Y476102D01*
X611971Y476045D01*
X612041Y476004D01*
X612110Y475977D01*
X612209Y475929D01*
X613582Y475360D01*
X615360Y473582D01*
X616323Y471258D01*
X616323Y468742D01*
X615360Y466418D01*
X613582Y464640D01*
X611258Y463677D01*
X608742Y463677D01*
X606418Y464640D01*
X604640Y466418D01*
X604071Y467791D01*
X604005Y467921D01*
X603947Y468056D01*
X603890Y468145D01*
X603842Y468239D01*
X603756Y468358D01*
X603678Y468481D01*
X603608Y468561D01*
X603545Y468646D01*
X603441Y468749D01*
X603344Y468859D01*
X603263Y468926D01*
X603188Y469001D01*
X603069Y469086D01*
X602956Y469179D01*
X602865Y469232D01*
X602779Y469294D01*
X602648Y469360D01*
X602521Y469434D01*
X602423Y469472D01*
X602328Y469519D01*
X602188Y469563D01*
X602052Y469616D01*
X601949Y469639D01*
X601848Y469670D01*
X601703Y469692D01*
X601560Y469722D01*
X601454Y469728D01*
X601350Y469743D01*
X601203Y469742D01*
X601057Y469749D01*
X600952Y469738D01*
X600846Y469737D01*
X600702Y469712D01*
X600556Y469697D01*
X600454Y469669D01*
X600350Y469651D01*
X600211Y469603D01*
X600070Y469565D01*
X599974Y469522D01*
X599874Y469488D01*
X599745Y469419D01*
X599611Y469359D01*
X599523Y469301D01*
X599429Y469251D01*
X599313Y469163D01*
X599190Y469082D01*
X599093Y468996D01*
X599028Y468947D01*
X598977Y468894D01*
X598894Y468821D01*
X559820Y429747D01*
X559794Y429716D01*
X559763Y429689D01*
X559631Y429524D01*
X559494Y429364D01*
X559472Y429329D01*
X559447Y429297D01*
X559342Y429115D01*
X559232Y428934D01*
X559216Y428896D01*
X559196Y428860D01*
X559121Y428664D01*
X559041Y428468D01*
X559032Y428428D01*
X559017Y428390D01*
X558975Y428183D01*
X558926Y427978D01*
X558924Y427937D01*
X558915Y427897D01*
X558891Y427503D01*
X558891Y415510D01*
X558904Y415337D01*
X558910Y415163D01*
X558924Y415086D01*
X558931Y415008D01*
X558972Y414839D01*
X559004Y414668D01*
X559034Y414580D01*
X559049Y414518D01*
X559084Y414437D01*
X559132Y414295D01*
X559494Y413421D01*
X559573Y413266D01*
X559645Y413108D01*
X559688Y413042D01*
X559723Y412972D01*
X559826Y412832D01*
X559921Y412687D01*
X559983Y412617D01*
X560020Y412566D01*
X560083Y412503D01*
X560182Y412391D01*
X562537Y410036D01*
X563891Y406768D01*
X563891Y277497D01*
X563894Y277457D01*
X563892Y277416D01*
X563914Y277206D01*
X563931Y276996D01*
X563940Y276956D01*
X563945Y276915D01*
X564000Y276711D01*
X564049Y276506D01*
X564065Y276469D01*
X564076Y276429D01*
X564163Y276236D01*
X564244Y276042D01*
X564266Y276007D01*
X564283Y275970D01*
X564399Y275793D01*
X564510Y275614D01*
X564537Y275583D01*
X564559Y275549D01*
X564820Y275253D01*
X650037Y190036D01*
X651391Y186768D01*
X651391Y183232D01*
X650037Y179964D01*
X647536Y177463D01*
X644268Y176109D01*
X640732Y176109D01*
X637464Y177463D01*
X621742Y193185D01*
X621731Y193194D01*
X621722Y193204D01*
X621539Y193358D01*
X621358Y193512D01*
X621347Y193519D01*
X621336Y193528D01*
X621133Y193649D01*
X620928Y193774D01*
X620916Y193779D01*
X620904Y193786D01*
X620685Y193874D01*
X620462Y193964D01*
X620449Y193968D01*
X620436Y193973D01*
X620204Y194025D01*
X619972Y194079D01*
X619958Y194080D01*
X619945Y194083D01*
X619706Y194098D01*
X619470Y194115D01*
X619456Y194114D01*
X619443Y194114D01*
X619205Y194091D01*
X618968Y194070D01*
X618955Y194067D01*
X618941Y194066D01*
X618711Y194006D01*
X618480Y193947D01*
X618467Y193942D01*
X618454Y193939D01*
X618236Y193843D01*
X618017Y193749D01*
X618006Y193742D01*
X617993Y193736D01*
X617792Y193606D01*
X617592Y193479D01*
X617582Y193470D01*
X617570Y193463D01*
X617392Y193303D01*
X617214Y193146D01*
X617206Y193136D01*
X617195Y193127D01*
X617045Y192941D01*
X616894Y192758D01*
X616887Y192746D01*
X616879Y192735D01*
X616760Y192529D01*
X616640Y192323D01*
X616635Y192310D01*
X616628Y192299D01*
X616544Y192077D01*
X616457Y191854D01*
X616454Y191840D01*
X616449Y191828D01*
X616401Y191595D01*
X616351Y191362D01*
X616350Y191348D01*
X616347Y191335D01*
X616323Y190941D01*
X616323Y188742D01*
X615360Y186418D01*
X613582Y184640D01*
X611258Y183677D01*
X608742Y183677D01*
X606418Y184640D01*
X604640Y186418D01*
X603677Y188742D01*
X603677Y191258D01*
X604640Y193582D01*
X606418Y195360D01*
X608742Y196323D01*
X610941Y196323D01*
X610954Y196324D01*
X610968Y196323D01*
X611206Y196344D01*
X611443Y196363D01*
X611456Y196366D01*
X611469Y196367D01*
X611703Y196426D01*
X611932Y196481D01*
X611944Y196487D01*
X611958Y196490D01*
X612178Y196585D01*
X612396Y196676D01*
X612408Y196683D01*
X612420Y196689D01*
X612622Y196816D01*
X612824Y196942D01*
X612834Y196951D01*
X612846Y196958D01*
X613024Y197115D01*
X613204Y197272D01*
X613213Y197282D01*
X613223Y197291D01*
X613374Y197475D01*
X613528Y197658D01*
X613535Y197670D01*
X613543Y197680D01*
X613664Y197885D01*
X613786Y198090D01*
X613791Y198103D01*
X613798Y198114D01*
X613885Y198337D01*
X613973Y198558D01*
X613976Y198571D01*
X613981Y198584D01*
X614031Y198817D01*
X614083Y199049D01*
X614084Y199063D01*
X614087Y199076D01*
X614099Y199313D01*
X614114Y199551D01*
X614113Y199565D01*
X614114Y199579D01*
X614089Y199813D01*
X614066Y200053D01*
X614062Y200066D01*
X614061Y200079D01*
X613999Y200308D01*
X613939Y200540D01*
X613933Y200552D01*
X613930Y200566D01*
X613832Y200783D01*
X613736Y201001D01*
X613729Y201012D01*
X613723Y201025D01*
X613592Y201224D01*
X613463Y201424D01*
X613454Y201434D01*
X613446Y201445D01*
X613185Y201742D01*
X569310Y245617D01*
X569299Y245626D01*
X569290Y245636D01*
X569107Y245790D01*
X568926Y245944D01*
X568915Y245951D01*
X568904Y245960D01*
X568701Y246081D01*
X568496Y246206D01*
X568484Y246211D01*
X568472Y246218D01*
X568253Y246306D01*
X568030Y246396D01*
X568017Y246400D01*
X568004Y246405D01*
X567772Y246457D01*
X567540Y246511D01*
X567526Y246512D01*
X567513Y246515D01*
X567274Y246530D01*
X567038Y246547D01*
X567024Y246546D01*
X567011Y246546D01*
X566773Y246523D01*
X566536Y246502D01*
X566523Y246499D01*
X566509Y246498D01*
X566279Y246438D01*
X566048Y246379D01*
X566035Y246374D01*
X566022Y246371D01*
X565804Y246275D01*
X565585Y246181D01*
X565574Y246174D01*
X565561Y246168D01*
X565360Y246038D01*
X565160Y245911D01*
X565150Y245902D01*
X565138Y245895D01*
X564960Y245735D01*
X564782Y245578D01*
X564774Y245568D01*
X564763Y245559D01*
X564613Y245373D01*
X564462Y245190D01*
X564455Y245178D01*
X564447Y245167D01*
X564328Y244961D01*
X564208Y244755D01*
X564203Y244742D01*
X564196Y244731D01*
X564112Y244509D01*
X564025Y244286D01*
X564022Y244272D01*
X564017Y244260D01*
X563969Y244027D01*
X563919Y243794D01*
X563918Y243780D01*
X563915Y243767D01*
X563891Y243373D01*
X563891Y144424D01*
X563903Y144265D01*
X563907Y144105D01*
X563923Y144014D01*
X563931Y143922D01*
X563968Y143767D01*
X563997Y143609D01*
X564028Y143522D01*
X564049Y143433D01*
X564111Y143285D01*
X564165Y143134D01*
X564209Y143053D01*
X564244Y142968D01*
X564329Y142832D01*
X564405Y142692D01*
X564461Y142619D01*
X564510Y142541D01*
X564615Y142420D01*
X564712Y142293D01*
X564780Y142230D01*
X564840Y142160D01*
X564962Y142058D01*
X565079Y141948D01*
X565155Y141896D01*
X565226Y141837D01*
X565363Y141755D01*
X565496Y141665D01*
X565595Y141616D01*
X565658Y141579D01*
X565734Y141549D01*
X565850Y141491D01*
X568582Y140360D01*
X570360Y138582D01*
X571323Y136258D01*
X571323Y133742D01*
X570360Y131418D01*
X568582Y129640D01*
X565850Y128509D01*
X565708Y128436D01*
X565561Y128371D01*
X565484Y128321D01*
X565402Y128280D01*
X565273Y128185D01*
X565138Y128098D01*
X565070Y128037D01*
X564995Y127983D01*
X564883Y127869D01*
X564763Y127762D01*
X564705Y127690D01*
X564641Y127625D01*
X564547Y127495D01*
X564447Y127370D01*
X564401Y127291D01*
X564347Y127216D01*
X564276Y127072D01*
X564196Y126934D01*
X564163Y126848D01*
X564122Y126765D01*
X564074Y126613D01*
X564017Y126463D01*
X563999Y126373D01*
X563971Y126285D01*
X563948Y126127D01*
X563915Y125970D01*
X563908Y125859D01*
X563898Y125787D01*
X563899Y125705D01*
X563891Y125576D01*
X563891Y80732D01*
X562537Y77464D01*
X520036Y34963D01*
X516768Y33609D01*
X513232Y33609D01*
G37*
%LPD*%
%LPC*%
G36*
X650000Y289674D02*
X650000Y289674D01*
X640348Y289674D01*
X640584Y290400D01*
X641310Y291825D01*
X642250Y293119D01*
X643381Y294250D01*
X644675Y295190D01*
X646100Y295916D01*
X646848Y296159D01*
X646976Y296212D01*
X647107Y296256D01*
X647208Y296309D01*
X647313Y296352D01*
X647430Y296425D01*
X647553Y296489D01*
X647645Y296557D01*
X647741Y296617D01*
X647846Y296707D01*
X647957Y296790D01*
X648037Y296871D01*
X648123Y296945D01*
X648212Y297051D01*
X648309Y297150D01*
X648374Y297243D01*
X648448Y297330D01*
X648519Y297449D01*
X648599Y297562D01*
X648649Y297664D01*
X648707Y297761D01*
X648759Y297890D01*
X648820Y298014D01*
X648853Y298123D01*
X648896Y298228D01*
X648927Y298363D01*
X648967Y298496D01*
X648982Y298608D01*
X649008Y298719D01*
X649017Y298857D01*
X649036Y298994D01*
X649033Y299109D01*
X649041Y299222D01*
X649028Y299359D01*
X649025Y299498D01*
X649005Y299610D01*
X648994Y299723D01*
X648960Y299857D01*
X648935Y299993D01*
X648897Y300101D01*
X648869Y300211D01*
X648813Y300338D01*
X648767Y300468D01*
X648713Y300568D01*
X648668Y300672D01*
X648593Y300789D01*
X648527Y300911D01*
X648457Y301001D01*
X648396Y301097D01*
X648304Y301200D01*
X648219Y301309D01*
X648137Y301387D01*
X648061Y301472D01*
X647954Y301560D01*
X647853Y301655D01*
X647759Y301719D01*
X647671Y301790D01*
X647551Y301860D01*
X647436Y301937D01*
X647309Y302000D01*
X647235Y302043D01*
X647171Y302067D01*
X647082Y302111D01*
X644244Y303286D01*
X641386Y306144D01*
X639839Y309879D01*
X639839Y313921D01*
X641386Y317656D01*
X644244Y320514D01*
X647029Y321667D01*
X647041Y321674D01*
X647054Y321678D01*
X647266Y321788D01*
X647478Y321896D01*
X647489Y321904D01*
X647501Y321911D01*
X647692Y322053D01*
X647884Y322193D01*
X647894Y322203D01*
X647905Y322211D01*
X648070Y322381D01*
X648239Y322551D01*
X648247Y322562D01*
X648256Y322572D01*
X648392Y322765D01*
X648532Y322960D01*
X648539Y322972D01*
X648546Y322983D01*
X648650Y323195D01*
X648757Y323410D01*
X648762Y323424D01*
X648768Y323436D01*
X648837Y323662D01*
X648909Y323891D01*
X648911Y323904D01*
X648915Y323917D01*
X648947Y324154D01*
X648982Y324389D01*
X648982Y324402D01*
X648983Y324416D01*
X648978Y324656D01*
X648975Y324892D01*
X648973Y324906D01*
X648973Y324920D01*
X648930Y325153D01*
X648889Y325389D01*
X648885Y325402D01*
X648882Y325415D01*
X648804Y325637D01*
X648726Y325865D01*
X648719Y325877D01*
X648715Y325890D01*
X648602Y326098D01*
X648489Y326309D01*
X648481Y326320D01*
X648474Y326332D01*
X648329Y326521D01*
X648185Y326711D01*
X648175Y326720D01*
X648167Y326731D01*
X647994Y326894D01*
X647822Y327059D01*
X647810Y327067D01*
X647801Y327076D01*
X647603Y327210D01*
X647408Y327346D01*
X647395Y327351D01*
X647384Y327359D01*
X647029Y327533D01*
X644244Y328686D01*
X641386Y331544D01*
X639839Y335279D01*
X639839Y339321D01*
X641386Y343056D01*
X644244Y345914D01*
X647029Y347067D01*
X647041Y347074D01*
X647054Y347078D01*
X647266Y347188D01*
X647478Y347296D01*
X647489Y347304D01*
X647501Y347311D01*
X647692Y347453D01*
X647884Y347593D01*
X647894Y347603D01*
X647905Y347611D01*
X648070Y347781D01*
X648239Y347951D01*
X648247Y347962D01*
X648256Y347972D01*
X648393Y348165D01*
X648532Y348360D01*
X648539Y348372D01*
X648546Y348383D01*
X648650Y348595D01*
X648757Y348810D01*
X648762Y348824D01*
X648768Y348836D01*
X648837Y349062D01*
X648909Y349291D01*
X648911Y349304D01*
X648915Y349317D01*
X648947Y349554D01*
X648982Y349789D01*
X648982Y349802D01*
X648983Y349816D01*
X648978Y350053D01*
X648975Y350292D01*
X648973Y350306D01*
X648973Y350320D01*
X648930Y350551D01*
X648889Y350789D01*
X648885Y350802D01*
X648882Y350815D01*
X648804Y351037D01*
X648726Y351265D01*
X648719Y351277D01*
X648715Y351290D01*
X648602Y351498D01*
X648489Y351709D01*
X648481Y351720D01*
X648474Y351732D01*
X648329Y351921D01*
X648185Y352111D01*
X648175Y352120D01*
X648167Y352131D01*
X647994Y352294D01*
X647822Y352459D01*
X647810Y352467D01*
X647801Y352476D01*
X647603Y352610D01*
X647408Y352746D01*
X647395Y352751D01*
X647384Y352759D01*
X647029Y352933D01*
X644244Y354086D01*
X641386Y356944D01*
X639839Y360679D01*
X639839Y364721D01*
X641386Y368456D01*
X644244Y371314D01*
X647029Y372467D01*
X647041Y372474D01*
X647054Y372478D01*
X647266Y372588D01*
X647478Y372696D01*
X647489Y372704D01*
X647501Y372711D01*
X647692Y372853D01*
X647884Y372993D01*
X647894Y373003D01*
X647905Y373011D01*
X648070Y373181D01*
X648239Y373351D01*
X648247Y373362D01*
X648256Y373372D01*
X648393Y373565D01*
X648532Y373760D01*
X648539Y373772D01*
X648546Y373783D01*
X648650Y373995D01*
X648757Y374210D01*
X648762Y374224D01*
X648768Y374236D01*
X648837Y374462D01*
X648909Y374691D01*
X648911Y374704D01*
X648915Y374717D01*
X648947Y374954D01*
X648982Y375189D01*
X648982Y375202D01*
X648983Y375216D01*
X648978Y375456D01*
X648975Y375692D01*
X648973Y375706D01*
X648973Y375720D01*
X648930Y375953D01*
X648889Y376189D01*
X648885Y376202D01*
X648882Y376215D01*
X648804Y376437D01*
X648726Y376665D01*
X648719Y376677D01*
X648715Y376690D01*
X648602Y376898D01*
X648489Y377109D01*
X648481Y377120D01*
X648474Y377132D01*
X648329Y377321D01*
X648185Y377511D01*
X648175Y377520D01*
X648167Y377531D01*
X647994Y377694D01*
X647822Y377859D01*
X647810Y377867D01*
X647801Y377876D01*
X647603Y378010D01*
X647408Y378146D01*
X647395Y378151D01*
X647384Y378159D01*
X647029Y378333D01*
X644244Y379486D01*
X641386Y382344D01*
X639839Y386079D01*
X639839Y390121D01*
X641386Y393856D01*
X644244Y396714D01*
X647029Y397867D01*
X647041Y397874D01*
X647054Y397878D01*
X647266Y397988D01*
X647478Y398096D01*
X647489Y398104D01*
X647501Y398111D01*
X647692Y398253D01*
X647884Y398393D01*
X647894Y398403D01*
X647905Y398411D01*
X648070Y398581D01*
X648239Y398751D01*
X648247Y398762D01*
X648256Y398772D01*
X648392Y398965D01*
X648532Y399160D01*
X648539Y399172D01*
X648546Y399183D01*
X648650Y399394D01*
X648757Y399610D01*
X648762Y399624D01*
X648768Y399636D01*
X648837Y399862D01*
X648909Y400091D01*
X648911Y400104D01*
X648915Y400117D01*
X648947Y400354D01*
X648982Y400589D01*
X648982Y400602D01*
X648983Y400616D01*
X648978Y400856D01*
X648975Y401092D01*
X648973Y401106D01*
X648973Y401120D01*
X648930Y401353D01*
X648889Y401589D01*
X648885Y401602D01*
X648882Y401615D01*
X648805Y401836D01*
X648726Y402065D01*
X648719Y402077D01*
X648715Y402090D01*
X648602Y402298D01*
X648489Y402509D01*
X648481Y402520D01*
X648474Y402532D01*
X648329Y402721D01*
X648185Y402911D01*
X648175Y402920D01*
X648167Y402931D01*
X647994Y403094D01*
X647822Y403259D01*
X647810Y403267D01*
X647801Y403276D01*
X647603Y403410D01*
X647408Y403546D01*
X647395Y403551D01*
X647384Y403559D01*
X647029Y403733D01*
X644244Y404886D01*
X641386Y407744D01*
X639839Y411479D01*
X639839Y415521D01*
X641386Y419256D01*
X644244Y422114D01*
X647979Y423661D01*
X652021Y423661D01*
X655756Y422114D01*
X658614Y419256D01*
X660161Y415521D01*
X660161Y411479D01*
X658614Y407744D01*
X655756Y404886D01*
X652971Y403733D01*
X652959Y403726D01*
X652946Y403722D01*
X652735Y403612D01*
X652522Y403504D01*
X652511Y403495D01*
X652499Y403489D01*
X652309Y403348D01*
X652116Y403207D01*
X652106Y403197D01*
X652095Y403189D01*
X651928Y403017D01*
X651761Y402849D01*
X651753Y402838D01*
X651744Y402828D01*
X651606Y402632D01*
X651468Y402440D01*
X651462Y402428D01*
X651454Y402417D01*
X651348Y402201D01*
X651243Y401990D01*
X651238Y401977D01*
X651232Y401964D01*
X651162Y401732D01*
X651091Y401509D01*
X651089Y401496D01*
X651085Y401483D01*
X651052Y401244D01*
X651018Y401011D01*
X651018Y400997D01*
X651017Y400984D01*
X651022Y400744D01*
X651025Y400508D01*
X651027Y400494D01*
X651027Y400480D01*
X651070Y400247D01*
X651111Y400011D01*
X651115Y399998D01*
X651118Y399985D01*
X651197Y399761D01*
X651274Y399535D01*
X651281Y399523D01*
X651285Y399510D01*
X651400Y399299D01*
X651511Y399091D01*
X651519Y399080D01*
X651526Y399068D01*
X651671Y398878D01*
X651815Y398689D01*
X651825Y398680D01*
X651833Y398669D01*
X652007Y398505D01*
X652178Y398341D01*
X652189Y398333D01*
X652199Y398324D01*
X652396Y398190D01*
X652592Y398054D01*
X652605Y398048D01*
X652616Y398041D01*
X652971Y397867D01*
X655756Y396714D01*
X658614Y393856D01*
X660161Y390121D01*
X660161Y386079D01*
X658614Y382344D01*
X655756Y379486D01*
X652971Y378333D01*
X652959Y378326D01*
X652946Y378322D01*
X652735Y378212D01*
X652522Y378104D01*
X652511Y378095D01*
X652499Y378089D01*
X652309Y377948D01*
X652116Y377807D01*
X652106Y377797D01*
X652095Y377789D01*
X651929Y377618D01*
X651761Y377449D01*
X651753Y377438D01*
X651744Y377428D01*
X651606Y377232D01*
X651468Y377040D01*
X651462Y377028D01*
X651454Y377017D01*
X651348Y376801D01*
X651243Y376590D01*
X651238Y376577D01*
X651232Y376564D01*
X651162Y376334D01*
X651091Y376109D01*
X651089Y376096D01*
X651085Y376083D01*
X651052Y375844D01*
X651018Y375611D01*
X651018Y375597D01*
X651017Y375584D01*
X651022Y375344D01*
X651025Y375108D01*
X651027Y375094D01*
X651027Y375080D01*
X651070Y374847D01*
X651111Y374611D01*
X651115Y374598D01*
X651118Y374585D01*
X651197Y374361D01*
X651274Y374135D01*
X651281Y374123D01*
X651285Y374110D01*
X651399Y373900D01*
X651511Y373691D01*
X651519Y373680D01*
X651526Y373668D01*
X651671Y373478D01*
X651815Y373289D01*
X651825Y373280D01*
X651833Y373269D01*
X652007Y373105D01*
X652178Y372941D01*
X652189Y372933D01*
X652199Y372924D01*
X652396Y372790D01*
X652592Y372654D01*
X652605Y372648D01*
X652616Y372641D01*
X652971Y372467D01*
X655756Y371314D01*
X658614Y368456D01*
X660161Y364721D01*
X660161Y360679D01*
X658614Y356944D01*
X655756Y354086D01*
X652971Y352933D01*
X652959Y352926D01*
X652946Y352922D01*
X652735Y352812D01*
X652522Y352704D01*
X652511Y352695D01*
X652499Y352689D01*
X652309Y352548D01*
X652116Y352407D01*
X652106Y352397D01*
X652095Y352389D01*
X651929Y352218D01*
X651761Y352049D01*
X651753Y352038D01*
X651744Y352028D01*
X651606Y351832D01*
X651468Y351640D01*
X651462Y351628D01*
X651454Y351617D01*
X651348Y351401D01*
X651243Y351190D01*
X651238Y351177D01*
X651232Y351164D01*
X651161Y350932D01*
X651091Y350709D01*
X651089Y350696D01*
X651085Y350683D01*
X651052Y350444D01*
X651018Y350211D01*
X651018Y350197D01*
X651017Y350184D01*
X651022Y349944D01*
X651025Y349708D01*
X651027Y349694D01*
X651027Y349680D01*
X651070Y349447D01*
X651111Y349211D01*
X651115Y349198D01*
X651118Y349185D01*
X651197Y348960D01*
X651274Y348735D01*
X651281Y348723D01*
X651285Y348710D01*
X651399Y348500D01*
X651511Y348291D01*
X651519Y348280D01*
X651526Y348268D01*
X651671Y348078D01*
X651815Y347889D01*
X651825Y347880D01*
X651833Y347869D01*
X652007Y347705D01*
X652178Y347541D01*
X652189Y347533D01*
X652199Y347524D01*
X652396Y347390D01*
X652592Y347254D01*
X652605Y347248D01*
X652616Y347241D01*
X652971Y347067D01*
X655756Y345914D01*
X658614Y343056D01*
X660161Y339321D01*
X660161Y335279D01*
X658614Y331544D01*
X655756Y328686D01*
X652971Y327533D01*
X652959Y327526D01*
X652946Y327522D01*
X652735Y327412D01*
X652522Y327304D01*
X652511Y327295D01*
X652499Y327289D01*
X652309Y327148D01*
X652116Y327007D01*
X652106Y326997D01*
X652095Y326989D01*
X651929Y326818D01*
X651761Y326649D01*
X651753Y326638D01*
X651744Y326628D01*
X651606Y326432D01*
X651468Y326240D01*
X651462Y326228D01*
X651454Y326217D01*
X651348Y326001D01*
X651243Y325790D01*
X651238Y325777D01*
X651232Y325764D01*
X651162Y325534D01*
X651091Y325309D01*
X651089Y325296D01*
X651085Y325283D01*
X651052Y325044D01*
X651018Y324811D01*
X651018Y324797D01*
X651017Y324784D01*
X651022Y324544D01*
X651025Y324308D01*
X651027Y324294D01*
X651027Y324280D01*
X651070Y324047D01*
X651111Y323811D01*
X651115Y323798D01*
X651118Y323785D01*
X651197Y323561D01*
X651274Y323335D01*
X651281Y323323D01*
X651285Y323310D01*
X651399Y323100D01*
X651511Y322891D01*
X651519Y322880D01*
X651526Y322868D01*
X651671Y322678D01*
X651815Y322489D01*
X651825Y322480D01*
X651833Y322469D01*
X652007Y322305D01*
X652178Y322141D01*
X652189Y322133D01*
X652199Y322124D01*
X652396Y321990D01*
X652592Y321854D01*
X652605Y321848D01*
X652616Y321841D01*
X652971Y321667D01*
X655756Y320514D01*
X658614Y317656D01*
X660161Y313921D01*
X660161Y309879D01*
X658614Y306144D01*
X655756Y303286D01*
X652918Y302111D01*
X652795Y302048D01*
X652668Y301994D01*
X652571Y301934D01*
X652470Y301882D01*
X652358Y301800D01*
X652241Y301727D01*
X652155Y301652D01*
X652063Y301585D01*
X651966Y301487D01*
X651862Y301396D01*
X651789Y301308D01*
X651709Y301227D01*
X651628Y301115D01*
X651540Y301009D01*
X651481Y300911D01*
X651415Y300818D01*
X651353Y300695D01*
X651283Y300575D01*
X651241Y300470D01*
X651190Y300368D01*
X651149Y300236D01*
X651098Y300107D01*
X651073Y299996D01*
X651039Y299888D01*
X651019Y299751D01*
X650989Y299616D01*
X650982Y299502D01*
X650966Y299389D01*
X650968Y299251D01*
X650960Y299113D01*
X650971Y299000D01*
X650972Y298886D01*
X650996Y298749D01*
X651010Y298612D01*
X651039Y298502D01*
X651058Y298390D01*
X651103Y298259D01*
X651139Y298125D01*
X651185Y298021D01*
X651222Y297913D01*
X651287Y297791D01*
X651343Y297665D01*
X651405Y297569D01*
X651458Y297469D01*
X651542Y297359D01*
X651617Y297243D01*
X651694Y297158D01*
X651762Y297068D01*
X651862Y296972D01*
X651955Y296869D01*
X652044Y296798D01*
X652126Y296719D01*
X652240Y296640D01*
X652348Y296554D01*
X652446Y296498D01*
X652540Y296433D01*
X652665Y296373D01*
X652785Y296305D01*
X652917Y296252D01*
X652994Y296215D01*
X653059Y296196D01*
X653152Y296159D01*
X653900Y295916D01*
X655325Y295190D01*
X656619Y294250D01*
X657750Y293119D01*
X658690Y291825D01*
X659416Y290400D01*
X659652Y289674D01*
X650000Y289674D01*
X650000Y289674D01*
G37*
%LPD*%
%LPC*%
G36*
X338742Y133677D02*
X338742Y133677D01*
X336418Y134640D01*
X334640Y136418D01*
X333677Y138742D01*
X333677Y141258D01*
X334640Y143582D01*
X336418Y145360D01*
X338742Y146323D01*
X340503Y146323D01*
X340530Y146325D01*
X340557Y146323D01*
X340781Y146345D01*
X341005Y146363D01*
X341031Y146369D01*
X341059Y146372D01*
X341277Y146429D01*
X341494Y146481D01*
X341519Y146492D01*
X341546Y146499D01*
X341752Y146590D01*
X341959Y146676D01*
X341982Y146691D01*
X342007Y146702D01*
X342196Y146824D01*
X342386Y146942D01*
X342407Y146960D01*
X342430Y146975D01*
X342597Y147125D01*
X342767Y147272D01*
X342784Y147293D01*
X342805Y147311D01*
X342946Y147486D01*
X343090Y147658D01*
X343104Y147681D01*
X343121Y147702D01*
X343233Y147897D01*
X343348Y148090D01*
X343359Y148115D01*
X343372Y148139D01*
X343452Y148349D01*
X343535Y148558D01*
X343541Y148584D01*
X343551Y148610D01*
X343596Y148830D01*
X343645Y149049D01*
X343647Y149076D01*
X343653Y149103D01*
X343677Y149497D01*
X343677Y150503D01*
X343675Y150530D01*
X343677Y150557D01*
X343655Y150781D01*
X343637Y151005D01*
X343631Y151031D01*
X343628Y151059D01*
X343571Y151277D01*
X343519Y151494D01*
X343508Y151519D01*
X343501Y151546D01*
X343410Y151752D01*
X343324Y151959D01*
X343309Y151982D01*
X343298Y152007D01*
X343176Y152196D01*
X343058Y152386D01*
X343040Y152407D01*
X343025Y152430D01*
X342875Y152597D01*
X342728Y152767D01*
X342707Y152784D01*
X342689Y152805D01*
X342514Y152946D01*
X342342Y153090D01*
X342319Y153104D01*
X342298Y153121D01*
X342103Y153233D01*
X341910Y153348D01*
X341885Y153359D01*
X341861Y153372D01*
X341651Y153452D01*
X341442Y153535D01*
X341416Y153541D01*
X341390Y153551D01*
X341170Y153596D01*
X340951Y153645D01*
X340924Y153647D01*
X340897Y153653D01*
X340503Y153677D01*
X338742Y153677D01*
X336418Y154640D01*
X334640Y156418D01*
X333677Y158742D01*
X333677Y161258D01*
X334640Y163582D01*
X336418Y165360D01*
X338742Y166323D01*
X341258Y166323D01*
X343582Y165360D01*
X345360Y163582D01*
X346323Y161258D01*
X346323Y159497D01*
X346325Y159470D01*
X346323Y159443D01*
X346345Y159219D01*
X346363Y158995D01*
X346369Y158969D01*
X346372Y158941D01*
X346429Y158722D01*
X346481Y158506D01*
X346492Y158481D01*
X346499Y158454D01*
X346590Y158248D01*
X346676Y158041D01*
X346691Y158018D01*
X346702Y157993D01*
X346824Y157804D01*
X346942Y157614D01*
X346960Y157593D01*
X346975Y157570D01*
X347125Y157403D01*
X347272Y157233D01*
X347293Y157216D01*
X347311Y157195D01*
X347486Y157054D01*
X347658Y156910D01*
X347681Y156896D01*
X347702Y156879D01*
X347897Y156767D01*
X348090Y156652D01*
X348115Y156641D01*
X348139Y156628D01*
X348349Y156548D01*
X348558Y156465D01*
X348584Y156459D01*
X348610Y156449D01*
X348830Y156404D01*
X349049Y156355D01*
X349076Y156353D01*
X349103Y156347D01*
X349497Y156323D01*
X350503Y156323D01*
X350530Y156325D01*
X350557Y156323D01*
X350781Y156345D01*
X351005Y156363D01*
X351031Y156369D01*
X351059Y156372D01*
X351277Y156429D01*
X351494Y156481D01*
X351519Y156492D01*
X351546Y156499D01*
X351752Y156590D01*
X351959Y156676D01*
X351982Y156691D01*
X352007Y156702D01*
X352196Y156824D01*
X352386Y156942D01*
X352407Y156960D01*
X352430Y156975D01*
X352597Y157125D01*
X352767Y157272D01*
X352784Y157293D01*
X352805Y157311D01*
X352946Y157486D01*
X353090Y157658D01*
X353104Y157681D01*
X353121Y157702D01*
X353233Y157897D01*
X353348Y158090D01*
X353359Y158115D01*
X353372Y158139D01*
X353452Y158349D01*
X353535Y158558D01*
X353541Y158584D01*
X353551Y158610D01*
X353596Y158830D01*
X353645Y159049D01*
X353647Y159076D01*
X353653Y159103D01*
X353677Y159497D01*
X353677Y161258D01*
X354640Y163582D01*
X356418Y165360D01*
X358742Y166323D01*
X361258Y166323D01*
X363582Y165360D01*
X365360Y163582D01*
X366323Y161258D01*
X366323Y158742D01*
X365360Y156418D01*
X363582Y154640D01*
X361258Y153677D01*
X359497Y153677D01*
X359470Y153675D01*
X359443Y153677D01*
X359219Y153655D01*
X358995Y153637D01*
X358969Y153631D01*
X358941Y153628D01*
X358723Y153571D01*
X358506Y153519D01*
X358481Y153508D01*
X358454Y153501D01*
X358248Y153410D01*
X358041Y153324D01*
X358018Y153309D01*
X357993Y153298D01*
X357804Y153176D01*
X357614Y153058D01*
X357593Y153040D01*
X357570Y153025D01*
X357403Y152875D01*
X357233Y152728D01*
X357216Y152707D01*
X357195Y152689D01*
X357054Y152514D01*
X356910Y152342D01*
X356896Y152319D01*
X356879Y152298D01*
X356767Y152103D01*
X356652Y151910D01*
X356641Y151885D01*
X356628Y151861D01*
X356548Y151651D01*
X356465Y151442D01*
X356459Y151416D01*
X356449Y151390D01*
X356404Y151170D01*
X356355Y150951D01*
X356353Y150924D01*
X356347Y150897D01*
X356323Y150503D01*
X356323Y148742D01*
X355360Y146418D01*
X353582Y144640D01*
X351258Y143677D01*
X349497Y143677D01*
X349470Y143675D01*
X349443Y143677D01*
X349219Y143655D01*
X348995Y143637D01*
X348969Y143631D01*
X348941Y143628D01*
X348723Y143571D01*
X348506Y143519D01*
X348481Y143508D01*
X348454Y143501D01*
X348248Y143410D01*
X348041Y143324D01*
X348018Y143309D01*
X347993Y143298D01*
X347804Y143176D01*
X347614Y143058D01*
X347593Y143040D01*
X347570Y143025D01*
X347403Y142875D01*
X347233Y142728D01*
X347216Y142707D01*
X347195Y142689D01*
X347054Y142514D01*
X346910Y142342D01*
X346896Y142319D01*
X346879Y142298D01*
X346767Y142103D01*
X346652Y141910D01*
X346641Y141885D01*
X346628Y141861D01*
X346548Y141651D01*
X346465Y141442D01*
X346459Y141416D01*
X346449Y141390D01*
X346404Y141170D01*
X346355Y140951D01*
X346353Y140924D01*
X346347Y140897D01*
X346323Y140503D01*
X346323Y138742D01*
X345360Y136418D01*
X343582Y134640D01*
X341258Y133677D01*
X338742Y133677D01*
G37*
%LPD*%
%LPC*%
G36*
X388742Y531177D02*
X388742Y531177D01*
X386418Y532140D01*
X384640Y533918D01*
X383677Y536242D01*
X383677Y538758D01*
X384640Y541082D01*
X386418Y542860D01*
X387493Y543305D01*
X387518Y543318D01*
X387544Y543327D01*
X387742Y543432D01*
X387942Y543534D01*
X387964Y543551D01*
X387988Y543563D01*
X388167Y543699D01*
X388349Y543831D01*
X388368Y543851D01*
X388390Y543867D01*
X388545Y544030D01*
X388703Y544189D01*
X388719Y544211D01*
X388738Y544231D01*
X388866Y544416D01*
X388997Y544598D01*
X389009Y544623D01*
X389024Y544645D01*
X389121Y544848D01*
X389222Y545049D01*
X389230Y545075D01*
X389242Y545099D01*
X389305Y545314D01*
X389373Y545529D01*
X389377Y545556D01*
X389384Y545582D01*
X389413Y545805D01*
X389446Y546027D01*
X389446Y546054D01*
X389449Y546081D01*
X389442Y546306D01*
X389440Y546531D01*
X389435Y546558D01*
X389434Y546585D01*
X389392Y546805D01*
X389354Y547027D01*
X389345Y547053D01*
X389340Y547079D01*
X389211Y547453D01*
X388677Y548742D01*
X388677Y551258D01*
X389640Y553582D01*
X391418Y555360D01*
X392493Y555805D01*
X392518Y555818D01*
X392544Y555827D01*
X392742Y555932D01*
X392942Y556034D01*
X392964Y556051D01*
X392988Y556063D01*
X393167Y556199D01*
X393349Y556331D01*
X393368Y556351D01*
X393390Y556367D01*
X393545Y556530D01*
X393703Y556689D01*
X393719Y556711D01*
X393738Y556731D01*
X393866Y556916D01*
X393997Y557098D01*
X394009Y557123D01*
X394024Y557145D01*
X394121Y557348D01*
X394222Y557549D01*
X394230Y557575D01*
X394242Y557599D01*
X394305Y557814D01*
X394373Y558029D01*
X394377Y558056D01*
X394384Y558082D01*
X394413Y558305D01*
X394446Y558527D01*
X394446Y558554D01*
X394449Y558581D01*
X394442Y558806D01*
X394440Y559031D01*
X394435Y559058D01*
X394434Y559085D01*
X394392Y559305D01*
X394354Y559527D01*
X394345Y559553D01*
X394340Y559579D01*
X394211Y559953D01*
X393677Y561242D01*
X393677Y563758D01*
X394640Y566082D01*
X396418Y567860D01*
X398742Y568823D01*
X401258Y568823D01*
X403582Y567860D01*
X405360Y566082D01*
X406323Y563758D01*
X406323Y561242D01*
X405360Y558918D01*
X403582Y557140D01*
X402507Y556695D01*
X402482Y556682D01*
X402456Y556673D01*
X402258Y556568D01*
X402058Y556466D01*
X402036Y556449D01*
X402012Y556437D01*
X401833Y556301D01*
X401651Y556169D01*
X401632Y556149D01*
X401610Y556133D01*
X401455Y555970D01*
X401297Y555811D01*
X401281Y555789D01*
X401262Y555769D01*
X401134Y555584D01*
X401003Y555402D01*
X400991Y555377D01*
X400976Y555355D01*
X400879Y555152D01*
X400778Y554951D01*
X400770Y554925D01*
X400758Y554901D01*
X400695Y554686D01*
X400627Y554471D01*
X400623Y554444D01*
X400616Y554418D01*
X400587Y554195D01*
X400554Y553973D01*
X400554Y553946D01*
X400551Y553919D01*
X400558Y553694D01*
X400560Y553469D01*
X400565Y553442D01*
X400566Y553415D01*
X400608Y553195D01*
X400646Y552973D01*
X400655Y552947D01*
X400660Y552921D01*
X400789Y552547D01*
X401323Y551258D01*
X401323Y548742D01*
X400360Y546418D01*
X398582Y544640D01*
X397507Y544195D01*
X397482Y544182D01*
X397456Y544173D01*
X397258Y544068D01*
X397058Y543966D01*
X397036Y543949D01*
X397012Y543937D01*
X396833Y543801D01*
X396651Y543669D01*
X396632Y543649D01*
X396610Y543633D01*
X396455Y543470D01*
X396297Y543311D01*
X396281Y543289D01*
X396262Y543269D01*
X396134Y543084D01*
X396003Y542902D01*
X395991Y542877D01*
X395976Y542855D01*
X395879Y542652D01*
X395778Y542451D01*
X395770Y542425D01*
X395758Y542401D01*
X395695Y542186D01*
X395627Y541971D01*
X395623Y541944D01*
X395616Y541918D01*
X395587Y541695D01*
X395554Y541473D01*
X395554Y541446D01*
X395551Y541419D01*
X395558Y541194D01*
X395560Y540969D01*
X395565Y540942D01*
X395566Y540915D01*
X395608Y540695D01*
X395646Y540473D01*
X395655Y540447D01*
X395660Y540421D01*
X395789Y540047D01*
X396323Y538758D01*
X396323Y536242D01*
X395360Y533918D01*
X393582Y532140D01*
X391258Y531177D01*
X388742Y531177D01*
G37*
%LPD*%
%LPC*%
G36*
X647979Y239839D02*
X647979Y239839D01*
X644244Y241386D01*
X641386Y244244D01*
X639839Y247979D01*
X639839Y252021D01*
X641386Y255756D01*
X644244Y258614D01*
X647979Y260161D01*
X652021Y260161D01*
X655756Y258614D01*
X658614Y255756D01*
X660161Y252021D01*
X660161Y247979D01*
X658614Y244244D01*
X655756Y241386D01*
X652021Y239839D01*
X647979Y239839D01*
G37*
%LPD*%
%LPC*%
G36*
X617979Y639839D02*
X617979Y639839D01*
X614244Y641386D01*
X611386Y644244D01*
X609839Y647979D01*
X609839Y652021D01*
X611386Y655756D01*
X614244Y658614D01*
X617979Y660161D01*
X622021Y660161D01*
X625756Y658614D01*
X628614Y655756D01*
X630161Y652021D01*
X630161Y647979D01*
X628614Y644244D01*
X625756Y641386D01*
X622021Y639839D01*
X617979Y639839D01*
G37*
%LPD*%
%LPC*%
G36*
X647979Y639839D02*
X647979Y639839D01*
X644244Y641386D01*
X641386Y644244D01*
X639839Y647979D01*
X639839Y652021D01*
X641386Y655756D01*
X644244Y658614D01*
X647979Y660161D01*
X652021Y660161D01*
X655756Y658614D01*
X658614Y655756D01*
X660161Y652021D01*
X660161Y647979D01*
X658614Y644244D01*
X655756Y641386D01*
X652021Y639839D01*
X647979Y639839D01*
G37*
%LPD*%
%LPC*%
G36*
X77979Y639839D02*
X77979Y639839D01*
X74244Y641386D01*
X71386Y644244D01*
X69839Y647979D01*
X69839Y652021D01*
X71386Y655756D01*
X74244Y658614D01*
X77979Y660161D01*
X82021Y660161D01*
X85756Y658614D01*
X88614Y655756D01*
X90161Y652021D01*
X90161Y647979D01*
X88614Y644244D01*
X85756Y641386D01*
X82021Y639839D01*
X77979Y639839D01*
G37*
%LPD*%
%LPC*%
G36*
X447979Y639839D02*
X447979Y639839D01*
X444244Y641386D01*
X441386Y644244D01*
X439839Y647979D01*
X439839Y652021D01*
X441386Y655756D01*
X444244Y658614D01*
X447979Y660161D01*
X452021Y660161D01*
X455756Y658614D01*
X458614Y655756D01*
X460161Y652021D01*
X460161Y647979D01*
X458614Y644244D01*
X455756Y641386D01*
X452021Y639839D01*
X447979Y639839D01*
G37*
%LPD*%
%LPC*%
G36*
X247979Y639839D02*
X247979Y639839D01*
X244244Y641386D01*
X241386Y644244D01*
X239839Y647979D01*
X239839Y652021D01*
X241386Y655756D01*
X244244Y658614D01*
X247979Y660161D01*
X252021Y660161D01*
X255756Y658614D01*
X258614Y655756D01*
X260161Y652021D01*
X260161Y647979D01*
X258614Y644244D01*
X255756Y641386D01*
X252021Y639839D01*
X247979Y639839D01*
G37*
%LPD*%
%LPC*%
G36*
X47979Y639839D02*
X47979Y639839D01*
X44244Y641386D01*
X41386Y644244D01*
X39839Y647979D01*
X39839Y652021D01*
X41386Y655756D01*
X44244Y658614D01*
X47979Y660161D01*
X52021Y660161D01*
X55756Y658614D01*
X58614Y655756D01*
X60161Y652021D01*
X60161Y647979D01*
X58614Y644244D01*
X55756Y641386D01*
X52021Y639839D01*
X47979Y639839D01*
G37*
%LPD*%
%LPC*%
G36*
X447979Y239839D02*
X447979Y239839D01*
X444244Y241386D01*
X441386Y244244D01*
X439839Y247979D01*
X439839Y252021D01*
X441386Y255756D01*
X444244Y258614D01*
X447979Y260161D01*
X452021Y260161D01*
X455756Y258614D01*
X458614Y255756D01*
X460161Y252021D01*
X460161Y247979D01*
X458614Y244244D01*
X455756Y241386D01*
X452021Y239839D01*
X447979Y239839D01*
G37*
%LPD*%
%LPC*%
G36*
X647979Y609839D02*
X647979Y609839D01*
X644244Y611386D01*
X641386Y614244D01*
X639839Y617979D01*
X639839Y622021D01*
X641386Y625756D01*
X644244Y628614D01*
X647979Y630161D01*
X652021Y630161D01*
X655756Y628614D01*
X658614Y625756D01*
X660161Y622021D01*
X660161Y617979D01*
X658614Y614244D01*
X655756Y611386D01*
X652021Y609839D01*
X647979Y609839D01*
G37*
%LPD*%
%LPC*%
G36*
X47979Y609839D02*
X47979Y609839D01*
X44244Y611386D01*
X41386Y614244D01*
X39839Y617979D01*
X39839Y622021D01*
X41386Y625756D01*
X44244Y628614D01*
X47979Y630161D01*
X52021Y630161D01*
X55756Y628614D01*
X58614Y625756D01*
X60161Y622021D01*
X60161Y617979D01*
X58614Y614244D01*
X55756Y611386D01*
X52021Y609839D01*
X47979Y609839D01*
G37*
%LPD*%
%LPC*%
G36*
X247979Y239839D02*
X247979Y239839D01*
X244244Y241386D01*
X241386Y244244D01*
X239839Y247979D01*
X239839Y252021D01*
X241386Y255756D01*
X244244Y258614D01*
X247979Y260161D01*
X252021Y260161D01*
X255756Y258614D01*
X258614Y255756D01*
X260161Y252021D01*
X260161Y247979D01*
X258614Y244244D01*
X255756Y241386D01*
X252021Y239839D01*
X247979Y239839D01*
G37*
%LPD*%
%LPC*%
G36*
X47979Y239839D02*
X47979Y239839D01*
X44244Y241386D01*
X41386Y244244D01*
X39839Y247979D01*
X39839Y252021D01*
X41386Y255756D01*
X44244Y258614D01*
X47979Y260161D01*
X52021Y260161D01*
X55756Y258614D01*
X58614Y255756D01*
X60161Y252021D01*
X60161Y247979D01*
X58614Y244244D01*
X55756Y241386D01*
X52021Y239839D01*
X47979Y239839D01*
G37*
%LPD*%
%LPC*%
G36*
X647979Y69839D02*
X647979Y69839D01*
X644244Y71386D01*
X641386Y74244D01*
X639839Y77979D01*
X639839Y82021D01*
X641386Y85756D01*
X644244Y88614D01*
X647979Y90161D01*
X652021Y90161D01*
X655756Y88614D01*
X658614Y85756D01*
X660161Y82021D01*
X660161Y77979D01*
X658614Y74244D01*
X655756Y71386D01*
X652021Y69839D01*
X647979Y69839D01*
G37*
%LPD*%
%LPC*%
G36*
X647979Y39839D02*
X647979Y39839D01*
X644244Y41386D01*
X641386Y44244D01*
X639839Y47979D01*
X639839Y52021D01*
X641386Y55756D01*
X644244Y58614D01*
X647979Y60161D01*
X652021Y60161D01*
X655756Y58614D01*
X658614Y55756D01*
X660161Y52021D01*
X660161Y47979D01*
X658614Y44244D01*
X655756Y41386D01*
X652021Y39839D01*
X647979Y39839D01*
G37*
%LPD*%
%LPC*%
G36*
X617979Y39839D02*
X617979Y39839D01*
X614244Y41386D01*
X611386Y44244D01*
X609839Y47979D01*
X609839Y52021D01*
X611386Y55756D01*
X614244Y58614D01*
X617979Y60161D01*
X622021Y60161D01*
X625756Y58614D01*
X628614Y55756D01*
X630161Y52021D01*
X630161Y47979D01*
X628614Y44244D01*
X625756Y41386D01*
X622021Y39839D01*
X617979Y39839D01*
G37*
%LPD*%
%LPC*%
G36*
X647979Y439839D02*
X647979Y439839D01*
X644244Y441386D01*
X641386Y444244D01*
X639839Y447979D01*
X639839Y452021D01*
X641386Y455756D01*
X644244Y458614D01*
X647979Y460161D01*
X652021Y460161D01*
X655756Y458614D01*
X658614Y455756D01*
X660161Y452021D01*
X660161Y447979D01*
X658614Y444244D01*
X655756Y441386D01*
X652021Y439839D01*
X647979Y439839D01*
G37*
%LPD*%
%LPC*%
G36*
X447979Y39839D02*
X447979Y39839D01*
X444244Y41386D01*
X441386Y44244D01*
X439839Y47979D01*
X439839Y52021D01*
X441386Y55756D01*
X444244Y58614D01*
X447979Y60161D01*
X452021Y60161D01*
X455756Y58614D01*
X458614Y55756D01*
X460161Y52021D01*
X460161Y47979D01*
X458614Y44244D01*
X455756Y41386D01*
X452021Y39839D01*
X447979Y39839D01*
G37*
%LPD*%
%LPC*%
G36*
X247979Y39839D02*
X247979Y39839D01*
X244244Y41386D01*
X241386Y44244D01*
X239839Y47979D01*
X239839Y52021D01*
X241386Y55756D01*
X244244Y58614D01*
X247979Y60161D01*
X252021Y60161D01*
X255756Y58614D01*
X258614Y55756D01*
X260161Y52021D01*
X260161Y47979D01*
X258614Y44244D01*
X255756Y41386D01*
X252021Y39839D01*
X247979Y39839D01*
G37*
%LPD*%
%LPC*%
G36*
X77979Y39839D02*
X77979Y39839D01*
X74244Y41386D01*
X71386Y44244D01*
X69839Y47979D01*
X69839Y52021D01*
X71386Y55756D01*
X74244Y58614D01*
X77979Y60161D01*
X82021Y60161D01*
X85756Y58614D01*
X88614Y55756D01*
X90161Y52021D01*
X90161Y47979D01*
X88614Y44244D01*
X85756Y41386D01*
X82021Y39839D01*
X77979Y39839D01*
G37*
%LPD*%
%LPC*%
G36*
X47979Y39839D02*
X47979Y39839D01*
X44244Y41386D01*
X41386Y44244D01*
X39839Y47979D01*
X39839Y52021D01*
X41386Y55756D01*
X44244Y58614D01*
X47979Y60161D01*
X52021Y60161D01*
X55756Y58614D01*
X58614Y55756D01*
X60161Y52021D01*
X60161Y47979D01*
X58614Y44244D01*
X55756Y41386D01*
X52021Y39839D01*
X47979Y39839D01*
G37*
%LPD*%
%LPC*%
G36*
X47979Y69839D02*
X47979Y69839D01*
X44244Y71386D01*
X41386Y74244D01*
X39839Y77979D01*
X39839Y82021D01*
X41386Y85756D01*
X44244Y88614D01*
X47979Y90161D01*
X52021Y90161D01*
X55756Y88614D01*
X58614Y85756D01*
X60161Y82021D01*
X60161Y77979D01*
X58614Y74244D01*
X55756Y71386D01*
X52021Y69839D01*
X47979Y69839D01*
G37*
%LPD*%
%LPC*%
G36*
X47979Y439839D02*
X47979Y439839D01*
X44244Y441386D01*
X41386Y444244D01*
X39839Y447979D01*
X39839Y452021D01*
X41386Y455756D01*
X44244Y458614D01*
X47979Y460161D01*
X52021Y460161D01*
X55756Y458614D01*
X58614Y455756D01*
X60161Y452021D01*
X60161Y447979D01*
X58614Y444244D01*
X55756Y441386D01*
X52021Y439839D01*
X47979Y439839D01*
G37*
%LPD*%
%LPC*%
G36*
X447979Y439839D02*
X447979Y439839D01*
X444244Y441386D01*
X441386Y444244D01*
X439839Y447979D01*
X439839Y452021D01*
X441386Y455756D01*
X444244Y458614D01*
X447979Y460161D01*
X452021Y460161D01*
X455756Y458614D01*
X458614Y455756D01*
X460161Y452021D01*
X460161Y447979D01*
X458614Y444244D01*
X455756Y441386D01*
X452021Y439839D01*
X447979Y439839D01*
G37*
%LPD*%
%LPC*%
G36*
X247979Y439839D02*
X247979Y439839D01*
X244244Y441386D01*
X241386Y444244D01*
X239839Y447979D01*
X239839Y452021D01*
X241386Y455756D01*
X244244Y458614D01*
X247979Y460161D01*
X252021Y460161D01*
X255756Y458614D01*
X258614Y455756D01*
X260161Y452021D01*
X260161Y447979D01*
X258614Y444244D01*
X255756Y441386D01*
X252021Y439839D01*
X247979Y439839D01*
G37*
%LPD*%
%LPC*%
G36*
X358742Y556177D02*
X358742Y556177D01*
X356418Y557140D01*
X354640Y558918D01*
X353677Y561242D01*
X353677Y563758D01*
X354640Y566082D01*
X356418Y567860D01*
X358742Y568823D01*
X361258Y568823D01*
X363581Y567860D01*
X365255Y566186D01*
X365276Y566168D01*
X365294Y566148D01*
X365467Y566006D01*
X365639Y565860D01*
X365662Y565845D01*
X365683Y565828D01*
X365877Y565714D01*
X366069Y565598D01*
X366094Y565587D01*
X366117Y565573D01*
X366327Y565492D01*
X366535Y565407D01*
X366561Y565401D01*
X366587Y565391D01*
X366806Y565343D01*
X367025Y565292D01*
X367052Y565290D01*
X367079Y565285D01*
X367303Y565273D01*
X367527Y565257D01*
X367554Y565259D01*
X367582Y565258D01*
X367804Y565281D01*
X368029Y565301D01*
X368055Y565308D01*
X368082Y565310D01*
X368298Y565369D01*
X368517Y565424D01*
X368542Y565435D01*
X368569Y565442D01*
X368773Y565534D01*
X368980Y565623D01*
X369003Y565637D01*
X369028Y565648D01*
X369216Y565772D01*
X369405Y565892D01*
X369426Y565910D01*
X369448Y565925D01*
X369745Y566186D01*
X371418Y567860D01*
X373742Y568823D01*
X376258Y568823D01*
X378582Y567860D01*
X380360Y566082D01*
X381323Y563758D01*
X381323Y561242D01*
X380360Y558918D01*
X378582Y557140D01*
X376258Y556177D01*
X373742Y556177D01*
X371418Y557140D01*
X369745Y558814D01*
X369724Y558831D01*
X369706Y558852D01*
X369532Y558995D01*
X369361Y559140D01*
X369338Y559155D01*
X369317Y559172D01*
X369123Y559285D01*
X368931Y559402D01*
X368906Y559413D01*
X368883Y559427D01*
X368673Y559508D01*
X368465Y559593D01*
X368439Y559599D01*
X368413Y559609D01*
X368194Y559657D01*
X367975Y559708D01*
X367948Y559710D01*
X367921Y559715D01*
X367697Y559727D01*
X367473Y559743D01*
X367446Y559741D01*
X367418Y559742D01*
X367196Y559719D01*
X366971Y559699D01*
X366945Y559692D01*
X366918Y559690D01*
X366701Y559631D01*
X366483Y559576D01*
X366458Y559565D01*
X366431Y559558D01*
X366227Y559466D01*
X366020Y559377D01*
X365997Y559363D01*
X365972Y559352D01*
X365785Y559229D01*
X365595Y559108D01*
X365574Y559090D01*
X365551Y559075D01*
X365255Y558814D01*
X363581Y557140D01*
X361258Y556177D01*
X358742Y556177D01*
G37*
%LPD*%
%LPC*%
G36*
X138742Y393677D02*
X138742Y393677D01*
X136418Y394640D01*
X134640Y396418D01*
X133677Y398742D01*
X133677Y400503D01*
X133675Y400530D01*
X133677Y400557D01*
X133655Y400781D01*
X133637Y401005D01*
X133631Y401031D01*
X133628Y401059D01*
X133571Y401277D01*
X133519Y401494D01*
X133508Y401519D01*
X133501Y401546D01*
X133410Y401752D01*
X133324Y401959D01*
X133309Y401982D01*
X133298Y402007D01*
X133176Y402196D01*
X133058Y402386D01*
X133040Y402407D01*
X133025Y402430D01*
X132875Y402597D01*
X132728Y402767D01*
X132707Y402784D01*
X132689Y402805D01*
X132514Y402946D01*
X132342Y403090D01*
X132319Y403104D01*
X132298Y403121D01*
X132103Y403233D01*
X131910Y403348D01*
X131885Y403359D01*
X131861Y403372D01*
X131651Y403452D01*
X131442Y403535D01*
X131416Y403541D01*
X131390Y403551D01*
X131170Y403596D01*
X130951Y403645D01*
X130924Y403647D01*
X130897Y403653D01*
X130503Y403677D01*
X128742Y403677D01*
X126418Y404640D01*
X124640Y406418D01*
X123677Y408742D01*
X123677Y411258D01*
X124640Y413582D01*
X126418Y415360D01*
X128742Y416323D01*
X131258Y416323D01*
X133582Y415360D01*
X135360Y413582D01*
X136323Y411258D01*
X136323Y409497D01*
X136325Y409470D01*
X136323Y409443D01*
X136345Y409219D01*
X136363Y408995D01*
X136369Y408969D01*
X136372Y408941D01*
X136429Y408722D01*
X136481Y408506D01*
X136492Y408481D01*
X136499Y408454D01*
X136590Y408248D01*
X136676Y408041D01*
X136691Y408018D01*
X136702Y407993D01*
X136824Y407804D01*
X136942Y407614D01*
X136960Y407593D01*
X136975Y407570D01*
X137125Y407403D01*
X137272Y407233D01*
X137293Y407216D01*
X137311Y407195D01*
X137486Y407054D01*
X137658Y406910D01*
X137681Y406896D01*
X137702Y406879D01*
X137897Y406767D01*
X138090Y406652D01*
X138115Y406641D01*
X138139Y406628D01*
X138349Y406548D01*
X138558Y406465D01*
X138584Y406459D01*
X138610Y406449D01*
X138830Y406404D01*
X139049Y406355D01*
X139076Y406353D01*
X139103Y406347D01*
X139497Y406323D01*
X141258Y406323D01*
X143582Y405360D01*
X145360Y403582D01*
X146323Y401258D01*
X146323Y398742D01*
X145360Y396418D01*
X143582Y394640D01*
X141258Y393677D01*
X138742Y393677D01*
G37*
%LPD*%
%LPC*%
G36*
X118742Y283677D02*
X118742Y283677D01*
X116418Y284640D01*
X114640Y286418D01*
X113677Y288742D01*
X113677Y290503D01*
X113675Y290530D01*
X113677Y290557D01*
X113655Y290781D01*
X113637Y291005D01*
X113631Y291031D01*
X113628Y291059D01*
X113571Y291277D01*
X113519Y291494D01*
X113508Y291519D01*
X113501Y291546D01*
X113410Y291752D01*
X113324Y291959D01*
X113309Y291982D01*
X113298Y292007D01*
X113176Y292196D01*
X113058Y292386D01*
X113040Y292407D01*
X113025Y292430D01*
X112875Y292597D01*
X112728Y292767D01*
X112707Y292784D01*
X112689Y292805D01*
X112514Y292946D01*
X112342Y293090D01*
X112319Y293104D01*
X112298Y293121D01*
X112103Y293233D01*
X111910Y293348D01*
X111885Y293359D01*
X111861Y293372D01*
X111651Y293452D01*
X111442Y293535D01*
X111416Y293541D01*
X111390Y293551D01*
X111170Y293596D01*
X110951Y293645D01*
X110924Y293647D01*
X110897Y293653D01*
X110503Y293677D01*
X108742Y293677D01*
X106418Y294640D01*
X104640Y296418D01*
X103677Y298742D01*
X103677Y301258D01*
X104640Y303582D01*
X106418Y305360D01*
X108742Y306323D01*
X111258Y306323D01*
X113582Y305360D01*
X115360Y303582D01*
X116323Y301258D01*
X116323Y299497D01*
X116325Y299470D01*
X116323Y299443D01*
X116345Y299219D01*
X116363Y298995D01*
X116369Y298969D01*
X116372Y298941D01*
X116429Y298722D01*
X116481Y298506D01*
X116492Y298481D01*
X116499Y298454D01*
X116590Y298248D01*
X116676Y298041D01*
X116691Y298018D01*
X116702Y297993D01*
X116824Y297804D01*
X116942Y297614D01*
X116960Y297593D01*
X116975Y297570D01*
X117125Y297403D01*
X117272Y297233D01*
X117293Y297216D01*
X117311Y297195D01*
X117486Y297054D01*
X117658Y296910D01*
X117681Y296896D01*
X117702Y296879D01*
X117897Y296767D01*
X118090Y296652D01*
X118115Y296641D01*
X118139Y296628D01*
X118349Y296548D01*
X118558Y296465D01*
X118584Y296459D01*
X118610Y296449D01*
X118830Y296404D01*
X119049Y296355D01*
X119076Y296353D01*
X119103Y296347D01*
X119497Y296323D01*
X121258Y296323D01*
X123582Y295360D01*
X125360Y293582D01*
X126323Y291258D01*
X126323Y288742D01*
X125360Y286418D01*
X123582Y284640D01*
X121258Y283677D01*
X118742Y283677D01*
G37*
%LPD*%
%LPC*%
G36*
X411681Y302755D02*
X411681Y302755D01*
X408320Y304147D01*
X405747Y306720D01*
X404355Y310081D01*
X404355Y313719D01*
X405747Y317080D01*
X408320Y319653D01*
X411681Y321045D01*
X415319Y321045D01*
X418680Y319653D01*
X421253Y317080D01*
X422645Y313719D01*
X422645Y310081D01*
X421253Y306720D01*
X418680Y304147D01*
X415319Y302755D01*
X411681Y302755D01*
G37*
%LPD*%
%LPC*%
G36*
X259281Y378955D02*
X259281Y378955D01*
X255920Y380347D01*
X253347Y382920D01*
X251955Y386281D01*
X251955Y389919D01*
X253347Y393280D01*
X255920Y395853D01*
X259281Y397245D01*
X262919Y397245D01*
X266280Y395853D01*
X268853Y393280D01*
X270245Y389919D01*
X270245Y386281D01*
X268853Y382920D01*
X266280Y380347D01*
X262919Y378955D01*
X259281Y378955D01*
G37*
%LPD*%
%LPC*%
G36*
X233881Y302755D02*
X233881Y302755D01*
X230520Y304147D01*
X227947Y306720D01*
X226555Y310081D01*
X226555Y313719D01*
X227947Y317080D01*
X230520Y319653D01*
X233881Y321045D01*
X237519Y321045D01*
X240880Y319653D01*
X243453Y317080D01*
X244845Y313719D01*
X244845Y310081D01*
X243453Y306720D01*
X240880Y304147D01*
X237519Y302755D01*
X233881Y302755D01*
G37*
%LPD*%
%LPC*%
G36*
X437081Y378955D02*
X437081Y378955D01*
X433720Y380347D01*
X431147Y382920D01*
X429755Y386281D01*
X429755Y389919D01*
X431147Y393280D01*
X433720Y395853D01*
X437081Y397245D01*
X440719Y397245D01*
X444080Y395853D01*
X446653Y393280D01*
X448045Y389919D01*
X448045Y386281D01*
X446653Y382920D01*
X444080Y380347D01*
X440719Y378955D01*
X437081Y378955D01*
G37*
%LPD*%
%LPC*%
G36*
X386281Y378955D02*
X386281Y378955D01*
X382920Y380347D01*
X380347Y382920D01*
X378955Y386281D01*
X378955Y389919D01*
X380347Y393280D01*
X382920Y395853D01*
X386281Y397245D01*
X389919Y397245D01*
X393280Y395853D01*
X395853Y393280D01*
X397245Y389919D01*
X397245Y386281D01*
X395853Y382920D01*
X393280Y380347D01*
X389919Y378955D01*
X386281Y378955D01*
G37*
%LPD*%
%LPC*%
G36*
X360881Y378955D02*
X360881Y378955D01*
X357520Y380347D01*
X354947Y382920D01*
X353555Y386281D01*
X353555Y389919D01*
X354947Y393280D01*
X357520Y395853D01*
X360881Y397245D01*
X364519Y397245D01*
X367880Y395853D01*
X370453Y393280D01*
X371845Y389919D01*
X371845Y386281D01*
X370453Y382920D01*
X367880Y380347D01*
X364519Y378955D01*
X360881Y378955D01*
G37*
%LPD*%
%LPC*%
G36*
X411681Y378955D02*
X411681Y378955D01*
X408320Y380347D01*
X405747Y382920D01*
X404355Y386281D01*
X404355Y389919D01*
X405747Y393280D01*
X408320Y395853D01*
X411681Y397245D01*
X415319Y397245D01*
X418680Y395853D01*
X421253Y393280D01*
X422645Y389919D01*
X422645Y386281D01*
X421253Y382920D01*
X418680Y380347D01*
X415319Y378955D01*
X411681Y378955D01*
G37*
%LPD*%
%LPC*%
G36*
X233881Y378955D02*
X233881Y378955D01*
X230520Y380347D01*
X227947Y382920D01*
X226555Y386281D01*
X226555Y389919D01*
X227947Y393280D01*
X230520Y395853D01*
X233881Y397245D01*
X237519Y397245D01*
X240880Y395853D01*
X243453Y393280D01*
X244845Y389919D01*
X244845Y386281D01*
X243453Y382920D01*
X240880Y380347D01*
X237519Y378955D01*
X233881Y378955D01*
G37*
%LPD*%
%LPC*%
G36*
X284681Y378955D02*
X284681Y378955D01*
X281320Y380347D01*
X278747Y382920D01*
X277355Y386281D01*
X277355Y389919D01*
X278747Y393280D01*
X281320Y395853D01*
X284681Y397245D01*
X288319Y397245D01*
X291680Y395853D01*
X294253Y393280D01*
X295645Y389919D01*
X295645Y386281D01*
X294253Y382920D01*
X291680Y380347D01*
X288319Y378955D01*
X284681Y378955D01*
G37*
%LPD*%
%LPC*%
G36*
X310081Y378955D02*
X310081Y378955D01*
X306720Y380347D01*
X304147Y382920D01*
X302755Y386281D01*
X302755Y389919D01*
X304147Y393280D01*
X306720Y395853D01*
X310081Y397245D01*
X313719Y397245D01*
X317080Y395853D01*
X319653Y393280D01*
X321045Y389919D01*
X321045Y386281D01*
X319653Y382920D01*
X317080Y380347D01*
X313719Y378955D01*
X310081Y378955D01*
G37*
%LPD*%
%LPC*%
G36*
X284681Y302755D02*
X284681Y302755D01*
X281320Y304147D01*
X278747Y306720D01*
X277355Y310081D01*
X277355Y313719D01*
X278747Y317080D01*
X281320Y319653D01*
X284681Y321045D01*
X288319Y321045D01*
X291680Y319653D01*
X294253Y317080D01*
X295645Y313719D01*
X295645Y310081D01*
X294253Y306720D01*
X291680Y304147D01*
X288319Y302755D01*
X284681Y302755D01*
G37*
%LPD*%
%LPC*%
G36*
X259281Y302755D02*
X259281Y302755D01*
X255920Y304147D01*
X253347Y306720D01*
X251955Y310081D01*
X251955Y313719D01*
X253347Y317080D01*
X255920Y319653D01*
X259281Y321045D01*
X262919Y321045D01*
X266280Y319653D01*
X268853Y317080D01*
X270245Y313719D01*
X270245Y310081D01*
X268853Y306720D01*
X266280Y304147D01*
X262919Y302755D01*
X259281Y302755D01*
G37*
%LPD*%
%LPC*%
G36*
X437081Y302755D02*
X437081Y302755D01*
X433720Y304147D01*
X431147Y306720D01*
X429755Y310081D01*
X429755Y313719D01*
X431147Y317080D01*
X433720Y319653D01*
X437081Y321045D01*
X440719Y321045D01*
X444080Y319653D01*
X446653Y317080D01*
X448045Y313719D01*
X448045Y310081D01*
X446653Y306720D01*
X444080Y304147D01*
X440719Y302755D01*
X437081Y302755D01*
G37*
%LPD*%
%LPC*%
G36*
X386281Y302755D02*
X386281Y302755D01*
X382920Y304147D01*
X380347Y306720D01*
X378955Y310081D01*
X378955Y313719D01*
X380347Y317080D01*
X382920Y319653D01*
X386281Y321045D01*
X389919Y321045D01*
X393280Y319653D01*
X395853Y317080D01*
X397245Y313719D01*
X397245Y310081D01*
X395853Y306720D01*
X393280Y304147D01*
X389919Y302755D01*
X386281Y302755D01*
G37*
%LPD*%
%LPC*%
G36*
X360881Y302755D02*
X360881Y302755D01*
X357520Y304147D01*
X354947Y306720D01*
X353555Y310081D01*
X353555Y313719D01*
X354947Y317080D01*
X357520Y319653D01*
X360881Y321045D01*
X364519Y321045D01*
X367880Y319653D01*
X370453Y317080D01*
X371845Y313719D01*
X371845Y310081D01*
X370453Y306720D01*
X367880Y304147D01*
X364519Y302755D01*
X360881Y302755D01*
G37*
%LPD*%
%LPC*%
G36*
X462481Y302755D02*
X462481Y302755D01*
X459120Y304147D01*
X456547Y306720D01*
X455155Y310081D01*
X455155Y313719D01*
X456547Y317080D01*
X459120Y319653D01*
X462481Y321045D01*
X466119Y321045D01*
X469480Y319653D01*
X472053Y317080D01*
X473445Y313719D01*
X473445Y310081D01*
X472053Y306720D01*
X469480Y304147D01*
X466119Y302755D01*
X462481Y302755D01*
G37*
%LPD*%
%LPC*%
G36*
X310081Y302755D02*
X310081Y302755D01*
X306720Y304147D01*
X304147Y306720D01*
X302755Y310081D01*
X302755Y313719D01*
X304147Y317080D01*
X306720Y319653D01*
X310081Y321045D01*
X313719Y321045D01*
X317080Y319653D01*
X319653Y317080D01*
X321045Y313719D01*
X321045Y310081D01*
X319653Y306720D01*
X317080Y304147D01*
X313719Y302755D01*
X310081Y302755D01*
G37*
%LPD*%
%LPC*%
G36*
X335481Y378955D02*
X335481Y378955D01*
X332120Y380347D01*
X329547Y382920D01*
X328155Y386281D01*
X328155Y389919D01*
X329547Y393280D01*
X332120Y395853D01*
X335481Y397245D01*
X339119Y397245D01*
X342480Y395853D01*
X345053Y393280D01*
X346445Y389919D01*
X346445Y386281D01*
X345053Y382920D01*
X342480Y380347D01*
X339119Y378955D01*
X335481Y378955D01*
G37*
%LPD*%
%LPC*%
G36*
X335481Y302755D02*
X335481Y302755D01*
X332120Y304147D01*
X329547Y306720D01*
X328155Y310081D01*
X328155Y313719D01*
X329547Y317080D01*
X332120Y319653D01*
X335481Y321045D01*
X339119Y321045D01*
X342480Y319653D01*
X345053Y317080D01*
X346445Y313719D01*
X346445Y310081D01*
X345053Y306720D01*
X342480Y304147D01*
X339119Y302755D01*
X335481Y302755D01*
G37*
%LPD*%
%LPC*%
G36*
X28742Y333677D02*
X28742Y333677D01*
X26418Y334640D01*
X24640Y336418D01*
X23677Y338742D01*
X23677Y341258D01*
X24640Y343582D01*
X26418Y345360D01*
X28742Y346323D01*
X31258Y346323D01*
X33582Y345360D01*
X35360Y343582D01*
X36323Y341258D01*
X36323Y338742D01*
X35360Y336418D01*
X33582Y334640D01*
X31258Y333677D01*
X28742Y333677D01*
G37*
%LPD*%
%LPC*%
G36*
X516242Y333677D02*
X516242Y333677D01*
X513918Y334640D01*
X512140Y336418D01*
X511177Y338742D01*
X511177Y341258D01*
X512140Y343582D01*
X513918Y345360D01*
X516242Y346323D01*
X518758Y346323D01*
X521082Y345360D01*
X522860Y343582D01*
X523823Y341258D01*
X523823Y338742D01*
X522860Y336418D01*
X521082Y334640D01*
X518758Y333677D01*
X516242Y333677D01*
G37*
%LPD*%
%LPC*%
G36*
X338742Y663677D02*
X338742Y663677D01*
X336418Y664640D01*
X334640Y666418D01*
X333677Y668742D01*
X333677Y671258D01*
X334640Y673582D01*
X336418Y675360D01*
X338742Y676323D01*
X341258Y676323D01*
X343582Y675360D01*
X345360Y673582D01*
X346323Y671258D01*
X346323Y668742D01*
X345360Y666418D01*
X343582Y664640D01*
X341258Y663677D01*
X338742Y663677D01*
G37*
%LPD*%
%LPC*%
G36*
X358742Y623677D02*
X358742Y623677D01*
X356418Y624640D01*
X354640Y626418D01*
X353677Y628742D01*
X353677Y631258D01*
X354640Y633582D01*
X356418Y635360D01*
X358742Y636323D01*
X361258Y636323D01*
X363582Y635360D01*
X365360Y633582D01*
X366323Y631258D01*
X366323Y628742D01*
X365360Y626418D01*
X363582Y624640D01*
X361258Y623677D01*
X358742Y623677D01*
G37*
%LPD*%
%LPC*%
G36*
X293742Y566177D02*
X293742Y566177D01*
X291418Y567140D01*
X289640Y568918D01*
X288677Y571242D01*
X288677Y573758D01*
X289640Y576082D01*
X291418Y577860D01*
X293742Y578823D01*
X296258Y578823D01*
X298582Y577860D01*
X300360Y576082D01*
X301323Y573758D01*
X301323Y571242D01*
X300360Y568918D01*
X298582Y567140D01*
X296258Y566177D01*
X293742Y566177D01*
G37*
%LPD*%
%LPC*%
G36*
X273742Y566177D02*
X273742Y566177D01*
X271418Y567140D01*
X269640Y568918D01*
X268677Y571242D01*
X268677Y573758D01*
X269640Y576082D01*
X271418Y577860D01*
X273742Y578823D01*
X276258Y578823D01*
X278582Y577860D01*
X280360Y576082D01*
X281323Y573758D01*
X281323Y571242D01*
X280360Y568918D01*
X278582Y567140D01*
X276258Y566177D01*
X273742Y566177D01*
G37*
%LPD*%
%LPC*%
G36*
X168742Y293677D02*
X168742Y293677D01*
X166418Y294640D01*
X164640Y296418D01*
X163677Y298742D01*
X163677Y301258D01*
X164640Y303582D01*
X166418Y305360D01*
X168742Y306323D01*
X171258Y306323D01*
X173582Y305360D01*
X175360Y303582D01*
X176323Y301258D01*
X176323Y298742D01*
X175360Y296418D01*
X173582Y294640D01*
X171258Y293677D01*
X168742Y293677D01*
G37*
%LPD*%
%LPC*%
G36*
X148742Y293677D02*
X148742Y293677D01*
X146418Y294640D01*
X144640Y296418D01*
X143677Y298742D01*
X143677Y301258D01*
X144640Y303582D01*
X146418Y305360D01*
X148742Y306323D01*
X151258Y306323D01*
X153582Y305360D01*
X155360Y303582D01*
X156323Y301258D01*
X156323Y298742D01*
X155360Y296418D01*
X153582Y294640D01*
X151258Y293677D01*
X148742Y293677D01*
G37*
%LPD*%
%LPC*%
G36*
X133742Y558677D02*
X133742Y558677D01*
X131418Y559640D01*
X129640Y561418D01*
X128677Y563742D01*
X128677Y566258D01*
X129640Y568582D01*
X131418Y570360D01*
X133742Y571323D01*
X136258Y571323D01*
X138582Y570360D01*
X140360Y568582D01*
X141323Y566258D01*
X141323Y563742D01*
X140360Y561418D01*
X138582Y559640D01*
X136258Y558677D01*
X133742Y558677D01*
G37*
%LPD*%
%LPC*%
G36*
X133742Y128677D02*
X133742Y128677D01*
X131418Y129640D01*
X129640Y131418D01*
X128677Y133742D01*
X128677Y136258D01*
X129640Y138582D01*
X131418Y140360D01*
X133742Y141323D01*
X136258Y141323D01*
X138582Y140360D01*
X140360Y138582D01*
X141323Y136258D01*
X141323Y133742D01*
X140360Y131418D01*
X138582Y129640D01*
X136258Y128677D01*
X133742Y128677D01*
G37*
%LPD*%
%LPC*%
G36*
X338742Y263677D02*
X338742Y263677D01*
X336418Y264640D01*
X334640Y266418D01*
X333677Y268742D01*
X333677Y271258D01*
X334640Y273582D01*
X336418Y275360D01*
X338742Y276323D01*
X341258Y276323D01*
X343582Y275360D01*
X345360Y273582D01*
X346323Y271258D01*
X346323Y268742D01*
X345360Y266418D01*
X343582Y264640D01*
X341258Y263677D01*
X338742Y263677D01*
G37*
%LPD*%
%LPC*%
G36*
X168742Y263677D02*
X168742Y263677D01*
X166418Y264640D01*
X164640Y266418D01*
X163677Y268742D01*
X163677Y271258D01*
X164640Y273582D01*
X166418Y275360D01*
X168742Y276323D01*
X171258Y276323D01*
X173582Y275360D01*
X175360Y273582D01*
X176323Y271258D01*
X176323Y268742D01*
X175360Y266418D01*
X173582Y264640D01*
X171258Y263677D01*
X168742Y263677D01*
G37*
%LPD*%
%LPC*%
G36*
X563742Y558677D02*
X563742Y558677D01*
X561418Y559640D01*
X559640Y561418D01*
X558677Y563742D01*
X558677Y566258D01*
X559640Y568582D01*
X561418Y570360D01*
X563742Y571323D01*
X566258Y571323D01*
X568582Y570360D01*
X570360Y568582D01*
X571323Y566258D01*
X571323Y563742D01*
X570360Y561418D01*
X568582Y559640D01*
X566258Y558677D01*
X563742Y558677D01*
G37*
%LPD*%
%LPC*%
G36*
X91242Y546177D02*
X91242Y546177D01*
X88918Y547140D01*
X87140Y548918D01*
X86177Y551242D01*
X86177Y553758D01*
X87140Y556082D01*
X88918Y557860D01*
X91242Y558823D01*
X93758Y558823D01*
X96082Y557860D01*
X97860Y556082D01*
X98823Y553758D01*
X98823Y551242D01*
X97860Y548918D01*
X96082Y547140D01*
X93758Y546177D01*
X91242Y546177D01*
G37*
%LPD*%
%LPC*%
G36*
X358742Y533677D02*
X358742Y533677D01*
X356418Y534640D01*
X354640Y536418D01*
X353677Y538742D01*
X353677Y541258D01*
X354640Y543582D01*
X356418Y545360D01*
X358742Y546323D01*
X361258Y546323D01*
X363582Y545360D01*
X365360Y543582D01*
X366323Y541258D01*
X366323Y538742D01*
X365360Y536418D01*
X363582Y534640D01*
X361258Y533677D01*
X358742Y533677D01*
G37*
%LPD*%
%LPC*%
G36*
X318742Y533677D02*
X318742Y533677D01*
X316418Y534640D01*
X314640Y536418D01*
X313677Y538742D01*
X313677Y541258D01*
X314640Y543582D01*
X316418Y545360D01*
X318742Y546323D01*
X321258Y546323D01*
X323582Y545360D01*
X325360Y543582D01*
X326323Y541258D01*
X326323Y538742D01*
X325360Y536418D01*
X323582Y534640D01*
X321258Y533677D01*
X318742Y533677D01*
G37*
%LPD*%
%LPC*%
G36*
X606242Y531177D02*
X606242Y531177D01*
X603918Y532140D01*
X602140Y533918D01*
X601177Y536242D01*
X601177Y538758D01*
X602140Y541082D01*
X603918Y542860D01*
X606242Y543823D01*
X608758Y543823D01*
X611082Y542860D01*
X612860Y541082D01*
X613823Y538758D01*
X613823Y536242D01*
X612860Y533918D01*
X611082Y532140D01*
X608758Y531177D01*
X606242Y531177D01*
G37*
%LPD*%
%LPC*%
G36*
X388742Y153677D02*
X388742Y153677D01*
X386418Y154640D01*
X384640Y156418D01*
X383677Y158742D01*
X383677Y161258D01*
X384640Y163582D01*
X386418Y165360D01*
X388742Y166323D01*
X391258Y166323D01*
X393582Y165360D01*
X395360Y163582D01*
X396323Y161258D01*
X396323Y158742D01*
X395360Y156418D01*
X393582Y154640D01*
X391258Y153677D01*
X388742Y153677D01*
G37*
%LPD*%
%LPC*%
G36*
X606242Y141177D02*
X606242Y141177D01*
X603918Y142140D01*
X602140Y143918D01*
X601177Y146242D01*
X601177Y148758D01*
X602140Y151082D01*
X603918Y152860D01*
X606242Y153823D01*
X608758Y153823D01*
X611082Y152860D01*
X612860Y151082D01*
X613823Y148758D01*
X613823Y146242D01*
X612860Y143918D01*
X611082Y142140D01*
X608758Y141177D01*
X606242Y141177D01*
G37*
%LPD*%
%LPC*%
G36*
X388742Y133677D02*
X388742Y133677D01*
X386418Y134640D01*
X384640Y136418D01*
X383677Y138742D01*
X383677Y141258D01*
X384640Y143582D01*
X386418Y145360D01*
X388742Y146323D01*
X391258Y146323D01*
X393582Y145360D01*
X395360Y143582D01*
X396323Y141258D01*
X396323Y138742D01*
X395360Y136418D01*
X393582Y134640D01*
X391258Y133677D01*
X388742Y133677D01*
G37*
%LPD*%
%LPC*%
G36*
X358742Y23677D02*
X358742Y23677D01*
X356418Y24640D01*
X354640Y26418D01*
X353677Y28742D01*
X353677Y31258D01*
X354640Y33582D01*
X356418Y35360D01*
X358742Y36323D01*
X361258Y36323D01*
X363582Y35360D01*
X365360Y33582D01*
X366323Y31258D01*
X366323Y28742D01*
X365360Y26418D01*
X363582Y24640D01*
X361258Y23677D01*
X358742Y23677D01*
G37*
%LPD*%
%LPC*%
G36*
X318742Y93677D02*
X318742Y93677D01*
X316418Y94640D01*
X314640Y96418D01*
X313677Y98742D01*
X313677Y101258D01*
X314640Y103582D01*
X316418Y105360D01*
X318742Y106323D01*
X321258Y106323D01*
X323582Y105360D01*
X325360Y103582D01*
X326323Y101258D01*
X326323Y98742D01*
X325360Y96418D01*
X323582Y94640D01*
X321258Y93677D01*
X318742Y93677D01*
G37*
%LPD*%
%LPC*%
G36*
X378742Y93677D02*
X378742Y93677D01*
X376418Y94640D01*
X374640Y96418D01*
X373677Y98742D01*
X373677Y101258D01*
X374640Y103582D01*
X376418Y105360D01*
X378742Y106323D01*
X381258Y106323D01*
X383582Y105360D01*
X385360Y103582D01*
X386323Y101258D01*
X386323Y98742D01*
X385360Y96418D01*
X383582Y94640D01*
X381258Y93677D01*
X378742Y93677D01*
G37*
%LPD*%
%LPC*%
G36*
X388742Y493677D02*
X388742Y493677D01*
X386418Y494640D01*
X384640Y496418D01*
X383677Y498742D01*
X383677Y501258D01*
X384640Y503582D01*
X386418Y505360D01*
X388742Y506323D01*
X391258Y506323D01*
X393582Y505360D01*
X395360Y503582D01*
X396323Y501258D01*
X396323Y498742D01*
X395360Y496418D01*
X393582Y494640D01*
X391258Y493677D01*
X388742Y493677D01*
G37*
%LPD*%
%LPC*%
G36*
X338742Y463677D02*
X338742Y463677D01*
X336418Y464640D01*
X334640Y466418D01*
X333677Y468742D01*
X333677Y471258D01*
X334640Y473582D01*
X336418Y475360D01*
X338742Y476323D01*
X341258Y476323D01*
X343582Y475360D01*
X345360Y473582D01*
X346323Y471258D01*
X346323Y468742D01*
X345360Y466418D01*
X343582Y464640D01*
X341258Y463677D01*
X338742Y463677D01*
G37*
%LPD*%
%LPC*%
G36*
X338742Y63677D02*
X338742Y63677D01*
X336418Y64640D01*
X334640Y66418D01*
X333677Y68742D01*
X333677Y71258D01*
X334640Y73582D01*
X336418Y75360D01*
X338742Y76323D01*
X341258Y76323D01*
X343582Y75360D01*
X345360Y73582D01*
X346323Y71258D01*
X346323Y68742D01*
X345360Y66418D01*
X343582Y64640D01*
X341258Y63677D01*
X338742Y63677D01*
G37*
%LPD*%
%LPC*%
G36*
X358742Y423677D02*
X358742Y423677D01*
X356418Y424640D01*
X354640Y426418D01*
X353677Y428742D01*
X353677Y431258D01*
X354640Y433582D01*
X356418Y435360D01*
X358742Y436323D01*
X361258Y436323D01*
X363582Y435360D01*
X365360Y433582D01*
X366323Y431258D01*
X366323Y428742D01*
X365360Y426418D01*
X363582Y424640D01*
X361258Y423677D01*
X358742Y423677D01*
G37*
%LPD*%
%LPC*%
G36*
X88742Y403677D02*
X88742Y403677D01*
X86418Y404640D01*
X84640Y406418D01*
X83677Y408742D01*
X83677Y411258D01*
X84640Y413582D01*
X86418Y415360D01*
X88742Y416323D01*
X91258Y416323D01*
X93582Y415360D01*
X95360Y413582D01*
X96323Y411258D01*
X96323Y408742D01*
X95360Y406418D01*
X93582Y404640D01*
X91258Y403677D01*
X88742Y403677D01*
G37*
%LPD*%
%LPC*%
G36*
X108742Y393677D02*
X108742Y393677D01*
X106418Y394640D01*
X104640Y396418D01*
X103677Y398742D01*
X103677Y401258D01*
X104640Y403582D01*
X106418Y405360D01*
X108742Y406323D01*
X111258Y406323D01*
X113582Y405360D01*
X115360Y403582D01*
X116323Y401258D01*
X116323Y398742D01*
X115360Y396418D01*
X113582Y394640D01*
X111258Y393677D01*
X108742Y393677D01*
G37*
%LPD*%
%LPC*%
G36*
X551242Y601177D02*
X551242Y601177D01*
X548918Y602140D01*
X547140Y603918D01*
X546177Y606242D01*
X546177Y608758D01*
X547140Y611082D01*
X548918Y612860D01*
X551242Y613823D01*
X553758Y613823D01*
X556082Y612860D01*
X557860Y611082D01*
X558823Y608758D01*
X558823Y606242D01*
X557860Y603918D01*
X556082Y602140D01*
X553758Y601177D01*
X551242Y601177D01*
G37*
%LPD*%
%LPC*%
G36*
X68742Y353677D02*
X68742Y353677D01*
X66418Y354640D01*
X64640Y356418D01*
X63677Y358742D01*
X63677Y361258D01*
X64640Y363582D01*
X66418Y365360D01*
X68742Y366323D01*
X71258Y366323D01*
X73582Y365360D01*
X75360Y363582D01*
X76323Y361258D01*
X76323Y358742D01*
X75360Y356418D01*
X73582Y354640D01*
X71258Y353677D01*
X68742Y353677D01*
G37*
%LPD*%
%LPC*%
G36*
X213742Y351177D02*
X213742Y351177D01*
X211418Y352140D01*
X209640Y353918D01*
X208677Y356242D01*
X208677Y358758D01*
X209640Y361082D01*
X211418Y362860D01*
X213742Y363823D01*
X216258Y363823D01*
X218582Y362860D01*
X220360Y361082D01*
X221323Y358758D01*
X221323Y356242D01*
X220360Y353918D01*
X218582Y352140D01*
X216258Y351177D01*
X213742Y351177D01*
G37*
%LPD*%
%LPC*%
G36*
X653174Y283326D02*
X653174Y283326D01*
X659652Y283326D01*
X659416Y282600D01*
X658690Y281175D01*
X657750Y279881D01*
X656619Y278750D01*
X655325Y277810D01*
X653900Y277084D01*
X653174Y276848D01*
X653174Y283326D01*
G37*
%LPD*%
%LPC*%
G36*
X646100Y277084D02*
X646100Y277084D01*
X644675Y277810D01*
X643381Y278750D01*
X642250Y279881D01*
X641310Y281175D01*
X640584Y282600D01*
X640348Y283326D01*
X646826Y283326D01*
X646826Y276848D01*
X646100Y277084D01*
G37*
%LPD*%
%LPC*%
G36*
X467474Y391274D02*
X467474Y391274D01*
X467474Y396684D01*
X467810Y396575D01*
X469093Y395921D01*
X470257Y395075D01*
X471275Y394057D01*
X472121Y392893D01*
X472775Y391610D01*
X472884Y391274D01*
X467474Y391274D01*
G37*
%LPD*%
%LPC*%
G36*
X455716Y391274D02*
X455716Y391274D01*
X455825Y391610D01*
X456479Y392893D01*
X457325Y394057D01*
X458343Y395075D01*
X459507Y395921D01*
X460790Y396575D01*
X461126Y396684D01*
X461126Y391274D01*
X455716Y391274D01*
G37*
%LPD*%
%LPC*%
G36*
X467474Y384926D02*
X467474Y384926D01*
X472884Y384926D01*
X472775Y384590D01*
X472121Y383307D01*
X471275Y382143D01*
X470257Y381125D01*
X469093Y380279D01*
X467810Y379625D01*
X467474Y379516D01*
X467474Y384926D01*
G37*
%LPD*%
%LPC*%
G36*
X460790Y379625D02*
X460790Y379625D01*
X459507Y380279D01*
X458343Y381125D01*
X457325Y382143D01*
X456479Y383307D01*
X455825Y384590D01*
X455716Y384926D01*
X461126Y384926D01*
X461126Y379516D01*
X460790Y379625D01*
G37*
%LPD*%
%LPC*%
G36*
X601174Y443174D02*
X601174Y443174D01*
X601174Y448517D01*
X601486Y448415D01*
X602759Y447767D01*
X603916Y446926D01*
X604926Y445916D01*
X605767Y444759D01*
X606415Y443486D01*
X606517Y443174D01*
X601174Y443174D01*
G37*
%LPD*%
%LPC*%
G36*
X553174Y473174D02*
X553174Y473174D01*
X553174Y478517D01*
X553486Y478415D01*
X554759Y477767D01*
X555916Y476926D01*
X556926Y475916D01*
X557767Y474759D01*
X558415Y473486D01*
X558517Y473174D01*
X553174Y473174D01*
G37*
%LPD*%
%LPC*%
G36*
X553174Y466826D02*
X553174Y466826D01*
X558517Y466826D01*
X558415Y466514D01*
X557767Y465241D01*
X556926Y464084D01*
X555916Y463074D01*
X554759Y462233D01*
X553486Y461585D01*
X553174Y461483D01*
X553174Y466826D01*
G37*
%LPD*%
%LPC*%
G36*
X541483Y473174D02*
X541483Y473174D01*
X541585Y473486D01*
X542233Y474759D01*
X543074Y475916D01*
X544084Y476926D01*
X545241Y477767D01*
X546514Y478415D01*
X546826Y478517D01*
X546826Y473174D01*
X541483Y473174D01*
G37*
%LPD*%
%LPC*%
G36*
X601174Y436826D02*
X601174Y436826D01*
X606517Y436826D01*
X606415Y436514D01*
X605767Y435241D01*
X604926Y434084D01*
X603916Y433074D01*
X602759Y432233D01*
X601486Y431585D01*
X601174Y431483D01*
X601174Y436826D01*
G37*
%LPD*%
%LPC*%
G36*
X589483Y443174D02*
X589483Y443174D01*
X589585Y443486D01*
X590233Y444759D01*
X591074Y445916D01*
X592084Y446926D01*
X593241Y447767D01*
X594514Y448415D01*
X594826Y448517D01*
X594826Y443174D01*
X589483Y443174D01*
G37*
%LPD*%
%LPC*%
G36*
X594514Y431585D02*
X594514Y431585D01*
X593241Y432233D01*
X592084Y433074D01*
X591074Y434084D01*
X590233Y435241D01*
X589585Y436514D01*
X589483Y436826D01*
X594826Y436826D01*
X594826Y431483D01*
X594514Y431585D01*
G37*
%LPD*%
%LPC*%
G36*
X546514Y461585D02*
X546514Y461585D01*
X545241Y462233D01*
X544084Y463074D01*
X543074Y464084D01*
X542233Y465241D01*
X541585Y466514D01*
X541483Y466826D01*
X546826Y466826D01*
X546826Y461483D01*
X546514Y461585D01*
G37*
%LPD*%
D10*
X598000Y440000D03*
X550000Y470000D03*
D11*
X550000Y410000D03*
D12*
X50000Y50000D03*
X250000Y450000D03*
X450000Y450000D03*
X650000Y450000D03*
X50000Y650000D03*
X250000Y650000D03*
X450000Y650000D03*
X650000Y650000D03*
X80000Y50000D03*
X650000Y80000D03*
X620000Y650000D03*
X250000Y50000D03*
X50000Y620000D03*
X50000Y80000D03*
X620000Y50000D03*
X650000Y620000D03*
X80000Y650000D03*
X650000Y286500D03*
X650000Y311900D03*
X650000Y337300D03*
X650000Y362700D03*
X650000Y388100D03*
X650000Y413500D03*
X450000Y50000D03*
X650000Y50000D03*
X50000Y250000D03*
X250000Y250000D03*
X450000Y250000D03*
X650000Y250000D03*
X50000Y450000D03*
D13*
X464300Y311900D03*
X438900Y311900D03*
X311900Y311900D03*
X286500Y311900D03*
X413500Y311900D03*
X388100Y311900D03*
X337300Y311900D03*
X362700Y311900D03*
X261100Y311900D03*
X235700Y311900D03*
X235700Y388100D03*
X261100Y388100D03*
X286500Y388100D03*
X311900Y388100D03*
X337300Y388100D03*
X362700Y388100D03*
X388100Y388100D03*
X413500Y388100D03*
X438900Y388100D03*
X464300Y388100D03*
D14*
X60000Y185000D03*
X185000Y40000D03*
X515000Y60000D03*
X640000Y515000D03*
X185000Y640000D03*
X20000Y100000D03*
X20000Y50000D03*
X50000Y20000D03*
X100000Y20000D03*
X150000Y20000D03*
X200000Y20000D03*
X250000Y20000D03*
X300000Y20000D03*
X350000Y20000D03*
X400000Y20000D03*
X450000Y20000D03*
X500000Y20000D03*
X550000Y20000D03*
X600000Y20000D03*
X650000Y20000D03*
X680000Y50000D03*
X680000Y100000D03*
X680000Y150000D03*
X680000Y200000D03*
X680000Y250000D03*
X680000Y300000D03*
X680000Y350000D03*
X680000Y400000D03*
X680000Y450000D03*
X680000Y500000D03*
X680000Y550000D03*
X680000Y600000D03*
X680000Y650000D03*
X650000Y680000D03*
X600000Y680000D03*
X550000Y680000D03*
X500000Y680000D03*
X450000Y680000D03*
X400000Y680000D03*
X350000Y680000D03*
X300000Y680000D03*
X250000Y680000D03*
X200000Y680000D03*
X150000Y680000D03*
X100000Y680000D03*
X50000Y680000D03*
X20000Y650000D03*
X20000Y600000D03*
X20000Y550000D03*
X20000Y500000D03*
X20000Y450000D03*
X20000Y400000D03*
X20000Y350000D03*
X20000Y300000D03*
X20000Y250000D03*
X20000Y200000D03*
X20000Y150000D03*
X100000Y250000D03*
X150000Y150000D03*
X200000Y150000D03*
X200000Y100000D03*
X250000Y100000D03*
X450000Y100000D03*
X500000Y100000D03*
X500000Y150000D03*
X450000Y150000D03*
X400000Y100000D03*
X600000Y250000D03*
X150000Y450000D03*
X100000Y450000D03*
X200000Y500000D03*
X250000Y550000D03*
X200000Y600000D03*
X450000Y600000D03*
X500000Y600000D03*
X450000Y500000D03*
X500000Y400000D03*
X600000Y350000D03*
X600000Y300000D03*
X200000Y300000D03*
X300000Y150000D03*
X300000Y500000D03*
X150000Y500000D03*
X150000Y600000D03*
X350000Y250000D03*
X350000Y450000D03*
X350000Y650000D03*
X350000Y50000D03*
X50000Y350000D03*
X95000Y60000D03*
X640000Y95000D03*
X605000Y640000D03*
X60000Y605000D03*
X42500Y185000D03*
X185000Y57500D03*
X515000Y42500D03*
X642500Y185000D03*
X657500Y515000D03*
X515000Y642500D03*
X185000Y657500D03*
X57500Y515000D03*
D15*
X550000Y432500D02*
X550000Y410000D01*
X550000Y432500D02*
X612500Y495000D01*
X645000Y495000D01*
X657500Y507500D01*
X657500Y515000D01*
X550000Y410000D02*
X515000Y445000D01*
X515000Y485000D01*
X515000Y642500D01*
X245000Y597500D02*
X185000Y657500D01*
X245000Y597500D02*
X402500Y597500D01*
X515000Y485000D01*
X245000Y597500D02*
X162500Y515000D01*
X57500Y515000D01*
X550000Y410000D02*
X555000Y405000D01*
X555000Y272500D01*
X642500Y185000D01*
X555000Y272500D02*
X555000Y82500D01*
X515000Y42500D01*
X336997Y209497D02*
X185000Y57500D01*
X336997Y209497D02*
X491997Y209497D01*
X555000Y272500D01*
X336997Y209497D02*
X59497Y209497D01*
X42500Y192500D01*
X42500Y185000D01*
D14*
X215000Y357500D03*
X517500Y340000D03*
X360000Y230000D03*
X340000Y160000D03*
X610000Y190000D03*
X320000Y100000D03*
X340000Y270000D03*
X340000Y140000D03*
X30000Y340000D03*
X350000Y150000D03*
X565000Y135000D03*
X390000Y160000D03*
X360000Y30000D03*
X380000Y100000D03*
X340000Y70000D03*
X390000Y140000D03*
X135000Y135000D03*
X360000Y160000D03*
X360000Y630000D03*
X360000Y562500D03*
X565000Y565000D03*
X320000Y540000D03*
X340000Y670000D03*
X375000Y562500D03*
X135000Y565000D03*
X360000Y540000D03*
X610000Y470000D03*
X395000Y550000D03*
X360000Y430000D03*
X390000Y537500D03*
X340000Y470000D03*
X390000Y500000D03*
X70000Y360000D03*
X400000Y562500D03*
X110000Y300000D03*
X607500Y537500D03*
X120000Y290000D03*
X537500Y95000D03*
X170000Y300000D03*
X552500Y607500D03*
X170000Y270000D03*
X607500Y147500D03*
X295000Y572500D03*
X275000Y572500D03*
X150000Y300000D03*
X92500Y552500D03*
X140000Y400000D03*
X130000Y410000D03*
X110000Y400000D03*
X90000Y410000D03*
M02*
