G04 EAGLE Gerber RS-274X export*
G75*
%MOMM*%
%FSLAX34Y34*%
%LPD*%
%IN*%
%IPPOS*%
%AMOC8*
5,1,8,0,0,1.08239X$1,22.5*%
G01*
%ADD10C,0.254000*%


D10*
X0Y30000D02*
X114Y27385D01*
X456Y24791D01*
X1022Y22235D01*
X1809Y19739D01*
X2811Y17321D01*
X4019Y15000D01*
X5425Y12793D01*
X7019Y10716D01*
X8787Y8787D01*
X10716Y7019D01*
X12793Y5425D01*
X15000Y4019D01*
X17321Y2811D01*
X19739Y1809D01*
X22235Y1022D01*
X24791Y456D01*
X27385Y114D01*
X30000Y0D01*
X670000Y0D01*
X672615Y114D01*
X675209Y456D01*
X677765Y1022D01*
X680261Y1809D01*
X682679Y2811D01*
X685000Y4019D01*
X687207Y5425D01*
X689284Y7019D01*
X691213Y8787D01*
X692981Y10716D01*
X694575Y12793D01*
X695981Y15000D01*
X697189Y17321D01*
X698191Y19739D01*
X698978Y22235D01*
X699544Y24791D01*
X699886Y27385D01*
X700000Y30000D01*
X700000Y670000D01*
X699886Y672615D01*
X699544Y675209D01*
X698978Y677765D01*
X698191Y680261D01*
X697189Y682679D01*
X695981Y685000D01*
X694575Y687207D01*
X692981Y689284D01*
X691213Y691213D01*
X689284Y692981D01*
X687207Y694575D01*
X685000Y695981D01*
X682679Y697189D01*
X680261Y698191D01*
X677765Y698978D01*
X675209Y699544D01*
X672615Y699886D01*
X670000Y700000D01*
X30000Y700000D01*
X27385Y699886D01*
X24791Y699544D01*
X22235Y698978D01*
X19739Y698191D01*
X17321Y697189D01*
X15000Y695981D01*
X12793Y694575D01*
X10716Y692981D01*
X8787Y691213D01*
X7019Y689284D01*
X5425Y687207D01*
X4019Y685000D01*
X2811Y682679D01*
X1809Y680261D01*
X1022Y677765D01*
X456Y675209D01*
X114Y672615D01*
X0Y670000D01*
X0Y30000D01*
X594000Y425000D02*
X602000Y425000D01*
X602000Y455000D01*
X594000Y455000D01*
X594000Y425000D01*
X532500Y405000D02*
X567500Y405000D01*
X567500Y415000D01*
X532500Y415000D01*
X532500Y405000D01*
X535000Y466000D02*
X565000Y466000D01*
X565000Y474000D01*
X535000Y474000D01*
X535000Y466000D01*
M02*
