G04 EAGLE Gerber RS-274X export*
G75*
%MOMM*%
%FSLAX34Y34*%
%LPD*%
%INSilkscreen Top*%
%IPPOS*%
%AMOC8*
5,1,8,0,0,1.08239X$1,22.5*%
G01*
%ADD10C,0.203200*%
%ADD11C,0.304800*%


D10*
X71696Y221209D02*
X71696Y205461D01*
X78695Y205461D01*
X85243Y205461D02*
X92242Y205461D01*
X85243Y205461D02*
X85243Y221209D01*
X92242Y221209D01*
X90492Y214210D02*
X85243Y214210D01*
X98754Y221209D02*
X98754Y205461D01*
X98754Y221209D02*
X103129Y221209D01*
X103259Y221207D01*
X103388Y221201D01*
X103517Y221192D01*
X103646Y221178D01*
X103775Y221161D01*
X103903Y221140D01*
X104030Y221115D01*
X104156Y221087D01*
X104282Y221054D01*
X104406Y221018D01*
X104530Y220979D01*
X104652Y220935D01*
X104773Y220888D01*
X104892Y220838D01*
X105010Y220784D01*
X105126Y220726D01*
X105241Y220665D01*
X105353Y220601D01*
X105464Y220534D01*
X105573Y220463D01*
X105679Y220389D01*
X105783Y220312D01*
X105885Y220232D01*
X105984Y220148D01*
X106081Y220062D01*
X106176Y219973D01*
X106267Y219882D01*
X106356Y219787D01*
X106442Y219690D01*
X106526Y219591D01*
X106606Y219489D01*
X106683Y219385D01*
X106757Y219279D01*
X106828Y219170D01*
X106895Y219059D01*
X106959Y218947D01*
X107020Y218832D01*
X107078Y218716D01*
X107132Y218598D01*
X107182Y218479D01*
X107229Y218358D01*
X107273Y218236D01*
X107312Y218112D01*
X107348Y217988D01*
X107381Y217862D01*
X107409Y217736D01*
X107434Y217609D01*
X107455Y217481D01*
X107472Y217352D01*
X107486Y217223D01*
X107495Y217094D01*
X107501Y216965D01*
X107503Y216835D01*
X107503Y209835D01*
X107501Y209705D01*
X107495Y209576D01*
X107486Y209447D01*
X107472Y209318D01*
X107455Y209189D01*
X107434Y209061D01*
X107409Y208934D01*
X107381Y208808D01*
X107348Y208682D01*
X107312Y208558D01*
X107273Y208434D01*
X107229Y208312D01*
X107182Y208191D01*
X107132Y208072D01*
X107078Y207954D01*
X107020Y207838D01*
X106959Y207723D01*
X106895Y207611D01*
X106828Y207500D01*
X106757Y207391D01*
X106683Y207285D01*
X106606Y207181D01*
X106526Y207079D01*
X106442Y206980D01*
X106356Y206883D01*
X106267Y206788D01*
X106176Y206697D01*
X106081Y206608D01*
X105984Y206522D01*
X105885Y206438D01*
X105783Y206358D01*
X105679Y206281D01*
X105573Y206207D01*
X105464Y206136D01*
X105353Y206069D01*
X105241Y206005D01*
X105126Y205944D01*
X105010Y205886D01*
X104892Y205832D01*
X104773Y205782D01*
X104652Y205735D01*
X104530Y205691D01*
X104406Y205652D01*
X104282Y205616D01*
X104156Y205583D01*
X104030Y205555D01*
X103903Y205530D01*
X103775Y205509D01*
X103646Y205492D01*
X103517Y205478D01*
X103388Y205469D01*
X103259Y205463D01*
X103129Y205461D01*
X98754Y205461D01*
X118358Y205461D02*
X121858Y205461D01*
X118358Y205461D02*
X118241Y205463D01*
X118124Y205469D01*
X118008Y205479D01*
X117891Y205492D01*
X117776Y205510D01*
X117661Y205531D01*
X117547Y205556D01*
X117433Y205585D01*
X117321Y205618D01*
X117210Y205655D01*
X117100Y205695D01*
X116992Y205739D01*
X116885Y205786D01*
X116779Y205837D01*
X116676Y205892D01*
X116574Y205950D01*
X116475Y206011D01*
X116377Y206075D01*
X116282Y206143D01*
X116189Y206214D01*
X116098Y206288D01*
X116010Y206365D01*
X115925Y206445D01*
X115842Y206528D01*
X115762Y206613D01*
X115685Y206701D01*
X115611Y206792D01*
X115540Y206885D01*
X115472Y206980D01*
X115408Y207078D01*
X115347Y207177D01*
X115289Y207279D01*
X115234Y207382D01*
X115183Y207488D01*
X115136Y207595D01*
X115092Y207703D01*
X115052Y207813D01*
X115015Y207924D01*
X114982Y208036D01*
X114953Y208150D01*
X114928Y208264D01*
X114907Y208379D01*
X114889Y208494D01*
X114876Y208611D01*
X114866Y208727D01*
X114860Y208844D01*
X114858Y208961D01*
X114859Y208961D02*
X114859Y217709D01*
X114858Y217709D02*
X114860Y217826D01*
X114866Y217943D01*
X114876Y218059D01*
X114889Y218176D01*
X114907Y218291D01*
X114928Y218406D01*
X114953Y218520D01*
X114982Y218634D01*
X115015Y218746D01*
X115052Y218857D01*
X115092Y218967D01*
X115136Y219075D01*
X115183Y219182D01*
X115234Y219288D01*
X115289Y219391D01*
X115347Y219493D01*
X115408Y219592D01*
X115472Y219690D01*
X115540Y219785D01*
X115611Y219878D01*
X115685Y219969D01*
X115762Y220057D01*
X115842Y220142D01*
X115925Y220225D01*
X116010Y220305D01*
X116098Y220382D01*
X116189Y220456D01*
X116282Y220527D01*
X116377Y220595D01*
X116475Y220659D01*
X116574Y220720D01*
X116676Y220778D01*
X116779Y220833D01*
X116885Y220884D01*
X116992Y220931D01*
X117100Y220975D01*
X117210Y221015D01*
X117321Y221052D01*
X117433Y221085D01*
X117547Y221114D01*
X117661Y221139D01*
X117776Y221160D01*
X117891Y221178D01*
X118008Y221191D01*
X118124Y221201D01*
X118241Y221207D01*
X118358Y221209D01*
X121858Y221209D01*
X128286Y215960D02*
X128286Y208086D01*
X128288Y207985D01*
X128294Y207885D01*
X128303Y207785D01*
X128317Y207685D01*
X128334Y207586D01*
X128355Y207488D01*
X128380Y207390D01*
X128408Y207294D01*
X128441Y207199D01*
X128476Y207105D01*
X128516Y207012D01*
X128559Y206921D01*
X128605Y206832D01*
X128655Y206745D01*
X128708Y206659D01*
X128764Y206576D01*
X128823Y206495D01*
X128886Y206416D01*
X128951Y206340D01*
X129020Y206266D01*
X129091Y206195D01*
X129165Y206126D01*
X129241Y206061D01*
X129320Y205998D01*
X129401Y205939D01*
X129484Y205883D01*
X129570Y205830D01*
X129657Y205780D01*
X129746Y205734D01*
X129837Y205691D01*
X129930Y205651D01*
X130024Y205616D01*
X130119Y205583D01*
X130215Y205555D01*
X130313Y205530D01*
X130411Y205509D01*
X130510Y205492D01*
X130610Y205478D01*
X130710Y205469D01*
X130810Y205463D01*
X130911Y205461D01*
X135285Y205461D01*
X135285Y215960D01*
X142964Y221209D02*
X142964Y205461D01*
X147338Y205461D01*
X147439Y205463D01*
X147539Y205469D01*
X147639Y205478D01*
X147739Y205492D01*
X147838Y205509D01*
X147936Y205530D01*
X148034Y205555D01*
X148130Y205583D01*
X148225Y205616D01*
X148319Y205651D01*
X148412Y205691D01*
X148503Y205734D01*
X148592Y205780D01*
X148679Y205830D01*
X148765Y205883D01*
X148848Y205939D01*
X148929Y205998D01*
X149008Y206061D01*
X149084Y206126D01*
X149158Y206195D01*
X149229Y206266D01*
X149298Y206340D01*
X149363Y206416D01*
X149426Y206495D01*
X149485Y206576D01*
X149541Y206659D01*
X149594Y206745D01*
X149644Y206832D01*
X149690Y206921D01*
X149733Y207012D01*
X149773Y207105D01*
X149809Y207199D01*
X149841Y207294D01*
X149869Y207390D01*
X149894Y207488D01*
X149915Y207586D01*
X149932Y207685D01*
X149946Y207785D01*
X149955Y207885D01*
X149961Y207985D01*
X149963Y208086D01*
X149963Y213335D01*
X149961Y213436D01*
X149955Y213536D01*
X149946Y213636D01*
X149932Y213736D01*
X149915Y213835D01*
X149894Y213933D01*
X149869Y214031D01*
X149841Y214127D01*
X149808Y214222D01*
X149773Y214316D01*
X149733Y214409D01*
X149690Y214500D01*
X149644Y214589D01*
X149594Y214676D01*
X149541Y214762D01*
X149485Y214845D01*
X149426Y214926D01*
X149363Y215005D01*
X149298Y215081D01*
X149229Y215155D01*
X149158Y215226D01*
X149084Y215295D01*
X149008Y215360D01*
X148929Y215423D01*
X148848Y215482D01*
X148765Y215538D01*
X148679Y215591D01*
X148592Y215641D01*
X148503Y215687D01*
X148412Y215730D01*
X148319Y215770D01*
X148225Y215805D01*
X148130Y215838D01*
X148034Y215866D01*
X147936Y215891D01*
X147838Y215912D01*
X147739Y215929D01*
X147639Y215943D01*
X147539Y215952D01*
X147439Y215958D01*
X147338Y215960D01*
X142964Y215960D01*
X159047Y205461D02*
X163422Y205461D01*
X159047Y205461D02*
X158946Y205463D01*
X158846Y205469D01*
X158746Y205478D01*
X158646Y205492D01*
X158547Y205509D01*
X158449Y205530D01*
X158351Y205555D01*
X158255Y205583D01*
X158160Y205616D01*
X158066Y205651D01*
X157973Y205691D01*
X157882Y205734D01*
X157793Y205780D01*
X157706Y205830D01*
X157620Y205883D01*
X157537Y205939D01*
X157456Y205998D01*
X157377Y206061D01*
X157301Y206126D01*
X157227Y206195D01*
X157156Y206266D01*
X157087Y206340D01*
X157022Y206416D01*
X156959Y206495D01*
X156900Y206576D01*
X156844Y206659D01*
X156791Y206745D01*
X156741Y206832D01*
X156695Y206921D01*
X156652Y207012D01*
X156612Y207105D01*
X156577Y207199D01*
X156544Y207294D01*
X156516Y207390D01*
X156491Y207488D01*
X156470Y207586D01*
X156453Y207685D01*
X156439Y207785D01*
X156430Y207885D01*
X156424Y207985D01*
X156422Y208086D01*
X156422Y212460D01*
X156424Y212578D01*
X156430Y212696D01*
X156440Y212814D01*
X156454Y212931D01*
X156472Y213048D01*
X156494Y213165D01*
X156519Y213280D01*
X156549Y213394D01*
X156583Y213508D01*
X156620Y213620D01*
X156661Y213731D01*
X156706Y213840D01*
X156754Y213948D01*
X156806Y214054D01*
X156862Y214159D01*
X156921Y214261D01*
X156983Y214361D01*
X157049Y214459D01*
X157118Y214555D01*
X157191Y214649D01*
X157266Y214740D01*
X157345Y214828D01*
X157426Y214914D01*
X157511Y214997D01*
X157598Y215077D01*
X157687Y215154D01*
X157780Y215228D01*
X157874Y215298D01*
X157971Y215366D01*
X158071Y215430D01*
X158172Y215491D01*
X158275Y215548D01*
X158381Y215602D01*
X158488Y215653D01*
X158596Y215699D01*
X158706Y215742D01*
X158818Y215781D01*
X158931Y215817D01*
X159045Y215848D01*
X159160Y215876D01*
X159275Y215900D01*
X159392Y215920D01*
X159509Y215936D01*
X159627Y215948D01*
X159745Y215956D01*
X159863Y215960D01*
X159981Y215960D01*
X160099Y215956D01*
X160217Y215948D01*
X160335Y215936D01*
X160452Y215920D01*
X160569Y215900D01*
X160684Y215876D01*
X160799Y215848D01*
X160913Y215817D01*
X161026Y215781D01*
X161138Y215742D01*
X161248Y215699D01*
X161356Y215653D01*
X161463Y215602D01*
X161569Y215548D01*
X161672Y215491D01*
X161773Y215430D01*
X161873Y215366D01*
X161970Y215298D01*
X162064Y215228D01*
X162157Y215154D01*
X162246Y215077D01*
X162333Y214997D01*
X162418Y214914D01*
X162499Y214828D01*
X162578Y214740D01*
X162653Y214649D01*
X162726Y214555D01*
X162795Y214459D01*
X162861Y214361D01*
X162923Y214261D01*
X162982Y214159D01*
X163038Y214054D01*
X163090Y213948D01*
X163138Y213840D01*
X163183Y213731D01*
X163224Y213620D01*
X163261Y213508D01*
X163295Y213394D01*
X163325Y213280D01*
X163350Y213165D01*
X163372Y213048D01*
X163390Y212931D01*
X163404Y212814D01*
X163414Y212696D01*
X163420Y212578D01*
X163422Y212460D01*
X163422Y210710D01*
X156422Y210710D01*
X169448Y203711D02*
X176448Y203711D01*
X182642Y208961D02*
X186141Y221209D01*
X182642Y208961D02*
X191391Y208961D01*
X188766Y212460D02*
X188766Y205461D01*
X197585Y205461D02*
X204584Y215960D01*
X197585Y215960D02*
X204584Y205461D01*
X210778Y208961D02*
X214277Y221209D01*
X210778Y208961D02*
X219527Y208961D01*
X216902Y212460D02*
X216902Y205461D01*
X225721Y205461D02*
X232720Y215960D01*
X225721Y215960D02*
X232720Y205461D01*
X238915Y209835D02*
X238917Y209966D01*
X238923Y210097D01*
X238933Y210227D01*
X238946Y210357D01*
X238964Y210487D01*
X238985Y210616D01*
X239011Y210744D01*
X239040Y210872D01*
X239073Y210999D01*
X239109Y211124D01*
X239150Y211249D01*
X239194Y211372D01*
X239242Y211494D01*
X239293Y211614D01*
X239348Y211733D01*
X239407Y211850D01*
X239469Y211965D01*
X239534Y212078D01*
X239603Y212190D01*
X239675Y212299D01*
X239750Y212406D01*
X239829Y212511D01*
X239910Y212613D01*
X239995Y212713D01*
X240083Y212810D01*
X240173Y212905D01*
X240266Y212997D01*
X240362Y213086D01*
X240461Y213172D01*
X240562Y213255D01*
X240665Y213335D01*
X240771Y213412D01*
X240879Y213485D01*
X240990Y213556D01*
X241102Y213623D01*
X241216Y213687D01*
X241332Y213747D01*
X241450Y213804D01*
X241570Y213857D01*
X241691Y213907D01*
X241814Y213953D01*
X241937Y213995D01*
X242062Y214033D01*
X242189Y214068D01*
X242316Y214099D01*
X242444Y214127D01*
X242572Y214150D01*
X242702Y214169D01*
X242832Y214185D01*
X242962Y214197D01*
X243093Y214205D01*
X243224Y214209D01*
X243354Y214209D01*
X243485Y214205D01*
X243616Y214197D01*
X243746Y214185D01*
X243876Y214169D01*
X244006Y214150D01*
X244134Y214127D01*
X244262Y214099D01*
X244389Y214068D01*
X244516Y214033D01*
X244641Y213995D01*
X244764Y213953D01*
X244887Y213907D01*
X245008Y213857D01*
X245128Y213804D01*
X245246Y213747D01*
X245362Y213687D01*
X245476Y213623D01*
X245588Y213556D01*
X245699Y213485D01*
X245807Y213412D01*
X245913Y213335D01*
X246016Y213255D01*
X246117Y213172D01*
X246216Y213086D01*
X246312Y212997D01*
X246405Y212905D01*
X246495Y212810D01*
X246583Y212713D01*
X246668Y212613D01*
X246749Y212511D01*
X246828Y212406D01*
X246903Y212299D01*
X246975Y212190D01*
X247044Y212078D01*
X247109Y211965D01*
X247171Y211850D01*
X247230Y211733D01*
X247285Y211614D01*
X247336Y211494D01*
X247384Y211372D01*
X247428Y211249D01*
X247469Y211124D01*
X247505Y210999D01*
X247538Y210872D01*
X247567Y210744D01*
X247593Y210616D01*
X247614Y210487D01*
X247632Y210357D01*
X247645Y210227D01*
X247655Y210097D01*
X247661Y209966D01*
X247663Y209835D01*
X247661Y209704D01*
X247655Y209573D01*
X247645Y209443D01*
X247632Y209313D01*
X247614Y209183D01*
X247593Y209054D01*
X247567Y208926D01*
X247538Y208798D01*
X247505Y208671D01*
X247469Y208546D01*
X247428Y208421D01*
X247384Y208298D01*
X247336Y208176D01*
X247285Y208056D01*
X247230Y207937D01*
X247171Y207820D01*
X247109Y207705D01*
X247044Y207592D01*
X246975Y207480D01*
X246903Y207371D01*
X246828Y207264D01*
X246749Y207159D01*
X246668Y207057D01*
X246583Y206957D01*
X246495Y206860D01*
X246405Y206765D01*
X246312Y206673D01*
X246216Y206584D01*
X246117Y206498D01*
X246016Y206415D01*
X245913Y206335D01*
X245807Y206258D01*
X245699Y206185D01*
X245588Y206114D01*
X245476Y206047D01*
X245362Y205983D01*
X245246Y205923D01*
X245128Y205866D01*
X245008Y205813D01*
X244887Y205763D01*
X244764Y205717D01*
X244641Y205675D01*
X244516Y205637D01*
X244389Y205602D01*
X244262Y205571D01*
X244134Y205543D01*
X244006Y205520D01*
X243876Y205501D01*
X243746Y205485D01*
X243616Y205473D01*
X243485Y205465D01*
X243354Y205461D01*
X243224Y205461D01*
X243093Y205465D01*
X242962Y205473D01*
X242832Y205485D01*
X242702Y205501D01*
X242572Y205520D01*
X242444Y205543D01*
X242316Y205571D01*
X242189Y205602D01*
X242062Y205637D01*
X241937Y205675D01*
X241814Y205717D01*
X241691Y205763D01*
X241570Y205813D01*
X241450Y205866D01*
X241332Y205923D01*
X241216Y205983D01*
X241102Y206047D01*
X240990Y206114D01*
X240879Y206185D01*
X240771Y206258D01*
X240665Y206335D01*
X240562Y206415D01*
X240461Y206498D01*
X240362Y206584D01*
X240266Y206673D01*
X240173Y206765D01*
X240083Y206860D01*
X239995Y206957D01*
X239910Y207057D01*
X239829Y207159D01*
X239750Y207264D01*
X239675Y207371D01*
X239603Y207480D01*
X239534Y207592D01*
X239469Y207705D01*
X239407Y207820D01*
X239348Y207937D01*
X239293Y208056D01*
X239242Y208176D01*
X239194Y208298D01*
X239150Y208421D01*
X239109Y208546D01*
X239073Y208671D01*
X239040Y208798D01*
X239011Y208926D01*
X238985Y209054D01*
X238964Y209183D01*
X238946Y209313D01*
X238933Y209443D01*
X238923Y209573D01*
X238917Y209704D01*
X238915Y209835D01*
X239789Y217709D02*
X239791Y217827D01*
X239797Y217945D01*
X239807Y218063D01*
X239821Y218180D01*
X239839Y218297D01*
X239861Y218414D01*
X239886Y218529D01*
X239916Y218643D01*
X239950Y218757D01*
X239987Y218869D01*
X240028Y218980D01*
X240073Y219089D01*
X240121Y219197D01*
X240173Y219303D01*
X240229Y219408D01*
X240288Y219510D01*
X240350Y219610D01*
X240416Y219708D01*
X240485Y219804D01*
X240558Y219898D01*
X240633Y219989D01*
X240712Y220077D01*
X240793Y220163D01*
X240878Y220246D01*
X240965Y220326D01*
X241054Y220403D01*
X241147Y220477D01*
X241241Y220547D01*
X241338Y220615D01*
X241438Y220679D01*
X241539Y220740D01*
X241642Y220797D01*
X241748Y220851D01*
X241855Y220902D01*
X241963Y220948D01*
X242073Y220991D01*
X242185Y221030D01*
X242298Y221066D01*
X242412Y221097D01*
X242527Y221125D01*
X242642Y221149D01*
X242759Y221169D01*
X242876Y221185D01*
X242994Y221197D01*
X243112Y221205D01*
X243230Y221209D01*
X243348Y221209D01*
X243466Y221205D01*
X243584Y221197D01*
X243702Y221185D01*
X243819Y221169D01*
X243936Y221149D01*
X244051Y221125D01*
X244166Y221097D01*
X244280Y221066D01*
X244393Y221030D01*
X244505Y220991D01*
X244615Y220948D01*
X244723Y220902D01*
X244830Y220851D01*
X244936Y220797D01*
X245039Y220740D01*
X245140Y220679D01*
X245240Y220615D01*
X245337Y220547D01*
X245431Y220477D01*
X245524Y220403D01*
X245613Y220326D01*
X245700Y220246D01*
X245785Y220163D01*
X245866Y220077D01*
X245945Y219989D01*
X246020Y219898D01*
X246093Y219804D01*
X246162Y219708D01*
X246228Y219610D01*
X246290Y219510D01*
X246349Y219408D01*
X246405Y219303D01*
X246457Y219197D01*
X246505Y219089D01*
X246550Y218980D01*
X246591Y218869D01*
X246628Y218757D01*
X246662Y218643D01*
X246692Y218529D01*
X246717Y218414D01*
X246739Y218297D01*
X246757Y218180D01*
X246771Y218063D01*
X246781Y217945D01*
X246787Y217827D01*
X246789Y217709D01*
X246787Y217591D01*
X246781Y217473D01*
X246771Y217355D01*
X246757Y217238D01*
X246739Y217121D01*
X246717Y217004D01*
X246692Y216889D01*
X246662Y216775D01*
X246628Y216661D01*
X246591Y216549D01*
X246550Y216438D01*
X246505Y216329D01*
X246457Y216221D01*
X246405Y216115D01*
X246349Y216010D01*
X246290Y215908D01*
X246228Y215808D01*
X246162Y215710D01*
X246093Y215614D01*
X246020Y215520D01*
X245945Y215429D01*
X245866Y215341D01*
X245785Y215255D01*
X245700Y215172D01*
X245613Y215092D01*
X245524Y215015D01*
X245431Y214941D01*
X245337Y214871D01*
X245240Y214803D01*
X245140Y214739D01*
X245039Y214678D01*
X244936Y214621D01*
X244830Y214567D01*
X244723Y214516D01*
X244615Y214470D01*
X244505Y214427D01*
X244393Y214388D01*
X244280Y214352D01*
X244166Y214321D01*
X244051Y214293D01*
X243936Y214269D01*
X243819Y214249D01*
X243702Y214233D01*
X243584Y214221D01*
X243466Y214213D01*
X243348Y214209D01*
X243230Y214209D01*
X243112Y214213D01*
X242994Y214221D01*
X242876Y214233D01*
X242759Y214249D01*
X242642Y214269D01*
X242527Y214293D01*
X242412Y214321D01*
X242298Y214352D01*
X242185Y214388D01*
X242073Y214427D01*
X241963Y214470D01*
X241855Y214516D01*
X241748Y214567D01*
X241642Y214621D01*
X241539Y214678D01*
X241438Y214739D01*
X241338Y214803D01*
X241241Y214871D01*
X241147Y214941D01*
X241054Y215015D01*
X240965Y215092D01*
X240878Y215172D01*
X240793Y215255D01*
X240712Y215341D01*
X240633Y215429D01*
X240558Y215520D01*
X240485Y215614D01*
X240416Y215710D01*
X240350Y215808D01*
X240288Y215908D01*
X240229Y216010D01*
X240173Y216115D01*
X240121Y216221D01*
X240073Y216329D01*
X240028Y216438D01*
X239987Y216549D01*
X239950Y216661D01*
X239916Y216775D01*
X239886Y216889D01*
X239861Y217004D01*
X239839Y217121D01*
X239821Y217238D01*
X239807Y217355D01*
X239797Y217473D01*
X239791Y217591D01*
X239789Y217709D01*
X253857Y203711D02*
X260856Y203711D01*
X269862Y205461D02*
X266362Y215960D01*
X273361Y215960D02*
X269862Y205461D01*
X279555Y217709D02*
X283930Y221209D01*
X283930Y205461D01*
X288304Y205461D02*
X279555Y205461D01*
X145296Y190602D02*
X145294Y190726D01*
X145288Y190849D01*
X145279Y190973D01*
X145265Y191095D01*
X145248Y191218D01*
X145226Y191340D01*
X145201Y191461D01*
X145172Y191581D01*
X145140Y191700D01*
X145103Y191819D01*
X145063Y191936D01*
X145020Y192051D01*
X144972Y192166D01*
X144921Y192278D01*
X144867Y192389D01*
X144809Y192499D01*
X144748Y192606D01*
X144683Y192712D01*
X144615Y192815D01*
X144544Y192916D01*
X144470Y193015D01*
X144393Y193112D01*
X144312Y193206D01*
X144229Y193297D01*
X144143Y193386D01*
X144054Y193472D01*
X143963Y193555D01*
X143869Y193636D01*
X143772Y193713D01*
X143673Y193787D01*
X143572Y193858D01*
X143469Y193926D01*
X143363Y193991D01*
X143256Y194052D01*
X143146Y194110D01*
X143035Y194164D01*
X142923Y194215D01*
X142808Y194263D01*
X142693Y194306D01*
X142576Y194346D01*
X142457Y194383D01*
X142338Y194415D01*
X142218Y194444D01*
X142097Y194469D01*
X141975Y194491D01*
X141852Y194508D01*
X141730Y194522D01*
X141606Y194531D01*
X141483Y194537D01*
X141359Y194539D01*
X141218Y194537D01*
X141076Y194531D01*
X140935Y194521D01*
X140795Y194507D01*
X140655Y194490D01*
X140515Y194468D01*
X140376Y194443D01*
X140238Y194413D01*
X140100Y194380D01*
X139964Y194343D01*
X139828Y194302D01*
X139694Y194257D01*
X139562Y194209D01*
X139430Y194157D01*
X139300Y194101D01*
X139172Y194042D01*
X139045Y193979D01*
X138921Y193912D01*
X138798Y193843D01*
X138677Y193769D01*
X138558Y193693D01*
X138441Y193613D01*
X138327Y193530D01*
X138215Y193443D01*
X138106Y193354D01*
X137999Y193262D01*
X137894Y193166D01*
X137793Y193068D01*
X137694Y192967D01*
X137598Y192863D01*
X137505Y192757D01*
X137415Y192648D01*
X137328Y192536D01*
X137244Y192422D01*
X137164Y192306D01*
X137086Y192188D01*
X137012Y192067D01*
X136942Y191945D01*
X136875Y191821D01*
X136811Y191694D01*
X136751Y191566D01*
X136694Y191437D01*
X136642Y191306D01*
X136592Y191173D01*
X136547Y191039D01*
X143985Y187540D02*
X144075Y187628D01*
X144163Y187720D01*
X144248Y187814D01*
X144330Y187911D01*
X144409Y188010D01*
X144486Y188111D01*
X144559Y188215D01*
X144629Y188320D01*
X144696Y188428D01*
X144759Y188538D01*
X144819Y188650D01*
X144876Y188763D01*
X144930Y188878D01*
X144980Y188995D01*
X145026Y189113D01*
X145069Y189232D01*
X145108Y189353D01*
X145144Y189474D01*
X145176Y189597D01*
X145204Y189721D01*
X145229Y189845D01*
X145250Y189970D01*
X145267Y190096D01*
X145280Y190222D01*
X145289Y190348D01*
X145295Y190475D01*
X145297Y190602D01*
X143984Y187540D02*
X136547Y178791D01*
X145296Y178791D01*
X152179Y191039D02*
X156553Y194539D01*
X156553Y178791D01*
X152179Y178791D02*
X160928Y178791D01*
X167810Y186665D02*
X167814Y186975D01*
X167825Y187284D01*
X167843Y187594D01*
X167869Y187902D01*
X167902Y188210D01*
X167943Y188518D01*
X167991Y188824D01*
X168046Y189129D01*
X168108Y189432D01*
X168178Y189734D01*
X168255Y190034D01*
X168339Y190332D01*
X168430Y190628D01*
X168528Y190922D01*
X168633Y191214D01*
X168745Y191503D01*
X168864Y191789D01*
X168990Y192072D01*
X169122Y192352D01*
X169160Y192457D01*
X169202Y192560D01*
X169247Y192662D01*
X169295Y192763D01*
X169347Y192861D01*
X169403Y192958D01*
X169461Y193053D01*
X169523Y193146D01*
X169588Y193236D01*
X169657Y193324D01*
X169728Y193410D01*
X169802Y193494D01*
X169879Y193574D01*
X169958Y193653D01*
X170041Y193728D01*
X170126Y193800D01*
X170213Y193870D01*
X170303Y193936D01*
X170394Y193999D01*
X170488Y194059D01*
X170584Y194116D01*
X170682Y194170D01*
X170782Y194220D01*
X170883Y194266D01*
X170986Y194309D01*
X171091Y194349D01*
X171196Y194385D01*
X171303Y194417D01*
X171411Y194445D01*
X171520Y194470D01*
X171629Y194491D01*
X171739Y194508D01*
X171850Y194522D01*
X171961Y194531D01*
X172072Y194537D01*
X172184Y194539D01*
X172296Y194537D01*
X172407Y194531D01*
X172518Y194522D01*
X172629Y194508D01*
X172739Y194491D01*
X172849Y194470D01*
X172957Y194445D01*
X173065Y194417D01*
X173172Y194385D01*
X173277Y194349D01*
X173382Y194309D01*
X173485Y194266D01*
X173586Y194220D01*
X173686Y194170D01*
X173784Y194116D01*
X173880Y194059D01*
X173974Y193999D01*
X174065Y193936D01*
X174155Y193870D01*
X174242Y193800D01*
X174327Y193728D01*
X174410Y193653D01*
X174489Y193574D01*
X174566Y193494D01*
X174640Y193410D01*
X174711Y193324D01*
X174780Y193236D01*
X174845Y193146D01*
X174907Y193053D01*
X174965Y192958D01*
X175021Y192861D01*
X175073Y192763D01*
X175121Y192662D01*
X175166Y192560D01*
X175208Y192457D01*
X175246Y192352D01*
X175247Y192352D02*
X175379Y192072D01*
X175505Y191788D01*
X175624Y191502D01*
X175736Y191213D01*
X175841Y190922D01*
X175939Y190628D01*
X176030Y190332D01*
X176114Y190034D01*
X176191Y189734D01*
X176261Y189432D01*
X176323Y189128D01*
X176378Y188824D01*
X176426Y188518D01*
X176467Y188210D01*
X176500Y187902D01*
X176526Y187594D01*
X176544Y187284D01*
X176555Y186975D01*
X176559Y186665D01*
X167810Y186665D02*
X167814Y186355D01*
X167825Y186046D01*
X167843Y185736D01*
X167869Y185428D01*
X167902Y185120D01*
X167943Y184812D01*
X167991Y184506D01*
X168046Y184201D01*
X168108Y183898D01*
X168178Y183596D01*
X168255Y183296D01*
X168339Y182998D01*
X168430Y182702D01*
X168528Y182408D01*
X168633Y182116D01*
X168745Y181827D01*
X168864Y181541D01*
X168990Y181258D01*
X169122Y180978D01*
X169160Y180873D01*
X169202Y180770D01*
X169247Y180668D01*
X169295Y180567D01*
X169347Y180469D01*
X169403Y180372D01*
X169461Y180277D01*
X169523Y180184D01*
X169588Y180094D01*
X169657Y180006D01*
X169728Y179920D01*
X169802Y179836D01*
X169879Y179756D01*
X169958Y179677D01*
X170041Y179602D01*
X170126Y179530D01*
X170213Y179460D01*
X170303Y179394D01*
X170394Y179331D01*
X170488Y179271D01*
X170584Y179214D01*
X170682Y179160D01*
X170782Y179110D01*
X170883Y179064D01*
X170986Y179021D01*
X171091Y178981D01*
X171196Y178945D01*
X171303Y178913D01*
X171411Y178885D01*
X171520Y178860D01*
X171629Y178839D01*
X171739Y178822D01*
X171850Y178808D01*
X171961Y178799D01*
X172072Y178793D01*
X172184Y178791D01*
X175247Y180978D02*
X175379Y181258D01*
X175505Y181541D01*
X175624Y181827D01*
X175736Y182116D01*
X175841Y182408D01*
X175939Y182702D01*
X176030Y182998D01*
X176114Y183296D01*
X176191Y183596D01*
X176261Y183898D01*
X176323Y184201D01*
X176378Y184506D01*
X176426Y184812D01*
X176467Y185120D01*
X176500Y185428D01*
X176526Y185736D01*
X176544Y186046D01*
X176555Y186355D01*
X176559Y186665D01*
X175246Y180978D02*
X175208Y180873D01*
X175166Y180770D01*
X175121Y180668D01*
X175073Y180567D01*
X175021Y180469D01*
X174965Y180372D01*
X174907Y180277D01*
X174845Y180184D01*
X174780Y180094D01*
X174711Y180006D01*
X174640Y179920D01*
X174566Y179836D01*
X174489Y179756D01*
X174410Y179677D01*
X174327Y179602D01*
X174242Y179530D01*
X174155Y179460D01*
X174065Y179394D01*
X173974Y179331D01*
X173880Y179271D01*
X173784Y179214D01*
X173686Y179160D01*
X173586Y179110D01*
X173485Y179064D01*
X173382Y179021D01*
X173277Y178981D01*
X173172Y178945D01*
X173065Y178913D01*
X172957Y178885D01*
X172848Y178860D01*
X172739Y178839D01*
X172629Y178822D01*
X172518Y178808D01*
X172407Y178799D01*
X172296Y178793D01*
X172184Y178791D01*
X168685Y182291D02*
X175684Y191039D01*
X186941Y185790D02*
X192190Y185790D01*
X186941Y185790D02*
X186824Y185792D01*
X186707Y185798D01*
X186591Y185808D01*
X186474Y185821D01*
X186359Y185839D01*
X186244Y185860D01*
X186130Y185885D01*
X186016Y185914D01*
X185904Y185947D01*
X185793Y185984D01*
X185683Y186024D01*
X185575Y186068D01*
X185468Y186115D01*
X185362Y186166D01*
X185259Y186221D01*
X185157Y186279D01*
X185058Y186340D01*
X184960Y186404D01*
X184865Y186472D01*
X184772Y186543D01*
X184681Y186617D01*
X184593Y186694D01*
X184508Y186774D01*
X184425Y186857D01*
X184345Y186942D01*
X184268Y187030D01*
X184194Y187121D01*
X184123Y187214D01*
X184055Y187309D01*
X183991Y187407D01*
X183930Y187506D01*
X183872Y187608D01*
X183817Y187711D01*
X183766Y187817D01*
X183719Y187924D01*
X183675Y188032D01*
X183635Y188142D01*
X183598Y188253D01*
X183565Y188365D01*
X183536Y188479D01*
X183511Y188593D01*
X183490Y188708D01*
X183472Y188823D01*
X183459Y188940D01*
X183449Y189056D01*
X183443Y189173D01*
X183441Y189290D01*
X183441Y190165D01*
X183442Y190165D02*
X183444Y190296D01*
X183450Y190427D01*
X183460Y190557D01*
X183473Y190687D01*
X183491Y190817D01*
X183512Y190946D01*
X183538Y191074D01*
X183567Y191202D01*
X183600Y191329D01*
X183636Y191454D01*
X183677Y191579D01*
X183721Y191702D01*
X183769Y191824D01*
X183820Y191944D01*
X183875Y192063D01*
X183934Y192180D01*
X183996Y192295D01*
X184061Y192408D01*
X184130Y192520D01*
X184202Y192629D01*
X184277Y192736D01*
X184356Y192841D01*
X184437Y192943D01*
X184522Y193043D01*
X184610Y193140D01*
X184700Y193235D01*
X184793Y193327D01*
X184889Y193416D01*
X184988Y193502D01*
X185089Y193585D01*
X185192Y193665D01*
X185298Y193742D01*
X185406Y193815D01*
X185517Y193886D01*
X185629Y193953D01*
X185743Y194017D01*
X185859Y194077D01*
X185977Y194134D01*
X186097Y194187D01*
X186218Y194237D01*
X186341Y194283D01*
X186464Y194325D01*
X186589Y194363D01*
X186716Y194398D01*
X186843Y194429D01*
X186971Y194457D01*
X187099Y194480D01*
X187229Y194499D01*
X187359Y194515D01*
X187489Y194527D01*
X187620Y194535D01*
X187751Y194539D01*
X187881Y194539D01*
X188012Y194535D01*
X188143Y194527D01*
X188273Y194515D01*
X188403Y194499D01*
X188533Y194480D01*
X188661Y194457D01*
X188789Y194429D01*
X188916Y194398D01*
X189043Y194363D01*
X189168Y194325D01*
X189291Y194283D01*
X189414Y194237D01*
X189535Y194187D01*
X189655Y194134D01*
X189773Y194077D01*
X189889Y194017D01*
X190003Y193953D01*
X190115Y193886D01*
X190226Y193815D01*
X190334Y193742D01*
X190440Y193665D01*
X190543Y193585D01*
X190644Y193502D01*
X190743Y193416D01*
X190839Y193327D01*
X190932Y193235D01*
X191022Y193140D01*
X191110Y193043D01*
X191195Y192943D01*
X191276Y192841D01*
X191355Y192736D01*
X191430Y192629D01*
X191502Y192520D01*
X191571Y192408D01*
X191636Y192295D01*
X191698Y192180D01*
X191757Y192063D01*
X191812Y191944D01*
X191863Y191824D01*
X191911Y191702D01*
X191955Y191579D01*
X191996Y191454D01*
X192032Y191329D01*
X192065Y191202D01*
X192094Y191074D01*
X192120Y190946D01*
X192141Y190817D01*
X192159Y190687D01*
X192172Y190557D01*
X192182Y190427D01*
X192188Y190296D01*
X192190Y190165D01*
X192190Y185790D01*
X192188Y185621D01*
X192182Y185452D01*
X192172Y185283D01*
X192157Y185114D01*
X192139Y184946D01*
X192117Y184779D01*
X192090Y184612D01*
X192060Y184445D01*
X192025Y184280D01*
X191987Y184115D01*
X191944Y183951D01*
X191898Y183789D01*
X191847Y183627D01*
X191793Y183467D01*
X191735Y183308D01*
X191673Y183151D01*
X191608Y182995D01*
X191538Y182841D01*
X191465Y182688D01*
X191388Y182537D01*
X191308Y182389D01*
X191224Y182242D01*
X191136Y182097D01*
X191045Y181954D01*
X190951Y181814D01*
X190853Y181676D01*
X190752Y181540D01*
X190648Y181407D01*
X190540Y181277D01*
X190430Y181149D01*
X190316Y181024D01*
X190199Y180901D01*
X190080Y180782D01*
X189957Y180665D01*
X189832Y180551D01*
X189704Y180441D01*
X189574Y180333D01*
X189441Y180229D01*
X189305Y180128D01*
X189167Y180030D01*
X189027Y179936D01*
X188884Y179845D01*
X188739Y179757D01*
X188592Y179673D01*
X188444Y179593D01*
X188293Y179516D01*
X188140Y179443D01*
X187986Y179373D01*
X187830Y179308D01*
X187673Y179246D01*
X187514Y179188D01*
X187354Y179134D01*
X187192Y179083D01*
X187030Y179037D01*
X186866Y178994D01*
X186701Y178956D01*
X186536Y178921D01*
X186369Y178891D01*
X186202Y178864D01*
X186035Y178842D01*
X185866Y178824D01*
X185698Y178809D01*
X185529Y178799D01*
X185360Y178793D01*
X185191Y178791D01*
X199072Y186665D02*
X199076Y186975D01*
X199087Y187284D01*
X199105Y187594D01*
X199131Y187902D01*
X199164Y188210D01*
X199205Y188518D01*
X199253Y188824D01*
X199308Y189129D01*
X199370Y189432D01*
X199440Y189734D01*
X199517Y190034D01*
X199601Y190332D01*
X199692Y190628D01*
X199790Y190922D01*
X199895Y191214D01*
X200007Y191503D01*
X200126Y191789D01*
X200252Y192072D01*
X200384Y192352D01*
X200385Y192352D02*
X200423Y192457D01*
X200465Y192560D01*
X200510Y192662D01*
X200558Y192763D01*
X200610Y192861D01*
X200666Y192958D01*
X200724Y193053D01*
X200786Y193146D01*
X200851Y193236D01*
X200920Y193324D01*
X200991Y193410D01*
X201065Y193494D01*
X201142Y193574D01*
X201221Y193653D01*
X201304Y193728D01*
X201389Y193800D01*
X201476Y193870D01*
X201566Y193936D01*
X201657Y193999D01*
X201751Y194059D01*
X201847Y194116D01*
X201945Y194170D01*
X202045Y194220D01*
X202146Y194266D01*
X202249Y194309D01*
X202354Y194349D01*
X202459Y194385D01*
X202566Y194417D01*
X202674Y194445D01*
X202783Y194470D01*
X202892Y194491D01*
X203002Y194508D01*
X203113Y194522D01*
X203224Y194531D01*
X203335Y194537D01*
X203447Y194539D01*
X203559Y194537D01*
X203670Y194531D01*
X203781Y194522D01*
X203892Y194508D01*
X204002Y194491D01*
X204112Y194470D01*
X204220Y194445D01*
X204328Y194417D01*
X204435Y194385D01*
X204540Y194349D01*
X204645Y194309D01*
X204748Y194266D01*
X204849Y194220D01*
X204949Y194170D01*
X205047Y194116D01*
X205143Y194059D01*
X205237Y193999D01*
X205328Y193936D01*
X205418Y193870D01*
X205505Y193800D01*
X205590Y193728D01*
X205673Y193653D01*
X205752Y193574D01*
X205829Y193494D01*
X205903Y193410D01*
X205974Y193324D01*
X206043Y193236D01*
X206108Y193146D01*
X206170Y193053D01*
X206228Y192958D01*
X206284Y192861D01*
X206336Y192763D01*
X206384Y192662D01*
X206429Y192560D01*
X206471Y192457D01*
X206509Y192352D01*
X206641Y192072D01*
X206767Y191788D01*
X206886Y191502D01*
X206998Y191213D01*
X207103Y190922D01*
X207201Y190628D01*
X207292Y190332D01*
X207376Y190034D01*
X207453Y189734D01*
X207523Y189432D01*
X207585Y189128D01*
X207640Y188824D01*
X207688Y188518D01*
X207729Y188210D01*
X207762Y187902D01*
X207788Y187594D01*
X207806Y187284D01*
X207817Y186975D01*
X207821Y186665D01*
X199072Y186665D02*
X199076Y186355D01*
X199087Y186046D01*
X199105Y185736D01*
X199131Y185428D01*
X199164Y185120D01*
X199205Y184812D01*
X199253Y184506D01*
X199308Y184201D01*
X199370Y183898D01*
X199440Y183596D01*
X199517Y183296D01*
X199601Y182998D01*
X199692Y182702D01*
X199790Y182408D01*
X199895Y182116D01*
X200007Y181827D01*
X200126Y181541D01*
X200252Y181258D01*
X200384Y180978D01*
X200385Y180978D02*
X200423Y180873D01*
X200465Y180770D01*
X200510Y180668D01*
X200558Y180567D01*
X200610Y180469D01*
X200666Y180372D01*
X200724Y180277D01*
X200786Y180184D01*
X200851Y180094D01*
X200920Y180006D01*
X200991Y179920D01*
X201065Y179836D01*
X201142Y179756D01*
X201221Y179677D01*
X201304Y179602D01*
X201389Y179530D01*
X201476Y179460D01*
X201566Y179394D01*
X201657Y179331D01*
X201751Y179271D01*
X201847Y179214D01*
X201945Y179160D01*
X202045Y179110D01*
X202146Y179064D01*
X202249Y179021D01*
X202354Y178981D01*
X202459Y178945D01*
X202566Y178913D01*
X202674Y178885D01*
X202783Y178860D01*
X202892Y178839D01*
X203002Y178822D01*
X203113Y178808D01*
X203224Y178799D01*
X203335Y178793D01*
X203447Y178791D01*
X206510Y180978D02*
X206642Y181258D01*
X206768Y181541D01*
X206887Y181827D01*
X206999Y182116D01*
X207104Y182408D01*
X207202Y182702D01*
X207293Y182998D01*
X207377Y183296D01*
X207454Y183596D01*
X207524Y183898D01*
X207586Y184201D01*
X207641Y184506D01*
X207689Y184812D01*
X207730Y185120D01*
X207763Y185428D01*
X207789Y185736D01*
X207807Y186046D01*
X207818Y186355D01*
X207822Y186665D01*
X206509Y180978D02*
X206471Y180873D01*
X206429Y180770D01*
X206384Y180668D01*
X206336Y180567D01*
X206284Y180469D01*
X206228Y180372D01*
X206170Y180277D01*
X206108Y180184D01*
X206043Y180094D01*
X205974Y180006D01*
X205903Y179920D01*
X205829Y179836D01*
X205752Y179756D01*
X205673Y179677D01*
X205590Y179602D01*
X205505Y179530D01*
X205418Y179460D01*
X205328Y179394D01*
X205237Y179331D01*
X205143Y179271D01*
X205047Y179214D01*
X204949Y179160D01*
X204849Y179110D01*
X204748Y179064D01*
X204645Y179021D01*
X204540Y178981D01*
X204435Y178945D01*
X204328Y178913D01*
X204220Y178885D01*
X204111Y178860D01*
X204002Y178839D01*
X203892Y178822D01*
X203781Y178808D01*
X203670Y178799D01*
X203559Y178793D01*
X203447Y178791D01*
X199947Y182291D02*
X206946Y191039D01*
X214704Y191039D02*
X219078Y194539D01*
X219078Y178791D01*
X214704Y178791D02*
X223453Y178791D01*
D11*
X300000Y230000D02*
X60000Y230000D01*
X300000Y230000D02*
X300000Y170000D01*
X60000Y170000D01*
X60000Y230000D01*
M02*
