G04 EAGLE Gerber RS-274X export*
G75*
%MOMM*%
%FSLAX34Y34*%
%LPD*%
%INSoldermask Top*%
%IPPOS*%
%AMOC8*
5,1,8,0,0,1.08239X$1,22.5*%
G01*
%ADD10C,2.387600*%
%ADD11P,1.869504X8X202.500000*%
%ADD12C,1.727200*%
%ADD13C,1.524000*%
%ADD14C,0.959600*%


D10*
X598000Y450922D02*
X598000Y429078D01*
X560922Y470000D02*
X539078Y470000D01*
X539078Y410000D02*
X560922Y410000D01*
D11*
X50000Y50000D03*
X250000Y450000D03*
X450000Y450000D03*
X650000Y450000D03*
X50000Y650000D03*
X250000Y650000D03*
X450000Y650000D03*
X650000Y650000D03*
X80000Y50000D03*
X650000Y80000D03*
X620000Y650000D03*
X250000Y50000D03*
X50000Y620000D03*
X50000Y80000D03*
X620000Y50000D03*
X650000Y620000D03*
X80000Y650000D03*
D12*
X642380Y286500D02*
X657620Y286500D01*
X657620Y311900D02*
X642380Y311900D01*
X642380Y337300D02*
X657620Y337300D01*
X657620Y362700D02*
X642380Y362700D01*
X642380Y388100D02*
X657620Y388100D01*
X657620Y413500D02*
X642380Y413500D01*
D11*
X450000Y50000D03*
X650000Y50000D03*
X50000Y250000D03*
X250000Y250000D03*
X450000Y250000D03*
X650000Y250000D03*
X50000Y450000D03*
D13*
X464300Y318504D02*
X464300Y305296D01*
X438900Y305296D02*
X438900Y318504D01*
X311900Y318504D02*
X311900Y305296D01*
X286500Y305296D02*
X286500Y318504D01*
X413500Y318504D02*
X413500Y305296D01*
X388100Y305296D02*
X388100Y318504D01*
X337300Y318504D02*
X337300Y305296D01*
X362700Y305296D02*
X362700Y318504D01*
X261100Y318504D02*
X261100Y305296D01*
X235700Y305296D02*
X235700Y318504D01*
X235700Y381496D02*
X235700Y394704D01*
X261100Y394704D02*
X261100Y381496D01*
X286500Y381496D02*
X286500Y394704D01*
X311900Y394704D02*
X311900Y381496D01*
X337300Y381496D02*
X337300Y394704D01*
X362700Y394704D02*
X362700Y381496D01*
X388100Y381496D02*
X388100Y394704D01*
X413500Y394704D02*
X413500Y381496D01*
X438900Y381496D02*
X438900Y394704D01*
X464300Y394704D02*
X464300Y381496D01*
D14*
X60000Y185000D03*
X185000Y40000D03*
X515000Y60000D03*
X640000Y515000D03*
X185000Y640000D03*
X20000Y100000D03*
X20000Y50000D03*
X50000Y20000D03*
X100000Y20000D03*
X150000Y20000D03*
X200000Y20000D03*
X250000Y20000D03*
X300000Y20000D03*
X350000Y20000D03*
X400000Y20000D03*
X450000Y20000D03*
X500000Y20000D03*
X550000Y20000D03*
X600000Y20000D03*
X650000Y20000D03*
X680000Y50000D03*
X680000Y100000D03*
X680000Y150000D03*
X680000Y200000D03*
X680000Y250000D03*
X680000Y300000D03*
X680000Y350000D03*
X680000Y400000D03*
X680000Y450000D03*
X680000Y500000D03*
X680000Y550000D03*
X680000Y600000D03*
X680000Y650000D03*
X650000Y680000D03*
X600000Y680000D03*
X550000Y680000D03*
X500000Y680000D03*
X450000Y680000D03*
X400000Y680000D03*
X350000Y680000D03*
X300000Y680000D03*
X250000Y680000D03*
X200000Y680000D03*
X150000Y680000D03*
X100000Y680000D03*
X50000Y680000D03*
X20000Y650000D03*
X20000Y600000D03*
X20000Y550000D03*
X20000Y500000D03*
X20000Y450000D03*
X20000Y400000D03*
X20000Y350000D03*
X20000Y300000D03*
X20000Y250000D03*
X20000Y200000D03*
X20000Y150000D03*
X100000Y250000D03*
X150000Y150000D03*
X200000Y150000D03*
X200000Y100000D03*
X250000Y100000D03*
X450000Y100000D03*
X500000Y100000D03*
X500000Y150000D03*
X450000Y150000D03*
X400000Y100000D03*
X600000Y250000D03*
X150000Y450000D03*
X100000Y450000D03*
X200000Y500000D03*
X250000Y550000D03*
X200000Y600000D03*
X450000Y600000D03*
X500000Y600000D03*
X450000Y500000D03*
X500000Y400000D03*
X600000Y350000D03*
X600000Y300000D03*
X200000Y300000D03*
X300000Y150000D03*
X300000Y500000D03*
X150000Y500000D03*
X150000Y600000D03*
X350000Y250000D03*
X350000Y450000D03*
X350000Y650000D03*
X350000Y50000D03*
X50000Y350000D03*
X95000Y60000D03*
X640000Y95000D03*
X605000Y640000D03*
X60000Y605000D03*
X42500Y185000D03*
X185000Y57500D03*
X515000Y42500D03*
X642500Y185000D03*
X657500Y515000D03*
X515000Y642500D03*
X185000Y657500D03*
X57500Y515000D03*
X215000Y357500D03*
X517500Y340000D03*
X360000Y230000D03*
X340000Y160000D03*
X610000Y190000D03*
X320000Y100000D03*
X340000Y270000D03*
X340000Y140000D03*
X30000Y340000D03*
X350000Y150000D03*
X565000Y135000D03*
X390000Y160000D03*
X360000Y30000D03*
X380000Y100000D03*
X340000Y70000D03*
X390000Y140000D03*
X135000Y135000D03*
X360000Y160000D03*
X360000Y630000D03*
X360000Y562500D03*
X565000Y565000D03*
X320000Y540000D03*
X340000Y670000D03*
X375000Y562500D03*
X135000Y565000D03*
X360000Y540000D03*
X610000Y470000D03*
X395000Y550000D03*
X360000Y430000D03*
X390000Y537500D03*
X340000Y470000D03*
X390000Y500000D03*
X70000Y360000D03*
X400000Y562500D03*
X110000Y300000D03*
X607500Y537500D03*
X120000Y290000D03*
X537500Y95000D03*
X170000Y300000D03*
X552500Y607500D03*
X170000Y270000D03*
X607500Y147500D03*
X295000Y572500D03*
X275000Y572500D03*
X150000Y300000D03*
X92500Y552500D03*
X140000Y400000D03*
X130000Y410000D03*
X110000Y400000D03*
X90000Y410000D03*
M02*
