G04 EAGLE Gerber RS-274X export*
G75*
%MOMM*%
%FSLAX34Y34*%
%LPD*%
%INSolderpaste Bottom*%
%IPPOS*%
%AMOC8*
5,1,8,0,0,1.08239X$1,22.5*%
G01*
%ADD10R,1.100000X1.000000*%
%ADD11R,1.000000X1.100000*%
%ADD12R,1.400000X1.000000*%
%ADD13R,0.660400X2.032000*%
%ADD14R,0.787400X0.889000*%
%ADD15R,0.889000X0.787400*%
%ADD16R,0.900000X0.600000*%
%ADD17R,0.600000X0.900000*%


D10*
X558500Y380000D03*
X541500Y380000D03*
X558500Y320000D03*
X541500Y320000D03*
D11*
X500000Y341500D03*
X500000Y358500D03*
X420000Y158500D03*
X420000Y141500D03*
X420000Y558500D03*
X420000Y541500D03*
X200000Y358500D03*
X200000Y341500D03*
D12*
X539000Y350000D03*
X561000Y340500D03*
X561000Y359500D03*
D13*
X394450Y119266D03*
X394450Y180734D03*
X381750Y119266D03*
X369050Y119266D03*
X381750Y180734D03*
X369050Y180734D03*
X356350Y119266D03*
X356350Y180734D03*
X343650Y119266D03*
X343650Y180734D03*
X330950Y119266D03*
X318250Y119266D03*
X330950Y180734D03*
X318250Y180734D03*
X305550Y119266D03*
X305550Y180734D03*
X394450Y519266D03*
X394450Y580734D03*
X381750Y519266D03*
X369050Y519266D03*
X381750Y580734D03*
X369050Y580734D03*
X356350Y519266D03*
X356350Y580734D03*
X343650Y519266D03*
X343650Y580734D03*
X330950Y519266D03*
X318250Y519266D03*
X330950Y580734D03*
X318250Y580734D03*
X305550Y519266D03*
X305550Y580734D03*
X174450Y319266D03*
X174450Y380734D03*
X161750Y319266D03*
X149050Y319266D03*
X161750Y380734D03*
X149050Y380734D03*
X136350Y319266D03*
X136350Y380734D03*
X123650Y319266D03*
X123650Y380734D03*
X110950Y319266D03*
X98250Y319266D03*
X110950Y380734D03*
X98250Y380734D03*
X85550Y319266D03*
X85550Y380734D03*
D11*
G36*
X88586Y96363D02*
X95657Y103434D01*
X103434Y95657D01*
X96363Y88586D01*
X88586Y96363D01*
G37*
G36*
X76566Y84343D02*
X83637Y91414D01*
X91414Y83637D01*
X84343Y76566D01*
X76566Y84343D01*
G37*
X298500Y450000D03*
X281500Y450000D03*
X401500Y450000D03*
X418500Y450000D03*
D10*
X650000Y498500D03*
X650000Y481500D03*
D11*
G36*
X96363Y611414D02*
X103434Y604343D01*
X95657Y596566D01*
X88586Y603637D01*
X96363Y611414D01*
G37*
G36*
X84343Y623434D02*
X91414Y616363D01*
X83637Y608586D01*
X76566Y615657D01*
X84343Y623434D01*
G37*
X298500Y650000D03*
X281500Y650000D03*
X401500Y650000D03*
X418500Y650000D03*
G36*
X611414Y603637D02*
X604343Y596566D01*
X596566Y604343D01*
X603637Y611414D01*
X611414Y603637D01*
G37*
G36*
X623434Y615657D02*
X616363Y608586D01*
X608586Y616363D01*
X615657Y623434D01*
X623434Y615657D01*
G37*
D10*
X150000Y41500D03*
X150000Y58500D03*
D11*
X658500Y150000D03*
X641500Y150000D03*
D10*
X550000Y658500D03*
X550000Y641500D03*
D11*
X298500Y50000D03*
X281500Y50000D03*
X41500Y550000D03*
X58500Y550000D03*
X58500Y150000D03*
X41500Y150000D03*
D10*
X550000Y58500D03*
X550000Y41500D03*
D11*
X641500Y550000D03*
X658500Y550000D03*
D10*
X150000Y641500D03*
X150000Y658500D03*
D11*
X401500Y50000D03*
X418500Y50000D03*
G36*
X603637Y88586D02*
X596566Y95657D01*
X604343Y103434D01*
X611414Y96363D01*
X603637Y88586D01*
G37*
G36*
X615657Y76566D02*
X608586Y83637D01*
X616363Y91414D01*
X623434Y84343D01*
X615657Y76566D01*
G37*
D10*
X50000Y298500D03*
X50000Y281500D03*
D11*
X298500Y250000D03*
X281500Y250000D03*
X401500Y250000D03*
X418500Y250000D03*
D10*
X650000Y201500D03*
X650000Y218500D03*
X50000Y401500D03*
X50000Y418500D03*
D14*
G36*
X120539Y140115D02*
X126106Y134548D01*
X119821Y128263D01*
X114254Y133830D01*
X120539Y140115D01*
G37*
G36*
X134189Y126465D02*
X139756Y120898D01*
X133471Y114613D01*
X127904Y120180D01*
X134189Y126465D01*
G37*
G36*
X112995Y118921D02*
X118562Y113354D01*
X112277Y107069D01*
X106710Y112636D01*
X112995Y118921D01*
G37*
D15*
X340160Y459906D03*
X340160Y440602D03*
X319840Y450254D03*
X359840Y440094D03*
X359840Y459398D03*
X380160Y449746D03*
X609840Y480094D03*
X609840Y499398D03*
X630160Y489746D03*
D14*
G36*
X140115Y579461D02*
X134548Y573894D01*
X128263Y580179D01*
X133830Y585746D01*
X140115Y579461D01*
G37*
G36*
X126465Y565811D02*
X120898Y560244D01*
X114613Y566529D01*
X120180Y572096D01*
X126465Y565811D01*
G37*
G36*
X118921Y587005D02*
X113354Y581438D01*
X107069Y587723D01*
X112636Y593290D01*
X118921Y587005D01*
G37*
D15*
X340160Y659906D03*
X340160Y640602D03*
X319840Y650254D03*
X359840Y640094D03*
X359840Y659398D03*
X380160Y649746D03*
D14*
G36*
X579461Y559885D02*
X573894Y565452D01*
X580179Y571737D01*
X585746Y566170D01*
X579461Y559885D01*
G37*
G36*
X565811Y573535D02*
X560244Y579102D01*
X566529Y585387D01*
X572096Y579820D01*
X565811Y573535D01*
G37*
G36*
X587005Y581079D02*
X581438Y586646D01*
X587723Y592931D01*
X593290Y587364D01*
X587005Y581079D01*
G37*
D16*
X131500Y59500D03*
X131500Y50000D03*
X131500Y40500D03*
X108500Y40500D03*
X108500Y50000D03*
X108500Y59500D03*
D17*
X640500Y131500D03*
X650000Y131500D03*
X659500Y131500D03*
X659500Y108500D03*
X650000Y108500D03*
X640500Y108500D03*
D16*
X568500Y640500D03*
X568500Y650000D03*
X568500Y659500D03*
X591500Y659500D03*
X591500Y650000D03*
X591500Y640500D03*
D15*
X340160Y59906D03*
X340160Y40602D03*
X319840Y50254D03*
D17*
X59500Y568500D03*
X50000Y568500D03*
X40500Y568500D03*
X40500Y591500D03*
X50000Y591500D03*
X59500Y591500D03*
X40500Y131500D03*
X50000Y131500D03*
X59500Y131500D03*
X59500Y108500D03*
X50000Y108500D03*
X40500Y108500D03*
D16*
X568500Y40500D03*
X568500Y50000D03*
X568500Y59500D03*
X591500Y59500D03*
X591500Y50000D03*
X591500Y40500D03*
D17*
X659500Y568500D03*
X650000Y568500D03*
X640500Y568500D03*
X640500Y591500D03*
X650000Y591500D03*
X659500Y591500D03*
D16*
X131500Y659500D03*
X131500Y650000D03*
X131500Y640500D03*
X108500Y640500D03*
X108500Y650000D03*
X108500Y659500D03*
D15*
X359840Y40094D03*
X359840Y59398D03*
X380160Y49746D03*
D14*
G36*
X559885Y120539D02*
X565452Y126106D01*
X571737Y119821D01*
X566170Y114254D01*
X559885Y120539D01*
G37*
G36*
X573535Y134189D02*
X579102Y139756D01*
X585387Y133471D01*
X579820Y127904D01*
X573535Y134189D01*
G37*
G36*
X581079Y112995D02*
X586646Y118562D01*
X592931Y112277D01*
X587364Y106710D01*
X581079Y112995D01*
G37*
X40094Y340160D03*
X59398Y340160D03*
X49746Y319840D03*
D15*
X340160Y259906D03*
X340160Y240602D03*
X319840Y250254D03*
X359840Y240094D03*
X359840Y259398D03*
X380160Y249746D03*
X609840Y200094D03*
X609840Y219398D03*
X630160Y209746D03*
D14*
X59906Y359840D03*
X40602Y359840D03*
X50254Y380160D03*
D11*
X111500Y77500D03*
X128500Y77500D03*
D10*
X622500Y111500D03*
X622500Y128500D03*
D11*
X588500Y622500D03*
X571500Y622500D03*
D10*
X77500Y588500D03*
X77500Y571500D03*
X77500Y111500D03*
X77500Y128500D03*
D11*
X588500Y77500D03*
X571500Y77500D03*
D10*
X622500Y588500D03*
X622500Y571500D03*
D11*
X111500Y622500D03*
X128500Y622500D03*
X163500Y77500D03*
X146500Y77500D03*
D10*
X622500Y163500D03*
X622500Y146500D03*
D11*
X536500Y622500D03*
X553500Y622500D03*
D10*
X77500Y536500D03*
X77500Y553500D03*
X77500Y146500D03*
X77500Y163500D03*
D11*
X553500Y77500D03*
X536500Y77500D03*
D10*
X622500Y553500D03*
X622500Y536500D03*
D11*
X146500Y622500D03*
X163500Y622500D03*
X170000Y58500D03*
X170000Y41500D03*
D10*
X641500Y170000D03*
X658500Y170000D03*
D11*
X530000Y641500D03*
X530000Y658500D03*
D10*
X58500Y530000D03*
X41500Y530000D03*
X41500Y170000D03*
X58500Y170000D03*
D11*
X530000Y41500D03*
X530000Y58500D03*
D10*
X658500Y530000D03*
X641500Y530000D03*
D11*
X170000Y658500D03*
X170000Y641500D03*
M02*
